<svg xmlns="http://www.w3.org/2000/svg" viewBox="0 0 25.28 24"><g id="Capa_2" data-name="Capa 2"><g id="Capa_1-2" data-name="Capa 1"><path d="M23.67,22.47H1.61V1.53H23.67ZM0,24H25.28V0H0Z"/><path d="M7.52,14.08,6.56,17H5.31L8.47,7.71H9.92L13.09,17H11.81l-1-2.92Zm3.05-.94-.92-2.67c-.2-.61-.34-1.17-.48-1.7h0c-.13.54-.28,1.11-.46,1.68l-.92,2.69Z"/><path d="M15.1,13.89a2.12,2.12,0,0,0,2.28,2.31,4.44,4.44,0,0,0,1.85-.34l.21.86a5.22,5.22,0,0,1-2.22.43,3.12,3.12,0,0,1-3.29-3.37c0-2,1.19-3.6,3.14-3.6,2.18,0,2.75,1.91,2.75,3.14a3.86,3.86,0,0,1,0,.57ZM18.65,13a1.72,1.72,0,0,0-1.67-2,2,2,0,0,0-1.87,2Z"/></g></g></svg>