<svg xmlns="http://www.w3.org/2000/svg" viewBox="0 0 42.37 20.23"><g id="Capa_2" data-name="Capa 2"><g id="Capa_1-2" data-name="Capa 1"><path d="M9.75,11a2.37,2.37,0,0,0-.19.25c-.15.28-.28.58-.44.85a1,1,0,0,0,.05,1.22c.08.12.15.25.24.41,0-.16.09-.3.13-.44.1-.43.17-.88.31-1.31a1.15,1.15,0,0,0-.1-1m26.64-1a9,9,0,0,0-1.61,2.93,1.75,1.75,0,0,0,0,.4l.44-.11s.07-.07.1-.1a6.63,6.63,0,0,0,1.41-2.26.2.2,0,0,0,0-.15c-.09-.23-.19-.46-.3-.71M3.11,12.62a2.72,2.72,0,0,0,.12.4c.15.36.45.43.67.13a3.6,3.6,0,0,0,.58-1.05,9.59,9.59,0,0,0,.34-1.61A1,1,0,0,0,4.65,10a.76.76,0,0,0-.39.12,3.6,3.6,0,0,0-1.15,2.54M16.8,12l0-.09s0-.06,0-.08c.26-.41.58-.78.27-1.33-.13-.23,0-.39.3-.47l.25-.11,0-.08a1.33,1.33,0,0,0-1,.33,15.59,15.59,0,0,0-1.3,1.39,1.68,1.68,0,0,0-.44,1.21.7.7,0,0,0,.49.58.38.38,0,0,0,.54-.2c.05-.09.09-.19.14-.28l.13.11-.13.37a1.6,1.6,0,0,0,1.26-.79,1.1,1.1,0,0,0,.09-1L16.8,12M10,5.9c.45-.22.35-.79.76-1.06C11,4.71,11,4.28,11,4s-.15-.38-.43-.34-.51.33-.72.56a7.93,7.93,0,0,0-1.6,3A5.25,5.25,0,0,0,8.1,8.51c0,.54,0,1.07,0,1.63.41-.12.69-.56,1.23-.51A2.07,2.07,0,0,0,9,9.82a4.12,4.12,0,0,1-.47.38c-.33.18-.46.36-.37.72s.22.74.35,1.2A7,7,0,0,0,9.59,8.71h.12c0,.12.09.24.13.37.55-.55,1.72-3.95,1.53-4.46a1.38,1.38,0,0,0-.23.26c-.16.31-.69.46-.38,1-.25.08-.42.45-.75.08m27,5.46c-.21.4-.38.77-.6,1.11a8.32,8.32,0,0,1-.87,1.09,1.22,1.22,0,0,1-.63.25c-.17,0-.34,0-.44.21,0,.05-.13.06-.21.1-.05-.4-.1-.76-.15-1.15l-.37.29c0-.23-.08-.41-.11-.6A2.29,2.29,0,0,0,32.59,14c0,.12,0,.25,0,.37a1,1,0,0,1-.09.21c-.07,0-.17-.07-.2-.13a1.56,1.56,0,0,1,0-.31c0-.24-.05-.47-.08-.7l-.09,0c-.27.32-.55.63-.79,1s-.46.71-.7,1c0,.06-.17.06-.23.08.08-.34.14-.62.21-.93.24,0,.39-.15.54-.41a4.47,4.47,0,0,1,.67-.78.76.76,0,0,0,0-1.08.33.33,0,0,0-.43-.06L28.9,13.68a4.32,4.32,0,0,1-.56.3.63.63,0,0,0-.4.7c-.24-.58-.62-.34-.93-.27a2.25,2.25,0,0,1-1.31,0,1.2,1.2,0,0,1-.6-1.75c.19-.44.38-.89.55-1.35a.36.36,0,0,0-.08-.32,1.2,1.2,0,0,0-.82-.16,3.57,3.57,0,0,0-1.36.29s-.11-.07-.17-.11a.8.8,0,0,1,.15-.2c.32-.19.65-.35,1-.54a3.37,3.37,0,0,0,.7-.58,4.86,4.86,0,0,0-.54,0c-.45.06-.91.13-1.36.22a.56.56,0,0,0-.51.69c.07.38.19.75.27,1.12,0,.17.11.22.28.14l.67-.28a.44.44,0,0,1,.16,0l0,.06c-.13.09-.25.19-.39.27A.75.75,0,0,0,23.23,13c.22.61.5,1.19.73,1.79s.36,1,.53,1.45a.35.35,0,0,1,0,.28c-.06-.07-.17-.12-.19-.19a5.21,5.21,0,0,0-.83-1.54c-.23-.37-.41-.77-.61-1.15l-.3-.59a.48.48,0,0,0-.72-.25,2.58,2.58,0,0,0-1.17,1.07,3,3,0,0,1-.49.58.83.83,0,0,1-.94.11.85.85,0,0,0-.86,0,4.72,4.72,0,0,1-.56.24.41.41,0,0,0-.05-.09c.18-.12.36-.24.55-.35s.31-.22.15-.52-.35-.67-.55-1.05c-.21.19-.39.37-.59.53a5.55,5.55,0,0,1-1.61.9,2,2,0,0,0-1,.86,9.89,9.89,0,0,1-1.15,1.59c-.17.16-.18.48-.25.74a5.58,5.58,0,0,0-.1.59h-.1v-.63l-.44.22a2.14,2.14,0,0,0,.31-.63.73.73,0,0,1,.57-.67c.19-.08.33-.32.48-.5l.85-1.11a2,2,0,0,0,.2-.36,7,7,0,0,1-.83-.09A11,11,0,0,1,13,13.85a.7.7,0,0,0-.61.05c-.51.25-1.06.48-1.6,0a2.06,2.06,0,0,0-.41-.3.48.48,0,0,0-.33,0,.33.33,0,0,0-.16.23c-.05.35-.08.7-.12,1.05,0,.12,0,.25-.08.37-.26.06-.38,0-.4-.29a3.7,3.7,0,0,0-.72-1.66c-.14.31-.25.57-.37.82-.3.61-.59,1.22-.9,1.81a1.21,1.21,0,0,1-.41.4c-.41.27-.83,0-1-.42a8.55,8.55,0,0,1-.45-1.32,3.26,3.26,0,0,0-.67-1.27L2.91,14.61c0-.15-.05-.23-.06-.32l.86-.48-.25-.05a1,1,0,0,1-.81-1,2.73,2.73,0,0,1,.26-1.54c.17-.33.28-.68.43-1A.52.52,0,0,1,3.49,10a3.56,3.56,0,0,1,.62-.42,1.37,1.37,0,0,1,.6-.12,4,4,0,0,1,.59.09c.25,0,.33.14.31.39-.06.54-.1,1.09-.13,1.63a1.28,1.28,0,0,0,.09.4l.85-.39a1,1,0,0,1-.41.58.83.83,0,0,0-.27,1c.18.74.33,1.5.53,2.25A2.57,2.57,0,0,0,6.6,16c.21-.33.38-.58.52-.84.38-.7.74-1.41,1.09-2.12a.64.64,0,0,0,0-.41c-.15-.44-.34-.88-.49-1.32s-.3-.41-.61-.16a2.92,2.92,0,0,1-.31.14l-.06-.09A1.53,1.53,0,0,1,7,11c.09-.08.2-.13.29-.21a.59.59,0,0,0,.24-.61,7.57,7.57,0,0,1,.77-4.38A13.33,13.33,0,0,1,9.78,3.3,2.16,2.16,0,0,1,12,2.41a.44.44,0,0,0,.29-.09c.35-.3.7-.6,1-.93.17-.16.29-.38.45-.56s.17-.38.43-.19A4.34,4.34,0,0,1,12.87,2a1.69,1.69,0,0,0-.55.9c0,.07,0,.19.1.27s.11.27,0,.47a2.69,2.69,0,0,0-.31.93,12.11,12.11,0,0,1-.87,2.63c-.17.39-.3.79-.45,1.18l.05.08a1.42,1.42,0,0,0,.33-.14c.15-.14.26-.13.46,0a2.54,2.54,0,0,0-1.62,2c0,.26-.09.53.15.74.26-.45.49-.91.79-1.33a4.7,4.7,0,0,1,.93-1,1,1,0,0,1,1.21-.17,1.18,1.18,0,0,1,.55.95,4.87,4.87,0,0,1-.06,1.26c-.05.34-.37.47-.67.54a.53.53,0,0,1-.61-.21,1.12,1.12,0,0,1-.09-.42.37.37,0,0,1,0-.11c0-.21,0-.46-.16-.54s-.33.15-.42.29a4,4,0,0,0-.79,2.28c0,.42.28.68.79.64a2.48,2.48,0,0,0,1.24-.62c.16-.11.24-.34.37-.51s.05,0,.12-.09c0,.58,0,1.13.5,1.48a1.93,1.93,0,0,0,1.18.26,1.17,1.17,0,0,1-.72-.91,1.93,1.93,0,0,1,.13-.83,4.88,4.88,0,0,1,2.09-2.41,1.6,1.6,0,0,1,1.71-.08c.23.14.38-.09.52-.25l1.63-1.81.09.06a1,1,0,0,1-.11.24,3.57,3.57,0,0,0-.74.93c-.1.25-.42.4-.59.64a8,8,0,0,0-.43.82,2.1,2.1,0,0,1-.4.5,5.65,5.65,0,0,0,.7,3,.4.4,0,0,0,.23.17c.11,0,.24,0,.19.19,0,0,.16.11.21.08a1.66,1.66,0,0,0,.39-.25l-.31-.06s0-.06,0-.07a5.66,5.66,0,0,1,.56-.4,3.31,3.31,0,0,0,.86-1.07,3.36,3.36,0,0,0,.54-.95,4.09,4.09,0,0,0,0-1.26c0-.45-.28-.89-.05-1.35,0-.08,0-.2,0-.29h.08c.16.26.34.51.48.78s.2.26.4.23l1.91-.25c.63-.1,1.25-.21,1.88-.3a1.53,1.53,0,0,1,.37,0,.2.2,0,0,1,0,.08,3.39,3.39,0,0,1-.34.31c-.6.38-1.21.75-1.79,1.17A4.86,4.86,0,0,0,27,9.53a5.28,5.28,0,0,1,1.93-1.09,10.35,10.35,0,0,0,1.65-.78c.06,0,.08-.16.1-.24s0-.28,0-.38a1.21,1.21,0,0,0-.1-1.33.5.5,0,0,1,0-.12,1.65,1.65,0,0,0-.13-.52c-.12-.19-.06-.28.14-.41.11.43.21.83.32,1.22a1.75,1.75,0,0,0,.47,1,.7.7,0,0,0,.79.08l.2-.13a.18.18,0,0,1,.07,0l-.17.22c-.17.17-.41.21-.54.47a1.27,1.27,0,0,0,0,1.06.2.2,0,0,1,0,.11s0,0,0,.09c-.25-.1-.3-.34-.39-.54s0-.37-.26-.41a.63.63,0,0,0-.36,0,6.92,6.92,0,0,0-.84.47.36.36,0,0,0-.1.32c.27.47,0,.79-.25,1.13a1,1,0,0,1-.2.2c-.27.27-.4.28-.73.07,0-.1.06-.22.1-.35-.31-.13-.53,0-.76.16a4.23,4.23,0,0,0-1.54,1.63,2.79,2.79,0,0,0-.53,1.61.76.76,0,0,0,.8.79l.88-.06c0-.26,0-.51-.05-.76l.06,0c.05.09.12.18.17.27.17.36.13.47.55.26.91-.45,1.84-.89,2.71-1.4.57-.34.57-.95.44-1.54a4.34,4.34,0,0,1-.14-.7.55.55,0,0,1,.14-.39c.06-.07.23-.06.35,0a.57.57,0,0,1,.43.48c.11.57.22,1.14.34,1.7a.59.59,0,0,0,.22.33s.19-.09.28-.15a3.3,3.3,0,0,1,.3-.22c-.13.47-.68.74-.53,1.4l1.25-1c-.05.22-.08.41-.12.59l.09,0c.37-.59.73-1.18,1.12-1.76s.71-1.05,1.09-1.57a.6.6,0,0,1,.66-.3c.33.11.41.43.45.74a6.24,6.24,0,0,0,.07,1A12.62,12.62,0,0,0,38,12.24c0,.07.18.09.3.15-.2.29,0,.53.13.81.24.67.48,1.34.7,2a.83.83,0,0,1-.06.43.19.19,0,0,1-.14.11.23.23,0,0,1-.14-.13c0-.18-.07-.37-.12-.54a2.89,2.89,0,0,0-.76-1.53c-.06-.05-.08-.16-.15-.3l-.41.38a.58.58,0,0,1-.05-.14s0,0,0,0c.51-.56.21-1.09-.06-1.63L37,11.36"/><path d="M38.83,5.94c.37.08.38.09.47.71.11-.08.22-.12.25-.2a6.39,6.39,0,0,0,.24-.74c.07-.25.3-.43.49-.37s.43.31.31.61,0,.43.27.43h.45a1.34,1.34,0,0,1,.26.09.34.34,0,0,0,0,.1l-1.05.12c.58.41.62.52.29.73-.11-.24-.33-.41-.55-.32a1.44,1.44,0,0,0-.52.52,5.14,5.14,0,0,0-.27.58.79.79,0,0,1-.19.17c-.07-.09-.2-.18-.19-.27a5.63,5.63,0,0,1,.14-.69c0-.14.07-.28.1-.42l-.07,0a1.5,1.5,0,0,0-.2.24c-.12.21-.21.43-.32.64s-.11.29-.31.17-.33-.2-.27-.44.08-.24.14-.41h-.42l-.34.06V6.75c.4.17.76.14.88,0a.87.87,0,0,0-.24-1c.07-.14.1-.35.33-.14l0,0,.36,0c0,.11-.06.22-.08.33"/><path d="M3.07,9a5,5,0,0,1,.39-.66c0-.08.2-.07.31-.11a.8.8,0,0,1,0,.3,5.45,5.45,0,0,1-.2.89c0,.1-.18.16-.3.25s0,.15,0,.24l-.07,0c-.09-.16-.2-.32-.28-.49S2.91,9.16,2.86,9a.47.47,0,0,0-.54-.33c-.11,0-.31-.09-.33-.18A9.47,9.47,0,0,1,1.7,7.25c-.05-.34.07-.46.31-.48a.49.49,0,0,1,.49.49A2.66,2.66,0,0,0,2.56,8a8,8,0,0,0,.51,1"/><path d="M2,9.23a2.93,2.93,0,0,1-.12.28c0,.07-.08.18-.13.2a.29.29,0,0,1-.23-.1,7.43,7.43,0,0,1-.35-.76c-.18-.48-.33-1-.51-1.46a.32.32,0,0,1,.13-.45A.57.57,0,0,1,1.19,7c.29.15.33.46.36.75a7.23,7.23,0,0,0,.16.93A2.8,2.8,0,0,0,2,9.23"/><path d="M14.59,6.06l-.33-.17h.55c.1-.33.31-.39.88-.26l-.32.24,2,.28v.08c-.05,0-.09.06-.14.06a6.73,6.73,0,0,1-.89,0,2.25,2.25,0,0,1-.77-.16.69.69,0,0,0-.69.12,2.47,2.47,0,0,1-.36.19l-.82.43a1.7,1.7,0,0,1-.24.09l0-.08,1.18-.87"/><path d="M10.63,15.13c.06.08.17.17.15.24-.08.34.17.63.14,1a1.5,1.5,0,0,0,.13.43c.06.2.12.39.17.6a1,1,0,0,1-.21.19.36.36,0,0,1-.51-.29,3.55,3.55,0,0,1,.06-.55,4.09,4.09,0,0,0,0-.61c0-.32,0-.63-.06-.95l.1,0"/><path d="M28.69,20.2c-.24.07-.35,0-.33-.28s0-.33,0-.52l-.47.4c.19-.52.37-1,.57-1.56.08.69.16,1.32.23,2"/><path d="M35.08,7.8a1,1,0,0,1-.32.12.69.69,0,0,0-.69.34.33.33,0,0,1-.24.1,1.55,1.55,0,0,1-.35-.07c-.09-.32.18-.38.37-.44a7.3,7.3,0,0,1,.93-.19.82.82,0,0,1,.27,0l0,.13"/><path d="M24.33,4.25c0,.07-.07.16-.12.17a.31.31,0,0,1-.25,0,1.17,1.17,0,0,1-.3-.41.43.43,0,0,1,.12-.36.39.39,0,0,1,.34.09,2.25,2.25,0,0,1,.21.55"/><path d="M37.13,3.53a2.09,2.09,0,0,0-.22.16c-.14.12-.3.2-.44.06a.38.38,0,0,1-.11-.34c.07-.14.2-.32.42-.16s.24.2.4.06a.15.15,0,0,1,.14,0,.17.17,0,0,1,0,.15s-.12.07-.17.1l0-.07"/><path d="M29.49,16.59a3,3,0,0,1,.25-.44,2.3,2.3,0,0,1,.38-.32c.18-.14.28,0,.33.12a.18.18,0,0,1,0,.16.24.24,0,0,1-.15,0c-.27-.08-.39.05-.34.33a.51.51,0,0,1-.08.29s-.15,0-.22,0-.09-.09-.15-.16"/><path d="M26.21,1.75c.11-.18.18-.44.34-.52.48-.26.6-.94,1.22-1l-1.48,1.6Z"/><path d="M27.72,8.77c-.41-.13-.45-.49-.58-.82l.25,0c0-.15.07-.29.1-.43h.1c-.16.42.32.76.13,1.2"/><path d="M12.56.62a.52.52,0,0,1,.63.22c.09.15-.18.39-.55.51,0-.24-.05-.48-.08-.73"/><path d="M27.59,17.24a1.28,1.28,0,0,0,.2-.18,1.17,1.17,0,0,0,.11-.25c.14.16.43,0,.49.29a1.48,1.48,0,0,1,0,.55c-.09-.47-.52-.24-.78-.41"/><path d="M16.46,4c-.34-.21-.39-.4-.22-.73.08-.14.15-.14.25,0s.18.41,0,.76"/><path d="M6.46,3.53c0,.42,0,.58-.21.57S5.91,4,5.9,3.83s.18-.33.56-.3"/><path d="M24.67,2.77a1.92,1.92,0,0,1,.22-.42.45.45,0,0,1,.33-.1c.08,0,.13.15.2.23l-.26.17a1,1,0,0,1-.17.1,2.33,2.33,0,0,1-.32,0"/><path d="M32.48,8.57a1.49,1.49,0,0,0,.13.25c.06.09.18.16.22.27a1.67,1.67,0,0,1,0,.39l-.11,0a5.58,5.58,0,0,1-.44-.64c0-.07.06-.2.09-.3h.07"/><path d="M22,14.93c-.08-.08-.19-.15-.22-.24s.22-.36.37-.32a.39.39,0,0,1,.19.27c.05.23-.12.25-.34.29"/><path d="M10.55,14.6c-.42-.2-.4-.32-.25-.64.39.06.48.3.25.64"/><path d="M12.84,14.5l-.33-.34c.09-.08.2-.25.26-.23a.69.69,0,0,1,.31.28s-.13.15-.24.29"/><path d="M2.33,15s-.14-.13-.12-.16a1.24,1.24,0,0,1,.3-.35s.2.12.19.16,0,.38-.37.35"/><path d="M12.81,3.18a3.19,3.19,0,0,1,.38-.26s.17.13.17.19-.08.27-.15.28a1.1,1.1,0,0,1-.38-.09.5.5,0,0,0,0-.12"/><path d="M38.77,17.2c-.18-.08-.32-.19-.25-.38a.38.38,0,0,1,.47-.25l-.22.63"/><path d="M18.84,10.69a1.56,1.56,0,0,1,.11.41s-.17.13-.26.12-.19-.14-.18-.19a1.68,1.68,0,0,1,.21-.36l.12,0"/><path d="M28.15,16.16c-.27-.46-.3-.66-.14-1,.1.31.32.58.14,1"/><path d="M39.91,11c-.17.1-.29.22-.38.2s-.15-.17-.23-.26c.08-.07.18-.19.25-.18s.2.12.36.24"/><path d="M5,8.24c-.23.06-.41,0-.44-.2,0-.07.16-.25.24-.24.25,0,.2.25.2.44"/><path d="M29.79,1.89,29.48.57l.1,0,.3,1.32-.09,0"/><path d="M30.27,3.57c.05.23.11.45.17.67l-.07,0-.27-.14c0-.2,0-.38.07-.56h.1"/><path d="M21.86,15.15l-.26.24-.24-.31c.07-.05.15-.16.21-.15s.17.12.29.22"/><path d="M29.22,17.68c-.19-.24-.06-.39.05-.54s.12,0,.13,0,.11.18.09.24a1.45,1.45,0,0,1-.27.29"/><path d="M39.67,13.91c-.14.19-.28.39-.44.59-.11-.34,0-.51.44-.59"/><path d="M24.21,11.42l.53-.11c.13.13.07.22-.14.27a2.12,2.12,0,0,0-.29.11c0-.1-.07-.2-.1-.27"/><path d="M13.56,11.87c-.2-.35.16-.39.2-.57a2,2,0,0,1,.32,0c-.13.13-.22.2-.29.28a2.89,2.89,0,0,0-.23.28"/><path d="M39.2,11.36l-.53.52c0-.35.3-.64.53-.52"/><path d="M17,3.71a1.4,1.4,0,0,1,.08.33.55.55,0,0,1-.06.22c-.07,0-.17,0-.2-.11a.41.41,0,0,1,0-.29c0-.06.12-.1.2-.15"/><path d="M35.85,7.49l-.6.26-.06-.11c.1-.3.44-.12.6-.27l.06.12"/><path d="M16.94,16h-.48a1.28,1.28,0,0,1,.13-.29s.16-.06.18,0a1.91,1.91,0,0,1,.17.32"/><path d="M11.59,18.39c-.11.1-.21.2-.24.19a.66.66,0,0,1-.23-.24s.1-.16.11-.15a2.31,2.31,0,0,1,.36.2"/><path d="M2.36,9.91c-.08-.11-.17-.19-.15-.24s.12-.13.18-.2.14.14.16.22-.1.12-.19.22"/><path d="M16.51,5.28l-.62.23c.18-.17.32-.4.59-.33l0,.1"/><path d="M14.35.52l-.2-.15L14.53,0l.08.07-.26.45"/><path d="M33.25,6.56c-.16.15-.2.44-.46.19,0-.27.23-.19.46-.19"/><path d="M13.65,2.16c-.07.09-.12.14-.16.2L13.3,2.2A.63.63,0,0,1,13.47,2s.1.08.18.15"/><path d="M42,12.48l.3-.15c0,.06.07.17,0,.19a2.52,2.52,0,0,1-.29.12L42,12.48"/><path d="M13.81,16.9c0,.07.12.15.11.21s-.11.12-.16.18-.16-.11-.17-.18.06-.14.1-.22h.12"/><path d="M12.8,17.69l-.23.4h-.09a1.09,1.09,0,0,1,0-.32s.15,0,.29-.07"/><path d="M15.11,8.33l.42.11c-.13.1-.22.21-.25.19a.83.83,0,0,1-.22-.2Z"/><path d="M12.16,14.44l.26.15-.13.17-.21-.22.08-.1"/><path d="M22.2,6l-.38.35-.09-.1.4-.33L22.2,6"/><path d="M12.44,1.59l-.3.14a1.11,1.11,0,0,1-.07-.16l.33-.09,0,.11"/><path d="M.13,15.59l.25.35H0l.13-.35"/><path d="M4.16,7.41a1.51,1.51,0,0,1,.3,0s0,.08,0,.12l-.32,0Z"/><path d="M34.72,10l.39-.35.06,0-.36.38L34.72,10"/><path d="M40.57,7.87l.25-.27c0,.16,0,.24,0,.32h-.25s0,0,0-.06"/><path d="M9.59,7.59c.18.86.18.86-.09.88V8.2c-.13-.17-.23-.29-.36-.47l.45-.14"/><path d="M9.42,6.54c0,.09.06.19.08.28a1,1,0,0,1,0,.24.51.51,0,0,1,0,.22.23.23,0,0,1-.16.07c-.06,0-.14-.13-.13-.19a4.13,4.13,0,0,1,.13-.61h.08"/><path d="M10.32,6.47a1.14,1.14,0,0,1-.34.15s-.16-.13-.15-.16.12-.21.21-.23.18.09.28.14v.1"/></g></g></svg>