<svg xmlns="http://www.w3.org/2000/svg" viewBox="0 0 27.28 7.75"><g id="Capa_2" data-name="Capa 2"><g id="Capa_1-2" data-name="Capa 1"><path d="M25.22,7.75l-.39-.06a2.16,2.16,0,0,1-1.25-.64s0-.07,0-.12L24,6.26a2.26,2.26,0,0,0,1.14.55,1.24,1.24,0,0,0,.69,0,.74.74,0,0,0,.31-.21A.36.36,0,0,0,26,6a1.89,1.89,0,0,0-.67-.12,2.81,2.81,0,0,1-1-.27,1.08,1.08,0,0,1-.64-.85,1.13,1.13,0,0,1,.56-1.19,2.12,2.12,0,0,1,1.09-.31,2.38,2.38,0,0,1,1.36.28c.14.08.26.17.39.26l-.57.69,0,0a1.5,1.5,0,0,0-1.2-.33,1.54,1.54,0,0,0-.37.09.32.32,0,0,0-.21.31.35.35,0,0,0,.19.34,1.19,1.19,0,0,0,.53.13,4,4,0,0,1,1,.18,1.12,1.12,0,0,1,.79.81c0,.08,0,.15.05.22v.27a.14.14,0,0,0,0,.07,1.25,1.25,0,0,1-.37.72,1.65,1.65,0,0,1-.79.4c-.15,0-.29,0-.44.08Z"/><path d="M9.31,7.59h-1V5.36a1.37,1.37,0,0,0-.12-.6.82.82,0,0,0-1.44-.13,1.21,1.21,0,0,0-.21.74V7.59h-1c-.06,0-.08,0-.08-.08V3.45c0-.06,0-.08.09-.08h.79c.07,0,.09,0,.1.09s0,.26.06.42a1.25,1.25,0,0,1,1.24-.57,1.21,1.21,0,0,1,1.12.77l.05,0a1.48,1.48,0,0,1,1.37-.71,1.84,1.84,0,0,1,1.09.3,1.61,1.61,0,0,1,.63,1,4.46,4.46,0,0,1,.05.63c0,.73,0,1.47,0,2.2v.09h-.94c-.08,0-.1,0-.1-.1V5.24A1.19,1.19,0,0,0,11,4.87.78.78,0,0,0,9.65,4.5a1.05,1.05,0,0,0-.34.81c0,.73,0,1.45,0,2.17Z"/><path d="M3.53,5.59A1.23,1.23,0,0,0,2.21,4.21,1.13,1.13,0,0,0,1.13,5a1.35,1.35,0,0,0-.08.69,1.24,1.24,0,0,0,1.79,1,1.19,1.19,0,0,0,.69-1.07m0-1.66,0-.54h1v4.2h-1c0-.19,0-.38-.05-.57h0a1.37,1.37,0,0,1-1,.66A2.09,2.09,0,0,1,.57,7.11,2,2,0,0,1,0,6,2.73,2.73,0,0,1,.15,4.6a1.88,1.88,0,0,1,1.5-1.27,2,2,0,0,1,1.2.07,1.42,1.42,0,0,1,.68.53h0"/><path d="M14.79,4.2a1.15,1.15,0,0,0-1,.69,1.45,1.45,0,0,0-.12.74,1.15,1.15,0,0,0,.74,1,1.2,1.2,0,0,0,1.33-.2,1.27,1.27,0,0,0,.41-1.12A1.22,1.22,0,0,0,14.79,4.2M16.13,4c0-.2,0-.38,0-.57h1V7.59h-.89c-.06,0-.08,0-.09-.08a4.38,4.38,0,0,0,0-.51h0a1.43,1.43,0,0,1-1,.66,2.11,2.11,0,0,1-1.77-.4,1.93,1.93,0,0,1-.64-1,2.88,2.88,0,0,1,0-1.62,1.91,1.91,0,0,1,1.54-1.36,2,2,0,0,1,1.2.07,1.34,1.34,0,0,1,.65.5l0,.05"/><path d="M21.36,3.66l-.46.9-.07,0a1.14,1.14,0,0,0-1.24-.1.85.85,0,0,0-.49.82c0,.58,0,1.16,0,1.74v.54c0,.06,0,.08-.08.08h-.87c-.07,0-.09,0-.09-.09V3.39h.89s.08,0,.08.08,0,.25.07.4l.05-.07a1.2,1.2,0,0,1,1-.52,1.75,1.75,0,0,1,1,.23,1.12,1.12,0,0,1,.22.16"/><path d="M21.77,3.37h1V7.49c0,.09,0,.11-.11.11h-.84c-.06,0-.09,0-.09-.08,0-1.36,0-2.72,0-4.07V3.37"/><path d="M23.71,0,22.66,2.62l-2-1.09,3-1.53"/></g></g></svg>