<svg xmlns="http://www.w3.org/2000/svg" viewBox="0 0 18.58 15.5"><defs><style>.cls-1{font-size:7px;font-family:Barlow-Bold, Barlow;font-weight:700;}</style></defs><g id="Capa_2" data-name="Capa 2"><g id="Capa_1-2" data-name="Capa 1"><path d="M5,13.89h-3c-.06,0-.09,0-.09-.1V9.51c0-.07,0-.1.09-.1h3A2.5,2.5,0,0,1,6.68,10a2.12,2.12,0,0,1,.65,1.63,2.17,2.17,0,0,1-.64,1.64,2.44,2.44,0,0,1-1.73.6m-3-10.2H4.8a2.48,2.48,0,0,1,1.75.58,2,2,0,0,1,.64,1.55,1.89,1.89,0,0,1-.64,1.51,2.57,2.57,0,0,1-1.75.55H1.93a.08.08,0,0,1-.09-.09v-4c0-.07,0-.1.09-.1M7.18,8.51A2.86,2.86,0,0,0,9,5.66,3.23,3.23,0,0,0,7.89,3,4.74,4.74,0,0,0,4.8,2.1H.29a.29.29,0,0,0-.21.08A.25.25,0,0,0,0,2.39V15.21a.25.25,0,0,0,.08.21.29.29,0,0,0,.21.08H5a4.63,4.63,0,0,0,3-1,3.31,3.31,0,0,0,1.17-2.72,3.23,3.23,0,0,0-2-3.19c-.07,0-.06-.08,0-.12"/><text class="cls-1" transform="translate(9.97 5.95)">A2</text></g></g></svg>