<svg xmlns="http://www.w3.org/2000/svg" viewBox="0 0 22.63 22.63"><g id="Capa_2" data-name="Capa 2"><g id="Capa_1-2" data-name="Capa 1"><path d="M6.13,18.12h.21l6.35,0a5.62,5.62,0,0,0,2.48-.56,3.17,3.17,0,0,0,1.75-2,4.14,4.14,0,0,0,.09-2A3,3,0,0,0,15.2,11.2L14.64,11l0,0,.28-.15A2.91,2.91,0,0,0,16.3,9.31a3.63,3.63,0,0,0,.15-1.7A2.75,2.75,0,0,0,15,5.45a5.21,5.21,0,0,0-2.51-.56H6.36c-.18,0-.23,0-.23.23v13ZM22.63,3.57V19a1.24,1.24,0,0,0,0,.16,3.76,3.76,0,0,1-2.85,3.3c-.23.06-.46.08-.7.13H3.58c-.21,0-.41-.06-.61-.11a3.76,3.76,0,0,1-3-3.74Q0,11.31,0,3.83a4.15,4.15,0,0,1,.2-1.26A3.75,3.75,0,0,1,3.87,0H18.75A3.81,3.81,0,0,1,22.5,2.87c.06.23.09.47.13.7"/><path d="M8.49,12.12h.19c1.26,0,2.52,0,3.77,0a3.6,3.6,0,0,1,1.09.16,1.66,1.66,0,0,1,1.19,1.58,3.38,3.38,0,0,1-.06.9,1.79,1.79,0,0,1-1.58,1.41,5.65,5.65,0,0,1-.58,0H8.66c-.14,0-.19,0-.19-.19V12.29a1.11,1.11,0,0,1,0-.17"/><path d="M10.63,6.83c.64,0,1.29,0,1.93,0a2.72,2.72,0,0,1,.83.2,1.2,1.2,0,0,1,.7.94,2.74,2.74,0,0,1,0,1.21,1.66,1.66,0,0,1-1.53,1.2c-.85,0-1.69,0-2.54,0H8.65c-.14,0-.18,0-.18-.18V7c0-.16,0-.21.2-.21h2Z"/></g></g></svg>