<svg xmlns="http://www.w3.org/2000/svg" viewBox="0 0 27.6 8.68"><g id="Capa_2" data-name="Capa 2"><g id="Capa_1-2" data-name="Capa 1"><path d="M8,3.27H5.56a3,3,0,0,0-.12-.36,1.3,1.3,0,0,0-1.21-.83,1.36,1.36,0,0,0-1.4.76,3.33,3.33,0,0,0,0,3,1.43,1.43,0,0,0,1.82.72,1.34,1.34,0,0,0,.85-1c0-.21.14-.27.34-.26.65,0,1.31,0,2,0h.3A6.64,6.64,0,0,1,8,5.93,3.48,3.48,0,0,1,5.54,8.44,4.19,4.19,0,0,1,1.4,7.68,4.08,4.08,0,0,1,0,4.7,4.44,4.44,0,0,1,1.12,1.28,3.87,3.87,0,0,1,3.41.07a4.37,4.37,0,0,1,2.82.4A3.43,3.43,0,0,1,8,3.27"/><path d="M8.47.21h2.24V2.92a.68.68,0,0,0,.14-.09,2.63,2.63,0,0,1,2.48-.38,1.77,1.77,0,0,1,1.26,1.71c0,1.4,0,2.81,0,4.21a.28.28,0,0,1,0,.08H12.35c0-.08,0-.15,0-.22v-3a4.38,4.38,0,0,0,0-.5.66.66,0,0,0-.56-.62.73.73,0,0,0-.85.42,2.18,2.18,0,0,0-.16.79c0,.95,0,1.9,0,2.85v.24H8.47Z"/><path d="M17.15,4.64H19.3a1,1,0,0,0-.93-1,1.09,1.09,0,0,0-1.22,1m4.27,1.25H17.15a1.16,1.16,0,0,0,2.1.76.41.41,0,0,1,.14-.1h1.9a2.36,2.36,0,0,1-.64,1.12,3.24,3.24,0,0,1-2.73.95,3.24,3.24,0,0,1-2-.86A3.16,3.16,0,0,1,15,4.92a3.16,3.16,0,0,1,3.68-2.8,3.12,3.12,0,0,1,2.8,3.47c0,.09,0,.18,0,.3"/><rect x="25.35" y="0.22" width="2.24" height="8.22"/><rect x="21.92" y="2.46" width="2.22" height="5.98"/><path d="M21.91,2.24v-2h2.33l-2.33,2"/></g></g></svg>