<svg xmlns="http://www.w3.org/2000/svg" viewBox="0 0 31.09 22.67"><g id="Capa_2" data-name="Capa 2"><g id="Capa_1-2" data-name="Capa 1"><path d="M17.68,18.64c0-.06.06-.16.13-.16h-.15c-.06.64,0,.16,0,.16m2.77,2h0m.14-.11L20.7,20Zm.13-1.18a.09.09,0,0,1,.09.11L20.7,20m-4.52-4.58H15a.16.16,0,0,0-.14.11l-.4,1.85-.4,1.85a.16.16,0,0,1-.14.12h-.81c-.8,0-.7-.55-.54-1.3v0l0-.1h0l0-.19,0-.21,0-.21.19-.89.18-.89a.09.09,0,0,0-.09-.11H11.86a.15.15,0,0,0-.14.11l-.25,1.18-.25,1.18h0l0,.11c-.29,1.31-.22,2.56,1.35,2.6h2.52a.16.16,0,0,0,.14-.11L15.74,18l.53-2.48a.09.09,0,0,0-.09-.11"/><path d="M2.23,17.1l-.18.78ZM.09,22.67h0ZM3.72,17.1h0l-.36,1.68ZM4,15.38H2.74a.16.16,0,0,0-.14.11L2.49,16l-.12.51a.09.09,0,0,0,.09.12H3.72a.16.16,0,0,0,.14-.12L4,16l.11-.52c0-.06,0-.11-.09-.11M1.88,18.65l.17-.77-.2.88-.19.91.17-.79a1.55,1.55,0,0,1,0-.23m16.64,2h0Zm-.08,0h0Zm.17,0h0Zm2-.12.09-.45Zm-.14.11h0m-1.75,0h0Zm-.15,0h0Zm.08,0h0m.09,0h0Zm.28,0h0Zm1.72-1.3a.09.09,0,0,1,.09.11L20.7,20l0,.09m-2.22.57h0"/><path d="M22.84,20.46l.38-1.88Zm-1.32.11a.09.09,0,0,1-.09-.11l.95-4.4M3.63,17H2.37a.16.16,0,0,0-.14.11l-.18.78-.17.77a1.55,1.55,0,0,0,0,.23l-.17.79-.17.79a1.8,1.8,0,0,1-.06.22s-.24.69-.63.68H.41a.16.16,0,0,0-.15.11L.13,22,0,22.55a.1.1,0,0,0,.09.12h1c1,0,1.51-.54,1.84-2.1l.4-1.79.36-1.68A.09.09,0,0,0,3.63,17"/><path d="M26.82,16.57l-.05-.21-.05-.22,0-.11c-.1-.4-.4-.62-1.05-.62h-3a.14.14,0,0,0-.13.12l-.05.21-.06.26v.07l-.47,2.2-.45,2.09a.3.3,0,0,0,0,.16s.12.06.19.06h.95a.4.4,0,0,0,.17,0s.09-.13.1-.19l.17-.83.17-.83h0l0-.11.21-.95.18-.84a.14.14,0,0,1,.14-.11h3c.07,0,.11-.05.09-.11"/><path d="M9.82,19.17a14.44,14.44,0,0,0,.76-2.35A2.39,2.39,0,0,0,7.94,14c-2.24,0-3.21,1.59-3.58,3.33s.11,3.28,2.34,3.26h3.39a.17.17,0,0,0,.15-.11l.28-1.08a.08.08,0,0,0-.08-.11H9.89c-.06,0-.09,0-.08-.08a0,0,0,0,1,0,0Zm-.91-1.89,0,.11h0l-.24.87-.25.87a.17.17,0,0,1-.15.11H6.93c-1,0-1.24-.77-1-1.91s.72-1.89,1.7-2c1.34-.1,1.61.83,1.28,1.91m10.46-2c-2.22,0-2.74,1.33-3,2.68s-.27,2.64,2,2.64h2.09a.14.14,0,0,0,.14-.11l.09-.45,0-.09.11-.53a.09.09,0,0,0-.09-.11H18.66c-.81,0-1.06-.22-1-.85H21a.15.15,0,0,0,.12-.08,0,0,0,0,0,0,0h0c.49-1.83.35-3.05-1.74-3.06m.5,2h0a.14.14,0,0,1-.13.12H18a.07.07,0,0,1-.08-.09h0v0a1.08,1.08,0,0,1,1.13-.71c.71,0,.85.34.8.72m10.8-2.64H29.48a.26.26,0,0,0-.18.09L27.19,17.8c0,.05-.08,0-.09,0l-.16-.67A.15.15,0,0,0,26.8,17H25.44a.08.08,0,0,0-.08.11L26,19.22a.54.54,0,0,1,0,.22l-.26,1a.08.08,0,0,0,.08.11h1.34a.16.16,0,0,0,.15-.11l.26-1a.75.75,0,0,1,.1-.2l3.43-4.51c0-.05,0-.09,0-.09Z"/><path d="M12.64,5.61c.26-.51.53-1,.83-1.45-.42,0-.82.12-1.23.2-.05,0-.05,0,0,.08.09.26.18.52.28.78l.16.39m3.73-2.17s0,0,0,0a11.56,11.56,0,0,0-.78-1s-.05,0-.07,0c-.27.3-.52.61-.76.92,0,0,0,0,0,0q.82,0,1.65,0m0,5.76a15.88,15.88,0,0,1-1.69,0,.11.11,0,0,0,0,.05c.24.32.5.63.77.93,0,0,.06,0,.09,0,.21-.23.41-.47.6-.71l.2-.27M12.64,7a12,12,0,0,0-.45,1.22s0,0,0,.05l.51.09c.24,0,.49.08.75.1A15,15,0,0,1,12.64,7m5,1.45c.44-.05.86-.12,1.28-.21,0,0,0,0,0-.07-.11-.32-.23-.64-.36-1L18.47,7c-.27.52-.55,1-.85,1.48M22,6.32a.75.75,0,0,0-.15-.44,2.28,2.28,0,0,0-.63-.57,6.1,6.1,0,0,0-1.69-.75c-.05,0-.07,0-.09,0a15.81,15.81,0,0,1-.64,1.66.11.11,0,0,0,0,.11,12.91,12.91,0,0,1,.67,1.69s0,0,.08,0A6.52,6.52,0,0,0,21,7.51a3.18,3.18,0,0,0,.84-.67A.79.79,0,0,0,22,6.32m-2.75-4.1a3.71,3.71,0,0,0,0-.47,2.39,2.39,0,0,0-.16-.69.69.69,0,0,0-.82-.45,2.69,2.69,0,0,0-.77.26A5.89,5.89,0,0,0,16,2S16,2,16,2a13.66,13.66,0,0,1,1.07,1.34.26.26,0,0,0,.23.13,14,14,0,0,1,1.7.28c.05,0,.06,0,.07,0a6.47,6.47,0,0,0,.2-1.52M11.8,2.1A6.93,6.93,0,0,0,12,3.74s0,0,.06,0l.78-.15c.33,0,.66-.09,1-.12a.13.13,0,0,0,.1-.06A15.28,15.28,0,0,1,15.09,2s0-.05,0-.08A7,7,0,0,0,14,1.1,3.39,3.39,0,0,0,12.93.64a1,1,0,0,0-.53,0,.69.69,0,0,0-.44.47,2.78,2.78,0,0,0-.16,1m7.52,8.3a6.61,6.61,0,0,0-.2-1.49c0-.05,0-.05-.07-.05a12.3,12.3,0,0,1-1.82.28.12.12,0,0,0-.07,0A15.55,15.55,0,0,1,16,10.63s0,0,0,.07a6.74,6.74,0,0,0,.88.72,3.59,3.59,0,0,0,1.23.59.86.86,0,0,0,.61,0,.83.83,0,0,0,.4-.5,3.43,3.43,0,0,0,.17-1.08M12.67,12h.13a2.68,2.68,0,0,0,.83-.26,5.83,5.83,0,0,0,1.48-1.07s0,0,0-.08A14.38,14.38,0,0,1,14,9.27a.28.28,0,0,0-.23-.13,11.72,11.72,0,0,1-1.65-.24c-.12,0-.12,0-.15.1a5.72,5.72,0,0,0-.16,1.89,2.1,2.1,0,0,0,.16.69.69.69,0,0,0,.69.46M9.05,6.31a.73.73,0,0,0,.14.42,2.4,2.4,0,0,0,.65.62,5.38,5.38,0,0,0,1.61.75c.13.05.14.05.18-.09a15.26,15.26,0,0,1,.63-1.63s0-.07,0-.1a15.31,15.31,0,0,1-.66-1.7s0,0-.06,0a7.14,7.14,0,0,0-1.41.56,3.12,3.12,0,0,0-.86.67.85.85,0,0,0-.23.54m6.53,2.3c.37,0,.78,0,1.2,0a.11.11,0,0,0,.11-.06,21.71,21.71,0,0,0,1.23-2.15.07.07,0,0,0,0-.09l-.24-.45a19.49,19.49,0,0,0-1-1.7s0,0-.07,0a14.74,14.74,0,0,0-1.49,0l-1,0a.14.14,0,0,0-.08,0A20,20,0,0,0,13,6.27a.11.11,0,0,0,0,.11c.07.12.13.24.19.36a17.91,17.91,0,0,0,1.06,1.79.11.11,0,0,0,.08.05c.41,0,.81,0,1.27,0m2-4.44h0s0,0,0,0c.19.3.37.61.55.92l.25.47,0,0a11.83,11.83,0,0,0,.42-1.13c0-.05,0-.06,0-.07l-.79-.15a3.29,3.29,0,0,0-.44,0m2.26-2a7.62,7.62,0,0,1-.2,1.66c0,.09,0,.09.07.12a7,7,0,0,1,1.79.79,2.92,2.92,0,0,1,.89.86,1.35,1.35,0,0,1,.21.67,1.38,1.38,0,0,1-.22.71,2.84,2.84,0,0,1-.81.81,6.68,6.68,0,0,1-1.84.85c-.08,0-.08,0-.06.11a7.15,7.15,0,0,1,.2,1.72,3.11,3.11,0,0,1-.31,1.4,1.31,1.31,0,0,1-.6.63,1.57,1.57,0,0,1-.8.1,3.37,3.37,0,0,1-1.43-.57,6.9,6.9,0,0,1-1.16-.92s-.06,0-.09,0a6.54,6.54,0,0,1-1.64,1.17,2.84,2.84,0,0,1-1.21.33,1.28,1.28,0,0,1-1.25-.82,3.19,3.19,0,0,1-.24-1.14,7,7,0,0,1,.22-1.88c0-.06,0-.07-.06-.09A6.51,6.51,0,0,1,9.57,7.9a2.82,2.82,0,0,1-.85-.8,1.46,1.46,0,0,1-.27-.67,1.2,1.2,0,0,1,.16-.72,2.48,2.48,0,0,1,.88-.91A6.4,6.4,0,0,1,11.23,4l.15,0s0,0,0-.07c-.05-.21-.09-.41-.13-.62a6.18,6.18,0,0,1-.08-1.55A2.51,2.51,0,0,1,11.54.63,1.21,1.21,0,0,1,12.67,0a2.79,2.79,0,0,1,1.16.31A7.25,7.25,0,0,1,15.49,1.5c.06.07.06.07.13,0A7,7,0,0,1,17.11.39,3,3,0,0,1,18.16,0a1.47,1.47,0,0,1,.9.12,1.41,1.41,0,0,1,.55.61,2.69,2.69,0,0,1,.26,1,2.57,2.57,0,0,1,0,.48"/><path d="M16.81,6.31A1.27,1.27,0,1,1,15.56,5a1.27,1.27,0,0,1,1.25,1.27"/></g></g></svg>