<?xml version="1.0" encoding="utf-8"?>
<!-- Generator: Adobe Illustrator 25.4.1, SVG Export Plug-In . SVG Version: 6.00 Build 0)  -->
<svg version="1.1" id="Capa_1" xmlns="http://www.w3.org/2000/svg" xmlns:xlink="http://www.w3.org/1999/xlink" x="0px" y="0px"
	 viewBox="0 0 165.7 176" style="enable-background:new 0 0 165.7 176;" xml:space="preserve">
<style type="text/css">
	.st0{fill:none;stroke:#FFFFFF;stroke-width:0.6;stroke-miterlimit:10;}
	.st1{fill:none;stroke:#FFFFFF;stroke-width:1.2;stroke-miterlimit:10;}
</style>
<path d="M132.9,47.9c-0.9-0.3-1.9-0.5-2.8-0.5c-1.5,0-3,0.1-4.4,0.5c-2.5,0.6-5.1,1.2-7.6,1.8c-0.4,0.1-0.4,0.2-0.2,0.5l3.7,5.1
	c3.3,4.7,6.6,9.3,9.8,13.9c0.2,0.3,0.6,0.5,0.9,0.3c2.7-0.7,5.4-1.3,8.1-1.9c1.4-0.3,2.8-0.8,4-1.5c0.6-0.4,1.2-0.9,1.5-1.6
	c0.5-1.1,0.4-2.5-0.2-3.5c-1-1.9-2.6-3.3-4.6-4c-1.4-0.6-2.9-0.8-4.4-0.6c-0.1,0-0.3,0.1-0.3-0.1s0.1-0.2,0.2-0.2
	c1.5-0.9,2-2.9,1.1-4.4c0,0,0,0,0-0.1C136.6,49.9,134.9,48.5,132.9,47.9 M116.6,98.6c-2.6-0.9-4.9-2.7-6.4-5.1
	c-1.7-2.5-3.4-4.9-5.2-7.4c-1.5-2.1-3-4.2-4.5-6.3c-1.9-2.7-3.9-5.5-5.8-8.2c-0.8-1.1-1.6-2.2-2.3-3.4c-0.9-1.2-1.2-2.7-0.9-4.2
	c0.2-0.9,0.6-1.8,1.3-2.4c0.6-0.7,1.4-1.3,2.2-1.7c0.3-0.2,0.2-0.6,0.2-0.9s-0.3-0.9-0.4-1.4c-0.3-1.2-0.1-2.5,0.6-3.5
	c0.6-1,1.4-1.8,2.4-2.3c0.6-0.3,0.7-0.6,0.5-1.2c-0.4-1-0.5-2.1-0.4-3.2c0.2-0.9,0.7-1.8,1.3-2.5c0.7-0.8,1.6-1.5,2.6-1.9
	c0.8-0.3,1.7-0.5,2.6-0.7l6.6-1.5l7.5-1.7l6-1.4c2.8-0.6,5.5-1.2,8.3-1.9c4.8-1.2,9.9,0.4,13,4.2c1.6,2.1,3.1,4.3,4.6,6.5l5.4,7.6
	c2.4,3.5,4.9,6.9,7.3,10.3c0.7,0.9,1.3,1.8,1.9,2.8c0.2,0.4,0.3,0.8,0.4,1.2c0.8,2.5-0.3,5.2-2.7,6.4c-0.3,0.1-0.5,0.3-0.7,0.5
	s-0.2,0.4-0.1,0.6c0.5,1.1,0.6,2.4,0.4,3.6c-0.2,1.5-1.2,2.8-2.5,3.5c-0.2,0.1-0.3,0.2-0.4,0.3c-0.6,0.4-0.6,0.5-0.5,1.3
	c0.4,1.3,0.4,2.8,0.1,4.1c-0.6,1.6-1.9,2.8-3.5,3.2c-1.6,0.5-3.3,1-5,1.3l-10.6,2.5L129.1,98c-1.6,0.4-3.2,0.7-4.8,1.1
	C121.8,99.8,119.1,99.6,116.6,98.6"/>
<path class="st0" d="M132.9,47.9c-0.9-0.3-1.9-0.5-2.8-0.5c-1.5,0-3,0.1-4.4,0.5c-2.5,0.6-5.1,1.2-7.6,1.8c-0.4,0.1-0.4,0.2-0.2,0.5
	l3.7,5.1c3.3,4.7,6.6,9.3,9.8,13.9c0.2,0.3,0.6,0.5,0.9,0.3c2.7-0.7,5.4-1.3,8.1-1.9c1.4-0.3,2.8-0.8,4-1.5c0.6-0.4,1.2-0.9,1.5-1.6
	c0.5-1.1,0.4-2.5-0.2-3.5c-1-1.9-2.6-3.3-4.6-4c-1.4-0.6-2.9-0.8-4.4-0.6c-0.1,0-0.3,0.1-0.3-0.1s0.1-0.2,0.2-0.2
	c1.5-0.9,2-2.9,1.1-4.4c0,0,0,0,0-0.1C136.6,49.9,134.9,48.5,132.9,47.9z M116.6,98.6c-2.6-0.9-4.9-2.7-6.4-5.1
	c-1.7-2.5-3.4-4.9-5.2-7.4c-1.5-2.1-3-4.2-4.5-6.3c-1.9-2.7-3.9-5.5-5.8-8.2c-0.8-1.1-1.6-2.2-2.3-3.4c-0.9-1.2-1.2-2.7-0.9-4.2
	c0.2-0.9,0.6-1.8,1.3-2.4c0.6-0.7,1.4-1.3,2.2-1.7c0.3-0.2,0.2-0.6,0.2-0.9s-0.3-0.9-0.4-1.4c-0.3-1.2-0.1-2.5,0.6-3.5
	c0.6-1,1.4-1.8,2.4-2.3c0.6-0.3,0.7-0.6,0.5-1.2c-0.4-1-0.5-2.1-0.4-3.2c0.2-0.9,0.7-1.8,1.3-2.5c0.7-0.8,1.6-1.5,2.6-1.9
	c0.8-0.3,1.7-0.5,2.6-0.7l6.6-1.5l7.5-1.7l6-1.4c2.8-0.6,5.5-1.2,8.3-1.9c4.8-1.2,9.9,0.4,13,4.2c1.6,2.1,3.1,4.3,4.6,6.5l5.4,7.6
	c2.4,3.5,4.9,6.9,7.3,10.3c0.7,0.9,1.3,1.8,1.9,2.8c0.2,0.4,0.3,0.8,0.4,1.2c0.8,2.5-0.3,5.2-2.7,6.4c-0.3,0.1-0.5,0.3-0.7,0.5
	s-0.2,0.4-0.1,0.6c0.5,1.1,0.6,2.4,0.4,3.6c-0.2,1.5-1.2,2.8-2.5,3.5c-0.2,0.1-0.3,0.2-0.4,0.3c-0.6,0.4-0.6,0.5-0.5,1.3
	c0.4,1.3,0.4,2.8,0.1,4.1c-0.6,1.6-1.9,2.8-3.5,3.2c-1.6,0.5-3.3,1-5,1.3l-10.6,2.5L129.1,98c-1.6,0.4-3.2,0.7-4.8,1.1
	C121.8,99.8,119.1,99.6,116.6,98.6z"/>
<path d="M139.5,58.7c1.5,0.6,2.7,1.8,3.2,3.3c0.2,0.7,0,1.6-0.6,2.1s-1.3,0.9-2.1,1.2c-2.1,0.6-4.3,1-6.5,1.6
	c-0.2,0.1-0.4,0-0.5-0.2c-1.5-2.1-3-4.2-4.5-6.3c-0.2-0.3-0.1-0.4,0.2-0.5c1.5-0.3,2.9-0.7,4.4-1c1.1-0.3,2.1-0.5,3.2-0.5
	C137.4,58.2,138.5,58.3,139.5,58.7"/>
<path class="st0" d="M139.5,58.7c1.5,0.6,2.7,1.8,3.2,3.3c0.2,0.7,0,1.6-0.6,2.1s-1.3,0.9-2.1,1.2c-2.1,0.6-4.3,1-6.5,1.6
	c-0.2,0.1-0.4,0-0.5-0.2c-1.5-2.1-3-4.2-4.5-6.3c-0.2-0.3-0.1-0.4,0.2-0.5c1.5-0.3,2.9-0.7,4.4-1c1.1-0.3,2.1-0.5,3.2-0.5
	C137.4,58.2,138.4,58.3,139.5,58.7z"/>
<path d="M132.2,50.1c1.1,0.5,2.1,1.4,2.6,2.5c0.6,1,0.2,2.4-0.9,2.9c0,0-0.1,0-0.1,0.1c-0.7,0.4-1.4,0.7-2.1,0.8
	c-1.5,0.4-3.1,0.7-4.6,1.1c-0.3,0.1-0.7,0-0.8-0.3l-4-5.6c-0.2-0.3-0.1-0.4,0.2-0.5c2-0.5,3.9-0.9,5.9-1.3
	C129.6,49.5,131,49.6,132.2,50.1"/>
<path class="st0" d="M132.2,50.1c1.1,0.5,2.1,1.4,2.6,2.5c0.6,1,0.2,2.4-0.9,2.9c0,0-0.1,0-0.1,0.1c-0.7,0.4-1.4,0.7-2.1,0.8
	c-1.5,0.4-3.1,0.7-4.6,1.1c-0.3,0.1-0.7,0-0.8-0.3l-4-5.6c-0.2-0.3-0.1-0.4,0.2-0.5c2-0.5,3.9-0.9,5.9-1.3
	C129.7,49.5,131,49.6,132.2,50.1z"/>
<path class="st1" d="M160.8,83.5c-1.6,0.5-3.1,0.7-4.7,1.2l-11.5,2.7L132.9,90c-1.8,0.4-3.5,0.7-5.2,1.3c-2.8,0.7-5.8,0.5-8.4-0.6
	c-2.9-1-5.3-2.9-7-5.6c-1.9-2.7-3.8-5.3-5.7-8.1c-1.7-2.3-3.3-4.6-4.9-6.9c-2.1-2.9-4.2-6-6.3-8.9c-0.6-0.8-1.3-1.8-1.9-2.6
	 M164.2,74.5c-1.6,0.5-3.1,0.7-4.7,1.2L148,78.4c-3.9,0.8-7.8,1.8-11.5,2.6c-1.8,0.4-3.5,0.7-5.2,1.3c-2.8,0.7-5.8,0.5-8.4-0.6
	c-2.9-1-5.3-2.9-7-5.6c-1.9-2.7-3.8-5.3-5.7-8.1c-1.7-2.3-3.3-4.6-4.9-6.9c-2.1-2.9-4.2-6-6.3-8.9c-0.6-0.8-1.3-1.8-1.9-2.6"/>
<path d="M132.4,113.6c-4.3,0-8.6,1-12.5,2.9c-1.3-2.6-2.6-4.8-2.8-6.5c-0.4-1.8-0.4-3.7-0.2-5.5c0.4-2,1-4,1.7-5.9
	c0-0.2-0.3-1.4-3.1-1.5s-5.2,0.5-5.4,1.3c-0.5,1.4-0.9,2.7-1.2,4.2c-0.5,2.6-5.6,11.6-8.4,16.4c-0.9-1.5-1.5-3.1-1.9-4.8
	c-0.4-1.8-0.4-3.7-0.2-5.5c0.4-2,1-4,1.7-5.9c0-0.2-0.3-1.4-3.1-1.5s-5.2,0.6-5.4,1.3s-0.6,2.5-1.2,4.2s-7.3,16.8-9,20.7
	c-0.9,2-1.7,3.6-2.2,4.7s0,0.1-0.1,0.2l-0.8,1.4l0,0c-0.4,0.7-0.8,1.3-1,1.3c-0.3-1.4-0.3-2.9,0.1-4.3c1-5.2,3.4-13.4,3.4-13.7
	c0-0.1,0.5-1.6-1.6-2.3c-1-0.5-2.1-0.3-2.8,0.5c-0.2,0-0.3,0.4-0.3,0.4s2.2-9.2-4.2-9.2c-4,0-9.5,4.4-12.2,8.4l-9.3,5.2
	c-1.5,0.8-3,1.7-4.5,2.5l-0.3-0.3C37.9,114,23.7,108.1,24.2,97c0.2-4,1.6-14.7,27.4-27.7c21.1-10.6,38-7.7,40.9-1.2
	c4.2,9.2-9,26.4-30.9,28.9c-8.3,1-12.7-2.3-13.8-3.5s-1.3-1.3-1.7-1.1c-0.7,0.4-0.3,1.5,0,2.2c0.6,1.7,3.3,4.8,7.9,6.3
	c4,1.3,13.8,2.1,25.7-2.6c13.3-5.2,23.6-19.6,20.6-31.6C97,54.3,76.8,50.2,57.8,57.1c-11.3,4.1-23.6,10.4-32.5,18.8
	C14.9,85.7,13.2,94.4,13.9,98c2.4,12.8,19.9,21.1,26.9,27.3c-0.3,0.2-0.7,0.4-1,0.5c-3.5,1.7-16.8,8.7-20.1,16.2
	c-3.8,8.4,0.6,14.5,3.5,15.3c9,2.5,18.2-2,23.2-9.5s4.4-17.2,2.1-21.6l-0.1-0.2l2.8-1.6c1.8-1,3.5-2,5.1-2.9c-1,3-1.6,6.1-1.8,9.2
	c-0.4,4.8,1.6,11,4.1,13.4c0.9,0.8,2.1,1.2,3.3,1.1c3,0,4.3-2.5,5.8-5.4c1.8-3.6,3.4-7.8,3.4-7.8s-2,11.3,3.5,11.3c2,0,4-2.6,5-4
	l0,0l0.2-0.3l0.3-0.5v-0.1c0.8-1.4,2.6-4.6,5.3-10c3.5-6.9,6.8-15.6,6.8-15.6c0.3,1.9,0.8,3.8,1.3,5.6c0.8,2.2,1.8,4.4,2.9,6.5
	c-0.8,1.2-1.3,1.9-1.3,1.9l0,0c-0.7,0.9-1.4,1.8-2.1,2.7c-2.7,3.3-6,7.1-6.5,8.2c-0.5,1.3-0.4,2.2,0.6,3c1,0.5,2.2,0.7,3.4,0.5
	c1.7-0.1,3.5-0.5,5.1-1.2c1.6-0.5,3-1.3,4.4-2.3c2.8-2,4.4-5.2,4.2-8.7c-0.2-2.1-0.7-4.2-1.6-6.1c0.2-0.4,0.5-0.7,0.7-1.1
	c2.8-4.2,5.3-8.6,7.5-13.2c0.3,1.9,0.8,3.7,1.3,5.5c0.7,1.9,1.5,3.8,2.4,5.6c-4,3.3-6.5,7.1-7.3,9.6c-1.6,4.6-0.3,6.7,2,7.2
	c1.3,0.1,2.6-0.2,3.7-0.8c1.7-0.6,3.2-1.4,4.7-2.4c2.7-2,5.3-4.8,5.1-8.6c-0.1-1.7-0.5-3.5-1.2-5.1c4.2-1.7,8.8-2.2,13.4-1.6
	c12,1.4,14.4,9,13.9,12.1c-0.4,2.3-1.8,4.2-3.8,5.4c-0.8,0.5-1.1,0.7-1,1.1c0.1,0.6,0.5,0.5,1.2,0.4c3.7-1.2,6.3-4.5,6.5-8.4
	C151.9,121.7,144.9,113.6,132.4,113.6 M40,145.1c-4,4.4-9.5,6-11.9,4.6c-2.5-1.5-1.6-7.9,3.3-12.6c2.9-2.6,6-5,9.4-7l2.5-1.5
	l0.3-0.2l0.6-0.4C45.9,134.1,44.3,140.5,40,145.1 M69,125.2c-1.4,3.4-4.3,12.1-6,11.6c-1.5-0.4-2.4-7-0.3-13.5
	c1.1-3.1,2.7-6.1,4.7-8.7c2.2-2.4,4.6-3.3,5.1-2.3C73.3,113.6,69.9,123.1,69,125.2 M92.9,136.7c-0.6,0.3-1.1,0.5-1.4,0.4
	s0.2-0.5,0.2-0.5s3-3.2,4.2-4.7c0.7-0.9,1.5-1.9,2.3-3v0.3C98.3,133.1,94.6,135.7,92.9,136.7 M111.3,132.5c-0.4-0.3-0.4-1.3,1.1-4.5
	c1-2,2.4-3.8,4.1-5.3c0.3,0.8,0.4,1.5,0.4,2.3C116.9,129.9,113.4,131.8,111.3,132.5"/>
<path d="M54,6.6c0,0.7,0.1,1.3,0.2,2c0.1,1,0.2,1.9,0.2,2.9c0,0.6,0.1,1.3,0.2,1.9c0.2,1.2,0.3,2.5,0.3,3.7c0,0.9,0.2,1.9,0.2,2.8
	s0.1,1.9,0.2,2.8l0.2,1.9c0.1,1.3,0.2,2.5,0.3,3.8c0.1,1,0.2,1.9,0.3,2.9c0.1,1,0.1,1.8,0.2,2.8s0.2,1.9,0.2,2.8s0.1,1.9,0.2,2.8
	c0,0.4,0.1,0.8,0.1,1.2c0.2,1.2,0.2,2.5,0.3,3.7c0.1,0.9,0.2,1.9,0.2,2.8s0.1,1.8,0.2,2.8c0,0.6,0.1,1.2,0.2,1.8
	c0.1,1.3,0.2,2.5,0.4,3.8c0.1,0.6-0.1,0.8-0.6,1c-1.9,0.9-3.8,1.8-5.7,2.7c-1.4,0.7-2.8,1.4-4.3,2.1c-1.2,0.5-2.3,1.1-3.5,1.7
	c-1.3,0.6-2.6,1.2-3.9,1.9c-0.5,0.2-0.5,0.2-0.6-0.3c-0.5-2.6-0.9-5.2-1.3-7.8c-1.4-0.3-2.8-0.4-4.2-0.6c-3.3-0.5-6.5-1-9.8-1.5
	c-0.2,0-0.4-0.2-0.4-0.4c-0.3-1.4-0.7-2.8-1-4.2c-0.1-0.4-0.2-0.8-0.3-1.3c-0.2-0.7-0.3-1.3-0.4-2c-0.1-0.4-0.2-0.9-0.3-1.3
	c0-0.2,0-0.3,0.2-0.3l6.4-1.1c0.2,0,0.3,0,0.3,0.2c0.2,1,0.4,1.9,0.6,2.9c0.1,0.3,0.2,0.7,0.2,1c0,0.2,0.2,0.2,0.3,0.2l5.6,0.9
	c0.5,0.1,1,0.2,1.5,0.2c0.1,0.1,0.2,0,0.3,0c0.4-0.2,0.8-0.5,1.3-0.7l5-2.7c0.1,0,0.2-0.1,0.2-0.2s0-0.4,0-0.6
	c-0.1-0.9-0.2-1.8-0.3-2.7c0-0.4-0.1-0.8-0.2-1.3c-0.1-1-0.2-1.9-0.3-2.9c0-0.2-0.1-0.3-0.3-0.2l-7.3,1.3L28.1,41
	c-0.4,0.1-0.5,0-0.5-0.4c-0.3-1.6-0.7-3.2-1-4.8c-0.1-0.4-0.2-0.9-0.3-1.3c0-0.2,0-0.3,0.2-0.3c0.7-0.1,1.4-0.2,2.1-0.4l5.6-1
	l7.8-1.3c0.2,0,0.2-0.1,0.2-0.3c-0.1-0.9-0.2-1.8-0.3-2.8c-0.2-1.2-0.3-2.5-0.3-3.7c0-0.2-0.1-0.3-0.3-0.2l-8.2,1.4L32.7,26
	l-14.6,2.5c-0.2,0-0.4,0.1-0.5-0.3c-0.2-0.9-0.5-1.9-0.7-2.8c-0.3-1.1-0.6-2.2-0.9-3.3c-0.1-0.3,0-0.4,0.3-0.5c5-0.9,10-1.7,15-2.6
	l0.4-0.1c-0.5-2.7-0.9-5.5-1.4-8.2c-0.1-0.4,0-0.5,0.4-0.6l22.8-4C54,6.1,54,6.1,54,6.6 M58.3,0L29.4,5L4.8,9.2
	c-1.5,0.3-3,0.5-4.5,0.8C0,10,0,10.1,0,10.4c0.2,0.6,0.3,1.3,0.5,1.9s0.3,1,0.4,1.5c0.2,0.9,0.5,1.9,0.7,2.8
	c0.2,0.6,0.3,1.2,0.5,1.8c0.3,0.9,0.5,1.9,0.8,2.8c0.2,0.6,0.3,1.2,0.5,1.8c0.2,0.9,0.5,1.9,0.8,2.8c0.2,0.6,0.3,1.2,0.5,1.8
	c0.2,0.9,0.5,1.9,0.7,2.8c0.2,0.6,0.3,1.2,0.5,1.8L6.7,35c0,0.8,0.1,1.4,0.3,2c0.3,1,0.5,1.9,0.8,2.8C8,40.4,8.1,41,8.3,41.6L9,44.5
	c0.1,0.6,0.3,1.2,0.4,1.8c0.2,0.9,0.5,1.8,0.8,2.7c0.2,0.6,0.3,1.3,0.5,1.9c0.2,0.9,0.5,1.8,0.7,2.7s0.4,1.8,0.7,2.7
	c0.4,1.4,0.8,2.7,1.1,4.1c0.3,1,0.6,2.1,0.8,3.1c0.4,1.4,0.7,2.8,1.1,4.2c0.1,0.2,0.1,0.2,0.3,0.3c2.1,0.2,4.3,0.4,6.4,0.7
	c3.2,0.4,6.4,0.7,9.6,1c2.8,0.3,5.6,0.6,8.4,0.9c0.4,0.1,0.7,0.1,1.1-0.1c1.4-0.7,2.9-1.4,4.4-2.1l8.1-3.9l4.4-2.1
	c1.9-0.9,3.8-1.8,5.8-2.8c0.1,0,0.2-0.1,0.1-0.2c0-0.4-0.1-0.7-0.1-1.1c-0.1-0.6-0.1-1.2-0.2-1.8c-0.1-1-0.2-2-0.2-2.9
	c0-0.6-0.1-1.2-0.2-1.8c-0.1-0.9-0.2-1.9-0.2-2.8c0-0.7-0.1-1.3-0.2-2c-0.1-1-0.2-2-0.2-3c0-0.6-0.1-1.2-0.2-1.8l-0.2-3
	c0-0.6-0.1-1.2-0.1-1.8c-0.1-1-0.2-2-0.2-3c0-0.6-0.1-1.2-0.2-1.8c-0.1-1-0.2-2-0.2-2.9c0-0.6-0.1-1.2-0.2-1.8
	C61,27,61,26,60.9,25.1c-0.1-0.7-0.1-1.3-0.2-2c-0.1-1-0.2-2-0.2-2.9s-0.2-1.7-0.2-2.6s-0.1-2-0.2-2.9c0-0.6-0.1-1.2-0.2-1.8
	c0-1-0.2-2-0.2-3c0-0.6-0.1-1.2-0.2-1.8c-0.1-1-0.2-1.9-0.2-2.9c0-0.6-0.1-1.2-0.2-1.9c-0.1-1-0.1-1.9-0.2-2.9C58.9,0,58.7,0,58.3,0
	"/>
<rect x="120.6" y="137.1" width="17.2" height="17.2"/>
<rect x="120.6" y="158.8" width="17.2" height="17.2"/>
<rect x="98.2" y="158.8" width="17.2" height="17.2"/>
</svg>
