<svg xmlns="http://www.w3.org/2000/svg" viewBox="0 0 149.31 206.05"><defs><style>.cls-1,.cls-2,.cls-3,.cls-4,.cls-6,.cls-7,.cls-8{stroke:#000;stroke-miterlimit:10;}.cls-2,.cls-4,.cls-6,.cls-8{fill:none;}.cls-2,.cls-7{stroke-width:0.6px;}.cls-3,.cls-5,.cls-7{fill:#fff;}.cls-6{stroke-width:0.1px;}.cls-8{stroke-width:0.8px;}</style></defs><g id="Capa_1" data-name="Capa 1"><path class="cls-1" d="M113.23,84.5s10.53-36.5-4.57-63c0,0-8.24-13.9-33.86-16.94-25.62,3-33.86,16.94-33.86,16.94-15.1,26.51-4.58,63-4.58,63"/><path class="cls-2" d="M115.38,71.42s1.68-3.42,3.86,0c0,0-.38,8.59.57,11.85s-.07,8.21-1.71,11.23c0,0-1,6.46-5.13,6.27"/><path d="M117,74.94a16.85,16.85,0,0,0,.11,5.21,32.14,32.14,0,0,0,1.21,5.06v0h0a9.93,9.93,0,0,1,0,2.24,14.52,14.52,0,0,1-.33,2.18,19.93,19.93,0,0,1-1.41,4.13c.19-.7.41-1.39.56-2.1s.33-1.4.43-2.11.18-1.42.22-2.13a9.62,9.62,0,0,0-.09-2.09v0a21.1,21.1,0,0,1-.7-2.56,25.79,25.79,0,0,1-.45-2.63,19.65,19.65,0,0,1-.08-2.66A11,11,0,0,1,117,74.94Z"/><path d="M114.87,85a2.57,2.57,0,0,1,.67,1.12,4.15,4.15,0,0,1,.18,1.31,4.33,4.33,0,0,1-.24,1.29c-.07.2-.17.4-.25.6a6.33,6.33,0,0,1-.36.54c.1-.86.23-1.65.25-2.45A8.71,8.71,0,0,0,114.87,85Z"/><path class="cls-2" d="M34,71.42s-1.68-3.42-3.86,0c0,0,.38,8.59-.57,11.85s.07,8.21,1.71,11.23c0,0,1,6.46,5.13,6.27"/><path d="M32.41,74.94a10.51,10.51,0,0,1,.46,2.61,19.65,19.65,0,0,1-.08,2.66c-.1.89-.26,1.76-.44,2.63a23.15,23.15,0,0,1-.71,2.56v0a9.62,9.62,0,0,0-.09,2.09c0,.71.12,1.42.22,2.13s.27,1.41.43,2.11.37,1.4.56,2.1a19.93,19.93,0,0,1-1.41-4.13A14.52,14.52,0,0,1,31,87.49a10.55,10.55,0,0,1,0-2.24h0v0a32.14,32.14,0,0,0,1.21-5.06A16.55,16.55,0,0,0,32.41,74.94Z"/><path d="M34.5,85a8.71,8.71,0,0,0-.25,2.41c0,.8.15,1.59.25,2.45a6.33,6.33,0,0,1-.36-.54c-.08-.2-.18-.4-.25-.6a4.33,4.33,0,0,1-.24-1.29,3.89,3.89,0,0,1,.19-1.31A2.46,2.46,0,0,1,34.5,85Z"/><polyline class="cls-1" points="35.23 154.87 0 168.87 0 206.05 149.31 206.05 149.31 168.87 114.08 154.87"/><path class="cls-3" d="M105.15,128.31s.67,25,9.83,27.44c0,0,3.74,35.86-40.4,35.86H74.3c-44.15,0-40.4-35.86-40.4-35.86,9.16-2.43,9.82-27.44,9.82-27.44"/><path d="M62.81,74.84c-1.3.16-2.61.27-3.91.38s-2.61.2-3.93.25-2.62.08-3.95.07l-1,0c-.34,0-.67,0-1,0s-.68,0-1.09-.07l-.6-.08a8.45,8.45,0,0,1-.81-.26l.83.21c.28,0,.2,0,.2,0s0,0-.07,0a2.3,2.3,0,0,0-.27.16,3.87,3.87,0,0,1-.34.21c-.11.06-.24.17-.37.25l-.39.26a3.6,3.6,0,0,0-.4.28c-.27.2-.55.4-.84.59-.54.45-1.15.84-1.76,1.28a13.75,13.75,0,0,1-2,1.24l-.29-.2a11.88,11.88,0,0,1,.7-2.31A10.56,10.56,0,0,1,42,76.05c.19-.35.39-.69.61-1s.49-.65.76-1a5.74,5.74,0,0,1,.41-.47l.48-.44a5.43,5.43,0,0,1,.51-.42l.61-.38a6.13,6.13,0,0,1,.72-.33,2.32,2.32,0,0,1,.46-.14,3.2,3.2,0,0,1,.74-.09h.06l.77.21a.19.19,0,0,1,.1.08l.35.14a7.46,7.46,0,0,0,.83.25,17.61,17.61,0,0,0,1.84.38c1.25.22,2.53.38,3.81.58l7.74,1.08Z"/><path d="M87.49,74.49l7.74-1.08c1.28-.2,2.56-.36,3.81-.58a17.61,17.61,0,0,0,1.84-.38,6.86,6.86,0,0,0,.83-.25l.35-.14a.24.24,0,0,1,.1-.08l.77-.21H103a3.41,3.41,0,0,1,.75.09,2.42,2.42,0,0,1,.45.14,6.13,6.13,0,0,1,.72.33l.61.38a5.43,5.43,0,0,1,.51.42l.48.44a5.92,5.92,0,0,1,.42.47c.26.32.51.64.75,1s.42.68.61,1a8.86,8.86,0,0,1,.53,1.07,12.59,12.59,0,0,1,.69,2.31l-.29.2a14.32,14.32,0,0,1-2-1.24c-.6-.44-1.22-.83-1.76-1.28-.29-.19-.57-.39-.84-.59a3.6,3.6,0,0,0-.4-.28l-.39-.26c-.13-.08-.25-.19-.37-.25a3.87,3.87,0,0,1-.34-.21,1.7,1.7,0,0,0-.27-.16l-.07,0s-.07,0,.2,0l.83-.21a8.45,8.45,0,0,1-.81.26c-.22,0-.4,0-.6.08a10.82,10.82,0,0,1-1.09.07c-.36,0-.69,0-1,0l-1,0c-1.33,0-2.64,0-4-.07s-2.62-.15-3.93-.25-2.6-.22-3.91-.38Z"/><path d="M55.8,125.65l3,.82c1.81.48,4.21,1.1,6.64,1.62.61.12,1.21.28,1.81.38l1.76.33c1.14.24,2.21.33,3.13.46a8.47,8.47,0,0,0,1.25.11l1,0h.83l0,.75-.88-.05-1,0a9.12,9.12,0,0,1-1.28-.16c-.92-.17-2-.31-3.15-.59l-1.76-.39c-.6-.13-1.19-.31-1.8-.46-2.41-.61-4.79-1.32-6.58-1.86Z"/><path d="M94.57,125.65l-3,.94c-1.79.54-4.17,1.25-6.58,1.86-.61.15-1.2.33-1.8.46l-1.76.39c-1.13.28-2.22.42-3.15.59a9.12,9.12,0,0,1-1.28.16l-1,0-.88.05,0-.75H76l.95,0a8.47,8.47,0,0,0,1.25-.11c.92-.13,2-.22,3.13-.46l1.76-.33c.6-.1,1.2-.26,1.81-.38,2.43-.52,4.83-1.14,6.64-1.62Z"/><path d="M58.93,125.65l.67.11c.43.06,1,.21,1.78.26l2.52.26c.47,0,.94.11,1.43.12l1.48,0c2,0,4,.06,5.45.17a10.36,10.36,0,0,1,1.78.24,2.08,2.08,0,0,1,.65.25l0,.08A2,2,0,0,0,74,127a11,11,0,0,0-1.77-.25c-1.48-.11-3.46-.14-5.44-.2l-1.48-.06c-.49,0-1-.08-1.43-.13L61.37,126c-.74-.06-1.34-.21-1.77-.27Z"/><path d="M90.46,125.65l-.67.12c-.43.06-1,.21-1.78.27l-2.52.27c-.47,0-.94.12-1.43.13l-1.48.06c-2,.06-4,.09-5.44.2a11,11,0,0,0-1.77.25,2,2,0,0,0-.62.24l-.06-.08a2.23,2.23,0,0,1,.65-.25,10.65,10.65,0,0,1,1.79-.24c1.49-.11,3.47-.12,5.45-.17l1.48,0c.49,0,1-.08,1.42-.12L88,126c.74,0,1.35-.2,1.78-.26Z"/><path d="M61.79,128.3s.34.28,1,.72c.32.23.73.46,1.2.75s1,.59,1.62.86l1,.46,1,.41c.71.31,1.5.5,2.3.77a25.36,25.36,0,0,0,2.54.5l1.32.17c.45,0,.9,0,1.34,0a16.94,16.94,0,0,0,2.67-.13l.66-.06.63-.15,1.25-.27A6.57,6.57,0,0,0,81.5,132l1.11-.4a12.85,12.85,0,0,0,2-.92,11.71,11.71,0,0,0,1.6-.89l1.17-.8,1-.69-1,.7-1.17.81a12.87,12.87,0,0,1-1.6.9,12.74,12.74,0,0,1-2,.93l-1.12.41a6.49,6.49,0,0,1-1.18.37l-1.25.29-.64.14-.66.07a15.89,15.89,0,0,1-2.68.15c-.45,0-.9,0-1.34,0l-1.33-.18a24.8,24.8,0,0,1-2.54-.52c-.8-.27-1.6-.47-2.3-.79l-1-.42-.94-.46c-.62-.28-1.14-.61-1.62-.87s-.88-.53-1.2-.77A11.18,11.18,0,0,1,61.79,128.3Z"/><path d="M69.52,141.05a3.87,3.87,0,0,1,.46-.18,10.8,10.8,0,0,1,1.24-.4c.52-.15,1.14-.26,1.81-.38a20.34,20.34,0,0,1,2.11-.15l1.08,0a7,7,0,0,1,1,.12l1,.16a3.65,3.65,0,0,1,.85.21l1.7.59L79,140.6a3.13,3.13,0,0,0-.84-.17l-1-.13a5.69,5.69,0,0,0-1-.09l-1.06,0a19.93,19.93,0,0,0-2.09.12c-.66.11-1.29.17-1.81.29s-1,.21-1.26.31A3.37,3.37,0,0,0,69.52,141.05Z"/><path d="M45.25,84.31a13.26,13.26,0,0,1,2.25-1.85,15.64,15.64,0,0,1,2.57-1.41,12.58,12.58,0,0,1,1.37-.54c.46-.17,1-.26,1.43-.4s1-.16,1.46-.24,1,0,1.49,0,1,.08,1.47.14,1,.19,1.44.3l1.4.45a7.58,7.58,0,0,1,1.33.61l.63.37.59.44a12.65,12.65,0,0,1,1.09,1c.32.37.61.78.91,1.17l.71,1.32.14.25-.28.16a1.31,1.31,0,0,1-.31.16,1.63,1.63,0,0,1-.31.11,2,2,0,0,1-.65.09,2.42,2.42,0,0,1-.66-.06,4.65,4.65,0,0,1-.63-.21l.26,0c-1.5.26-3,.42-4.5.55-.75.06-1.5.09-2.26.11-.38,0-.76,0-1.13,0s-.76,0-1.14,0c-.75,0-1.51-.11-2.26-.19-.38,0-.76-.12-1.13-.17a8.53,8.53,0,0,1-1.12-.22c-.37-.1-.74-.17-1.11-.3s-.72-.23-1.08-.38l-1-.5c-.32-.21-.63-.43-.94-.65l0,0Zm.14,0,.93.43,1,.33c.35.1.72.16,1.08.25s.72.11,1.09.17.72.1,1.09.12.73.08,1.1.09c.74,0,1.48,0,2.22,0s1.48,0,2.22,0,1.48-.06,2.22-.08c1.48-.07,3-.19,4.43-.35l.11,0,.15.06a2.87,2.87,0,0,0,.44.17,1.77,1.77,0,0,0,.46.08,1.47,1.47,0,0,0,.47,0,2.1,2.1,0,0,0,.24-.06l.2-.07-.14.41-.54-1.28c-.24-.39-.48-.79-.76-1.17a6.69,6.69,0,0,0-1-1L61.91,82l-.6-.38A6.68,6.68,0,0,0,60,81l-1.39-.32-1.4-.14c-.47,0-.94,0-1.41,0l-1.39.14c-.45.1-.92.14-1.37.25s-.92.19-1.36.35-.9.27-1.33.44a23,23,0,0,0-2.59,1.15A25,25,0,0,0,45.39,84.34Z"/><circle class="cls-4" cx="55.53" cy="83.26" r="2.73"/><circle cx="55.53" cy="83.26" r="1.22"/><path class="cls-5" d="M56.59,81.8a.47.47,0,1,1-.47-.47A.47.47,0,0,1,56.59,81.8Z"/><path d="M103.57,84.31a27.69,27.69,0,0,0-2.39-1.41,21.22,21.22,0,0,0-2.59-1.14c-.44-.18-.89-.31-1.34-.45A12.29,12.29,0,0,0,95.89,81c-.45-.12-.91-.16-1.37-.25l-1.39-.15c-.47,0-.94,0-1.41,0l-1.4.14L88.94,81a5.94,5.94,0,0,0-1.3.54l-.6.38-.55.44a7.79,7.79,0,0,0-1,1c-.27.38-.51.78-.76,1.17l-.53,1.29-.14-.42.2.08.23,0a1.87,1.87,0,0,0,.47,0,1.93,1.93,0,0,0,.47-.08c.15,0,.29-.13.44-.18l.14,0h.11c1.47.16,3,.29,4.44.35.74,0,1.48.07,2.22.08s1.48,0,2.22,0,1.47,0,2.21,0c.37,0,.73-.06,1.1-.08s.73-.08,1.1-.13a10.27,10.27,0,0,0,1.09-.17c.35-.08.72-.14,1.07-.24l1.06-.33Zm.13,0-.94.65-1,.5c-.35.14-.72.24-1.08.37a11.24,11.24,0,0,1-1.1.3,8.86,8.86,0,0,1-1.12.22c-.38.06-.76.13-1.13.17-.76.08-1.51.17-2.27.19l-1.13,0c-.38,0-.76,0-1.14,0-.75,0-1.51,0-2.26-.11-1.51-.13-3-.28-4.5-.54l.26,0a3.55,3.55,0,0,1-.63.2,2.36,2.36,0,0,1-.65.07,2.92,2.92,0,0,1-.66-.09L84,86.17,83.7,86l-.27-.17.13-.25.71-1.31c.3-.4.59-.8.91-1.17a12.65,12.65,0,0,1,1.09-1l.59-.44.63-.38a8.1,8.1,0,0,1,1.34-.61l1.39-.44c.48-.12,1-.2,1.44-.31s1-.09,1.48-.14,1,0,1.48,0,1,.13,1.47.24a14.28,14.28,0,0,1,1.42.4,11.54,11.54,0,0,1,1.38.53,16.84,16.84,0,0,1,2.56,1.42,12.91,12.91,0,0,1,2.25,1.84l0,0Z"/><circle class="cls-4" cx="94.42" cy="82.29" r="2.73"/><circle cx="94.42" cy="82.29" r="1.22"/><circle class="cls-5" cx="94.78" cy="81.8" r="0.47"/><path d="M102.76,39.05s-22.58,1-27.58,3h0c-5-2-27.58-3-27.58-3"/><path d="M63.1,84.75a1.92,1.92,0,0,1,.07-.36c0-.21.26-.43.35-.7a1.34,1.34,0,0,1,.22-.37.77.77,0,0,1,.27-.27.56.56,0,0,1,.36-.09v0a1.12,1.12,0,0,0-.29.17,4.58,4.58,0,0,0-.49.58,1.06,1.06,0,0,0-.18.37,2.06,2.06,0,0,1-.13.33,2.43,2.43,0,0,1-.17.32Z"/><path d="M87.14,84.75a2.43,2.43,0,0,1-.17-.32,2.06,2.06,0,0,1-.13-.33,1.06,1.06,0,0,0-.18-.37,4.58,4.58,0,0,0-.49-.58,1.12,1.12,0,0,0-.29-.17v0a.56.56,0,0,1,.36.09.89.89,0,0,1,.28.27,1.32,1.32,0,0,1,.21.37c.09.27.3.49.35.7a1.26,1.26,0,0,1,.07.36Z"/><path class="cls-1" d="M113.23,84.5s10.53-36.5-4.57-63c0,0-8.24-13.9-33.86-16.94-25.62,3-33.86,16.94-33.86,16.94-15.1,26.51-4.58,63-4.58,63"/><path class="cls-6" d="M34,71.42s-1.68-3.42-3.86,0c0,0,.38,8.59-.57,11.85s.07,8.21,1.71,11.23c0,0,1,6.46,5.13,6.27"/><path class="cls-6" d="M32.41,74.94c1.09,4.28-1,10.37-1,10.37s-.65,3.13,1.4,8.49"/><path class="cls-6" d="M34.5,85s-1.24,1.85,0,4.86"/><polyline class="cls-1" points="35.23 154.87 0 168.87 0 206.05 149.31 206.05 149.31 168.87 114.08 154.87"/><path class="cls-7" d="M105.15,128.31s.67,25,9.83,27.44c0,0,3.74,35.86-40.4,35.86H74.3c-44.15,0-40.4-35.86-40.4-35.86,9.16-2.43,9.82-27.44,9.82-27.44"/><path class="cls-7" d="M74.18,150.88c4,.27,9.9-1.46,9.9-1.46,10.51-3.44,21.5-21.55,21.5-21.55a81.09,81.09,0,0,0,7.79-29.29V96.24l-2-43.23c0-5.78-3.19-14-9.6-14H47.61c-6.41,0-9.6,8.18-9.6,14L36,96.24v2.34a81.09,81.09,0,0,0,7.79,29.29s11,18.11,21.5,21.55c0,0,5.93,1.73,9.9,1.46"/><path d="M62.8,75.21,55,75.44c-1.32.06-2.63.12-4,.1l-1,0c-.34,0-.67,0-1,0s-.68,0-1.09-.07l-.6-.08a8.45,8.45,0,0,1-.81-.26l.83.21c.28,0,.2,0,.2,0s0,0-.07,0a2.3,2.3,0,0,0-.27.16,3.87,3.87,0,0,1-.34.21c-.11.06-.24.17-.37.25l-.39.26a3.6,3.6,0,0,0-.4.28c-.27.2-.55.4-.84.59-.54.45-1.15.84-1.76,1.28a13.75,13.75,0,0,1-2,1.24h0a.19.19,0,0,1-.26-.09.25.25,0,0,1,0-.12,11.88,11.88,0,0,1,.7-2.31A10.56,10.56,0,0,1,42,76.05c.19-.35.39-.69.61-1s.49-.65.76-1a5.74,5.74,0,0,1,.41-.47l.48-.44a5.43,5.43,0,0,1,.51-.42l.61-.38a6.13,6.13,0,0,1,.72-.33,2.32,2.32,0,0,1,.46-.14,3.2,3.2,0,0,1,.74-.09h.06l.77.21a.19.19,0,0,1,.1.08l.35.14a7.46,7.46,0,0,0,.83.25c.59.16,1.21.28,1.84.39,1.25.2,2.53.42,3.81.59,2.57.34,5.16.56,7.75.69a.55.55,0,0,1,.52.57A.55.55,0,0,1,62.8,75.21Z"/><path d="M86.51,74.12c2.58-.13,5.17-.35,7.74-.69,1.28-.17,2.56-.39,3.82-.59a17.42,17.42,0,0,0,1.83-.39,6.86,6.86,0,0,0,.83-.25l.35-.14a.21.21,0,0,1,.11-.08l.76-.21h.38l.17,0,.28.06a2.3,2.3,0,0,1,.44.13,6.13,6.13,0,0,1,.72.33,6.49,6.49,0,0,1,1.13.8A9.86,9.86,0,0,1,106.7,75a11.61,11.61,0,0,1,1.83,4.41.18.18,0,0,1-.16.22.25.25,0,0,1-.12,0h0a18.11,18.11,0,0,1-2-1.25c-.61-.43-1.21-.85-1.77-1.27s-1.12-.8-1.63-1.14c-.25-.17-.5-.34-.71-.46l-.28-.16-.08,0s0,0,0,0H102l.83-.21a8.45,8.45,0,0,1-.81.26c-.22,0-.4,0-.6.08a10.82,10.82,0,0,1-1.09.07l-2,.05c-1.34,0-2.65,0-4-.1l-7.83-.23a.54.54,0,0,1-.53-.56A.53.53,0,0,1,86.51,74.12Z"/><path d="M70.81,87.21a45.22,45.22,0,0,1,.24,7,24.2,24.2,0,0,1-1.17,6.93,5.64,5.64,0,0,1-2.14,2.9,8.16,8.16,0,0,0-2.59,2.14,4.93,4.93,0,0,0-1.08,3.1,4.13,4.13,0,0,0,.37,1.65,4.68,4.68,0,0,0,1,1.38,4.15,4.15,0,0,1-1.67-3,5.23,5.23,0,0,1,1-3.39,7.91,7.91,0,0,1,2.68-2.34,5.13,5.13,0,0,0,1.86-2.65,25.29,25.29,0,0,0,1.27-6.74C70.78,91.86,70.83,89.54,70.81,87.21Z"/><path d="M66.26,111.38a3.5,3.5,0,0,1,2.43,0,2.62,2.62,0,0,1,1.08.7,1.77,1.77,0,0,1,.44,1.18A3.38,3.38,0,0,0,68.45,112C67.78,111.75,67.05,111.62,66.26,111.38Z"/><path d="M79.07,87.21c0,2.33,0,4.65.22,7a25.3,25.3,0,0,0,1.28,6.74,5.06,5.06,0,0,0,1.85,2.65,8,8,0,0,1,2.69,2.34,5.29,5.29,0,0,1,1,3.39,4.2,4.2,0,0,1-1.68,3,4.71,4.71,0,0,0,1-1.38,4.3,4.3,0,0,0,.36-1.65,4.82,4.82,0,0,0-1.08-3.1A8.12,8.12,0,0,0,82.15,104a5.58,5.58,0,0,1-2.14-2.9,23.88,23.88,0,0,1-1.18-6.93A46.5,46.5,0,0,1,79.07,87.21Z"/><path d="M83.45,111.37c-.79.24-1.52.37-2.19.63a3.39,3.39,0,0,0-1.75,1.23,1.76,1.76,0,0,1,.43-1.18,2.58,2.58,0,0,1,1.08-.71A3.45,3.45,0,0,1,83.45,111.37Z"/><path d="M71.84,114.58a8.67,8.67,0,0,0,3.09.7,5.42,5.42,0,0,0,1.55-.16,7.7,7.7,0,0,0,1.5-.54,4.37,4.37,0,0,1-1.41.84,4.87,4.87,0,0,1-1.65.26A5.32,5.32,0,0,1,71.84,114.58Z"/><path d="M55.8,125.13l3,.82c1.81.47,4.21,1.1,6.64,1.61.61.13,1.21.29,1.81.39l1.76.33c1.14.24,2.21.33,3.13.46a8.47,8.47,0,0,0,1.25.11h1l.83,0,0,.75-.88,0-1-.06a6.88,6.88,0,0,1-1.28-.16c-.92-.16-2-.3-3.15-.58l-1.76-.4c-.6-.12-1.19-.3-1.8-.45-2.41-.61-4.79-1.32-6.58-1.86Z"/><path d="M94.37,125.13q-4.73,1.55-9.54,2.81c-1.61.42-3.22.8-4.86,1.12a24.34,24.34,0,0,1-5,.57l.05-.75a23.58,23.58,0,0,0,4.86-.37c1.63-.26,3.26-.58,4.87-.94Q89.59,126.51,94.37,125.13Z"/><path d="M91.3,125.13a39.61,39.61,0,0,1-8.18,1.07c-1.38,0-2.76,0-4.13,0-.69,0-1.38,0-2.06,0a4.66,4.66,0,0,0-2,.35l-.06,0,0,0-.06,0a5.55,5.55,0,0,0-2-.34c-.69,0-1.37,0-2.06,0-1.37,0-2.74,0-4.12,0a46.91,46.91,0,0,1-8.17-1,45.93,45.93,0,0,0,8.17.91c1.37,0,2.75,0,4.12-.05.69,0,1.37,0,2.06,0a5.43,5.43,0,0,1,2.06.33l.08.05h-.11a4.66,4.66,0,0,1,2.06-.36c.69,0,1.38,0,2.07,0,1.38,0,2.75.08,4.13.08A39.67,39.67,0,0,0,91.3,125.13Z"/><path d="M61.59,127.77a19.54,19.54,0,0,0,3,1.88,25.8,25.8,0,0,0,3.27,1.45,20.9,20.9,0,0,0,7,1.25,18.17,18.17,0,0,0,7-1.17,20.67,20.67,0,0,0,3.25-1.48c1-.55,2-1.29,3-1.93-1,.68-1.91,1.46-3,2.06A21,21,0,0,1,82,131.37a18.53,18.53,0,0,1-7.07,1.28,21.27,21.27,0,0,1-7.06-1.36A22.27,22.27,0,0,1,61.59,127.77Z"/><path d="M69.32,141.05a14.79,14.79,0,0,1,5.62-1.12,14.63,14.63,0,0,1,2.88.26,12.72,12.72,0,0,1,2.75.86,18.14,18.14,0,0,0-2.78-.67,15.9,15.9,0,0,0-2.84-.2,19.76,19.76,0,0,0-5.63.87Z"/><path d="M102.26,39.05s-22.58,1-27.58,3h0c-5-2-27.58-3-27.58-3"/></g><g id="Layer_2" data-name="Layer 2"><path d="M46.27,127.81a.18.18,0,0,1,.07.19.19.19,0,0,0,0,.2.31.31,0,0,1,0,.39h0a.32.32,0,0,1,0-.39.18.18,0,0,0,0-.2.18.18,0,0,1,.07-.19Z"/><path d="M65.14,121.75a.24.24,0,0,1,.07.2.16.16,0,0,0,0,.19.31.31,0,0,1,0,.39h0a.32.32,0,0,1-.05-.39.16.16,0,0,0,0-.19.22.22,0,0,1,.08-.2Z"/><path d="M84.71,121.75a.24.24,0,0,1,.07.2.16.16,0,0,0,0,.19.32.32,0,0,1,0,.39h0a.31.31,0,0,1,0-.39.16.16,0,0,0,0-.19.22.22,0,0,1,.08-.2Z"/><path d="M44.54,124.85a.22.22,0,0,1,.08.2.16.16,0,0,0,0,.19.32.32,0,0,1-.05.39h0a.32.32,0,0,1,0-.39.16.16,0,0,0,0-.19.24.24,0,0,1,.07-.2Z"/><path d="M42.57,120.9a.18.18,0,0,1,.07.19.18.18,0,0,0,0,.2.32.32,0,0,1,0,.39h0a.31.31,0,0,1,0-.39.19.19,0,0,0,0-.2.18.18,0,0,1,.07-.19Z"/><path d="M40.85,117.88a.24.24,0,0,1,.07.2.17.17,0,0,0,0,.19.31.31,0,0,1,0,.39h0a.32.32,0,0,1,0-.39.16.16,0,0,0,0-.19.22.22,0,0,1,.08-.2Z"/><line class="cls-5" x1="104.42" y1="124.85" x2="104.42" y2="125.63"/><path d="M104.43,124.85a.19.19,0,0,1,.07.2.19.19,0,0,0,0,.19.31.31,0,0,1,0,.39h0a.31.31,0,0,1,0-.39.19.19,0,0,0,0-.19.19.19,0,0,1,.07-.2Z"/><line class="cls-5" x1="106.39" y1="120.9" x2="106.39" y2="121.68"/><path d="M106.4,120.9a.18.18,0,0,1,.07.19.18.18,0,0,0,0,.2.32.32,0,0,1,0,.39h0a.31.31,0,0,1,0-.39.19.19,0,0,0,0-.2.18.18,0,0,1,.07-.19Z"/><line class="cls-5" x1="108.12" y1="117.88" x2="108.12" y2="118.66"/><path d="M108.13,117.88a.24.24,0,0,1,.07.2.16.16,0,0,0,0,.19.31.31,0,0,1,0,.39h0a.32.32,0,0,1,0-.39.16.16,0,0,0,0-.19.22.22,0,0,1,.08-.2Z"/><path d="M48.15,129.71a.78.78,0,0,1,0,.78A.83.83,0,0,1,48.15,129.71Z"/><path d="M50.06,131.61a.19.19,0,0,1,.07.2.17.17,0,0,0,0,.19.32.32,0,0,1,0,.39h0a.31.31,0,0,1,0-.39.17.17,0,0,0,0-.19.19.19,0,0,1,.07-.2Z"/><path d="M52,133.51a.83.83,0,0,1,0,.78A.78.78,0,0,1,52,133.51Z"/><path d="M39.77,114.68a.83.83,0,0,1,0,.78A.78.78,0,0,1,39.77,114.68Z"/><path d="M72.38,120.12a.78.78,0,0,1,0,.78A.83.83,0,0,1,72.38,120.12Z"/><path d="M70.76,121.75a.19.19,0,0,1,.07.2.17.17,0,0,0,0,.19.32.32,0,0,1,0,.39h0a.31.31,0,0,1,0-.39.17.17,0,0,0,0-.19.19.19,0,0,1,.07-.2Z"/><path d="M72.38,123.38a.78.78,0,0,1,0,.78A.83.83,0,0,1,72.38,123.38Z"/><path d="M62.47,122.92a.83.83,0,0,1,0,.78A.78.78,0,0,1,62.47,122.92Z"/><path d="M59.77,123.38a.78.78,0,0,1,0,.78A.83.83,0,0,1,59.77,123.38Z"/><path d="M89.55,123.38a.78.78,0,0,1,0,.78A.83.83,0,0,1,89.55,123.38Z"/><path d="M87.13,122.92a.83.83,0,0,1,0,.78A.78.78,0,0,1,87.13,122.92Z"/><polygon points="69.22 123.39 69.12 124.17 69.02 123.39 69.22 123.39"/><path d="M69.94,120.12a.83.83,0,0,1,0,.78A.78.78,0,0,1,69.94,120.12Z"/><path d="M68.31,121.75a.83.83,0,0,1,0,.78A.78.78,0,0,1,68.31,121.75Z"/><path d="M66.68,123.39a.83.83,0,0,1,0,.78A.78.78,0,0,1,66.68,123.39Z"/><path d="M77,120.12a.78.78,0,0,1,0,.78A.83.83,0,0,1,77,120.12Z"/><path d="M77,123.39a.78.78,0,0,1,0,.78A.83.83,0,0,1,77,123.39Z"/><path d="M78.62,121.75a.22.22,0,0,1,.07.19.19.19,0,0,0,0,.2.31.31,0,0,1,0,.39h0a.32.32,0,0,1,0-.39.17.17,0,0,0,0-.2.2.2,0,0,1,.08-.19Z"/><polygon points="80.33 123.38 80.23 124.16 80.13 123.38 80.33 123.38"/><path d="M79.83,120.12a.83.83,0,0,1,0,.78A.78.78,0,0,1,79.83,120.12Z"/><path d="M81.45,121.75a.78.78,0,0,1,0,.78A.83.83,0,0,1,81.45,121.75Z"/><path d="M83.08,123.38a.83.83,0,0,1,0,.78A.78.78,0,0,1,83.08,123.38Z"/><path d="M109.1,114.68a.78.78,0,0,1,0,.78A.83.83,0,0,1,109.1,114.68Z"/><path d="M53.85,135.42a.2.2,0,0,1,.08.19.17.17,0,0,0,0,.2.32.32,0,0,1,0,.39h0a.31.31,0,0,1,0-.39.19.19,0,0,0,0-.2.22.22,0,0,1,.07-.19Z"/><path d="M55.74,137.32a.83.83,0,0,1,0,.78A.78.78,0,0,1,55.74,137.32Z"/><path d="M57.65,139.22a.24.24,0,0,1,.07.2.16.16,0,0,0,0,.19.32.32,0,0,1,0,.39h0a.31.31,0,0,1-.05-.39.16.16,0,0,0,0-.19.22.22,0,0,1,.08-.2Z"/><path d="M59.53,141.12a.78.78,0,0,1,0,.78A.83.83,0,0,1,59.53,141.12Z"/><path d="M49,133a.24.24,0,0,1,.07.2.16.16,0,0,0,0,.19.32.32,0,0,1,0,.39h0a.31.31,0,0,1,0-.39.16.16,0,0,0,0-.19.22.22,0,0,1,.08-.2Z"/><polygon points="50.93 135.61 50.83 136.39 50.73 135.61 50.93 135.61"/><path d="M50.84,128.76a.29.29,0,0,1,.11.2l.06.19-.06.2a.27.27,0,0,1-.11.19h0q0-.39,0-.78Z"/><path d="M48.16,126.89a.2.2,0,0,1,.08.19.17.17,0,0,0,0,.2.31.31,0,0,1-.05.39h0a.32.32,0,0,1,0-.39.17.17,0,0,0,0-.2.22.22,0,0,1,.07-.19Z"/><path d="M101.12,126.89a.2.2,0,0,1,.08.19.17.17,0,0,0,0,.2.31.31,0,0,1,0,.39h0a.32.32,0,0,1,0-.39.17.17,0,0,0,0-.2.22.22,0,0,1,.07-.19Z"/><path d="M98.27,128.76a.29.29,0,0,1,.11.2l.06.19-.06.2a.38.38,0,0,1-.11.19h0q0-.39,0-.78Z"/><path d="M52.74,136.76a.19.19,0,0,1,.07.19.19.19,0,0,0,0,.2.31.31,0,0,1,0,.39h0a.32.32,0,0,1,0-.39.17.17,0,0,0,0-.2.2.2,0,0,1,.08-.19Z"/><path d="M52.74,131.61c0,.13,0,.26.07.39a.43.43,0,0,1-.07.39h0a.38.38,0,0,1-.07-.39c0-.13,0-.26.07-.39Z"/><path d="M96.22,131.61c0,.13,0,.26.07.39a.43.43,0,0,1-.07.39h0a.38.38,0,0,1-.07-.39,2.66,2.66,0,0,1,.07-.39Z"/><polygon points="54.72 139.42 54.62 140.2 54.52 139.42 54.72 139.42"/><path d="M56.53,140.56a.19.19,0,0,1,.07.2.19.19,0,0,0,0,.19.31.31,0,0,1,0,.39h0a.32.32,0,0,1,0-.39.17.17,0,0,0,0-.19.19.19,0,0,1,.07-.2Z"/><path d="M56.52,135a.83.83,0,0,1,0,.78A.8.8,0,0,1,56.52,135Z"/><path d="M92.43,135a.83.83,0,0,1,0,.78A.78.78,0,0,1,92.43,135Z"/><polygon points="58.52 143.22 58.41 144 58.31 143.22 58.52 143.22"/><path d="M50.83,138.27a.78.78,0,0,1,0,.78A.83.83,0,0,1,50.83,138.27Z"/><path d="M54.62,142.46a.8.8,0,0,1,0,.79A.85.85,0,0,1,54.62,142.46Z"/><path d="M58.42,145.88a.83.83,0,0,1,0,.78A.78.78,0,0,1,58.42,145.88Z"/><path d="M60.32,144.37a.18.18,0,0,1,.07.19.18.18,0,0,0,0,.2.32.32,0,0,1,0,.39h0a.31.31,0,0,1,0-.39.19.19,0,0,0,0-.2.18.18,0,0,1,.07-.19Z"/><path d="M64.1,144.37a.22.22,0,0,1,.07.19.17.17,0,0,0,0,.2.32.32,0,0,1,0,.39h0a.32.32,0,0,1,0-.39.17.17,0,0,0,0-.2.22.22,0,0,1,.07-.19Z"/><path d="M62.22,143.25a.18.18,0,0,1,.07.19.19.19,0,0,0,0,.2.31.31,0,0,1,0,.39h0a.32.32,0,0,1-.05-.39.17.17,0,0,0,0-.2.2.2,0,0,1,.08-.19Z"/><path d="M62.21,146.27a.83.83,0,0,1,0,.78A.78.78,0,0,1,62.21,146.27Z"/><path d="M66.42,144.37a.18.18,0,0,1,.07.19.18.18,0,0,0,0,.2.32.32,0,0,1,0,.39h0a.31.31,0,0,1,0-.39.19.19,0,0,0,0-.2.18.18,0,0,1,.07-.19Z"/><path d="M70.2,144.37a.22.22,0,0,1,.07.19.17.17,0,0,0,0,.2.32.32,0,0,1,0,.39h0a.31.31,0,0,1-.05-.39.17.17,0,0,0,0-.2.2.2,0,0,1,.08-.19Z"/><path d="M69.11,150.74a.24.24,0,0,1,.07.2.16.16,0,0,0,0,.19.32.32,0,0,1,0,.39h0a.32.32,0,0,1,0-.39.16.16,0,0,0,0-.19.22.22,0,0,1,.08-.2Z"/><polygon points="80.6 150.74 80.5 151.52 80.4 150.74 80.6 150.74"/><path d="M68.32,143.25a.18.18,0,0,1,.07.19.19.19,0,0,0,0,.2.31.31,0,0,1,0,.39h0a.32.32,0,0,1,0-.39.18.18,0,0,0,0-.2.18.18,0,0,1,.07-.19Z"/><path d="M68.31,146.27a.83.83,0,0,1,0,.78A.78.78,0,0,1,68.31,146.27Z"/><path d="M70.49,148.44a.78.78,0,0,1,0,.78A.83.83,0,0,1,70.49,148.44Z"/><path d="M63.73,148.05a.22.22,0,0,1,.07.19.17.17,0,0,0,0,.2.32.32,0,0,1,0,.39h0a.31.31,0,0,1-.05-.39.17.17,0,0,0,0-.2.2.2,0,0,1,.08-.19Z"/><path d="M67.5,148.05a.18.18,0,0,1,.07.19.19.19,0,0,0,0,.2.31.31,0,0,1,0,.39h0a.32.32,0,0,1,0-.39.18.18,0,0,0,0-.2.18.18,0,0,1,.07-.19Z"/><path d="M71.68,146.93a.18.18,0,0,1,.07.19.18.18,0,0,0,0,.2.32.32,0,0,1,0,.39h0a.31.31,0,0,1,0-.39.21.21,0,0,0,0-.2.18.18,0,0,1,.07-.19Z"/><path d="M78,146.93a.19.19,0,0,1,.07.19.19.19,0,0,0,0,.2.31.31,0,0,1,0,.39h0a.32.32,0,0,1,0-.39.17.17,0,0,0,0-.2.2.2,0,0,1,.08-.19Z"/><polygon points="71.77 151.07 71.67 151.85 71.57 151.07 71.77 151.07"/><path d="M78,151.07a.21.21,0,0,1,.07.2.17.17,0,0,0,0,.19.31.31,0,0,1,0,.39h0a.32.32,0,0,1,0-.39.16.16,0,0,0,0-.19.22.22,0,0,1,.08-.2Z"/><path d="M65.62,146.93a.18.18,0,0,1,.07.19.18.18,0,0,0,0,.2.32.32,0,0,1,0,.39h0a.31.31,0,0,1,0-.39.19.19,0,0,0,0-.2.18.18,0,0,1,.07-.19Z"/><path d="M65.61,150a.78.78,0,0,1,0,.78A.83.83,0,0,1,65.61,150Z"/><path d="M82.81,148.05a.18.18,0,0,1,.07.19.21.21,0,0,0,0,.2.31.31,0,0,1,0,.39h0a.32.32,0,0,1-.05-.39.18.18,0,0,0,0-.2.18.18,0,0,1,.07-.19Z"/><path d="M86.58,148.05a.2.2,0,0,1,.08.19.17.17,0,0,0,0,.2.32.32,0,0,1,0,.39h0a.31.31,0,0,1,0-.39.19.19,0,0,0,0-.2.22.22,0,0,1,.07-.19Z"/><path d="M84.71,146.93a.22.22,0,0,1,.07.19.17.17,0,0,0,0,.2.32.32,0,0,1,0,.39h0a.31.31,0,0,1,0-.39.17.17,0,0,0,0-.2.2.2,0,0,1,.08-.19Z"/><path d="M84.7,149.73a.83.83,0,0,1,0,.78A.78.78,0,0,1,84.7,149.73Z"/><path d="M72.8,144.37a.2.2,0,0,1,.08.19.17.17,0,0,0,0,.2.31.31,0,0,1,0,.39h0a.32.32,0,0,1,0-.39.17.17,0,0,0,0-.2.22.22,0,0,1,.07-.19Z"/><path d="M76.58,144.37a.18.18,0,0,1,.07.19.19.19,0,0,0,0,.2.31.31,0,0,1,0,.39h0a.32.32,0,0,1,0-.39.18.18,0,0,0,0-.2.18.18,0,0,1,.07-.19Z"/><path d="M74.7,143.25a.18.18,0,0,1,.07.19.18.18,0,0,0,0,.2.32.32,0,0,1,0,.39h0a.31.31,0,0,1,0-.39.21.21,0,0,0,0-.2.18.18,0,0,1,.07-.19Z"/><path d="M74.69,146.27a.8.8,0,0,1,0,.78A.83.83,0,0,1,74.69,146.27Z"/><path d="M72.8,149.56a.22.22,0,0,1,.08.2.16.16,0,0,0,0,.19.31.31,0,0,1,0,.39h0a.32.32,0,0,1,0-.39.16.16,0,0,0,0-.19.24.24,0,0,1,.07-.2Z"/><path d="M76.58,149.56a.19.19,0,0,1,.07.2.17.17,0,0,0,0,.19.31.31,0,0,1,0,.39h0a.32.32,0,0,1,0-.39.17.17,0,0,0,0-.19.19.19,0,0,1,.07-.2Z"/><path d="M74.7,148.44a.18.18,0,0,1,.07.19.18.18,0,0,0,0,.2.32.32,0,0,1,0,.39h0a.31.31,0,0,1,0-.39.21.21,0,0,0,0-.2.18.18,0,0,1,.07-.19Z"/><path d="M74.68,151.31a.78.78,0,0,1,0,.78A.83.83,0,0,1,74.68,151.31Z"/><path d="M80.51,144.37a.18.18,0,0,1,.07.19.21.21,0,0,0,0,.2.31.31,0,0,1,0,.39h0a.31.31,0,0,1,0-.39.21.21,0,0,0,0-.2.18.18,0,0,1,.07-.19Z"/><path d="M84.28,144.37a.2.2,0,0,1,.08.19.17.17,0,0,0,0,.2.32.32,0,0,1,0,.39h0a.31.31,0,0,1,0-.39.17.17,0,0,0,0-.2.22.22,0,0,1,.07-.19Z"/><path d="M82.41,143.25a.22.22,0,0,1,.07.19.17.17,0,0,0,0,.2.32.32,0,0,1,0,.39h0a.31.31,0,0,1,0-.39.17.17,0,0,0,0-.2.2.2,0,0,1,.08-.19Z"/><path d="M82.4,146.27a.83.83,0,0,1,0,.78A.78.78,0,0,1,82.4,146.27Z"/><path d="M80.18,148.44a.78.78,0,0,1,0,.78A.83.83,0,0,1,80.18,148.44Z"/><line class="cls-5" x1="103.01" y1="127.81" x2="103.01" y2="128.59"/><path d="M103,127.81a.18.18,0,0,1,.07.19.18.18,0,0,0,0,.2.32.32,0,0,1,0,.39h0a.31.31,0,0,1,0-.39.21.21,0,0,0,0-.2.18.18,0,0,1,.07-.19Z"/><line class="cls-5" x1="101.11" y1="129.71" x2="101.11" y2="130.49"/><path d="M101.11,129.71a.78.78,0,0,1,0,.78A.83.83,0,0,1,101.11,129.71Z"/><line class="cls-5" x1="99.22" y1="131.61" x2="99.22" y2="132.39"/><path d="M99.23,131.61a.19.19,0,0,1,.07.2.17.17,0,0,0,0,.19.31.31,0,0,1,0,.39h0a.32.32,0,0,1,0-.39.17.17,0,0,0,0-.19.19.19,0,0,1,.07-.2Z"/><line class="cls-5" x1="97.32" y1="133.51" x2="97.32" y2="134.29"/><path d="M97.32,133.51a.78.78,0,0,1,0,.78A.83.83,0,0,1,97.32,133.51Z"/><line class="cls-5" x1="95.43" y1="135.42" x2="95.43" y2="136.2"/><path d="M95.44,135.42a.22.22,0,0,1,.07.19.17.17,0,0,0,0,.2.31.31,0,0,1,0,.39h0a.32.32,0,0,1,0-.39.17.17,0,0,0,0-.2.2.2,0,0,1,.08-.19Z"/><line class="cls-5" x1="93.53" y1="137.32" x2="93.53" y2="138.1"/><path d="M93.53,137.32a.8.8,0,0,1,0,.78A.83.83,0,0,1,93.53,137.32Z"/><line class="cls-5" x1="91.63" y1="139.22" x2="91.63" y2="140"/><path d="M91.64,139.22a.22.22,0,0,1,.08.2.16.16,0,0,0,0,.19.31.31,0,0,1,0,.39h0a.32.32,0,0,1,0-.39.16.16,0,0,0,0-.19.24.24,0,0,1,.07-.2Z"/><line class="cls-5" x1="89.74" y1="141.12" x2="89.74" y2="141.9"/><path d="M89.74,141.12a.83.83,0,0,1,0,.78A.78.78,0,0,1,89.74,141.12Z"/><line class="cls-5" x1="100.63" y1="132.56" x2="100.63" y2="133.34"/><path d="M100.64,132.56a.19.19,0,0,1,.07.2.17.17,0,0,0,0,.19.32.32,0,0,1,0,.39h0a.31.31,0,0,1,0-.39.17.17,0,0,0,0-.19.19.19,0,0,1,.07-.2Z"/><line class="cls-5" x1="98.74" y1="135.22" x2="98.74" y2="136"/><polygon points="98.83 135.22 98.73 136 98.64 135.22 98.83 135.22"/><line class="cls-5" x1="96.84" y1="136.37" x2="96.84" y2="137.15"/><path d="M96.85,136.37a.18.18,0,0,1,.07.19.21.21,0,0,0,0,.2.31.31,0,0,1,0,.39h0a.32.32,0,0,1,0-.39.18.18,0,0,0,0-.2.18.18,0,0,1,.07-.19Z"/><line class="cls-5" x1="94.94" y1="139.03" x2="94.94" y2="139.81"/><polygon points="95.04 139.03 94.94 139.81 94.84 139.03 95.04 139.03"/><line class="cls-5" x1="93.05" y1="140.17" x2="93.05" y2="140.95"/><path d="M93.06,140.17a.21.21,0,0,1,.07.2.17.17,0,0,0,0,.19.31.31,0,0,1,0,.39h0a.32.32,0,0,1-.05-.39.16.16,0,0,0,0-.19.22.22,0,0,1,.08-.2Z"/><line class="cls-5" x1="91.15" y1="142.83" x2="91.15" y2="143.61"/><polygon points="91.25 142.83 91.15 143.61 91.05 142.83 91.25 142.83"/><line class="cls-5" x1="98.74" y1="138.27" x2="98.74" y2="139.05"/><path d="M98.74,138.27a.83.83,0,0,1,0,.78A.78.78,0,0,1,98.74,138.27Z"/><line class="cls-5" x1="94.94" y1="142.46" x2="94.94" y2="143.25"/><path d="M94.94,142.46a.8.8,0,0,1,0,.79A.85.85,0,0,1,94.94,142.46Z"/><line class="cls-5" x1="91.15" y1="145.89" x2="91.15" y2="146.67"/><path d="M91.15,145.89a.78.78,0,0,1,0,.78A.83.83,0,0,1,91.15,145.89Z"/><line class="cls-5" x1="89.26" y1="143.98" x2="89.26" y2="144.76"/><path d="M89.27,144a.22.22,0,0,1,.07.19.17.17,0,0,0,0,.2.32.32,0,0,1,0,.39h0a.31.31,0,0,1,0-.39.17.17,0,0,0,0-.2.2.2,0,0,1,.08-.19Z"/><line class="cls-5" x1="87.36" y1="145.88" x2="87.36" y2="146.66"/><path d="M87.36,145.88a.83.83,0,0,1,0,.78A.78.78,0,0,1,87.36,145.88Z"/><path d="M45.37,84.31a7.2,7.2,0,0,1,1.08-1,10.87,10.87,0,0,1,1.16-.86A15.55,15.55,0,0,1,50.14,81a12.88,12.88,0,0,1,5.67-1.2,13.12,13.12,0,0,1,5.57,1.48,8.9,8.9,0,0,1,3.87,4.25l.11.25-.25.16a2.15,2.15,0,0,1-.61.27,2.37,2.37,0,0,1-.65.09,2.77,2.77,0,0,1-1.27-.27l.26,0c-1.48.26-3,.41-4.43.54a37.05,37.05,0,0,1-4.47.08,24.77,24.77,0,0,1-4.45-.58A9.59,9.59,0,0,1,45.37,84.31Zm.1,0a12.68,12.68,0,0,0,4.15,1.16,28.58,28.58,0,0,0,4.34.26c1.46,0,2.92,0,4.38-.11s2.93-.19,4.37-.35h.15l.11,0a2,2,0,0,0,.89.26,1.78,1.78,0,0,0,.46,0,3.17,3.17,0,0,0,.43-.13l-.14.41a7.35,7.35,0,0,0-3.37-4.22A6.26,6.26,0,0,0,60,81l-1.37-.31c-.46-.06-.93-.09-1.38-.14s-.93,0-1.39,0a18.86,18.86,0,0,0-5.38,1.18A26.07,26.07,0,0,0,45.47,84.3Z"/><ellipse class="cls-8" cx="55.52" cy="83.23" rx="2.69" ry="2.7"/><ellipse cx="55.52" cy="83.23" rx="1.21" ry="1.21"/><path class="cls-5" d="M56.35,82.77a.46.46,0,1,1-.46-.46A.47.47,0,0,1,56.35,82.77Z"/><path class="cls-6" d="M62.78,85.69s.36-1.42,1.24-1.76"/><ellipse class="cls-8" cx="93.43" cy="83.23" rx="2.69" ry="2.7"/><path d="M103.48,84.33a26.4,26.4,0,0,0-5-2.53,19.11,19.11,0,0,0-5.38-1.17c-.46,0-.92,0-1.38,0s-.93.08-1.39.14L89,81.07a6.14,6.14,0,0,0-1.27.54,7.28,7.28,0,0,0-3.37,4.22l-.14-.41a1.48,1.48,0,0,0,.42.13,1.87,1.87,0,0,0,.47,0,2.18,2.18,0,0,0,.89-.26l.1-.06.15,0c1.45.16,2.91.28,4.37.34s2.92.12,4.38.12a31.56,31.56,0,0,0,4.35-.26A12.7,12.7,0,0,0,103.48,84.33Zm.1,0a9.5,9.5,0,0,1-4.11,1.85,25.8,25.8,0,0,1-4.46.57,34.92,34.92,0,0,1-4.46-.07c-1.49-.13-3-.29-4.44-.54l.26,0a2.9,2.9,0,0,1-1.27.27,2.74,2.74,0,0,1-.64-.09,2.78,2.78,0,0,1-.62-.27l-.25-.16.11-.26a8.87,8.87,0,0,1,3.87-4.24,13.28,13.28,0,0,1,5.57-1.49,12.86,12.86,0,0,1,5.67,1.21,15.31,15.31,0,0,1,2.54,1.4,13.64,13.64,0,0,1,1.15.85A8.42,8.42,0,0,1,103.58,84.33Z"/><ellipse cx="93.43" cy="83.26" rx="1.21" ry="1.21"/><circle class="cls-5" cx="93.78" cy="82.77" r="0.46"/><path class="cls-6" d="M86.25,85.69s-.36-1.42-1.24-1.76"/></g></svg>