<svg xmlns="http://www.w3.org/2000/svg" viewBox="0 0 120.48 158.89"><defs><style>.cls-1,.cls-3{fill:#fff;}.cls-1,.cls-2,.cls-4,.cls-5,.cls-6,.cls-7,.cls-8{stroke:#000;stroke-miterlimit:10;}.cls-2,.cls-4,.cls-5,.cls-6,.cls-7,.cls-8{fill:none;}.cls-4{stroke-width:0.4px;}.cls-5{stroke-width:0.5px;}.cls-6{stroke-width:0.2px;}.cls-7{stroke-width:0.8px;}.cls-8{stroke-width:0.1px;}</style></defs><g id="Capa_2" data-name="Capa 2"><g id="Capa_1-2" data-name="Capa 1"><path class="cls-1" d="M27.89,51.28s-1.31-2.71-3,0c0,0,.3,6.81-.44,9.39s.06,6.51,1.33,8.9c0,0,.82,5.12,4,5H90.06c3.2.15,4-5,4-5,1.28-2.39,2.08-6.32,1.34-8.9S95,51.28,95,51.28c-1.71-2.71-3,0-3,0Z"/><path d="M89.92,61.61s8.21-27.89-3.57-48.15c0,0-6.43-10.63-26.43-13-20,2.33-26.43,13-26.43,13-11.78,20.26-3.57,48.15-3.57,48.15"/><path class="cls-2" d="M89.92,61.61s8.21-27.89-3.57-48.15c0,0-6.43-10.63-26.43-13-20,2.33-26.43,13-26.43,13-11.78,20.26-3.57,48.15-3.57,48.15"/><path d="M93.17,54.6l-.08.52c0,.17,0,.35,0,.52,0,.34,0,.69,0,1a15.73,15.73,0,0,0,.15,2.06A29.22,29.22,0,0,0,94,62.8v0a7.08,7.08,0,0,1,0,.91c0,.3,0,.59-.06.89s-.09.58-.14.87-.14.57-.21.85A16.25,16.25,0,0,1,93.09,68c-.1.27-.23.53-.35.79s-.25.53-.37.78c.07-.28.15-.56.23-.83s.18-.55.24-.83c.12-.56.3-1.1.38-1.67,0-.28.1-.56.13-.84s.07-.56.09-.84,0-.57,0-.85a7.09,7.09,0,0,0,0-.81v0a19.82,19.82,0,0,1-.75-4.18,15.14,15.14,0,0,1,0-2.13c0-.35.09-.7.17-1a6.91,6.91,0,0,1,.3-1"/><path d="M91.57,62a.66.66,0,0,1,.13.12,2.22,2.22,0,0,1,.28.4,2.52,2.52,0,0,1,.23.64,2.83,2.83,0,0,1,.08.78,2.76,2.76,0,0,1-.12.77,2.06,2.06,0,0,1-.25.62,4.07,4.07,0,0,1-.35.55,5,5,0,0,1,0-.65,5.37,5.37,0,0,0,.05-.62,3.88,3.88,0,0,0,0-.69,4,4,0,0,0,0-.69,5.68,5.68,0,0,0,0-.61c0-.17,0-.34-.05-.44l0-.18"/><path d="M26.67,54.6a6.91,6.91,0,0,1,.3,1c.08.35.12.7.17,1a15.14,15.14,0,0,1,0,2.13A19.82,19.82,0,0,1,26.41,63v0a7.09,7.09,0,0,0,0,.81c0,.28,0,.56,0,.85s.06.56.09.84.09.56.13.84c.08.57.26,1.11.38,1.67.06.28.16.55.24.83s.16.55.23.83c-.12-.25-.25-.51-.37-.78s-.25-.52-.35-.79a16.25,16.25,0,0,1-.54-1.67c-.07-.28-.16-.56-.21-.85s-.1-.58-.13-.87-.07-.59-.07-.89a7.31,7.31,0,0,1,0-.92h0v0a29.22,29.22,0,0,0,.83-4.06,15.73,15.73,0,0,0,.15-2.06c0-.35,0-.7,0-1,0-.17,0-.35-.05-.52Z"/><path d="M28.27,62l0,.18c0,.1,0,.27-.06.44s0,.39,0,.61a5.3,5.3,0,0,0,0,.69,3.88,3.88,0,0,0,0,.69,5.37,5.37,0,0,0,0,.62,5,5,0,0,1,0,.65,4.68,4.68,0,0,1-.36-.55,2.36,2.36,0,0,1-.24-.62,2.76,2.76,0,0,1-.12-.77,2.83,2.83,0,0,1,.08-.78,2.52,2.52,0,0,1,.23-.64,2.22,2.22,0,0,1,.28-.4.66.66,0,0,1,.13-.12"/><polyline points="28.69 117.81 0.5 128.91 0.5 158.39 119.98 158.39 119.98 128.91 91.79 117.81"/><polyline class="cls-2" points="28.69 117.81 0.5 128.91 0.5 158.39 119.98 158.39 119.98 128.91 91.79 117.81"/><path class="cls-3" d="M84.55,96.55s.53,19.89,7.88,21.83c0,0,3,28.51-32.43,28.51h-.23c-35.44,0-32.43-28.51-32.43-28.51,7.35-1.94,7.88-21.83,7.88-21.83"/><path class="cls-2" d="M84.55,96.55s.53,19.89,7.88,21.83c0,0,3,28.51-32.43,28.51h-.23c-35.44,0-32.43-28.51-32.43-28.51,7.35-1.94,7.88-21.83,7.88-21.83"/><path d="M50.12,54c-1,.13-2.06.21-3.1.3s-2.06.16-3.1.2-2.08.07-3.13,0H40c-.27,0-.53,0-.81,0s-.55,0-.87-.06l-.47-.06c-.22-.06-.43-.13-.64-.21l.65.16c.22,0,.16,0,.16,0l0,0a2,2,0,0,0-.22.13,2.46,2.46,0,0,1-.27.17,2.17,2.17,0,0,0-.29.2l-.31.2a3.19,3.19,0,0,0-.32.23c-.21.16-.43.31-.66.47-.43.35-.92.67-1.4,1a10.54,10.54,0,0,1-1.57,1l-.23-.16a10.05,10.05,0,0,1,.55-1.84,6.84,6.84,0,0,1,.42-.86c.15-.28.31-.55.48-.82s.39-.52.6-.77a3.79,3.79,0,0,1,.32-.38l.38-.35a4.54,4.54,0,0,1,.41-.33c.16-.11.32-.2.48-.3a3.76,3.76,0,0,1,.57-.26,1.26,1.26,0,0,1,.36-.12,3,3,0,0,1,.59-.07h0l.61.17a.21.21,0,0,1,.08.06c.07,0,.18.07.27.11s.44.14.66.21c.47.12,1,.22,1.46.3,1,.17,2,.3,3,.46l6.12.86Z"/><path d="M69.66,53.67l6.13-.86c1-.16,2-.29,3-.46.5-.08,1-.18,1.45-.3a6.47,6.47,0,0,0,.66-.21l.28-.11a.16.16,0,0,1,.08-.06l.61-.17h0a2.92,2.92,0,0,1,.59.07,1.16,1.16,0,0,1,.36.12,3,3,0,0,1,.57.26,5.6,5.6,0,0,1,.48.3,2.81,2.81,0,0,1,.41.33l.38.35a3.9,3.9,0,0,1,.33.38c.21.25.41.51.6.77s.33.54.48.82a8.55,8.55,0,0,1,.42.86,10,10,0,0,1,.54,1.84l-.22.16a10.66,10.66,0,0,1-1.58-1c-.48-.34-1-.66-1.39-1l-.67-.46a3.09,3.09,0,0,0-.31-.23l-.31-.2a2.23,2.23,0,0,0-.3-.2L82,54.49a1.35,1.35,0,0,0-.21-.13l-.06,0s0,0,.16,0l.66-.16c-.21.08-.43.15-.64.21l-.48.06c-.32.05-.58,0-.86.06s-.54,0-.82,0H79c-1.06,0-2.09,0-3.13,0s-2.08-.12-3.11-.2-2.07-.17-3.1-.3Z"/><path d="M44.57,94.43l2.37.66c1.43.38,3.33.87,5.26,1.28.48.11.95.23,1.43.31l1.39.26c.9.19,1.76.26,2.48.37a6.06,6.06,0,0,0,1,.08l.75,0h.66l0,.6-.7,0-.79,0a8,8,0,0,1-1-.13c-.73-.13-1.6-.24-2.5-.47L53.55,97c-.47-.1-.95-.25-1.42-.37-1.91-.48-3.8-1-5.21-1.48l-2.35-.75"/><path d="M75.27,94.43l-2.35.75c-1.41.43-3.3,1-5.21,1.48-.48.12-.95.27-1.42.37l-1.4.31c-.89.23-1.76.34-2.49.47a8,8,0,0,1-1,.13l-.79,0-.7,0,0-.6h.65l.76,0a6.06,6.06,0,0,0,1-.08c.72-.11,1.58-.18,2.48-.37l1.39-.26c.48-.08,1-.2,1.43-.31,1.93-.41,3.83-.9,5.26-1.28l2.37-.66"/><path d="M47.05,94.43l.53.09c.34,0,.82.17,1.41.21l2,.21c.36,0,.74.08,1.13.09l1.17,0c1.57,0,3.14.05,4.31.13a9.26,9.26,0,0,1,1.42.19,1.58,1.58,0,0,1,.51.2l-.05.07a1.45,1.45,0,0,0-.48-.19,7.75,7.75,0,0,0-1.4-.2c-1.18-.09-2.75-.11-4.31-.16l-1.18,0c-.38,0-.76-.06-1.13-.1l-2-.22c-.59,0-1.07-.16-1.41-.21l-.53-.1"/><path d="M72,94.43l-.53.1c-.34,0-.82.17-1.41.21l-2,.22c-.36,0-.74.09-1.12.1l-1.18,0c-1.56,0-3.13.07-4.31.16a7.75,7.75,0,0,0-1.4.2,1.45,1.45,0,0,0-.48.19l0-.07a1.73,1.73,0,0,1,.51-.2,9.26,9.26,0,0,1,1.42-.19c1.18-.08,2.75-.09,4.31-.13l1.17,0c.39,0,.77-.06,1.13-.09l2-.21c.59,0,1.07-.16,1.41-.21l.53-.09"/><path d="M49.31,96.54s.28.23.8.58c.25.18.58.37.94.6s.8.46,1.29.69l.75.35.83.34c.56.24,1.19.39,1.82.61a20.42,20.42,0,0,0,2,.4l1,.13c.36,0,.71,0,1.07,0a12.39,12.39,0,0,0,2.11-.11l.52,0L63,100l1-.22a4.89,4.89,0,0,0,.94-.29l.88-.32a9.8,9.8,0,0,0,1.56-.73,9.91,9.91,0,0,0,1.27-.71l.92-.63.81-.56-.8.56-.92.65a13.07,13.07,0,0,1-1.27.72,10.76,10.76,0,0,1-1.56.73l-.88.33a4.91,4.91,0,0,1-.94.3l-1,.23-.5.11-.53.06a13.5,13.5,0,0,1-2.12.12c-.35,0-.71,0-1.06,0l-1-.14a18.52,18.52,0,0,1-2-.42c-.63-.21-1.26-.37-1.82-.62l-.82-.34-.75-.36c-.49-.23-.9-.49-1.28-.7s-.7-.42-.95-.61a9.64,9.64,0,0,1-.79-.58"/><path d="M55.43,106.7s.13-.06.37-.14a9.46,9.46,0,0,1,1-.32c.41-.12.91-.2,1.43-.3s1.1-.14,1.68-.12l.85,0a4.38,4.38,0,0,1,.82.09l.76.13a3.13,3.13,0,0,1,.67.16l1.35.47L63,106.34a3.22,3.22,0,0,0-.66-.13l-.76-.1a5.29,5.29,0,0,0-.81-.08h-.84c-.57,0-1.13.07-1.66.09s-1,.14-1.42.24a10,10,0,0,0-1,.24l-.38.11"/><path d="M36.5,60.72l.74.35.84.26c.27.08.56.13.85.2a8.1,8.1,0,0,0,.86.13c.29,0,.57.08.87.1s.58.06.87.07c.58,0,1.17,0,1.75,0s1.17,0,1.76,0,1.17,0,1.76-.07c1.17-.05,2.35-.15,3.51-.28h.09l.11,0c.12,0,.23.11.35.14a1.51,1.51,0,0,0,.37.06,1.54,1.54,0,0,0,.37,0l.18,0,.16-.06-.11.33-.42-1c-.2-.31-.39-.64-.61-.94a5.29,5.29,0,0,0-.78-.79l-.43-.35-.48-.31a5.38,5.38,0,0,0-1-.43L47,57.84l-1.11-.11H44.77l-1.1.12c-.37.07-.73.11-1.09.2s-.73.15-1.08.27-.71.22-1,.36a17,17,0,0,0-2.05.91,20.13,20.13,0,0,0-1.9,1.12m-.1,0a10.09,10.09,0,0,1,1.78-1.47,12.54,12.54,0,0,1,2-1.13,8.46,8.46,0,0,1,1.09-.42,10.47,10.47,0,0,1,1.13-.32c.38-.09.77-.13,1.16-.19s.78,0,1.17,0l1.17.11,1.14.24,1.1.36a5.35,5.35,0,0,1,1.06.49l.5.29.47.35c.32.22.56.54.86.79s.48.62.72.94l.56,1,.11.2-.22.13a1,1,0,0,1-.25.13,1.17,1.17,0,0,1-.24.09,1.81,1.81,0,0,1-.52.07,1.84,1.84,0,0,1-.52,0,4,4,0,0,1-.49-.16l.2,0c-1.19.21-2.37.33-3.56.43-.6,0-1.19.07-1.79.09-.3,0-.6,0-.9,0l-.9,0c-.6,0-1.2-.09-1.79-.16-.3,0-.6-.09-.9-.13a6.87,6.87,0,0,1-.88-.18c-.29-.08-.59-.13-.88-.24s-.57-.18-.85-.29l-.82-.4-.74-.52,0,0Z"/><path class="cls-2" d="M46.59,59.86a2.06,2.06,0,1,1-2.06-2.07A2.07,2.07,0,0,1,46.59,59.86Z"/><path d="M45.5,59.86a1,1,0,1,1-1-1,1,1,0,0,1,1,1"/><path class="cls-3" d="M45.2,59.49a.37.37,0,0,1-.37.37.36.36,0,0,1-.37-.37.37.37,0,0,1,.37-.37.38.38,0,0,1,.37.37"/><path d="M83.29,60.78c-.25.18-.49.35-.75.52l-.81.4c-.28.11-.57.19-.86.3s-.58.15-.87.23a7,7,0,0,1-.89.18c-.3,0-.59.1-.89.13-.6.07-1.2.14-1.8.16l-.89,0c-.3,0-.6,0-.9,0-.6,0-1.2,0-1.79-.09-1.2-.1-2.38-.22-3.56-.43l.2,0a4.16,4.16,0,0,1-.5.16,1.8,1.8,0,0,1-.52.05,1.75,1.75,0,0,1-.51-.07,1.06,1.06,0,0,1-.25-.09,1.51,1.51,0,0,1-.25-.13L67.24,62l.1-.19.56-1.05c.24-.32.47-.64.73-.93a9.26,9.26,0,0,1,.86-.8l.46-.35.51-.29a5.89,5.89,0,0,1,1.05-.49l1.11-.35,1.14-.25,1.16-.11c.39,0,.79,0,1.18,0s.78.1,1.16.19.76.18,1.13.32a10.06,10.06,0,0,1,1.08.42,13.08,13.08,0,0,1,2,1.13,10.87,10.87,0,0,1,1.78,1.47l0,0Zm-.11,0a19.24,19.24,0,0,0-1.89-1.13,18.57,18.57,0,0,0-2.05-.91c-.35-.14-.7-.25-1.06-.36s-.72-.18-1.07-.27-.73-.13-1.09-.2l-1.1-.12H73.81l-1.12.11-1.09.26a4.92,4.92,0,0,0-1,.44l-.47.3-.44.35a5.82,5.82,0,0,0-.78.79c-.22.3-.41.63-.61.94l-.42,1-.11-.33.16.06.19,0a1.16,1.16,0,0,0,.37,0,1.59,1.59,0,0,0,.37-.06c.12,0,.23-.1.35-.14l.11-.05h.09c1.16.13,2.34.23,3.51.28.59,0,1.17.06,1.76.07s1.17,0,1.75,0,1.17,0,1.76,0c.29,0,.58,0,.87-.07s.58-.06.87-.1a8.51,8.51,0,0,0,.86-.13c.28-.07.57-.12.85-.2l.83-.26Z"/><path class="cls-2" d="M73.09,59.88a2.06,2.06,0,1,0,2.06-2.07A2.07,2.07,0,0,0,73.09,59.88Z"/><path d="M74.18,59.88a1,1,0,1,0,1-1,1,1,0,0,0-1,1"/><path class="cls-3" d="M75.8,59.49a.37.37,0,0,1-.74,0,.37.37,0,1,1,.74,0"/><path d="M81.75,25.43s-17.87.79-21.83,2.39h0c-4-1.6-21.83-2.39-21.83-2.39"/><path d="M50.35,61.84a1.44,1.44,0,0,1,.06-.28c0-.17.2-.35.28-.56a.81.81,0,0,1,.17-.3.7.7,0,0,1,.21-.21.41.41,0,0,1,.29-.07h0a.86.86,0,0,0-.23.14,3.3,3.3,0,0,0-.39.46.86.86,0,0,0-.14.29,2.64,2.64,0,0,1-.1.27,1.27,1.27,0,0,1-.14.25Z"/><path d="M69.38,61.84a1.78,1.78,0,0,1-.13-.25,1.39,1.39,0,0,1-.1-.27A.89.89,0,0,0,69,61a4,4,0,0,0-.39-.46.74.74,0,0,0-.22-.14h0a.39.39,0,0,1,.28.07.73.73,0,0,1,.22.21,1.24,1.24,0,0,1,.17.3c.07.21.24.39.27.56a.88.88,0,0,1,.06.28Z"/><path class="cls-3" d="M84.56,93.24s.54,22.93,7.89,25.16c0,0,3,32.87-32.45,32.87h-.23c-35.46,0-32.45-32.87-32.45-32.87,7.36-2.23,7.89-25.16,7.89-25.16"/><path class="cls-4" d="M84.56,93.24s.54,22.93,7.89,25.16c0,0,3,32.87-32.45,32.87h-.23c-35.46,0-32.45-32.87-32.45-32.87,7.36-2.23,7.89-25.16,7.89-25.16"/><path class="cls-3" d="M59.91,26.36H38.66c-4.95,0-7.41,6.33-7.41,10.81L29.71,70.64v1.82a62.88,62.88,0,0,0,6,22.67s8.48,14,16.58,16.69A28.21,28.21,0,0,0,59.91,113"/><path class="cls-5" d="M59.91,26.36H38.66c-4.95,0-7.41,6.33-7.41,10.81L29.71,70.64v1.82a62.88,62.88,0,0,0,6,22.67s8.48,14,16.58,16.69A28.21,28.21,0,0,0,59.91,113"/><path class="cls-3" d="M59.92,26.36H81.18c4.95,0,7.41,6.33,7.41,10.81l1.54,33.47v1.82a62.88,62.88,0,0,1-6,22.67s-8.48,14-16.58,16.69A28.23,28.23,0,0,1,59.92,113"/><path class="cls-5" d="M59.92,26.36H81.18c4.95,0,7.41,6.33,7.41,10.81l1.54,33.47v1.82a62.88,62.88,0,0,1-6,22.67s-8.48,14-16.58,16.69A28.23,28.23,0,0,1,59.92,113"/><path d="M50.12,54.24l-6.2.19c-1,0-2.08.09-3.13.07H40c-.27,0-.53,0-.81,0s-.55,0-.87-.06l-.47-.06c-.22-.06-.43-.13-.64-.21l.65.16c.22,0,.16,0,.16,0l0,0a2,2,0,0,0-.22.13,1.48,1.48,0,0,1-.27.16c-.09.05-.19.14-.29.21l-.31.2a2.13,2.13,0,0,0-.32.23c-.21.16-.43.31-.66.46-.43.36-.92.68-1.4,1a11.42,11.42,0,0,1-1.57,1h0a.15.15,0,0,1-.21-.07.31.31,0,0,1,0-.1,10.19,10.19,0,0,1,.55-1.83,6.84,6.84,0,0,1,.42-.86c.15-.28.31-.55.48-.82s.39-.52.6-.77a3.79,3.79,0,0,1,.32-.38l.38-.35a4.54,4.54,0,0,1,.41-.33q.24-.16.48-.3a5.07,5.07,0,0,1,.57-.27,1.73,1.73,0,0,1,.36-.11,2.9,2.9,0,0,1,.59-.08h0l.61.17a.21.21,0,0,1,.08.06c.07,0,.18.07.27.11a5.16,5.16,0,0,0,.66.2c.47.13,1,.22,1.46.31,1,.17,2,.33,3,.48,2,.26,4.08.44,6.13.54a.44.44,0,0,1,.41.46.43.43,0,0,1-.42.41"/><path d="M69.38,53.37c2.05-.1,4.1-.28,6.13-.54,1-.14,2-.31,3-.48.5-.09,1-.18,1.46-.3.22-.07.48-.13.66-.21s.2-.07.27-.11a.21.21,0,0,1,.08-.06l.61-.17h0a3.91,3.91,0,0,1,.59.08,1.26,1.26,0,0,1,.36.12,3.76,3.76,0,0,1,.57.26q.24.13.48.3a4.54,4.54,0,0,1,.41.33l.38.35a3.79,3.79,0,0,1,.32.38c.21.25.41.51.6.77s.33.54.48.82a6.84,6.84,0,0,1,.42.86,10.19,10.19,0,0,1,.55,1.83.15.15,0,0,1-.12.18.16.16,0,0,1-.1,0h0a10.05,10.05,0,0,1-1.57-1c-.48-.34-1-.66-1.4-1-.23-.15-.45-.3-.66-.46a2.13,2.13,0,0,0-.32-.23l-.31-.2a2.17,2.17,0,0,0-.29-.2,2.46,2.46,0,0,1-.27-.17,2,2,0,0,0-.22-.13l0,0s-.06,0,.16,0l.65-.16c-.21.08-.42.15-.64.21l-.47.06c-.32.05-.58,0-.87.06s-.54,0-.81,0h-.8c-1,0-2.09,0-3.13-.07l-6.2-.19A.42.42,0,0,1,69,53.8a.44.44,0,0,1,.41-.43"/><path d="M56.62,63.81a33.37,33.37,0,0,1,.21,3.47,35.1,35.1,0,0,1-.12,3.57,17.12,17.12,0,0,1-.84,4,5.47,5.47,0,0,1-1.09,1.84c-.54.54-1.2.75-1.65,1.17a5.78,5.78,0,0,0-1.22,1.31,4.05,4.05,0,0,0-.58,1.5,3.29,3.29,0,0,0,.87,2.9l.17.18-.19-.16a2.81,2.81,0,0,1-.49-.52,3.38,3.38,0,0,1-.5-1,3.54,3.54,0,0,1-.13-1.45A4.68,4.68,0,0,1,51.61,79a5.76,5.76,0,0,1,1.26-1.46c.51-.46,1.17-.7,1.59-1.15a5.14,5.14,0,0,0,1-1.71,17,17,0,0,0,.87-3.91c.14-1.28.23-2.49.27-3.53.08-2.07,0-3.46,0-3.46"/><path d="M53.58,83.06a2.54,2.54,0,0,1,.58-.13,2.9,2.9,0,0,1,1.33.14,2.27,2.27,0,0,1,.65.35,1.92,1.92,0,0,1,.41.51,1.26,1.26,0,0,1,.15.6l-.1-.14a2.87,2.87,0,0,0-.26-.3,2.49,2.49,0,0,0-.44-.32,3.64,3.64,0,0,0-.57-.25,4.44,4.44,0,0,0-.62-.19c-.2,0-.39-.11-.56-.14l-.57-.13"/><path d="M63.16,63.81s0,1.39.05,3.46c0,1,.12,2.25.26,3.53a17,17,0,0,0,.87,3.91,5.14,5.14,0,0,0,1,1.71c.42.45,1.08.69,1.59,1.15A5.57,5.57,0,0,1,68.16,79a4.48,4.48,0,0,1,.55,1.64,3.23,3.23,0,0,1-.13,1.45,3.38,3.38,0,0,1-.5,1,2.81,2.81,0,0,1-.49.52l-.19.16.17-.18a3.3,3.3,0,0,0,.87-2.9,4.05,4.05,0,0,0-.58-1.5,5.78,5.78,0,0,0-1.22-1.31c-.45-.42-1.11-.63-1.65-1.17a5.47,5.47,0,0,1-1.09-1.84,16.61,16.61,0,0,1-.83-4,32.62,32.62,0,0,1-.13-3.57,31.43,31.43,0,0,1,.22-3.47"/><path d="M66.05,83.05l-.57.14c-.17,0-.36.09-.56.14a4.89,4.89,0,0,0-.62.19,3.17,3.17,0,0,0-.56.25,2.79,2.79,0,0,0-.44.32,2,2,0,0,0-.26.31l-.1.14a1.31,1.31,0,0,1,.14-.6,1.78,1.78,0,0,1,.42-.51,2.12,2.12,0,0,1,.64-.36,3,3,0,0,1,1.32-.15,2.55,2.55,0,0,1,.59.13"/><path d="M57.43,85a5.87,5.87,0,0,0,.75.53,4.72,4.72,0,0,0,.78.38,2.39,2.39,0,0,0,.92.18,2,2,0,0,0,.91-.12,3.89,3.89,0,0,0,.41-.17,1.45,1.45,0,0,0,.36-.22,6.3,6.3,0,0,0,.73-.58l-.16.25a2.94,2.94,0,0,1-.49.6,1.83,1.83,0,0,1-.36.31,1.7,1.7,0,0,1-.43.26,2.18,2.18,0,0,1-1,.2,2.93,2.93,0,0,1-1.76-.82,4,4,0,0,1-.68-.8"/><path d="M44.57,93.35l2.37.66c1.43.37,3.33.87,5.26,1.28.48.1.95.23,1.43.31l1.39.26c.9.19,1.76.26,2.48.37a6.06,6.06,0,0,0,1,.08l.75,0h.66l0,.6-.7,0-.79-.05a6.42,6.42,0,0,1-1-.12c-.73-.14-1.6-.24-2.5-.47l-1.39-.32c-.47-.1-.95-.24-1.42-.36-1.91-.48-3.8-1-5.21-1.48l-2.35-.75"/><path d="M75.27,93.35l-2.35.75c-1.41.43-3.3,1-5.21,1.48-.48.12-.95.26-1.42.36l-1.4.32c-.89.23-1.76.33-2.49.47a6.42,6.42,0,0,1-1,.12l-.79.05-.7,0,0-.6h.65l.76,0a6.06,6.06,0,0,0,1-.08c.72-.11,1.58-.18,2.48-.37l1.39-.26c.48-.08,1-.21,1.43-.31,1.93-.41,3.83-.91,5.26-1.28l2.37-.66"/><path d="M72.83,93.35q-1.59.36-3.21.6a27.37,27.37,0,0,1-3.26.26c-1.09,0-2.18,0-3.27,0-.54,0-1.09,0-1.63,0q-.41,0-.81.06a1.94,1.94,0,0,0-.74.22l0,0,0,0,0,0a2.08,2.08,0,0,0-.75-.2c-.27,0-.54,0-.81-.07-.54,0-1.08,0-1.63,0-1.08,0-2.17,0-3.26,0-.54,0-1.09,0-1.63-.09s-1.08-.08-1.62-.17c-1.07-.15-2.15-.32-3.21-.54,1.06.2,2.14.37,3.22.5.53.08,1.08.1,1.62.16s1.08.06,1.62.07c1.09,0,2.18,0,3.26,0,.55,0,1.09,0,1.64,0a7.34,7.34,0,0,1,.81,0,2.42,2.42,0,0,1,.82.21l.06,0h-.09a2,2,0,0,1,.81-.24c.28,0,.55,0,.82,0,.55,0,1.1,0,1.64,0,1.09,0,2.18.06,3.27.06a25.11,25.11,0,0,0,3.25-.22c1.08-.14,2.16-.33,3.22-.56"/><path d="M49.31,96.13s.28.22.8.56c.26.18.59.37,1,.6s.8.45,1.28.67l.75.36.83.33c.56.25,1.19.4,1.82.61s1.31.33,2,.4l1,.12c.35,0,.7,0,1.06,0a12.27,12.27,0,0,0,2.1-.1l.52,0,.5-.11,1-.22a4.89,4.89,0,0,0,.94-.29l.88-.31A9.68,9.68,0,0,0,67.34,98a10.68,10.68,0,0,0,1.28-.7l.93-.63c.51-.35.81-.54.81-.54l-.8.57-.91.65a8.7,8.7,0,0,1-1.27.73,9.81,9.81,0,0,1-1.56.74l-.88.33a4.89,4.89,0,0,1-.94.29l-1,.24-.51.11-.52.06a12.57,12.57,0,0,1-2.13.12c-.35,0-.71,0-1.07,0l-1.05-.13c-.7-.08-1.36-.29-2-.43s-1.26-.37-1.82-.62l-.83-.34L52.31,98A14.44,14.44,0,0,1,51,97.33c-.37-.23-.69-.43-.94-.61-.52-.36-.79-.59-.79-.59"/><path d="M55.43,106.13l.37-.15a9.84,9.84,0,0,1,1-.31,13.67,13.67,0,0,1,1.43-.3,13,13,0,0,1,1.68-.12l.85,0a5.41,5.41,0,0,1,.82.09l.76.13a2.63,2.63,0,0,1,.67.17l1.35.47L63,105.77a2.66,2.66,0,0,0-.66-.14l-.76-.09a4.28,4.28,0,0,0-.81-.08h-.84a12.79,12.79,0,0,0-1.66.09c-.52.09-1,.13-1.42.23s-.77.17-1,.24l-.38.12"/><path d="M81.75,26.58s-17.87.84-21.83,2.54h0c-4-1.7-21.83-2.54-21.83-2.54"/><line class="cls-6" x1="31.89" y1="85.18" x2="31.89" y2="85.74"/><path d="M31.9,85.19a.44.44,0,0,1,.1.27.47.47,0,0,1-.1.27.47.47,0,0,1-.1-.27.44.44,0,0,1,.1-.27"/><path class="cls-6" d="M31.9,85.19a.44.44,0,0,1,.1.27.47.47,0,0,1-.1.27.47.47,0,0,1-.1-.27A.44.44,0,0,1,31.9,85.19Z"/><line class="cls-6" x1="87.55" y1="85.18" x2="87.55" y2="85.74"/><path d="M31.88,84a.64.64,0,0,1,0,.62.64.64,0,0,1,0-.62"/><path d="M37.1,94a.14.14,0,0,1,.06.08.1.1,0,0,1,0,.09.08.08,0,0,0,0,.1.2.2,0,0,1,0,.27h0a.21.21,0,0,1,0-.27s0-.07,0-.1a.1.1,0,0,1,0-.09.15.15,0,0,1,0-.08Z"/><path d="M52.25,89.64a.14.14,0,0,1,.06.08.1.1,0,0,1,0,.09.08.08,0,0,0,0,.1.2.2,0,0,1,0,.27h0a.2.2,0,0,1,0-.27.08.08,0,0,0,0-.1.1.1,0,0,1,0-.09.14.14,0,0,1,.06-.08Z"/><path d="M68,89.64a.14.14,0,0,1,.06.08.09.09,0,0,1,0,.09s0,.07,0,.1a.19.19,0,0,1,0,.27h0a.21.21,0,0,1,0-.27s0-.07,0-.1,0-.06,0-.09a.15.15,0,0,1,0-.08Z"/><path d="M35.72,91.88a.15.15,0,0,1,.05.08.1.1,0,0,1,0,.09s0,.07,0,.1a.23.23,0,0,1,0,.28h0a.21.21,0,0,1,0-.28.08.08,0,0,0,0-.1.1.1,0,0,1,0-.09.14.14,0,0,1,.06-.08Z"/><path d="M34.13,89a.14.14,0,0,1,.06.08.1.1,0,0,1,0,.09.08.08,0,0,0,0,.1.2.2,0,0,1,0,.27h0a.2.2,0,0,1,0-.27s0-.07,0-.1a.1.1,0,0,1,0-.09.14.14,0,0,1,.06-.08Z"/><path d="M32.75,86.84a.15.15,0,0,1,0,.08s0,.06,0,.09,0,.07,0,.1a.23.23,0,0,1,0,.28h0a.21.21,0,0,1,0-.28s0-.07,0-.1a.09.09,0,0,1,0-.09.14.14,0,0,1,.06-.08Z"/><path d="M83.81,91.88a.14.14,0,0,1,.06.08.1.1,0,0,1,0,.09.08.08,0,0,0,0,.1.21.21,0,0,1,0,.28h0a.23.23,0,0,1,0-.28s0-.07,0-.1a.1.1,0,0,1,0-.09.15.15,0,0,1,.05-.08Z"/><path d="M86.78,86.84a.14.14,0,0,1,.06.08.09.09,0,0,1,0,.09s0,.07,0,.1a.21.21,0,0,1,0,.28h0a.23.23,0,0,1,0-.28s0-.07,0-.1,0-.06,0-.09a.15.15,0,0,1,.05-.08Z"/><path d="M38.62,95.39a.6.6,0,0,1,0,.56.53.53,0,0,1,0-.56"/><path d="M40.15,96.77a.15.15,0,0,1,.05.08s0,.06,0,.09,0,.07,0,.1a.23.23,0,0,1,0,.28h0a.21.21,0,0,1,0-.28s0-.07,0-.1a.09.09,0,0,1,0-.09.14.14,0,0,1,.06-.08Z"/><path d="M41.66,98.14a.53.53,0,0,1,0,.56.53.53,0,0,1-.08-.28.66.66,0,0,1,.08-.28"/><path d="M58.07,88.45a.53.53,0,0,1,.08.28.48.48,0,0,1-.08.27.59.59,0,0,1-.08-.27.66.66,0,0,1,.08-.28"/><path d="M56.77,89.64a.14.14,0,0,1,.06.08.1.1,0,0,1,0,.09.08.08,0,0,0,0,.1.2.2,0,0,1,0,.27h0a.2.2,0,0,1,0-.27s0-.07,0-.1a.1.1,0,0,1,0-.09.14.14,0,0,1,.06-.08Z"/><path d="M58.07,90.81a.52.52,0,0,1,.08.27.53.53,0,0,1-.08.28.66.66,0,0,1-.08-.28.65.65,0,0,1,.08-.27"/><path d="M50.11,90.48a.66.66,0,0,1,.08.28.53.53,0,0,1-.08.28.53.53,0,0,1,0-.56"/><path d="M48,90.81a.56.56,0,0,1,.07.27.57.57,0,0,1-.07.28.53.53,0,0,1-.08-.28.52.52,0,0,1,.08-.27"/><path d="M71.86,90.81a.52.52,0,0,1,.08.27.53.53,0,0,1-.08.28.66.66,0,0,1-.08-.28.65.65,0,0,1,.08-.27"/><path d="M69.91,90.48a.53.53,0,0,1,0,.56.6.6,0,0,1,0-.56"/><path d="M56.11,88.45a.66.66,0,0,1,.08.28.59.59,0,0,1-.08.27.48.48,0,0,1-.08-.27.53.53,0,0,1,.08-.28"/><path d="M54.8,89.63a.53.53,0,0,1,0,.56.53.53,0,0,1-.08-.28.66.66,0,0,1,.08-.28"/><path d="M53.49,90.81a.53.53,0,0,1,0,.56.53.53,0,0,1,0-.56"/><path d="M61.77,88.45a.66.66,0,0,1,.08.28.59.59,0,0,1-.08.27.48.48,0,0,1-.08-.27.53.53,0,0,1,.08-.28"/><path d="M61.77,90.81a.53.53,0,0,1,0,.56.53.53,0,0,1,0-.56"/><path d="M63.08,89.63a.18.18,0,0,1,.06.09s0,0,0,.08,0,.07,0,.11a.2.2,0,0,1,0,.27h0a.22.22,0,0,1,0-.27s0-.07,0-.11,0-.06,0-.08a.2.2,0,0,1,.05-.09Z"/><path d="M64.05,88.45a.53.53,0,0,1,.08.28.48.48,0,0,1-.08.27.59.59,0,0,1-.08-.27.66.66,0,0,1,.08-.28"/><path d="M65.36,89.63a.53.53,0,0,1,0,.56.53.53,0,0,1,0-.56"/><path d="M66.66,90.81a.52.52,0,0,1,.08.27.53.53,0,0,1-.08.28.66.66,0,0,1-.08-.28.65.65,0,0,1,.08-.27"/><path d="M87.56,84.51a.53.53,0,0,1,0,.56.53.53,0,0,1,0-.56"/><path d="M43.19,99.52a.14.14,0,0,1,.06.09.09.09,0,0,1,0,.08.08.08,0,0,0,0,.1.21.21,0,0,1,0,.28h0a.21.21,0,0,1,0-.28s0-.06,0-.1a.09.09,0,0,1,0-.08.14.14,0,0,1,.06-.09Z"/><path d="M44.71,100.89a.53.53,0,0,1,0,.56.53.53,0,0,1,0-.56"/><path d="M46.24,102.27a.14.14,0,0,1,0,.09s0,0,0,.09,0,.06,0,.1a.21.21,0,0,1,0,.27h0a.2.2,0,0,1,0-.27s0-.07,0-.1,0-.07,0-.09a.18.18,0,0,1,.06-.09Z"/><path d="M47.75,103.64a.53.53,0,0,1,0,.56.53.53,0,0,1,0-.56"/><path d="M39.25,97.74a.14.14,0,0,1,.06.08.1.1,0,0,1,0,.09.08.08,0,0,0,0,.1.21.21,0,0,1,0,.28h0a.23.23,0,0,1,0-.28s0-.07,0-.1a.1.1,0,0,1,0-.09.15.15,0,0,1,0-.08Z"/><polygon points="40.68 99.66 40.77 100.79 40.85 99.66 40.68 99.66"/><path d="M40.77,94.71a.31.31,0,0,1,.07.08s0,.12.07.19,0,.14-.07.19a.53.53,0,0,1-.07.09h0v-.55Z"/><path d="M81.16,93.35a.2.2,0,0,1,0,.09s0,0,0,.08,0,.07,0,.11a.22.22,0,0,1,0,.27h0a.2.2,0,0,1,0-.27.09.09,0,0,0,0-.11.09.09,0,0,1,0-.08.18.18,0,0,1,.06-.09Z"/><path d="M78.86,94.71a.31.31,0,0,1,.07.08s0,.12.07.19,0,.14-.07.19a.53.53,0,0,1-.07.09h0v-.55Z"/><path d="M42.3,100.49a.2.2,0,0,1,.05.09s0,0,0,.08,0,.07,0,.11a.22.22,0,0,1,0,.27h0a.2.2,0,0,1,0-.27.11.11,0,0,0,0-.11s0-.06,0-.08a.18.18,0,0,1,.06-.09Z"/><path d="M42.3,96.77s0,.14.05.27a.25.25,0,0,1,0,.19.44.44,0,0,1-.05.09h0a.2.2,0,0,1-.05-.09.3.3,0,0,1,0-.19,2.57,2.57,0,0,1,.06-.27Z"/><path d="M77.21,96.77a2.57,2.57,0,0,1,.06.27.25.25,0,0,1,0,.19.2.2,0,0,1-.05.09h0a.2.2,0,0,1,0-.09.21.21,0,0,1,0-.19,2.57,2.57,0,0,1,.06-.27Z"/><path d="M45.34,103.24a.18.18,0,0,1,.06.09.1.1,0,0,1,0,.09s0,.06,0,.1a.2.2,0,0,1,0,.27h0a.2.2,0,0,1,0-.27s0-.07,0-.1a.1.1,0,0,1,0-.09.18.18,0,0,1,.06-.09Z"/><path d="M45.33,99.23a.53.53,0,0,1,0,.56.53.53,0,0,1,0-.56"/><path d="M74.17,99.23a.53.53,0,0,1,0,.56.53.53,0,0,1-.08-.28.66.66,0,0,1,.08-.28"/><polygon points="46.77 105.17 46.86 106.29 46.94 105.17 46.77 105.17"/><path d="M40.76,101.58a.53.53,0,0,1,0,.56.6.6,0,0,1,0-.56"/><path d="M43.81,104.62a.52.52,0,0,1,.08.27.53.53,0,0,1-.08.28.66.66,0,0,1-.08-.28.65.65,0,0,1,.08-.27"/><path d="M46.86,107.09a.56.56,0,0,1,.07.27.57.57,0,0,1-.07.28.53.53,0,0,1-.08-.28.52.52,0,0,1,.08-.27"/><path d="M48.39,106a.15.15,0,0,1,0,.08s0,.06,0,.09,0,.07,0,.1a.21.21,0,0,1,0,.27h0a.19.19,0,0,1,0-.27s0-.07,0-.1a.09.09,0,0,1,0-.09.14.14,0,0,1,.06-.08Z"/><path d="M51.42,106a.15.15,0,0,1,0,.08s0,.06,0,.09,0,.07,0,.1a.21.21,0,0,1,0,.27h0a.19.19,0,0,1,0-.27s0-.07,0-.1a.09.09,0,0,1,0-.09.14.14,0,0,1,.06-.08Z"/><path d="M53.29,106a.15.15,0,0,1,.05.08s0,.06,0,.09,0,.07,0,.1a.21.21,0,0,1,0,.27h0a.2.2,0,0,1,0-.27.08.08,0,0,0,0-.1.1.1,0,0,1,0-.09.14.14,0,0,1,.06-.08Z"/><path d="M55.44,110.61a.14.14,0,0,1,.06.08.1.1,0,0,1,0,.09.08.08,0,0,0,0,.1.2.2,0,0,1,0,.27h0a.2.2,0,0,1,0-.27s0-.07,0-.1a.1.1,0,0,1,0-.09.14.14,0,0,1,.06-.08Z"/><polygon points="64.51 110.61 64.59 111.73 64.67 110.61 64.51 110.61"/><path d="M51.12,108.66a.14.14,0,0,1,.06.09.09.09,0,0,1,0,.08.08.08,0,0,0,0,.1.21.21,0,0,1,0,.28h0a.23.23,0,0,1,0-.28s0-.06,0-.1a.09.09,0,0,1,0-.08.15.15,0,0,1,.05-.09Z"/><path d="M54.15,108.66a.14.14,0,0,1,.06.09.09.09,0,0,1,0,.08.08.08,0,0,0,0,.1.21.21,0,0,1,0,.28h0a.23.23,0,0,1,0-.28s0-.06,0-.1a.09.09,0,0,1,0-.08.15.15,0,0,1,.05-.09Z"/><path d="M57.51,107.85a.14.14,0,0,1,.06.08.09.09,0,0,1,0,.09s0,.07,0,.1a.21.21,0,0,1,0,.28h0a.23.23,0,0,1,0-.28s0-.07,0-.1,0-.06,0-.09a.15.15,0,0,1,.05-.08Z"/><path d="M62.55,107.85a.14.14,0,0,1,.06.08.1.1,0,0,1,0,.09.08.08,0,0,0,0,.1.21.21,0,0,1,0,.28h0a.23.23,0,0,1,0-.28s0-.07,0-.1a.1.1,0,0,1,0-.09.15.15,0,0,1,.05-.08Z"/><polygon points="57.42 110.85 57.5 111.97 57.58 110.85 57.42 110.85"/><path d="M62.55,110.85a.14.14,0,0,1,.06.08.1.1,0,0,1,0,.09.08.08,0,0,0,0,.1.21.21,0,0,1,0,.28h0a.23.23,0,0,1,0-.28s0-.07,0-.1a.1.1,0,0,1,0-.09.15.15,0,0,1,.05-.08Z"/><path d="M52.64,107.85a.14.14,0,0,1,.06.08.1.1,0,0,1,0,.09.08.08,0,0,0,0,.1.21.21,0,0,1,0,.28h0a.21.21,0,0,1,0-.28.08.08,0,0,0,0-.1.1.1,0,0,1,0-.09.14.14,0,0,1,.06-.08Z"/><path d="M52.64,110a.59.59,0,0,1,0,.56.53.53,0,0,1,0-.56"/><path d="M66.45,108.66a.15.15,0,0,1,0,.09s0,0,0,.08,0,.07,0,.1a.23.23,0,0,1,0,.28h0a.21.21,0,0,1,0-.28s0-.06,0-.1,0-.06,0-.08a.14.14,0,0,1,.06-.09Z"/><path d="M69.48,108.66a.11.11,0,0,1,0,.09s0,0,0,.08,0,.07,0,.1a.22.22,0,0,1,0,.28h0a.21.21,0,0,1,0-.28s0-.06,0-.1,0-.06,0-.08a.14.14,0,0,1,.06-.09Z"/><path d="M68,107.85a.14.14,0,0,1,.06.08.09.09,0,0,1,0,.09s0,.07,0,.1a.21.21,0,0,1,0,.28h0a.23.23,0,0,1,0-.28s0-.07,0-.1,0-.06,0-.09a.15.15,0,0,1,0-.08Z"/><path d="M68,109.87a.53.53,0,0,1,0,.56.53.53,0,0,1,0-.56"/><path d="M58.41,106a.14.14,0,0,1,.06.08.1.1,0,0,1,0,.09.08.08,0,0,0,0,.1.2.2,0,0,1,0,.27h0a.2.2,0,0,1,0-.27s0-.07,0-.1a.1.1,0,0,1,0-.09.14.14,0,0,1,.06-.08Z"/><path d="M61.44,106a.14.14,0,0,1,.06.08.1.1,0,0,1,0,.09.08.08,0,0,0,0,.1.2.2,0,0,1,0,.27h0a.2.2,0,0,1,0-.27.08.08,0,0,0,0-.1.1.1,0,0,1,0-.09.14.14,0,0,1,.06-.08Z"/><path d="M59.93,107.37a.53.53,0,0,1,0,.56.53.53,0,0,1,0-.56"/><path d="M58.41,109.75a.18.18,0,0,1,.06.09s0,0,0,.09,0,.06,0,.1a.2.2,0,0,1,0,.27h0a.2.2,0,0,1,0-.27s0-.07,0-.1,0-.07,0-.09a.18.18,0,0,1,.06-.09Z"/><path d="M61.44,109.75a.18.18,0,0,1,.06.09s0,0,0,.09,0,.06,0,.1a.2.2,0,0,1,0,.27h0a.2.2,0,0,1,0-.27s0-.07,0-.1,0-.07,0-.09a.18.18,0,0,1,.06-.09Z"/><path d="M59.92,111a.66.66,0,0,1,.08.28.53.53,0,0,1-.08.28.53.53,0,0,1,0-.56"/><path d="M64.6,106a.14.14,0,0,1,.06.08.1.1,0,0,1,0,.09.08.08,0,0,0,0,.1.2.2,0,0,1,0,.27h0a.21.21,0,0,1,0-.27s0-.07,0-.1,0-.06,0-.09a.15.15,0,0,1,0-.08Z"/><path d="M67.63,106a.14.14,0,0,1,.06.08.1.1,0,0,1,0,.09.08.08,0,0,0,0,.1.2.2,0,0,1,0,.27h0a.21.21,0,0,1,0-.27s0-.07,0-.1a.1.1,0,0,1,0-.09.15.15,0,0,1,0-.08Z"/><path d="M64.34,108.94a.53.53,0,0,1,0,.56.53.53,0,0,1,0-.56"/><path d="M82.68,94a.14.14,0,0,1,.06.08.09.09,0,0,1,0,.09s0,.07,0,.1a.19.19,0,0,1,0,.27h0a.2.2,0,0,1,0-.27s0-.07,0-.1,0-.06,0-.09a.11.11,0,0,1,0-.08Z"/><path d="M79.63,96.77a.14.14,0,0,1,.06.08.1.1,0,0,1,0,.09.08.08,0,0,0,0,.1.21.21,0,0,1,0,.28h0a.21.21,0,0,1,0-.28.08.08,0,0,0,0-.1.1.1,0,0,1,0-.09.14.14,0,0,1,.06-.08Z"/><path d="M78.1,98.14a.53.53,0,0,1,0,.56.53.53,0,0,1,0-.56"/><path d="M76.59,99.52a.11.11,0,0,1,0,.09s0,0,0,.08,0,.07,0,.1a.22.22,0,0,1,0,.28h0a.21.21,0,0,1,0-.28s0-.06,0-.1,0-.06,0-.08a.14.14,0,0,1,.06-.09Z"/><path d="M75.06,100.89a.53.53,0,0,1,0,.56.53.53,0,0,1,0-.56"/><path d="M73.54,102.27a.18.18,0,0,1,.06.09s0,0,0,.09,0,.06,0,.1a.2.2,0,0,1,0,.27h0a.2.2,0,0,1,0-.27s0-.07,0-.1,0-.07,0-.09a.18.18,0,0,1,.06-.09Z"/><path d="M72,103.64a.53.53,0,0,1,0,.56.53.53,0,0,1,0-.56"/><path d="M80.77,97.46a.11.11,0,0,1,0,.08s0,.06,0,.09,0,.07,0,.1a.2.2,0,0,1,0,.27h0a.19.19,0,0,1,0-.27s0-.07,0-.1a.09.09,0,0,1,0-.09.14.14,0,0,1,.06-.08Z"/><polygon points="79.15 99.38 79.24 100.5 79.32 99.38 79.15 99.38"/><path d="M77.72,100.21a.14.14,0,0,1,.06.09.09.09,0,0,1,0,.08.08.08,0,0,0,0,.1.21.21,0,0,1,0,.28h0a.21.21,0,0,1,0-.28.08.08,0,0,0,0-.1.09.09,0,0,1,0-.08.14.14,0,0,1,.06-.09Z"/><path d="M74.68,103a.2.2,0,0,1,0,.09s0,0,0,.08,0,.07,0,.11a.22.22,0,0,1,0,.27h0a.2.2,0,0,1,0-.27s0-.07,0-.11,0-.06,0-.08a.18.18,0,0,1,.06-.09Z"/><polygon points="73.06 104.89 73.15 106.01 73.23 104.89 73.06 104.89"/><path d="M79.24,101.58a.53.53,0,0,1,0,.56.53.53,0,0,1,0-.56"/><path d="M76.19,104.62a.52.52,0,0,1,.08.27.53.53,0,0,1-.08.28.66.66,0,0,1-.08-.28.65.65,0,0,1,.08-.27"/><path d="M73.15,107.09a.53.53,0,0,1,0,.56.53.53,0,0,1,0-.56"/><path d="M71.63,105.71a.18.18,0,0,1,.06.09.1.1,0,0,1,0,.09s0,.06,0,.1a.2.2,0,0,1,0,.27h0a.2.2,0,0,1,0-.27s0-.07,0-.1a.1.1,0,0,1,0-.09.18.18,0,0,1,.06-.09Z"/><path d="M37.1,93.7a.18.18,0,0,1,.06.09.12.12,0,0,1,0,.1.11.11,0,0,0,0,.12.24.24,0,0,1,0,.3h0a.26.26,0,0,1,0-.3s0-.08,0-.12a.12.12,0,0,1,0-.1.2.2,0,0,1,0-.09Z"/><path d="M52.25,88.94a.18.18,0,0,1,.06.09.12.12,0,0,1,0,.1.11.11,0,0,0,0,.12.24.24,0,0,1,0,.3h0a.24.24,0,0,1,0-.3.11.11,0,0,0,0-.12.12.12,0,0,1,0-.1.18.18,0,0,1,.06-.09Z"/><path d="M68,88.94A.18.18,0,0,1,68,89a.1.1,0,0,1,0,.1s0,.08,0,.12a.23.23,0,0,1,0,.3h0a.26.26,0,0,1,0-.3s0-.08,0-.12a.08.08,0,0,1,0-.1.2.2,0,0,1,0-.09Z"/><path d="M35.72,91.38a.15.15,0,0,1,.05.09.13.13,0,0,1,0,.1s0,.07,0,.11a.27.27,0,0,1,0,.31h0a.25.25,0,0,1,0-.31.09.09,0,0,0,0-.11.13.13,0,0,1,0-.1.14.14,0,0,1,.06-.09Z"/><path d="M34.13,88.27a.14.14,0,0,1,.06.09.13.13,0,0,1,0,.1.09.09,0,0,0,0,.11.25.25,0,0,1,0,.31h0a.25.25,0,0,1,0-.31s0-.07,0-.11a.13.13,0,0,1,0-.1.14.14,0,0,1,.06-.09Z"/><path d="M32.75,85.9a.2.2,0,0,1,0,.1s0,.06,0,.09,0,.08,0,.12a.26.26,0,0,1,0,.3h0a.23.23,0,0,1,0-.3s0-.08,0-.12a.09.09,0,0,1,0-.09.18.18,0,0,1,.06-.1Z"/><path d="M83.81,91.38a.14.14,0,0,1,.06.09.13.13,0,0,1,0,.1.09.09,0,0,0,0,.11.25.25,0,0,1,0,.31h0a.27.27,0,0,1,0-.31s0-.07,0-.11a.13.13,0,0,1,0-.1.15.15,0,0,1,.05-.09Z"/><path d="M85.39,88.27a.14.14,0,0,1,.06.09.13.13,0,0,1,0,.1.09.09,0,0,0,0,.11.25.25,0,0,1,0,.31h0a.25.25,0,0,1,0-.31.09.09,0,0,0,0-.11.13.13,0,0,1,0-.1.14.14,0,0,1,.06-.09Z"/><path d="M86.78,85.9a.18.18,0,0,1,.06.1.09.09,0,0,1,0,.09s0,.08,0,.12a.23.23,0,0,1,0,.3h0a.26.26,0,0,1,0-.3s0-.08,0-.12,0-.07,0-.09a.2.2,0,0,1,.05-.1Z"/><path d="M38.62,95.19a.72.72,0,0,1,0,.62.64.64,0,0,1,0-.62"/><path d="M40.15,96.69a.2.2,0,0,1,.05.1s0,.06,0,.09,0,.08,0,.12a.26.26,0,0,1,0,.3h0a.23.23,0,0,1,0-.3s0-.08,0-.12a.09.09,0,0,1,0-.09.18.18,0,0,1,.06-.1Z"/><path d="M41.66,98.19a.6.6,0,0,1,.08.3.61.61,0,0,1-.08.31.61.61,0,0,1-.08-.31.74.74,0,0,1,.08-.3"/><path d="M58.07,87.65a.64.64,0,0,1,0,.62.64.64,0,0,1,0-.62"/><path d="M56.77,88.94a.18.18,0,0,1,.06.09.12.12,0,0,1,0,.1.11.11,0,0,0,0,.12.24.24,0,0,1,0,.3h0a.24.24,0,0,1,0-.3s0-.08,0-.12a.12.12,0,0,1,0-.1.18.18,0,0,1,.06-.09Z"/><path d="M58.07,90.22a.6.6,0,0,1,.08.3.61.61,0,0,1-.08.31.75.75,0,0,1-.08-.31.74.74,0,0,1,.08-.3"/><path d="M50.11,89.86a.75.75,0,0,1,.08.31.6.6,0,0,1-.08.3.6.6,0,0,1-.08-.3.61.61,0,0,1,.08-.31"/><path d="M48,90.22a.64.64,0,0,1,.07.3.66.66,0,0,1-.07.31.61.61,0,0,1-.08-.31.6.6,0,0,1,.08-.3"/><path d="M71.86,90.22a.6.6,0,0,1,.08.3.61.61,0,0,1-.08.31.75.75,0,0,1-.08-.31.74.74,0,0,1,.08-.3"/><path d="M69.91,89.86a.61.61,0,0,1,.08.31.6.6,0,0,1-.08.3.64.64,0,0,1-.07-.3.66.66,0,0,1,.07-.31"/><polygon points="55.38 90.22 55.45 90.84 55.53 90.22 55.38 90.22"/><path d="M56.11,87.65a.64.64,0,0,1,0,.62.64.64,0,0,1,0-.62"/><path d="M54.8,88.94a.61.61,0,0,1,.08.31.6.6,0,0,1-.08.3.6.6,0,0,1-.08-.3.75.75,0,0,1,.08-.31"/><path d="M53.49,90.22a.64.64,0,0,1,0,.62.64.64,0,0,1,0-.62"/><path d="M61.77,87.65a.64.64,0,0,1,0,.62.64.64,0,0,1,0-.62"/><path d="M61.77,90.22a.64.64,0,0,1,0,.62.64.64,0,0,1,0-.62"/><path d="M63.08,88.93a.18.18,0,0,1,.06.1.11.11,0,0,1,0,.1s0,.07,0,.11a.25.25,0,0,1,0,.31h0a.28.28,0,0,1,0-.31s0-.08,0-.11,0-.07,0-.1a.2.2,0,0,1,.05-.1Z"/><polygon points="64.3 90.22 64.38 90.83 64.46 90.22 64.3 90.22"/><path d="M64.05,87.65a.64.64,0,0,1,0,.62.64.64,0,0,1,0-.62"/><path d="M65.36,88.93a.64.64,0,0,1,0,.62.64.64,0,0,1,0-.62"/><path d="M66.66,90.22a.6.6,0,0,1,.08.3.61.61,0,0,1-.08.31.75.75,0,0,1-.08-.31.74.74,0,0,1,.08-.3"/><path d="M43.19,99.68a.18.18,0,0,1,.06.1.13.13,0,0,1,0,.1s0,.07,0,.11a.26.26,0,0,1,0,.31h0a.26.26,0,0,1,0-.31s0-.08,0-.11a.13.13,0,0,1,0-.1.18.18,0,0,1,.06-.1Z"/><path d="M44.71,101.18a.74.74,0,0,1,.08.3.75.75,0,0,1-.08.31.61.61,0,0,1-.08-.31.6.6,0,0,1,.08-.3"/><path d="M46.24,102.67a.14.14,0,0,1,0,.1s0,.06,0,.1,0,.07,0,.11a.26.26,0,0,1,0,.31h0a.25.25,0,0,1,0-.31s0-.08,0-.11a.11.11,0,0,1,0-.1.18.18,0,0,1,.06-.1Z"/><path d="M47.75,104.17a.61.61,0,0,1,.08.31.6.6,0,0,1-.08.3.74.74,0,0,1-.08-.3.75.75,0,0,1,.08-.31"/><path d="M39.25,97.74a.18.18,0,0,1,.06.1.13.13,0,0,1,0,.1s0,.07,0,.11a.26.26,0,0,1,0,.31h0a.28.28,0,0,1,0-.31s0-.08,0-.11a.13.13,0,0,1,0-.1.2.2,0,0,1,0-.1Z"/><polygon points="40.69 99.83 40.76 100.45 40.84 99.83 40.69 99.83"/><path d="M40.77,94.45a.24.24,0,0,1,.07.1s0,.13.07.21,0,.15-.07.21a.27.27,0,0,1-.07.09h0v-.61Z"/><path d="M38.62,93a.14.14,0,0,1,.06.09.13.13,0,0,1,0,.1.09.09,0,0,0,0,.11.25.25,0,0,1,0,.31h0a.25.25,0,0,1,0-.31.09.09,0,0,0,0-.11.13.13,0,0,1,0-.1.14.14,0,0,1,.06-.09Z"/><path d="M81.16,93a.15.15,0,0,1,0,.09s0,.06,0,.1,0,.07,0,.11a.27.27,0,0,1,0,.31h0a.25.25,0,0,1,0-.31.09.09,0,0,0,0-.11.13.13,0,0,1,0-.1.14.14,0,0,1,.06-.09Z"/><path d="M78.86,94.45a.24.24,0,0,1,.07.1s0,.13.07.21,0,.15-.07.21a.27.27,0,0,1-.07.09h0v-.61Z"/><path d="M42.3,100.74a.15.15,0,0,1,.05.09s0,.06,0,.1,0,.07,0,.11a.27.27,0,0,1,0,.31h0a.25.25,0,0,1,0-.31.11.11,0,0,0,0-.11.11.11,0,0,1,0-.1.14.14,0,0,1,.06-.09Z"/><path d="M42.3,96.69s0,.15.05.31a.3.3,0,0,1,0,.21.24.24,0,0,1-.05.09h0a.15.15,0,0,1-.05-.09.37.37,0,0,1,0-.21,2.64,2.64,0,0,1,.06-.31Z"/><path d="M77.21,96.69a2.64,2.64,0,0,1,.06.31.3.3,0,0,1,0,.21.15.15,0,0,1-.05.09h0a.15.15,0,0,1,0-.09.26.26,0,0,1,0-.21,2.64,2.64,0,0,1,.06-.31Z"/><polygon points="43.73 102.83 43.81 103.44 43.89 102.83 43.73 102.83"/><path d="M45.34,103.73a.18.18,0,0,1,.06.09.12.12,0,0,1,0,.1.09.09,0,0,0,0,.11.25.25,0,0,1,0,.31h0a.25.25,0,0,1,0-.31.11.11,0,0,0,0-.11.12.12,0,0,1,0-.1.18.18,0,0,1,.06-.09Z"/><path d="M45.33,99.37a.64.64,0,0,1,0,.62.64.64,0,0,1,0-.62"/><path d="M74.17,99.37a.64.64,0,0,1,0,.62.65.65,0,0,1-.08-.31.81.81,0,0,1,.08-.31"/><polygon points="46.78 105.82 46.85 106.43 46.93 105.82 46.78 105.82"/><path d="M40.76,101.92a.65.65,0,0,1,.08.31.61.61,0,0,1-.08.31.66.66,0,0,1-.07-.31.71.71,0,0,1,.07-.31"/><path d="M43.81,105.22a.64.64,0,0,1,0,.62.64.64,0,0,1,0-.62"/><path d="M46.86,107.91a.64.64,0,0,1,.07.3.66.66,0,0,1-.07.31.61.61,0,0,1-.08-.31.6.6,0,0,1,.08-.3"/><path d="M48.39,106.72a.2.2,0,0,1,0,.09.08.08,0,0,1,0,.1s0,.08,0,.12a.26.26,0,0,1,0,.3h0a.23.23,0,0,1,0-.3s0-.08,0-.12a.1.1,0,0,1,0-.1.18.18,0,0,1,.06-.09Z"/><path d="M51.42,106.72a.2.2,0,0,1,0,.09.08.08,0,0,1,0,.1s0,.08,0,.12a.26.26,0,0,1,0,.3h0a.23.23,0,0,1,0-.3s0-.08,0-.12a.1.1,0,0,1,0-.1.18.18,0,0,1,.06-.09Z"/><path d="M49.91,105.84a.14.14,0,0,1,.06.09.11.11,0,0,1,0,.1s0,.07,0,.11a.24.24,0,0,1,0,.31h0a.27.27,0,0,1,0-.31s0-.07,0-.11,0-.07,0-.1a.15.15,0,0,1,0-.09Z"/><path d="M49.9,108.21a.64.64,0,0,1,0,.62.64.64,0,0,1,0-.62"/><path d="M53.29,106.72a.2.2,0,0,1,.05.09s0,.07,0,.1,0,.08,0,.12a.26.26,0,0,1,0,.3h0a.24.24,0,0,1,0-.3.11.11,0,0,0,0-.12.12.12,0,0,1,0-.1.18.18,0,0,1,.06-.09Z"/><path d="M56.32,106.72a.2.2,0,0,1,0,.09.08.08,0,0,1,0,.1s0,.08,0,.12a.26.26,0,0,1,0,.3h0a.23.23,0,0,1,0-.3s0-.08,0-.12a.1.1,0,0,1,0-.1.18.18,0,0,1,.06-.09Z"/><path d="M55.44,111.73a.18.18,0,0,1,.06.09.12.12,0,0,1,0,.1.11.11,0,0,0,0,.12.24.24,0,0,1,0,.3h0a.24.24,0,0,1,0-.3s0-.08,0-.12a.12.12,0,0,1,0-.1.18.18,0,0,1,.06-.09Z"/><polygon points="64.51 111.73 64.59 112.34 64.67 111.73 64.51 111.73"/><path d="M54.81,105.84a.14.14,0,0,1,.06.09.11.11,0,0,1,0,.1s0,.07,0,.11a.24.24,0,0,1,0,.31h0a.26.26,0,0,1,0-.31s0-.07,0-.11,0-.07,0-.1a.11.11,0,0,1,0-.09Z"/><path d="M54.8,108.21a.64.64,0,0,1,0,.62.65.65,0,0,1-.08-.31.81.81,0,0,1,.08-.31"/><path d="M56.56,109.92a.66.66,0,0,1,.07.31.64.64,0,0,1-.07.3.6.6,0,0,1-.08-.3.61.61,0,0,1,.08-.31"/><path d="M51.12,109.61a.18.18,0,0,1,.06.1.13.13,0,0,1,0,.1s0,.07,0,.11a.26.26,0,0,1,0,.31h0a.28.28,0,0,1,0-.31s0-.08,0-.11a.13.13,0,0,1,0-.1.2.2,0,0,1,.05-.1Z"/><path d="M54.15,109.61a.18.18,0,0,1,.06.1.13.13,0,0,1,0,.1s0,.07,0,.11a.26.26,0,0,1,0,.31h0a.28.28,0,0,1,0-.31s0-.08,0-.11a.13.13,0,0,1,0-.1.2.2,0,0,1,.05-.1Z"/><path d="M57.51,108.73a.18.18,0,0,1,.06.1.09.09,0,0,1,0,.09s0,.08,0,.12a.23.23,0,0,1,0,.3h0a.26.26,0,0,1,0-.3s0-.08,0-.12,0-.06,0-.09a.2.2,0,0,1,.05-.1Z"/><path d="M62.55,108.73a.18.18,0,0,1,.06.1.1.1,0,0,1,0,.09.11.11,0,0,0,0,.12.24.24,0,0,1,0,.3h0a.26.26,0,0,1,0-.3s0-.08,0-.12a.1.1,0,0,1,0-.09.2.2,0,0,1,.05-.1Z"/><polygon points="57.42 111.99 57.5 112.6 57.58 111.99 57.42 111.99"/><path d="M62.55,112a.18.18,0,0,1,.06.1.1.1,0,0,1,0,.09.11.11,0,0,0,0,.12.24.24,0,0,1,0,.3h0a.26.26,0,0,1,0-.3s0-.08,0-.12a.1.1,0,0,1,0-.09.2.2,0,0,1,.05-.1Z"/><path d="M52.64,108.73a.18.18,0,0,1,.06.1.1.1,0,0,1,0,.09.11.11,0,0,0,0,.12.24.24,0,0,1,0,.3h0a.24.24,0,0,1,0-.3.11.11,0,0,0,0-.12.1.1,0,0,1,0-.09.18.18,0,0,1,.06-.1Z"/><path d="M52.64,111.11a.66.66,0,0,1,.07.31.64.64,0,0,1-.07.3.6.6,0,0,1-.08-.3.61.61,0,0,1,.08-.31"/><path d="M66.45,109.61a.2.2,0,0,1,0,.1s0,.06,0,.1,0,.07,0,.11a.28.28,0,0,1,0,.31h0a.25.25,0,0,1,0-.31s0-.08,0-.11a.11.11,0,0,1,0-.1.18.18,0,0,1,.06-.1Z"/><path d="M69.48,109.61a.14.14,0,0,1,0,.1s0,.06,0,.1,0,.07,0,.11a.26.26,0,0,1,0,.31h0a.25.25,0,0,1,0-.31s0-.08,0-.11a.11.11,0,0,1,0-.1.18.18,0,0,1,.06-.1Z"/><path d="M68,108.73a.18.18,0,0,1,.06.1.09.09,0,0,1,0,.09s0,.08,0,.12a.23.23,0,0,1,0,.3h0a.26.26,0,0,1,0-.3s0-.08,0-.12,0-.06,0-.09a.2.2,0,0,1,0-.1Z"/><path d="M68,110.94a.6.6,0,0,1,.08.3.61.61,0,0,1-.08.31.75.75,0,0,1-.08-.31.74.74,0,0,1,.08-.3"/><path d="M58.41,106.72a.18.18,0,0,1,.06.09.12.12,0,0,1,0,.1.11.11,0,0,0,0,.12.24.24,0,0,1,0,.3h0a.24.24,0,0,1,0-.3s0-.08,0-.12a.12.12,0,0,1,0-.1.18.18,0,0,1,.06-.09Z"/><path d="M61.44,106.72a.18.18,0,0,1,.06.09.12.12,0,0,1,0,.1.11.11,0,0,0,0,.12.24.24,0,0,1,0,.3h0a.24.24,0,0,1,0-.3.11.11,0,0,0,0-.12.12.12,0,0,1,0-.1.18.18,0,0,1,.06-.09Z"/><path d="M59.93,105.84a.14.14,0,0,1,.06.09.13.13,0,0,1,0,.1s0,.07,0,.11a.25.25,0,0,1,0,.31h0a.25.25,0,0,1,0-.31.09.09,0,0,0,0-.11.13.13,0,0,1,0-.1.14.14,0,0,1,.06-.09Z"/><path d="M59.93,108.21a.64.64,0,0,1,0,.62.64.64,0,0,1,0-.62"/><path d="M61.44,110.8a.18.18,0,0,1,.06.1.13.13,0,0,1,0,.1s0,.07,0,.11a.24.24,0,0,1,0,.3h0a.24.24,0,0,1,0-.3s0-.08,0-.11a.13.13,0,0,1,0-.1.18.18,0,0,1,.06-.1Z"/><path d="M59.93,109.92a.18.18,0,0,1,.06.1.11.11,0,0,1,0,.09s0,.08,0,.12a.24.24,0,0,1,0,.3h0a.24.24,0,0,1,0-.3.11.11,0,0,0,0-.12.11.11,0,0,1,0-.09.18.18,0,0,1,.06-.1Z"/><path d="M59.92,112.18a.74.74,0,0,1,.08.3.61.61,0,0,1-.08.31.61.61,0,0,1-.08-.31.6.6,0,0,1,.08-.3"/><path d="M64.6,106.72a.18.18,0,0,1,.06.09.12.12,0,0,1,0,.1.11.11,0,0,0,0,.12.24.24,0,0,1,0,.3h0a.26.26,0,0,1,0-.3s0-.08,0-.12a.08.08,0,0,1,0-.1.2.2,0,0,1,0-.09Z"/><path d="M67.63,106.72a.18.18,0,0,1,.06.09.12.12,0,0,1,0,.1.11.11,0,0,0,0,.12.24.24,0,0,1,0,.3h0a.26.26,0,0,1,0-.3s0-.08,0-.12a.12.12,0,0,1,0-.1.2.2,0,0,1,0-.09Z"/><path d="M66.12,105.84a.14.14,0,0,1,.06.09.13.13,0,0,1,0,.1.09.09,0,0,0,0,.11.25.25,0,0,1,0,.31h0a.25.25,0,0,1,0-.31.09.09,0,0,0,0-.11.13.13,0,0,1,0-.1.14.14,0,0,1,.06-.09Z"/><path d="M66.11,108.21a.64.64,0,0,1,0,.62.72.72,0,0,1,0-.62"/><path d="M64.34,109.92a.75.75,0,0,1,.08.31.74.74,0,0,1-.08.3.6.6,0,0,1-.08-.3.61.61,0,0,1,.08-.31"/><path d="M82.68,93.7a.18.18,0,0,1,.06.09.1.1,0,0,1,0,.1s0,.08,0,.12a.23.23,0,0,1,0,.3h0a.24.24,0,0,1,0-.3s0-.08,0-.12a.08.08,0,0,1,0-.1.14.14,0,0,1,0-.09Z"/><path d="M81.15,95.19a.64.64,0,0,1,0,.62.64.64,0,0,1,0-.62"/><path d="M79.63,96.69a.18.18,0,0,1,.06.1.1.1,0,0,1,0,.09.11.11,0,0,0,0,.12.24.24,0,0,1,0,.3h0a.24.24,0,0,1,0-.3.11.11,0,0,0,0-.12.1.1,0,0,1,0-.09.18.18,0,0,1,.06-.1Z"/><path d="M78.1,98.19a.6.6,0,0,1,.08.3.61.61,0,0,1-.08.31.75.75,0,0,1-.08-.31.74.74,0,0,1,.08-.3"/><path d="M76.59,99.68a.14.14,0,0,1,0,.1s0,.06,0,.1,0,.07,0,.11a.26.26,0,0,1,0,.31h0a.25.25,0,0,1,0-.31s0-.08,0-.11a.11.11,0,0,1,0-.1.18.18,0,0,1,.06-.1Z"/><path d="M75.06,101.18a.74.74,0,0,1,.08.3.75.75,0,0,1-.08.31.61.61,0,0,1-.08-.31.6.6,0,0,1,.08-.3"/><path d="M73.54,102.67a.18.18,0,0,1,.06.1.13.13,0,0,1,0,.1s0,.07,0,.11a.26.26,0,0,1,0,.31h0a.26.26,0,0,1,0-.31s0-.08,0-.11a.13.13,0,0,1,0-.1.18.18,0,0,1,.06-.1Z"/><path d="M72,104.17a.61.61,0,0,1,.08.31.6.6,0,0,1-.08.3.74.74,0,0,1-.08-.3.75.75,0,0,1,.08-.31"/><path d="M80.77,97.44a.14.14,0,0,1,0,.09.08.08,0,0,1,0,.1s0,.08,0,.12a.24.24,0,0,1,0,.3h0a.23.23,0,0,1,0-.3s0-.08,0-.12a.1.1,0,0,1,0-.1.18.18,0,0,1,.06-.09Z"/><polygon points="79.16 99.53 79.24 100.14 79.32 99.53 79.16 99.53"/><path d="M77.72,100.43a.18.18,0,0,1,.06.1.11.11,0,0,1,0,.09.11.11,0,0,0,0,.12.24.24,0,0,1,0,.3h0a.24.24,0,0,1,0-.3.11.11,0,0,0,0-.12.11.11,0,0,1,0-.09.18.18,0,0,1,.06-.1Z"/><polygon points="76.11 102.52 76.19 103.13 76.27 102.52 76.11 102.52"/><path d="M74.68,103.42a.2.2,0,0,1,0,.1s0,.06,0,.09,0,.08,0,.12a.26.26,0,0,1,0,.3h0a.23.23,0,0,1,0-.3s0-.08,0-.12a.09.09,0,0,1,0-.09.18.18,0,0,1,.06-.1Z"/><polygon points="73.07 105.51 73.15 106.12 73.22 105.51 73.07 105.51"/><path d="M79.24,101.92a.81.81,0,0,1,.08.31.75.75,0,0,1-.08.31.61.61,0,0,1-.08-.31.65.65,0,0,1,.08-.31"/><path d="M76.19,105.22a.64.64,0,0,1,0,.62.64.64,0,0,1,0-.62"/><path d="M73.15,107.91a.64.64,0,0,1,0,.62.64.64,0,0,1,0-.62"/><path d="M71.63,106.41a.18.18,0,0,1,.06.1.13.13,0,0,1,0,.1s0,.07,0,.11a.26.26,0,0,1,0,.31h0a.26.26,0,0,1,0-.31s0-.08,0-.11a.13.13,0,0,1,0-.1.18.18,0,0,1,.06-.1Z"/><path d="M36.5,60.72l.74.35.84.26c.27.08.56.13.85.2a8.1,8.1,0,0,0,.86.13c.29,0,.57.08.87.1s.58.06.87.07c.58,0,1.17,0,1.75,0s1.17,0,1.76,0,1.17,0,1.76-.07c1.17-.05,2.35-.15,3.51-.28h.09l.11,0c.12,0,.23.11.35.14a1.51,1.51,0,0,0,.37.06,1.54,1.54,0,0,0,.37,0l.18,0,.16-.06-.11.33-.42-1c-.2-.31-.39-.64-.61-.94a5.29,5.29,0,0,0-.78-.79l-.43-.35-.48-.31a5.38,5.38,0,0,0-1-.43L47,57.84l-1.11-.11H44.77l-1.1.12c-.37.07-.73.11-1.09.2s-.73.15-1.08.27-.71.22-1,.36a17,17,0,0,0-2.05.91,20.13,20.13,0,0,0-1.9,1.12m-.1,0a10.09,10.09,0,0,1,1.78-1.47,12.54,12.54,0,0,1,2-1.13,8.46,8.46,0,0,1,1.09-.42,10.47,10.47,0,0,1,1.13-.32c.38-.09.77-.13,1.16-.19s.78,0,1.17,0l1.17.11,1.14.24,1.1.36a5.35,5.35,0,0,1,1.06.49l.5.29.47.35c.32.22.56.54.86.79s.48.62.72.94l.56,1,.11.2-.22.13a1,1,0,0,1-.25.13,1.17,1.17,0,0,1-.24.09,1.81,1.81,0,0,1-.52.07,1.84,1.84,0,0,1-.52,0,4,4,0,0,1-.49-.16l.2,0c-1.19.21-2.37.33-3.56.43-.6,0-1.19.07-1.79.09-.3,0-.6,0-.9,0l-.9,0c-.6,0-1.2-.09-1.79-.16-.3,0-.6-.09-.9-.13a6.87,6.87,0,0,1-.88-.18c-.29-.08-.59-.13-.88-.24s-.57-.18-.85-.29l-.82-.4-.74-.52,0,0Z"/><path class="cls-7" d="M46.61,59.86a2.08,2.08,0,1,1-2.08-2.09A2.09,2.09,0,0,1,46.61,59.86Z"/><path d="M45.5,59.86a1,1,0,1,1-1-1,1,1,0,0,1,1,1"/><path class="cls-3" d="M45.2,59.49a.37.37,0,0,1-.37.37.36.36,0,0,1-.37-.37.37.37,0,0,1,.37-.37.38.38,0,0,1,.37.37"/><path class="cls-8" d="M50.37,61.84s.28-1.14,1-1.4"/><path class="cls-7" d="M77.23,59.86a2.08,2.08,0,1,1-2.08-2.09A2.09,2.09,0,0,1,77.23,59.86Z"/><path d="M83.29,60.78c-.25.18-.49.35-.75.52l-.81.4c-.28.11-.57.19-.86.3s-.58.15-.87.23a7,7,0,0,1-.89.18c-.3,0-.59.1-.89.13-.6.07-1.2.14-1.8.16l-.89,0c-.3,0-.6,0-.9,0-.6,0-1.2,0-1.79-.09-1.2-.1-2.38-.22-3.56-.43l.2,0a4.16,4.16,0,0,1-.5.16,1.8,1.8,0,0,1-.52.05,1.75,1.75,0,0,1-.51-.07,1.06,1.06,0,0,1-.25-.09,1.51,1.51,0,0,1-.25-.13L67.24,62l.1-.19.56-1.05c.24-.32.47-.64.73-.93a9.26,9.26,0,0,1,.86-.8l.46-.35.51-.29a5.89,5.89,0,0,1,1.05-.49l1.11-.35,1.14-.25,1.16-.11c.39,0,.79,0,1.18,0s.78.1,1.16.19.76.18,1.13.32a10.06,10.06,0,0,1,1.08.42,13.08,13.08,0,0,1,2,1.13,10.87,10.87,0,0,1,1.78,1.47l0,0Zm-.11,0a19.24,19.24,0,0,0-1.89-1.13,18.57,18.57,0,0,0-2.05-.91c-.35-.14-.7-.25-1.06-.36s-.72-.18-1.07-.27-.73-.13-1.09-.2l-1.1-.12H73.81l-1.12.11-1.09.26a4.92,4.92,0,0,0-1,.44l-.47.3-.44.35a5.82,5.82,0,0,0-.78.79c-.22.3-.41.63-.61.94l-.42,1-.11-.33.16.06.19,0a1.16,1.16,0,0,0,.37,0,1.59,1.59,0,0,0,.37-.06c.12,0,.23-.1.35-.14l.11-.05h.09c1.16.13,2.34.23,3.51.28.59,0,1.17.06,1.76.07s1.17,0,1.75,0,1.17,0,1.76,0c.29,0,.58,0,.87-.07s.58-.06.87-.1a8.51,8.51,0,0,0,.86-.13c.28-.07.57-.12.85-.2l.83-.26Z"/><path d="M74.18,59.88a1,1,0,1,0,1-1,1,1,0,0,0-1,1"/><path class="cls-3" d="M75.8,59.49a.37.37,0,0,1-.74,0,.37.37,0,1,1,.74,0"/><path class="cls-8" d="M69.38,61.84s-.29-1.14-1-1.4"/><rect class="cls-3" x="52.45" y="29.12" width="14.79" height="34.46"/></g></g></svg>