<svg xmlns="http://www.w3.org/2000/svg" viewBox="0 0 27.32 27.33"><g id="Capa_2" data-name="Capa 2"><g id="Capa_1-2" data-name="Capa 1"><path d="M11.53,16.42V10.91H10.45c-.09.46-.07,5.2,0,5.51Zm9.26-2.07c.43.1.84,0,1.22.09a1.29,1.29,0,0,1-1.15,1.13,1.45,1.45,0,0,1-1.54-.77,2.76,2.76,0,0,1,.09-2.38,1.33,1.33,0,0,1,1.33-.7,1.18,1.18,0,0,1,1.15.81s.05.06.05.07h1.11a2,2,0,0,0-.89-1.44,2.59,2.59,0,0,0-1.38-.41A2.47,2.47,0,0,0,18.35,12a3.39,3.39,0,0,0-.05,3.32A2.37,2.37,0,0,0,22,16l.16-.1c.05.21.09.38.14.57h.73V13.49H20.79ZM12.67,10.9c-.09.47-.07,5.2,0,5.52h1v-3.7l.08,0c.13.21.25.42.37.63.54.94,1.08,1.89,1.63,2.82.06.11.17.27.27.28.34,0,.68,0,1,0V10.92H16v3.63l-.08,0-2.1-3.67ZM8.31,14.39a1.19,1.19,0,0,1,0,.19,1.32,1.32,0,0,1-1.11,1,1.45,1.45,0,0,1-1.53-.72,2.66,2.66,0,0,1,.1-2.48,1.3,1.3,0,0,1,1.31-.65,1.2,1.2,0,0,1,1.14.83s0,0,0,0H9.36a1.73,1.73,0,0,0-.5-1.1,2.34,2.34,0,0,0-1.71-.74,2.56,2.56,0,0,0-2.71,1.71,4,4,0,0,0-.12,2A2.64,2.64,0,0,0,5.15,16a2.41,2.41,0,0,0,3.16,0,1,1,0,0,1,.19-.13c.05.21.09.38.14.56h.72a15.52,15.52,0,0,0,0-2.93H7.12v.91ZM13.65,0A13.67,13.67,0,1,1,0,13.64,13.66,13.66,0,0,1,13.65,0"/></g></g></svg>