<?xml version="1.0" encoding="utf-8"?>
<!-- Generator: Adobe Illustrator 25.4.1, SVG Export Plug-In . SVG Version: 6.00 Build 0)  -->
<svg version="1.1" id="Capa_1" xmlns="http://www.w3.org/2000/svg" xmlns:xlink="http://www.w3.org/1999/xlink" x="0px" y="0px"
	 viewBox="0 0 165.7 176" style="enable-background:new 0 0 165.7 176;" xml:space="preserve">
<style type="text/css">
	.st0{fill:#FFFFFF;}
</style>
<g id="tQ8Wtz.tif">
	<g>
		<path class="st0" d="M97.9,95.7c-32.6,0-65.3,0-97.9,0C0,63.9,0,32.1,0,0.3c32.6,0,65.3,0,97.9,0C97.9,32.1,97.9,63.9,97.9,95.7z
			 M59.1,70.8c0.2,0.6,0.5,1.1,0.6,1.7c0.2,1.3,0.4,2.6,0.4,4c0,4.9,0,9.9,0,14.8c0,1.3,0.5,2.5,1.5,3.3c0.9,0.8,1.9,1,3.1,0.6
			c5.9-2.1,11.4-5,16-9.3c2.1-1.9,4.2-3.8,5.9-6C95.6,68.8,99,56.1,97,42c-1.4-9.8-5.5-18.4-12.3-25.6c-8.5-9-18.8-14.3-31.1-15.6
			c-8.6-0.9-16.9,0.5-24.8,4C8.2,14.3-3.2,36.2,1.1,58.5c2.2,11.5,8.1,20.9,17,28.4c4.5,3.8,9.5,6.5,15,8.3c0.5,0.2,1,0.2,1.5,0.1
			c1.6-0.3,2.9-2.1,2.9-3.9c0-2.1,0-4.2,0-6.2c0-0.1,0-0.2,0-0.4c-0.1,0-0.2,0-0.4,0.1c-2.2,0.5-4.5,0.6-6.8,0.3
			c-3.6-0.5-6.7-2-9.1-4.8c-1-1.1-1.5-2.4-2.1-3.7c-1.1-2.4-2.6-4.6-4.8-6.1c-0.4-0.3-0.8-0.7-1.1-1.1c-0.4-0.5-0.2-0.9,0.3-1.1
			c0.6-0.2,1.2-0.3,1.9-0.3c3.2,0.3,5.5,2,7.3,4.6c0.4,0.6,0.8,1.1,1.2,1.6c3.5,4,9.7,4.3,13.4,3c0.3-0.1,0.3-0.3,0.3-0.5
			c0.1-1.2,0.1-2.5,0.3-3.7c0.1-0.8,0.5-1.6,0.7-2.5c-0.2,0-0.4-0.1-0.6-0.1c-4-0.8-7.9-2-11.5-4c-4.6-2.6-8.1-6.3-10-11.3
			c-1.3-3.4-1.6-6.9-1.4-10.5c0.4-4.8,1.9-9.1,4.9-12.9c0.5-0.6,1-1.2,1.5-1.8c-0.2-0.5-0.5-1-0.7-1.5c-0.8-2.2-1-4.4-0.9-6.7
			c0.2-2.1,0.8-4.1,2-5.9c0.2-0.3,0.4-0.5,0.8-0.4c0.6,0.1,1.2,0.1,1.8,0.2c4.7,0.6,8.6,2.7,11.8,6.1c0.2,0.2,0.4,0.3,0.6,0.2
			c0.9-0.3,1.9-0.6,2.8-0.8c4.2-0.9,8.4-1.1,12.7-0.8c2.7,0.2,5.4,0.6,8,1.5c0.3,0.1,0.4-0.1,0.6-0.2c3.6-3.6,8-5.7,13.2-6.1
			c0.7-0.1,1.1,0.1,1.5,0.8c1.2,2.1,1.7,4.3,1.8,6.6c0.1,2.3-0.2,4.6-1.2,6.8c-0.1,0.1,0,0.4,0.2,0.5c1.4,1.5,2.5,3.2,3.4,5.1
			c2.1,4.3,2.7,8.9,2.4,13.7C82,55.4,79.1,60.7,74,64.6c-3.5,2.7-7.4,4.3-11.6,5.4C61.2,70.3,60.1,70.5,59.1,70.8z"/>
		<path d="M59.1,70.8c1.1-0.2,2.2-0.5,3.3-0.7c4.2-1.1,8.2-2.7,11.6-5.4c5.2-4,8-9.2,8.5-15.7c0.3-4.8-0.3-9.4-2.4-13.7
			c-0.9-1.9-2.1-3.5-3.4-5.1c-0.1-0.1-0.2-0.4-0.2-0.5c1.1-2.1,1.3-4.4,1.2-6.8c-0.1-2.3-0.6-4.6-1.8-6.6c-0.4-0.6-0.8-0.8-1.5-0.8
			c-5.2,0.4-9.5,2.5-13.2,6.1c-0.2,0.2-0.3,0.3-0.6,0.2c-2.6-0.9-5.3-1.3-8-1.5c-4.2-0.3-8.5-0.2-12.7,0.8c-1,0.2-1.9,0.5-2.8,0.8
			c-0.3,0.1-0.4,0-0.6-0.2c-3.3-3.4-7.2-5.5-11.8-6.1c-0.6-0.1-1.2-0.1-1.8-0.2c-0.4,0-0.6,0.1-0.8,0.4c-1.2,1.8-1.8,3.8-2,5.9
			c-0.2,2.3,0,4.6,0.9,6.7c0.2,0.5,0.5,1,0.7,1.5c-0.5,0.6-1,1.2-1.5,1.8c-3,3.8-4.5,8.1-4.9,12.9c-0.3,3.6,0,7.1,1.4,10.5
			c1.9,5,5.4,8.7,10,11.3c3.6,2.1,7.4,3.3,11.5,4c0.2,0,0.4,0.1,0.6,0.1c-0.2,0.8-0.6,1.6-0.7,2.5c-0.2,1.2-0.2,2.4-0.3,3.7
			c0,0.2,0,0.4-0.3,0.5c-3.7,1.3-9.9,1-13.4-3c-0.4-0.5-0.8-1.1-1.2-1.6c-1.8-2.6-4.1-4.3-7.3-4.6c-0.6-0.1-1.3,0.1-1.9,0.3
			c-0.6,0.2-0.7,0.6-0.3,1.1c0.3,0.4,0.7,0.8,1.1,1.1c2.3,1.5,3.7,3.7,4.8,6.1c0.6,1.3,1.2,2.6,2.1,3.7c2.4,2.8,5.5,4.3,9.1,4.8
			c2.3,0.3,4.5,0.1,6.8-0.3c0.1,0,0.2,0,0.4-0.1c0,0.1,0,0.2,0,0.4c0,2.1,0,4.2,0,6.2c0,1.8-1.3,3.6-2.9,3.9c-0.5,0.1-1,0.1-1.5-0.1
			c-5.5-1.9-10.6-4.6-15-8.3C9.2,79.4,3.3,70,1.1,58.5c-4.3-22.3,7-44.2,27.7-53.6c7.9-3.6,16.2-4.9,24.8-4
			c12.3,1.3,22.7,6.5,31.1,15.6C91.5,23.6,95.7,32.2,97,42c2,14.1-1.5,26.8-10.5,37.9c-1.8,2.2-3.9,4.1-5.9,6
			c-4.6,4.3-10.1,7.2-16,9.3c-1.2,0.4-2.2,0.2-3.1-0.6c-1-0.9-1.5-2-1.5-3.3c0-4.9,0-9.9,0-14.8c0-1.3-0.2-2.6-0.4-4
			C59.6,71.9,59.3,71.3,59.1,70.8z"/>
	</g>
</g>
<path d="M82.8,83.7v-0.9c0.1-0.4,0.2-0.7,0.3-1.1c0.5-1.4,1.4-2.6,2.6-3.5c1.9-1.5,3.9-2.7,6.2-3.5c4.7-1.8,9.6-3.1,14.5-3.8
	c4.3-0.7,8.6-1.1,13-1.2c5.4-0.2,10.8-0.1,16.2,0.4c4.1,0.4,8.2,1,12.2,1.9c3.8,0.8,7.5,2.1,11,3.8c1.9,0.9,3.7,2.2,5.1,3.7
	c0.9,0.9,1.5,2.2,1.7,3.5c0,0.9-0.1,1.7-0.2,2.6c-0.5,3.3-1,6.7-1.6,10c-0.8,4.7-1.5,9.4-2.3,14.1c-0.8,4.9-1.7,9.8-2.5,14.7
	c-0.3,1.8-1.1,3.5-2.5,4.7c-0.3,0.3-0.7,0.6-1,0.9c-2.4,1.9-5.1,3.3-8,4.4c-6.2,2.2-12.6,3.5-19.2,3.7c-3.4,0.2-6.8,0.1-10.2-0.1
	c-3.7-0.3-7.4-0.8-11-1.7c-4-0.9-7.8-2.3-11.4-4.3c-1.8-0.9-3.4-2.2-4.7-3.7c-0.7-0.7-1.1-1.6-1.3-2.6c-0.5-2.6-0.9-5.3-1.4-7.9
	c-0.7-4-1.3-8-2-12c-0.6-3.6-1.2-7.2-1.8-10.8c-0.5-3-0.9-6-1.4-9.1C83.1,85.2,83,84.4,82.8,83.7z M124.4,76c-4.5,0-8.2,0.2-12,0.6
	c-3.1,0.3-6.1,0.8-9.2,1.6c-1.4,0.3-2.7,0.8-3.9,1.5c-0.4,0.3-0.8,0.6-1.2,1c-0.5,0.6-0.5,1.4,0,2c0.3,0.4,0.7,0.7,1.1,0.9
	c0.9,0.5,1.9,0.9,2.9,1.3c3.4,1,7,1.7,10.6,2c3.5,0.4,7.1,0.5,10.6,0.6c3.8,0,7.5-0.1,11.3-0.4c3.1-0.2,6.1-0.7,9.1-1.4
	c1.7-0.3,3.3-0.9,4.9-1.6c0.6-0.3,1.1-0.7,1.6-1.2c0.6-0.5,0.7-1.5,0.1-2.1c0,0-0.1-0.1-0.1-0.1c-0.3-0.3-0.5-0.5-0.9-0.7
	c-1-0.6-2.1-1.1-3.3-1.4c-3.4-1-6.8-1.6-10.3-1.9C132,76.2,128.2,76,124.4,76z M124.3,128.9c7.1,0,13-5.8,13.1-12.9
	c0.1-7.2-5.7-13-12.9-13.1c-7.2-0.1-13,5.7-13.1,12.9C111.3,123,117.1,128.8,124.3,128.9C124.2,128.9,124.3,128.9,124.3,128.9z"/>
<path d="M128.6,165c-5.9,0.4-11.8-0.1-17.5-1.4c-2.9-0.7-5.7-1.8-8.2-3.4c-1-0.7-2-1.5-2.7-2.5c-0.6-0.9-1-1.9-1.2-3
	c-0.6-2.8-1.3-5.6-2-8.4c-0.5-2-1-3.9-1.4-5.9c-0.1-0.3-0.1-0.6,0-0.9c0-0.8,0.7-1.4,1.5-1.3c0,0,0.1,0,0.1,0c0.4,0,0.8,0.2,1.2,0.4
	c3.5,2.2,7.3,3.8,11.3,4.8c3.7,1,7.4,1.6,11.2,1.8c3.4,0.2,6.8,0.1,10.1-0.3c7.2-0.7,14.2-3,20.5-6.7c1.3-0.8,2.5-1.7,3.7-2.6
	c0.3-0.2,0.6-0.4,1-0.4c0.5-0.1,1.1,0.3,1.2,0.8c0,0.1,0,0.2,0,0.3c-0.2,1.8-0.5,3.6-0.7,5.4c-0.4,3.3-0.9,6.5-1.3,9.8
	c0,1-0.3,2-0.7,3c-0.8,1.5-1.9,2.7-3.3,3.7c-2.5,1.8-5.3,3.2-8.2,4.1c-3.2,1.1-6.6,1.9-10,2.3C131.2,164.7,129.5,164.9,128.6,165z"
	/>
<path d="M123.4,122c-3.6,0-6.5-2.9-6.5-6.5c0-3.6,2.9-6.5,6.5-6.5c3.6,0,6.5,2.9,6.5,6.5c0,0,0,0,0,0C129.9,119.1,127,122,123.4,122
	C123.4,122,123.4,122,123.4,122z"/>
<path d="M46.4,171.1l-29.1,4.1c-0.7,0.1-0.7,0.1-0.8-0.6c-1.2-8.4-2.4-16.8-3.6-25.2c-0.1-0.5,0-0.6,0.5-0.7
	c1.8-0.2,3.5-0.5,5.3-0.8c0.5-0.1,0.6,0.1,0.7,0.6c0.9,6.2,1.8,12.5,2.6,18.7c0.1,0.5,0.2,0.6,0.7,0.6l45.3-6.4
	c0.7-0.1,0.7-0.1,0.6-0.8L66,142c-0.1-0.7-0.1-0.7,0.6-0.8c1.8-0.2,3.6-0.5,5.4-0.8c0.4-0.1,0.5,0.1,0.5,0.4
	c1.2,8.5,2.4,17,3.6,25.5c0.1,0.5-0.2,0.5-0.5,0.6L46.4,171.1z"/>
<path d="M44.5,157.8c-5.4,0.8-10.7,1.5-16.1,2.3c-0.4,0.1-0.5,0-0.6-0.5c-0.2-1.9-0.5-3.7-0.8-5.6c-0.1-0.4,0-0.6,0.5-0.6l23.1-3.3
	c3-0.4,6-0.8,9-1.3c0.4-0.1,0.6,0,0.6,0.4c0.3,1.9,0.5,3.8,0.8,5.7c0,0.4,0,0.5-0.4,0.6C55.3,156.3,49.9,157.1,44.5,157.8
	L44.5,157.8z"/>
<path d="M30.6,122.4l0.6,0.2l17.3,5.3l13.6,4.1c0.3,0.1,0.4,0.2,0.3,0.5c-0.6,1.8-1.1,3.7-1.7,5.5c-0.1,0.4-0.3,0.5-0.7,0.4
	c-3.3-1-6.7-2-10.1-3.1l-13.6-4.1L29,129c-0.4-0.1-0.5-0.2-0.4-0.6c0.6-1.8,1.1-3.6,1.7-5.5C30.4,122.7,30.4,122.5,30.6,122.4z"/>
<path d="M60.3,140.7c-0.1,1.3-0.2,2.5-0.2,3.6c0,0.8-0.1,1.6-0.2,2.5c0,0.3-0.1,0.4-0.4,0.4c-4.8-0.3-9.6-0.6-14.4-1
	c-4.5-0.3-8.9-0.6-13.4-0.9c-1.6-0.1-3.2-0.2-4.8-0.3c-0.4,0-0.5-0.1-0.5-0.6c0.1-1.9,0.3-3.8,0.4-5.8c0-0.3,0.1-0.4,0.5-0.4
	c2.5,0.2,5.1,0.3,7.6,0.5l17.2,1.2l7.8,0.5C60.2,140.5,60.4,140.5,60.3,140.7z"/>
<path d="M72.5,118.6c0,0.2-0.1,0.2-0.2,0.3c-1.4,1.4-2.8,2.7-4.2,4.1c-0.3,0.3-0.4,0.2-0.6,0c-1.6-1.6-3.1-3.2-4.7-4.8
	c-2.5-2.5-5.1-5.1-7.6-7.6c-3.5-3.6-7-7.2-10.6-10.7c-0.3-0.4-0.3-0.5,0-0.9c1.3-1.3,2.7-2.6,4-4c0.3-0.3,0.4-0.3,0.7,0
	c3.8,3.9,7.6,7.7,11.4,11.6l11.4,11.5C72.3,118.3,72.5,118.4,72.5,118.6z"/>
<path d="M38.4,107.2l0.4,0.2l14.8,9.2l13,8c0.3,0.2,0.3,0.3,0.1,0.6c-1,1.7-2.1,3.3-3.1,5c-0.2,0.3-0.3,0.3-0.6,0.1
	c-5.4-3.4-10.9-6.8-16.3-10.1c-3.8-2.4-7.6-4.7-11.5-7c-0.3-0.2-0.4-0.3-0.2-0.7c1-1.6,2-3.3,3.1-4.9
	C38.2,107.4,38.3,107.3,38.4,107.2z"/>
<path d="M148.8,36.3c0,10.5,0,20.9,0,31.4c0,1.9-1.2,3.3-3,3.6c-0.1,0-0.2,0-0.3,0c-1.4-0.1-2.8-0.1-4.2-0.2c-0.5,0-1,0-1.6-0.1
	c-1.3,0-2.5-0.1-3.8-0.1c-2-0.1-4-0.2-6-0.3c-0.9,0-1.9-0.1-2.8-0.1c-1.6-0.1-3.3-0.2-4.9-0.2c-0.5,0-1-0.1-1.5-0.1
	c-1.3,0-2.5-0.1-3.8-0.1c-2-0.1-4-0.2-6-0.3c-1.4-0.1-2.8-0.1-4.2-0.2c-1.6-0.1-3.2-0.2-4.9-0.2c-0.6,0-1.2,0-1.8-0.1
	c-0.8,0-1.6,0-2.4-0.1c-1.5-0.2-2.8-1.6-2.8-3.1c-0.1-1.1-0.1-2.2-0.1-3.3c-0.1-1.8-0.1-3.6-0.2-5.5c0-1.1-0.1-2.2-0.1-3.3
	c-0.1-1.8-0.1-3.6-0.2-5.5c-0.1-1.7-0.1-3.4-0.2-5c-0.1-1.8-0.1-3.6-0.2-5.4c0-1.1-0.1-2.2-0.1-3.3c-0.1-1.8-0.1-3.6-0.2-5.4
	c-0.1-1.7-0.1-3.4-0.2-5.1c-0.1-1.8-0.1-3.6-0.2-5.4c0-1.1-0.1-2.3-0.1-3.4c-0.1-1.8-0.1-3.6-0.2-5.4c0-0.9-0.1-1.7-0.1-2.6
	c0.1-1.5,1.5-3,3-3.1c1.4-0.1,2.8-0.2,4.3-0.3c1.8-0.1,3.5-0.2,5.3-0.3c1.7-0.1,3.5-0.2,5.2-0.3c1.8-0.1,3.5-0.2,5.3-0.3
	c1.4-0.1,2.8-0.2,4.2-0.3c1.4-0.1,2.8-0.2,4.2-0.3c1.4-0.1,2.8-0.2,4.2-0.3c1.4-0.1,2.8-0.2,4.2-0.3c0.5,0,1-0.1,1.4-0.1
	c0.4,0,0.5,0,0.4,0.4c-0.1,2-0.2,3.9-0.2,5.9c0,0.5-0.1,1,0,1.5c0,0.2,0.1,0.5,0.3,0.6c0.3,0.2,0.6,0.1,0.9-0.1
	c0.8-0.6,1.6-1.2,2.4-1.8c0.2-0.1,0.3-0.3,0.5-0.3c0.1,0,0.3,0.2,0.4,0.3c0.7,0.5,1.3,1.1,2.1,1.6c0.2,0.1,0.5,0.1,0.8,0
	c0.1,0,0.2-0.3,0.2-0.4c0-0.1,0-0.3,0-0.4c0-1.3-0.1-2.6-0.1-3.9c0-1.2-0.1-2.4-0.1-3.5c0-0.2,0-0.3,0.2-0.3
	c1.2-0.1,2.4-0.1,3.6-0.2c2-0.1,3.7,1.5,3.7,3.6C148.8,15.3,148.8,25.8,148.8,36.3z M107,44.5C107,44.5,107,44.5,107,44.5
	c0,1,0.1,2,0.2,3c0.2,1.7,0.7,3.4,1.7,4.8c0.4,0.7,0.9,1.3,1.5,1.8c0.5,0.6,1.1,1.1,1.8,1.5c0.6,0.3,1.2,0.7,1.8,1
	c1.1,0.4,2.2,0.8,3.3,1c1.8,0.4,3.5,0.5,5.3,0.4c1.4,0,2.7-0.2,4-0.5c0.3-0.1,0.6-0.1,0.9-0.1c0.4-0.1,0.8-0.3,1.2-0.5
	c0.5-0.2,1-0.3,1.5-0.6c0.5-0.2,0.9-0.6,1.3-0.9c0.9-0.6,1.7-1.3,2.4-2.1c0.9-1.1,1.7-2.3,2.1-3.7c0.3-1,0.5-2,0.5-3
	c0.1-2.1-0.1-4.1-1-6.1c-0.3-0.7-0.7-1.4-1.1-2.1c-0.3-0.4-0.6-0.8-0.9-1.2c-1.1-1.2-2.3-2.3-3.7-3.2c-0.5-0.3-0.9-0.6-1.3-0.9
	c-1.1-0.6-2.2-1.2-3.3-1.8c-1-0.6-2.1-1.2-3.1-1.8c-0.8-0.4-1.4-1-2.1-1.6c-1-1-1.4-2.2-1.1-3.6c0.1-0.7,0.5-1.3,1.1-1.7
	c0.6-0.4,1.2-0.5,1.9-0.6c0.7-0.1,1.5,0.1,2.1,0.5c0.5,0.3,0.8,0.7,1,1.2c0.5,1.1,0.5,2.2,0.5,3.4c0,0.6,0.1,0.7,0.7,0.9
	c1.1,0.3,2.2,0.3,3.3,0.3c1.3,0,2.5-0.1,3.8-0.3c0.8-0.1,1.6-0.3,2.4-0.6c0.3-0.1,0.6-0.2,0.4-0.6c0-0.1,0-0.2,0-0.2
	c0-0.5,0-1-0.1-1.5c-0.1-1.1-0.3-2.2-0.6-3.3c-0.3-1.1-0.8-2.2-1.4-3.2c-0.8-1.4-1.9-2.5-3.3-3.4c-1.1-0.7-2.3-1.3-3.6-1.6
	c-1.4-0.4-2.8-0.6-4.2-0.6c-0.9,0-1.8-0.1-2.7,0c-0.8,0.1-1.7,0.2-2.5,0.3c-0.9,0.2-1.8,0.4-2.6,0.7c-0.8,0.3-1.5,0.7-2.2,1.1
	c-0.8,0.5-1.5,1-2.2,1.7c-0.3,0.4-0.7,0.8-1,1.2c-0.9,1.2-1.5,2.5-1.9,4c-0.4,1.4-0.5,2.8-0.4,4.2c0,0.6,0.1,1.2,0.2,1.8
	c0.1,0.4,0.2,0.8,0.4,1.2c0.2,0.6,0.4,1.3,0.7,1.9c0.3,0.6,0.7,1.1,1.1,1.5c0.4,0.5,0.8,1.1,1.3,1.6c1,0.9,2,1.8,3.2,2.5
	c1,0.6,2.1,1.2,3.1,1.9c0.7,0.4,1.5,0.9,2.2,1.3c0.7,0.4,1.4,0.8,2.1,1.3c0.9,0.6,1.7,1.3,2.4,2.2c0.4,0.5,0.6,1,0.7,1.6
	c0.1,0.5,0,1.1,0,1.7c-0.1,0.8-0.5,1.4-1.2,1.8c-0.9,0.5-1.9,0.5-2.9,0.3c-1.3-0.2-2-1.1-2.3-2.3c-0.3-1.2-0.3-2.4-0.3-3.6
	c0-0.3-0.1-0.4-0.3-0.5c-0.4-0.1-0.8-0.3-1.2-0.3c-1.2-0.1-2.4-0.2-3.6-0.3c-1.4-0.1-2.7,0-4.1,0.2c-0.5,0.1-1,0.3-1.5,0.5
	c-0.2,0.1-0.3,0.2-0.3,0.5C107,43.5,107,44,107,44.5z"/>
</svg>
