<svg xmlns="http://www.w3.org/2000/svg" viewBox="0 0 162.42 80.25"><defs><style>.cls-1{fill:none;stroke:#000;stroke-miterlimit:10;}</style></defs><g id="Capa_2" data-name="Capa 2"><g id="Capa_1-2" data-name="Capa 1"><path d="M161.56,63.63a3.24,3.24,0,0,0-.34-.29l-1.55-1.28c-.27,0-.68.22-1-.11a1.22,1.22,0,0,0-.81-.27,2.83,2.83,0,0,0-1,.07,2.31,2.31,0,0,1-.86,0c-.49-.07-1-.19-1.48-.21a1.4,1.4,0,0,0-1.28.67,3.11,3.11,0,0,1-.55.6,2.81,2.81,0,0,0-1.07,2.95,2.12,2.12,0,0,1,0,.44c0,.46-.1,1,.44,1.26.06,0,.08.15.13.21l1,1.23s.07.07.1.06c.44-.09.64.21.87.49.07.09.22.11.33.15.73.28,1.46.57,2.2.83.54.18,1.11.44,1.64-.08.09-.09.27-.1.4-.15.63-.26,1.35-.38,1.65-1.11a.27.27,0,0,1,.13-.13,2.89,2.89,0,0,0,1.14-2c.1-.71.12-1.43.26-2.12a1.23,1.23,0,0,0-.34-1.14"/><path class="cls-1" d="M161.56,63.63a3.24,3.24,0,0,0-.34-.29l-1.55-1.28c-.27,0-.68.22-1-.11a1.22,1.22,0,0,0-.81-.27,2.83,2.83,0,0,0-1,.07,2.31,2.31,0,0,1-.86,0c-.49-.07-1-.19-1.48-.21a1.4,1.4,0,0,0-1.28.67,3.11,3.11,0,0,1-.55.6,2.81,2.81,0,0,0-1.07,2.95,2.12,2.12,0,0,1,0,.44c0,.46-.1,1,.44,1.26.06,0,.08.15.13.21l1,1.23s.07.07.1.06c.44-.09.64.21.87.49.07.09.22.11.33.15.73.28,1.46.57,2.2.83.54.18,1.11.44,1.64-.08.09-.09.27-.1.4-.15.63-.26,1.35-.38,1.65-1.11a.27.27,0,0,1,.13-.13,2.89,2.89,0,0,0,1.14-2c.1-.71.12-1.43.26-2.12A1.23,1.23,0,0,0,161.56,63.63Z"/><path d="M30.13,50.93c0,.19.09.39.07.58,0,.66-.11,1.32-.17,2a1.79,1.79,0,0,0,0,.4,10.22,10.22,0,0,1-.11,3.53,9.64,9.64,0,0,0-.09,1.43c0,.86,0,1.73,0,2.59,0,.2,0,.4,0,.6,0,.48.1,1,.14,1.43s0,.72,0,1.08v.25c0,.08.05.16.06.24a3,3,0,0,1,.11.58,21.45,21.45,0,0,0,.22,3.58,3.07,3.07,0,0,0,.14.52,1.85,1.85,0,0,1,.15.93,1.3,1.3,0,0,0,0,.44,7.48,7.48,0,0,1,.21,1.13,5.51,5.51,0,0,0,.33,1.7,2.46,2.46,0,0,1,.07.29c.19,1.17.37,2.34.56,3.5a.77.77,0,0,0,.84.68.86.86,0,0,1,.4.13c.14.08.25.22.39.31a6,6,0,0,0,.81.48c.19.08.42.06.62.13a2.31,2.31,0,0,0,1.37.19.38.38,0,0,1,.25,0,1,1,0,0,0,.87-.06c.33-.16.65-.35,1-.52a.54.54,0,0,0,.32-.47,1,1,0,0,1,.45-.8.8.8,0,0,0,.35-.63c0-.55.11-1.09.2-1.63a3.62,3.62,0,0,0-.18-1.63,14.66,14.66,0,0,1-.69-2.37,24.1,24.1,0,0,0-.6-2.51,1.84,1.84,0,0,1,0-.25c-.09-.7-.18-1.41-.26-2.12a4.83,4.83,0,0,1-.11-.84,4.53,4.53,0,0,0,0-.74,13,13,0,0,1-.22-2.33c0-.08,0-.16-.07-.24a1.69,1.69,0,0,1,0-1.25.69.69,0,0,0-.07-.62.66.66,0,0,1-.12-.32c0-.6.09-1.19.13-1.79,0-.28,0-.56,0-.84,0-.1,0-.19,0-.29,0-.72,0-1.43,0-2.14a.64.64,0,0,0-.15-.4.37.37,0,0,1-.07-.45,1.59,1.59,0,0,0,.06-.38c0-.5.08-1,.09-1.49a3,3,0,0,0-.08-1,1.93,1.93,0,0,1-.08-.47c-2.35-.39-4.63-.93-6.9-1.52,0,.46-.05.93-.06,1.39"/><path class="cls-1" d="M30.13,50.93c0,.19.09.39.07.58,0,.66-.11,1.32-.17,2a1.79,1.79,0,0,0,0,.4,10.22,10.22,0,0,1-.11,3.53,9.64,9.64,0,0,0-.09,1.43c0,.86,0,1.73,0,2.59,0,.2,0,.4,0,.6,0,.48.1,1,.14,1.43s0,.72,0,1.08v.25c0,.08.05.16.06.24a3,3,0,0,1,.11.58,21.45,21.45,0,0,0,.22,3.58,3.07,3.07,0,0,0,.14.52,1.85,1.85,0,0,1,.15.93,1.3,1.3,0,0,0,0,.44,7.48,7.48,0,0,1,.21,1.13,5.51,5.51,0,0,0,.33,1.7,2.46,2.46,0,0,1,.07.29c.19,1.17.37,2.34.56,3.5a.77.77,0,0,0,.84.68.86.86,0,0,1,.4.13c.14.08.25.22.39.31a6,6,0,0,0,.81.48c.19.08.42.06.62.13a2.31,2.31,0,0,0,1.37.19.38.38,0,0,1,.25,0,1,1,0,0,0,.87-.06c.33-.16.65-.35,1-.52a.54.54,0,0,0,.32-.47,1,1,0,0,1,.45-.8.8.8,0,0,0,.35-.63c0-.55.11-1.09.2-1.63a3.62,3.62,0,0,0-.18-1.63,14.66,14.66,0,0,1-.69-2.37,24.1,24.1,0,0,0-.6-2.51,1.84,1.84,0,0,1,0-.25c-.09-.7-.18-1.41-.26-2.12a4.83,4.83,0,0,1-.11-.84,4.53,4.53,0,0,0,0-.74,13,13,0,0,1-.22-2.33c0-.08,0-.16-.07-.24a1.69,1.69,0,0,1,0-1.25.69.69,0,0,0-.07-.62.66.66,0,0,1-.12-.32c0-.6.09-1.19.13-1.79,0-.28,0-.56,0-.84,0-.1,0-.19,0-.29,0-.72,0-1.43,0-2.14a.64.64,0,0,0-.15-.4.37.37,0,0,1-.07-.45,1.59,1.59,0,0,0,.06-.38c0-.5.08-1,.09-1.49a3,3,0,0,0-.08-1,1.93,1.93,0,0,1-.08-.47c-2.35-.39-4.63-.93-6.9-1.52C30.17,50,30.14,50.47,30.13,50.93Z"/><path d="M37.19,49.93a7.1,7.1,0,0,0,0-1,6.18,6.18,0,0,1,0-1.29c.13-.71.16-1.43.31-2.15a2.21,2.21,0,0,1,.92-1.56.47.47,0,0,0,.24-.5.77.77,0,0,1,.17-.49,1.36,1.36,0,0,0,.38-1,1,1,0,0,1,.11-.38c.08-.25.17-.5.25-.75a1.37,1.37,0,0,0-.37-1.42.73.73,0,0,1-.19-.28c-.18-.6-.33-1.21-.52-1.8a3,3,0,0,1-.2-1.16,1.59,1.59,0,0,0-.15-.81.64.64,0,0,1-.08-.51.61.61,0,0,0-.09-.57.7.7,0,0,1-.06-.66,2.13,2.13,0,0,0,0-1.51,1.18,1.18,0,0,1,0-.53c0-.21.06-.42.08-.64a7.4,7.4,0,0,1,.22-1.77,1.57,1.57,0,0,0,0-1,3.83,3.83,0,0,1-.12-1.26,4.35,4.35,0,0,0,.14-1.06,1.9,1.9,0,0,1,.06-.92.5.5,0,0,0,0-.29c-.11-.35.23-.69,0-1,0,0,0-.09,0-.14l.06-.54a8.31,8.31,0,0,1,0-.87,5.8,5.8,0,0,0,.11-1.38,2.92,2.92,0,0,1,0-.59l.21-2.18a.66.66,0,0,1,0-.2c.21-.48,0-.89-.16-1.38a.9.9,0,0,0,.25-.81A4.83,4.83,0,0,1,39,14.31a10,10,0,0,0,.21-1.62,14.2,14.2,0,0,1,.18-2.16,1.31,1.31,0,0,0,0-.34c0-.38,0-.76,0-1.14,0-.56,0-1.12,0-1.68,0-.77,0-1.53,0-2.3a12.37,12.37,0,0,0,0-2.72.25.25,0,0,1,0-.19c.15-.26,0-.49-.05-.72a1.07,1.07,0,0,0-.82-.83,4.68,4.68,0,0,0-1-.1,13.23,13.23,0,0,0-2,.05A5,5,0,0,1,33.9.62a.36.36,0,0,0-.43.17,1.11,1.11,0,0,1-.62.47c-.63.27-.73.89-1,1.43a.45.45,0,0,0,0,.2c.05.33.1.65.16,1s.09.45.11.68c0,.39,0,.79,0,1.19s0,.56,0,.84.07.38.08.57q0,.64,0,1.29a27.78,27.78,0,0,1,0,3.16c-.06.51-.08,1-.14,1.54A6.61,6.61,0,0,0,32,14.52a7.5,7.5,0,0,1-.11,1.58A7,7,0,0,0,31.81,18a1.49,1.49,0,0,1-.11.92.91.91,0,0,0,0,.63,1.27,1.27,0,0,1,0,.88,2,2,0,0,0-.12.52,6.9,6.9,0,0,1-.25,2.75,1,1,0,0,0,0,.29,2,2,0,0,1,0,.34c0,.58-.09,1.16-.1,1.73,0,1,0,2,0,3,0,.45-.07.89-.11,1.34A11.57,11.57,0,0,0,31,31.59c0,.57.1,1.13.09,1.69a14.07,14.07,0,0,1-.07,1.83A13.29,13.29,0,0,0,31,37.3c0,.71-.23,1-.94,1.1a2.58,2.58,0,0,1-.29,0l-2.63.21-1.15.1-1.28.15c-.28,0-.56,0-.85.06s-.66,0-1,.07c-.65.11-1.3.27-2,.36-1.05.16-2.11.3-3.17.43A7.65,7.65,0,0,1,16,40c-.51,0-.67-.22-.59-.74a.32.32,0,0,1,0-.09c.08-.59.18-1.17.24-1.76.05-.42.05-.85.09-1.27a7,7,0,0,1,.13-.92c.07-.41.17-.8.23-1.21.14-.85.27-1.71.4-2.56.05-.34.08-.69.12-1l.15-1.57a14.58,14.58,0,0,1,.27-2.37,4.1,4.1,0,0,0,.13-.78c0-.28,0-.56.06-.84s.12-.85.19-1.27a1.53,1.53,0,0,1,.08-.49A2.73,2.73,0,0,0,17.66,22c0-.14,0-.3,0-.44.08-.65.17-1.29.26-1.93,0-.05,0-.1,0-.15,0-.27.05-.55.06-.83a7.94,7.94,0,0,1,0-1.29,26.3,26.3,0,0,0,.34-2.65c0-.22,0-.43,0-.65a13,13,0,0,0,.05-1.53,7.65,7.65,0,0,1-.08-1.91.17.17,0,0,0,0-.1,1.4,1.4,0,0,0-.8-.85,3.16,3.16,0,0,0-1.46-.29c-.32.05-.65.08-1,.12a3.82,3.82,0,0,1-.75.08,2.85,2.85,0,0,0-1.5.26q-.69.3-1.35.66a.44.44,0,0,0-.15.31c0,.32,0,.63,0,1a3.62,3.62,0,0,0,0,1.13,3.13,3.13,0,0,1,.09,1.21c0,.23-.05.46-.07.69,0,.48-.05,1-.09,1.44s-.09,1.06-.14,1.58.14,1.1-.14,1.62c0,.05,0,.13,0,.19,0,.42.06.83.05,1.25s-.06.72-.1,1.09-.1.75-.13,1.13a4.47,4.47,0,0,1-.29,1.85,1,1,0,0,0-.05.4,5.31,5.31,0,0,1-.3,1.71,1.51,1.51,0,0,0-.07.48,12,12,0,0,1-.11,1.79,12.87,12.87,0,0,0-.26,1.76,5.78,5.78,0,0,1-.13,1.57c-.19.5,0,1-.23,1.5a5,5,0,0,0-.19,1.17c0,.46-.09.92-.11,1.38a1.88,1.88,0,0,1-.15.81,1.31,1.31,0,0,0-.14.72,4,4,0,0,1-.06,1.33c-.1.4-.13.81-.2,1.22a.43.43,0,0,1-.15.29,4.36,4.36,0,0,1-1.07.51c-1,.21-2,.32-3,.52A6.46,6.46,0,0,0,1.74,43a7.07,7.07,0,0,0-.72.73,1.28,1.28,0,0,0-.41,1.56c.14.38.06.83.38,1.16a5.81,5.81,0,0,0,.38.46A3.41,3.41,0,0,0,3.22,48a2.45,2.45,0,0,1,.76.21,4,4,0,0,0,2.17.44,7.37,7.37,0,0,1,.94,0c.57,0,.73.2.74.76,0,.37,0,.73,0,1.1l.06,1.18A16.75,16.75,0,0,0,8,53.39c.11.66.16,1.34.28,2s.17,1.31.3,2a2,2,0,0,0,1,1.65c.13.06.22.21.33.3a2.48,2.48,0,0,0,.71.53,4.68,4.68,0,0,1,1,.38,1.05,1.05,0,0,0,.43.11c.55.06,1.09.12,1.64.15a1.14,1.14,0,0,0,.57-.13,5.36,5.36,0,0,0,.77-.55,1.23,1.23,0,0,0,.24-.31c.1-.15.19-.31.28-.47a10.41,10.41,0,0,0,.56-1,3.38,3.38,0,0,0,.16-.78A3.19,3.19,0,0,0,15.92,55a.54.54,0,0,1-.1-.22,5,5,0,0,0-.31-1.29A18.3,18.3,0,0,1,15,50.82a10.75,10.75,0,0,0-.27-1.67A2.14,2.14,0,0,1,15,47.9c.13-.3.45-.38.75-.44l1.76-.35c.29-.06.59-.1.89-.15l1-.14,1.88-.23.39,0L23,46.3l3.88-.64c.74-.12,1.47-.25,2.22-.33a2.14,2.14,0,0,1,.83.09c.22.06.46.17.47.46a7.44,7.44,0,0,1-.05,2.49,2.84,2.84,0,0,0-.1.64c0,.2,0,.4,0,.6,2.25.59,4.53,1.13,6.86,1.51a7.85,7.85,0,0,1,.09-1.19"/><path class="cls-1" d="M37.19,49.93a7.1,7.1,0,0,0,0-1,6.18,6.18,0,0,1,0-1.29c.13-.71.16-1.43.31-2.15a2.21,2.21,0,0,1,.92-1.56.47.47,0,0,0,.24-.5.77.77,0,0,1,.17-.49,1.36,1.36,0,0,0,.38-1,1,1,0,0,1,.11-.38c.08-.25.17-.5.25-.75a1.37,1.37,0,0,0-.37-1.42.73.73,0,0,1-.19-.28c-.18-.6-.33-1.21-.52-1.8a3,3,0,0,1-.2-1.16,1.59,1.59,0,0,0-.15-.81.64.64,0,0,1-.08-.51.61.61,0,0,0-.09-.57.7.7,0,0,1-.06-.66,2.13,2.13,0,0,0,0-1.51,1.18,1.18,0,0,1,0-.53c0-.21.06-.42.08-.64a7.4,7.4,0,0,1,.22-1.77,1.57,1.57,0,0,0,0-1,3.83,3.83,0,0,1-.12-1.26,4.35,4.35,0,0,0,.14-1.06,1.9,1.9,0,0,1,.06-.92.5.5,0,0,0,0-.29c-.11-.35.23-.69,0-1,0,0,0-.09,0-.14l.06-.54a8.31,8.31,0,0,1,0-.87,5.8,5.8,0,0,0,.11-1.38,2.92,2.92,0,0,1,0-.59l.21-2.18a.66.66,0,0,1,0-.2c.21-.48,0-.89-.16-1.38a.9.9,0,0,0,.25-.81A4.83,4.83,0,0,1,39,14.31a10,10,0,0,0,.21-1.62,14.2,14.2,0,0,1,.18-2.16,1.31,1.31,0,0,0,0-.34c0-.38,0-.76,0-1.14,0-.56,0-1.12,0-1.68,0-.77,0-1.53,0-2.3a12.37,12.37,0,0,0,0-2.72.25.25,0,0,1,0-.19c.15-.26,0-.49-.05-.72a1.07,1.07,0,0,0-.82-.83,4.68,4.68,0,0,0-1-.1,13.23,13.23,0,0,0-2,.05A5,5,0,0,1,33.9.62a.36.36,0,0,0-.43.17,1.11,1.11,0,0,1-.62.47c-.63.27-.73.89-1,1.43a.45.45,0,0,0,0,.2c.05.33.1.65.16,1s.09.45.11.68c0,.39,0,.79,0,1.19s0,.56,0,.84.07.38.08.57q0,.64,0,1.29a27.78,27.78,0,0,1,0,3.16c-.06.51-.08,1-.14,1.54A6.61,6.61,0,0,0,32,14.52a7.5,7.5,0,0,1-.11,1.58A7,7,0,0,0,31.81,18a1.49,1.49,0,0,1-.11.92.91.91,0,0,0,0,.63,1.27,1.27,0,0,1,0,.88,2,2,0,0,0-.12.52,6.9,6.9,0,0,1-.25,2.75,1,1,0,0,0,0,.29,2,2,0,0,1,0,.34c0,.58-.09,1.16-.1,1.73,0,1,0,2,0,3,0,.45-.07.89-.11,1.34A11.57,11.57,0,0,0,31,31.59c0,.57.1,1.13.09,1.69a14.07,14.07,0,0,1-.07,1.83A13.29,13.29,0,0,0,31,37.3c0,.71-.23,1-.94,1.1a2.58,2.58,0,0,1-.29,0l-2.63.21-1.15.1-1.28.15c-.28,0-.56,0-.85.06s-.66,0-1,.07c-.65.11-1.3.27-2,.36-1.05.16-2.11.3-3.17.43A7.65,7.65,0,0,1,16,40c-.51,0-.67-.22-.59-.74a.32.32,0,0,1,0-.09c.08-.59.18-1.17.24-1.76.05-.42.05-.85.09-1.27a7,7,0,0,1,.13-.92c.07-.41.17-.8.23-1.21.14-.85.27-1.71.4-2.56.05-.34.08-.69.12-1l.15-1.57a14.58,14.58,0,0,1,.27-2.37,4.1,4.1,0,0,0,.13-.78c0-.28,0-.56.06-.84s.12-.85.19-1.27a1.53,1.53,0,0,1,.08-.49A2.73,2.73,0,0,0,17.66,22c0-.14,0-.3,0-.44.08-.65.17-1.29.26-1.93,0-.05,0-.1,0-.15,0-.27.05-.55.06-.83a7.94,7.94,0,0,1,0-1.29,26.3,26.3,0,0,0,.34-2.65c0-.22,0-.43,0-.65a13,13,0,0,0,.05-1.53,7.65,7.65,0,0,1-.08-1.91.17.17,0,0,0,0-.1,1.4,1.4,0,0,0-.8-.85,3.16,3.16,0,0,0-1.46-.29c-.32.05-.65.08-1,.12a3.82,3.82,0,0,1-.75.08,2.85,2.85,0,0,0-1.5.26q-.69.3-1.35.66a.44.44,0,0,0-.15.31c0,.32,0,.63,0,1a3.62,3.62,0,0,0,0,1.13,3.13,3.13,0,0,1,.09,1.21c0,.23-.05.46-.07.69,0,.48-.05,1-.09,1.44s-.09,1.06-.14,1.58.14,1.1-.14,1.62c0,.05,0,.13,0,.19,0,.42.06.83.05,1.25s-.06.72-.1,1.09-.1.75-.13,1.13a4.47,4.47,0,0,1-.29,1.85,1,1,0,0,0-.05.4,5.31,5.31,0,0,1-.3,1.71,1.51,1.51,0,0,0-.07.48,12,12,0,0,1-.11,1.79,12.87,12.87,0,0,0-.26,1.76,5.78,5.78,0,0,1-.13,1.57c-.19.5,0,1-.23,1.5a5,5,0,0,0-.19,1.17c0,.46-.09.92-.11,1.38a1.88,1.88,0,0,1-.15.81,1.31,1.31,0,0,0-.14.72,4,4,0,0,1-.06,1.33c-.1.4-.13.81-.2,1.22a.43.43,0,0,1-.15.29,4.36,4.36,0,0,1-1.07.51c-1,.21-2,.32-3,.52A6.46,6.46,0,0,0,1.74,43a7.07,7.07,0,0,0-.72.73,1.28,1.28,0,0,0-.41,1.56c.14.38.06.83.38,1.16a5.81,5.81,0,0,0,.38.46A3.41,3.41,0,0,0,3.22,48a2.45,2.45,0,0,1,.76.21,4,4,0,0,0,2.17.44,7.37,7.37,0,0,1,.94,0c.57,0,.73.2.74.76,0,.37,0,.73,0,1.1l.06,1.18A16.75,16.75,0,0,0,8,53.39c.11.66.16,1.34.28,2s.17,1.31.3,2a2,2,0,0,0,1,1.65c.13.06.22.21.33.3a2.48,2.48,0,0,0,.71.53,4.68,4.68,0,0,1,1,.38,1.05,1.05,0,0,0,.43.11c.55.06,1.09.12,1.64.15a1.14,1.14,0,0,0,.57-.13,5.36,5.36,0,0,0,.77-.55,1.23,1.23,0,0,0,.24-.31c.1-.15.19-.31.28-.47a10.41,10.41,0,0,0,.56-1,3.38,3.38,0,0,0,.16-.78A3.19,3.19,0,0,0,15.92,55a.54.54,0,0,1-.1-.22,5,5,0,0,0-.31-1.29A18.3,18.3,0,0,1,15,50.82a10.75,10.75,0,0,0-.27-1.67A2.14,2.14,0,0,1,15,47.9c.13-.3.45-.38.75-.44l1.76-.35c.29-.06.59-.1.89-.15l1-.14,1.88-.23.39,0L23,46.3l3.88-.64c.74-.12,1.47-.25,2.22-.33a2.14,2.14,0,0,1,.83.09c.22.06.46.17.47.46a7.44,7.44,0,0,1-.05,2.49,2.84,2.84,0,0,0-.1.64c0,.2,0,.4,0,.6,2.25.59,4.53,1.13,6.86,1.51A7.85,7.85,0,0,1,37.19,49.93Z"/><path d="M124.57,33.93Z"/><path class="cls-1" d="M124.57,33.93Z"/><path d="M138.22,44.23l-.2.06a.49.49,0,0,1,0-.11l.24,0s0,.08,0,.09m-2-4-.16,0s0-.07.09-.08.05,0,.08,0v.07m-1.34-1.89c.14-.3.29-.37.5-.31,0,.38-.25.21-.5.31m.2,1.64s-.08-.11-.07-.16.08-.07.12-.1l.13.15-.18.11m-.76,3.6c.14-.39.25-.42.6-.16l-.6.16m.06.86c-.27-.21-.35,0-.45.2,0-.37,0-.41.27-.49s.46,0,.63.38c-.2,0-.36,0-.45-.09m-.13,1.14h-.12c0-.07,0-.14,0-.21h.12c0,.06,0,.13,0,.2m-.47-3.74c0-.58,0-.61.54-.4-.33,0-.18.46-.54.4m-.14.87.19.39c-.27-.07-.25-.22-.19-.39m1.16-.15c0,.19,0,.19-.46.22l.46-.22m-1-2.13c.23,0,.31-.1.41-.28l.5.39-1.07.11c-.09-.13,0-.24.16-.22m-.44-1.63c.21-.11.21-.11.47,0-.14.27-.14.27-.47,0m.9.24c.05,0,.15.08.14.09s-.08.17-.12.26l-.14-.08.12-.27m-1.82,5.81-.1-.1s.07-.08.1-.08.06.05.09.08l-.09.1m-.15-6.6.39-.09s0,.09,0,.11-.2.13-.41,0m.16-4.65.07,0,.1.17-.07,0a1,1,0,0,0-.1-.17m-.72,8.83c0-.28,0-.28.15-.45.07.19.15.37-.15.45m0-1.55c-.17.05-.17-.06-.14-.2s-.12-.13-.22-.23c.38-.11.51-.06.51.17a.33.33,0,0,1-.15.26m-.66,2.36c.08-.24.19-.3.38-.09-.09.2-.22.16-.38.09m.1-1.08-.46.23c.16-.46.16-.46.46-.23m.11-3.69c.14.14.1.24,0,.35-.2-.15-.1-.24,0-.35m.3-1.45s.06.05.13.11a.67.67,0,0,1-.19.05s-.06-.08-.05-.09a.14.14,0,0,1,.11-.07m.75-4.17.11.19a.79.79,0,0,1-.16.08s-.09-.07-.09-.09.07-.09.14-.18m.65,2.41h-.44c.17-.19.17-.19.44,0m-3.12,7.24a.17.17,0,0,1-.1-.14s.08-.07.17-.14c0,.09.08.15.07.19a.17.17,0,0,1-.14.09m.34-4.28h-.38c.22-.19.22-.19.38,0m-.78,3s0-.07-.09-.13.13-.07.19-.06.06.06.09.09l-.19.1m-.13,2.24s-.12-.05-.13-.09,0-.1.1-.2a1.21,1.21,0,0,1,.1.19.2.2,0,0,1-.07.1m.34-4.87.13.08-.27.35c-.09-.28,0-.37.14-.43m.25-4.92c.06-.13.14-.2.38-.06l-.35.18c0-.06,0-.1,0-.12m-.69,7.07-.09-.26.17,0a2.44,2.44,0,0,1,0,.27l-.09,0m-1.11-2.65.46-.2.25.45a.54.54,0,0,1-.71-.25M127.89,45s-.1,0-.1-.07a.29.29,0,0,1,.07-.12s.07,0,.12,0l-.09.14m-.12-3.7.43-.22c0,.38-.19.29-.43.22m-18.2-10.92c0-.18.13-.2.35-.13a3.24,3.24,0,0,1-.25.26s-.11-.09-.1-.13m18.15,12-.19,0a8.23,8.23,0,0,1-.29,1.23.44.44,0,0,0,.1.53c-.35.18-.35.18-.54-.13a15.11,15.11,0,0,1-2.14,2.31,6.74,6.74,0,0,1-1.26.87,1,1,0,0,0-.29.2,4,4,0,0,1-1.59,1c-.43.17-.83.4-1.26.58s-1,.38-1.49.57c0,0-.06,0-.09,0-.92-.08-1.79.3-2.7.26a3.65,3.65,0,0,1-.93-.18,6.56,6.56,0,0,1-2.21-1.29,13.07,13.07,0,0,1-1.37-1.31,8.48,8.48,0,0,1-.78-1.14,1.55,1.55,0,0,0-.36-.47.92.92,0,0,1-.39-.86,1,1,0,0,0-.13-.51,8.43,8.43,0,0,1-.44-1.78,1,1,0,0,0-.05-.24,8.26,8.26,0,0,1-.43-1.78.71.71,0,0,1,0-.2c0-.51,0-1,0-1.54a1,1,0,0,0,0-.34,2.22,2.22,0,0,1-.09-1.35c.12-.69.18-1.38.27-2.07a.76.76,0,0,0,0-.15c-.09-.45-.09-.45.14-.74-.29-.4-.27-.39,0-.84a4.71,4.71,0,0,0,.33-.81l-.61-.16c.37-.19.42-.62.84-.61a3,3,0,0,0,.53-1.38c0-.06-.08-.14-.12-.21l-.26-.51c.44-.15.71-.56,1.2-.45a.33.33,0,0,0,.28-.15,1,1,0,0,0,0-1.07c-.23.23-.48.16-.76.13a4.06,4.06,0,0,0-.94.08l-.39-.41c.43.15.6-.28.92-.29,0,.1.1.18.12.23l1-.19c0-.21,0-.48,0-.78l-.62-.09a2.38,2.38,0,0,1,1.18-.28.69.69,0,0,1,.24,0c.17.08.19.25,0,.34a2.32,2.32,0,0,1-.36.16c.14.17.28.32.4.49,0,0-.11.13-.23.26a3.39,3.39,0,0,0,1.72-.35c-.26.36-.45.64-.67,1a1.22,1.22,0,0,0,.25.07c.2,0,.28.13.26.3s-.1.33-.31.34l-.49,0c0,.21-.05.37-.06.43l-.78.81.37.22-.61.32.39.29c0,.12-.16.28-.12.33.32.41.33,1,.83,1.33.23.16.33.52.48.79a2.63,2.63,0,0,0,.2.33,4.35,4.35,0,0,0,.52.53,1.93,1.93,0,0,0,.44.2c.1,0,.28.1.28.15,0,.53.59.6.8,1a2.09,2.09,0,0,0,.65.6c.31.25.62.49.95.71a7.53,7.53,0,0,0,1.4.86c.59.25,1,.72,1.57,1,.85.44,1.7.88,2.52,1.37.34.19.78.21,1,.59,0,.08.2.1.31.14.35.13.71.27,1.07.38s.48.07.73.11c.07.44.06.44.55.55a2.52,2.52,0,0,0,.54.08c.17,0,.24-.1.13-.27l.67.14c.11.35.11.35.42.53l-.2.13m-18.54-12.5.42-.23c0,.31-.21.31-.34.35l-.08-.12m-.3,1c.13-.2.3-.14.46-.07,0,.05,0,.07,0,.08a.3.3,0,0,1-.43.19.23.23,0,0,1,0-.2m-.19-.35-.13-.1.15-.15s.09.07.08.1-.06.09-.1.15m1.45-5.62,0,.12-.24,0a.69.69,0,0,1,0-.13.85.85,0,0,1,.23,0m1.13-.08c0,.06,0,.12,0,.18L111,25a.68.68,0,0,1,0-.14l.34-.07m.29-1.74c0,.15.09.3.14.45-.2.09-.31.06-.36-.09s0-.29.22-.36m.37-.86.12.11a1.08,1.08,0,0,1-.21.11s0-.06-.08-.09a1,1,0,0,1,.17-.13m.23-1.6s.06.05.11.09-.1.07-.14.07,0-.06-.07-.09.07-.07.1-.07m.35.51-.34.4c-.09-.35,0-.45.34-.4m.58,2.42c.08,0,.22,0,.26.06a2.35,2.35,0,0,1,.31.56.25.25,0,0,1-.07.21s-.19.05-.21,0c-.16-.21-.3-.43-.46-.68.06-.06.11-.15.17-.16M114,26.3v.11l-.33,0s0-.08,0-.13H114m.47-1.91-.39.27c-.09-.34-.09-.34.39-.27m.48-1.34c-.17.24-.33.13-.5.09.16-.23.16-.23.5-.09m.21-.63,0,.07a.75.75,0,0,1-.15.09l-.22-.07.34-.09m.33.3,0,.12-.31.06a.43.43,0,0,1,0-.11l.31-.07m.12-1.3,0,.12-.21.08a.16.16,0,0,1,0-.07l.2-.13m.17,2.95a1.24,1.24,0,0,0,.21.35,1.27,1.27,0,0,0,.4.16c0,.12,0,.25-.08.53-.14-.3-.27-.3-.46-.29s-.36-.22-.63-.41l.56-.34m.41-1.12c.08,0,.14.09.25.18-.11.06-.18.14-.23.13s-.12-.11-.18-.17.12-.15.16-.14m-.77,2.27.52.06a.13.13,0,0,0,0,.06l-.5.1c0-.08,0-.15,0-.22m-.31.47.17-.18.09.11-.2.13-.06-.06m1.21,3.08c.23-.06.4-.11.51.09,0,0,0,.11,0,.12-.21.09-.31,0-.47-.21m-.3,3.62a1,1,0,0,1-.25.09s-.11-.08-.11-.11a.22.22,0,0,1,.12-.13s.09.05.24.15m0-1.6s-.16-.05-.18-.1,0-.18.1-.19a1.86,1.86,0,0,1,.41,0l0,.08a1.93,1.93,0,0,1-.36.22m-1.55-4.48s-.06-.05-.08-.08.06-.08.1-.09.07,0,.12.09-.1.08-.14.08m.78,1.77c-.2.33-.47.33-.79.22,0-.23,0-.41.08-.66l.71.44m-.2-4a.39.39,0,0,1,.11-.06.09.09,0,0,1,.06.06.49.49,0,0,1-.08.12L115,24.4m-.16,2.68c-.09.15-.2.13-.35,0,.1-.16.19-.24.33-.13a.12.12,0,0,1,0,.13m-1.07,3.06c0,.12,0,.23,0,.36-.24-.12-.24-.12,0-.36m.93,1.31a.37.37,0,0,1-.22.27c-.14.05-.44-.29-.39-.48s.21-.26.32-.39,0,0,.08,0a.73.73,0,0,1,.1.13,1.39,1.39,0,0,1,.11.47m-.51-1.26c0-.17,0-.33,0-.54l-.75.06c0-.23.06-.37.25-.34a2.65,2.65,0,0,0,1.46-.39c.11-.06.17-.25.28-.4a.7.7,0,0,1,.64.51c-.25.45-.53.93-.77,1.35a1.33,1.33,0,0,1-1.06-.25m3.55,1.43-.15.09s-.06-.09,0-.12.07-.05.12-.08l.08.11m1.92,1.59-.27,0a.29.29,0,0,1,0-.09l.27-.08a.59.59,0,0,0,0,.13m1.3,0c-.15.23-.3.34-.55.18.15-.12.26-.37.55-.18m1.68,1.38-.36,0c0-.25.13-.25.31-.24,0,.09,0,.18,0,.26m1,.12c-.54.35-.78.33-1-.11a1,1,0,0,0,.25-.14c.23-.22.47-.16.74-.06s.52.15.83.24l-.25.5-.09,0c0-.08,0-.16,0-.23l-.54-.17m2.16,2.39c.08-.2.23-.24.46-.2a.8.8,0,0,1-.28.77c-.11-.2.06-.46-.18-.57m-.34.77a1.22,1.22,0,0,1,.24.27.24.24,0,0,1-.11.37l-.36-.43.23-.21m-.24-1.27.57.5-.47.58-.47-.3c.08-.13.21-.25.23-.38s0-.29.14-.4m-8.65-9.4.48-.05a3.86,3.86,0,0,0,.09.56c0,.1.13.25.19.25a.51.51,0,0,0,.33-.17,2,2,0,0,0,.33-.48c.15-.34.47-.35.76-.41s.49.2.72.41l.55-.38c.34,0,.21.39.39.55a1.38,1.38,0,0,0,1.54-.15c.15.22,0,.31-.08.4h0l-.3.24,1.26.68a3.58,3.58,0,0,0,.39.21.7.7,0,0,0,.32.05c.35,0,.41,0,.38.32s.2.47.34.66a2.46,2.46,0,0,0,.52.4c0-.11,0-.21.06-.38a4.6,4.6,0,0,0,.82.38,9,9,0,0,0,.93.07,1.57,1.57,0,0,0-.68.51,1.41,1.41,0,0,0-.24.32c-.08.14-.11.3.06.4s.23,0,.31-.15a2.3,2.3,0,0,1,.23-.25l.49.48-.69.34c.32.77.65,1.55,1,2.35a1.14,1.14,0,0,1,.45,0c.11,0,.16.21.25.32l.09-.06-.15-.32c.1,0,.21,0,.25,0s0,.42,0,.63c0,0-.22.1-.34.1a.86.86,0,0,0-.63.2c.14.33.25.69.81.65-.14.14-.19.22-.26.25s-.12,0-.18-.06a.43.43,0,0,0-.51.19c0,.09.06.27.11.46-.11.14-.26,0-.44,0s-.27-.2-.37-.36a2.88,2.88,0,0,0-.43-.42c.47-.24.17-.64.3-.94,0-.1-.08-.24-.25-.23a2.36,2.36,0,0,1-.38,0c-.13-.58-.36-.7-.94-.56a1,1,0,0,1-.38,0c-.24,0-.47-.1-.71-.15-.09.21-.26.19-.42.14s-.51-.18-.77-.27c0-.23.51-.16.37-.57l-.49.39c-.18-.2-.09-.36-.07-.52.05-.37-.12-.58-.43-.55-.06,0-.1.08-.17.14-.21-.19-.44-.38-.79-.18,0-.15-.06-.25-.1-.39l-.61-.19c0-.26,0-.5-.06-.75l.31-.1-.45-.55c-.15.34-.15.34-.6.3a.67.67,0,0,0-.34-.58,2.65,2.65,0,0,1-.53-.53c0-.07.09-.16.14-.27-.22-.29-.55-.28-.87-.33-.18-.67-.69-.26-1.18-.31l.57-.38-1.36-.31.43-.24-.31-.28c.18-.2.3-.06.45,0a.64.64,0,0,0,.48-.05c-.18-.17-.34-.41-.56-.5a2.34,2.34,0,0,0-.75,0c-.17-.18.18-.56-.28-.65l.57-.22a5.67,5.67,0,0,0,.57.23c.55.15.57.18.45.75m.67-.72a.21.21,0,0,1,0,.06s-.09.1-.15.11-.1,0-.15,0v-.08l.26-.05m1.78-3a1.08,1.08,0,0,1,.21.11c-.11.05-.17.11-.21.1s-.08-.08-.11-.13a.2.2,0,0,1,.11-.08m.86.27.07.07-.21.24-.1-.1.24-.21m.29,2.68c-.07.24-.24.21-.46.26.08-.34.24-.31.46-.26m.26-2a1.81,1.81,0,0,1,.29.19l.42.3h-.89c0,.08,0,.19-.06.19s-.23,0-.27,0-.21-.31-.07-.5a.52.52,0,0,1,.58-.13m.72,2.57c-.1.08-.17.17-.21.15a1,1,0,0,1-.23-.15c.06-.06.12-.17.19-.17s.14.09.25.17m.25-1.51c-.11,0-.17.07-.21.06s-.08-.07-.12-.12.1-.08.15-.08.09.06.18.14m.79.72.08.21-.28,0a.5.5,0,0,1,0-.13l.24-.12m.18,1.48L122,28l-.1-.26.44-.08a.47.47,0,0,0,.05.1m1.95,0c.17.11.13.3,0,.53-.1-.41-.47-.31-.82-.47.36-.19.62-.21.84-.06m-.46-1.12s.1.09.1.13,0,.12-.08.23c-.1-.17-.15-.22-.14-.24a.68.68,0,0,1,.12-.12m.45-2.08c0,.32,0,.32-.38.31l.38-.31m.13,4.84s.09,0,.17-.05c0,.14,0,.25,0,.44l-.42-.2a1.31,1.31,0,0,1,.21-.19m.49-1.6s.08,0,.17.08a1.22,1.22,0,0,1-.26.12s-.06-.06-.09-.09a.67.67,0,0,1,.18-.11m1.23-.77v.07l-.43.11,0-.15.45,0m1,5.42c.08.13.14.24.2.36l.08,0c.09-.09.18-.2.29-.33.2.06.32.14.19.38s-.13.32-.23.56c0-.15-.07-.23-.11-.36a1.72,1.72,0,0,1-.34.06c-.19,0-.48-.19-.48-.35s.15-.32.4-.34m.33-.14-.32-.42c.32-.05.37,0,.32.42m-.1,8.21s.06.05.09.08-.07.06-.1.06-.07,0-.12-.08.09-.07.13-.06m-.43-.84c0-.18.07-.35.1-.53.27,0,.15.33.33.42l-.09.09-.34,0m.05-2s0-.1.07-.1c.18,0,.15.1.16.2s-.21.07-.23-.1m-.9,2.08c.07-.32.37-.21.61-.39-.09.5-.09.5-.61.39m.83,1.22-.38.06q.1-.37.21-.72c.25.13.26.13.17.66m-.12.64c0-.13-.21-.29.13-.43-.06.18-.1.31-.13.43m0,0ZM128,38.87l.12.06c0,.14,0,.28,0,.46-.15,0-.36.07-.37-.16s.14-.24.22-.36m.06-1-.52.2-.23-.37c.2-.11.25-.44.63-.35,0,.14.07.32.12.52m.72-4-.5.29c.06-.37.06-.37.5-.29M106,32c-.08-.53-.08-.53.41-.55-.15.19-.26.34-.41.55m40.5,14.39c-.22-.29-.49-.53-.71-.82a2.62,2.62,0,0,0-1.3-1.11s-.06-.08-.09-.11c-.83-.72-1.64-1.44-2.47-2.14a7.79,7.79,0,0,1-.71-.54,1.12,1.12,0,0,0-1-.36c-.07-.34-.09-.32-.27-.44-.35-.23-.81-.23-1.11-.56,0,0-.18.06-.27.09a.49.49,0,0,0-.41-.49.67.67,0,0,1-.23-.1,5.38,5.38,0,0,0-1.63-.8,1.25,1.25,0,0,1-.48-.33,6,6,0,0,1-.4-.7h0c0-.36-.3-.33-.57-.27a.73.73,0,0,1,.14-.64.41.41,0,0,0,0-.61c-.2-.2-.07-.57-.38-.75-.06,0,0-.31,0-.46a.73.73,0,0,0-.3-.79.61.61,0,0,1-.26-.68.6.6,0,0,0-.12-.51,2.33,2.33,0,0,1-.36-.7c-.09-.38-.2-.7-.64-.72-.07-.24.09-.51-.19-.66,0,0,0-.13,0-.19a1.25,1.25,0,0,0-.4-1,.49.49,0,0,1-.14-.29c0-.29-.2-.43-.39-.6a6.66,6.66,0,0,1-.73-.85c-.15-.19-.28-.41-.45-.66-.06.12-.09.16-.11.2s0,.42-.23.43-.24-.19-.35-.3a.53.53,0,0,1-.07-.15l.3-.44-.43-.43a17.42,17.42,0,0,0-1.31-1.27c-.32-.25-.66-.47-1-.71s-.92-.65-1.4-.95a2.47,2.47,0,0,0-.72-.33c-.44-.12-.9-.14-1.2-.56a.64.64,0,0,0-.32-.15l-.92-.23c-.1,0-.26,0-.31-.11-.18-.27-.44-.21-.68-.19s-.49.07-.65-.21a.3.3,0,0,0-.22-.06c-.64.11-1.06-.39-1.6-.54a4.17,4.17,0,0,0-2.1-.82,4.17,4.17,0,0,1-1.47-.59,1,1,0,0,0-.5-.15,7.31,7.31,0,0,1-.94,0,2.32,2.32,0,0,0-1.17,0,.58.58,0,0,1-.34,0,2.43,2.43,0,0,0-1.38.24,2.54,2.54,0,0,0-.63.37c-.4.23-.83.41-1.22.67a14,14,0,0,0-1.38,1.06c-.32.27-.57.65-.91.9a7.53,7.53,0,0,0-1.39,1.49,21.53,21.53,0,0,0-1.23,1.87,1.06,1.06,0,0,0-.06.19,1.89,1.89,0,0,1-.21.48,8.08,8.08,0,0,0-1.53,3.42c-.12.51-.27,1-.42,1.53s-.34,1-.49,1.46a1.67,1.67,0,0,0,0,.39l-.15,1.67c0,.1-.11.2-.08.28.19.71-.2,1.4,0,2.13a7.65,7.65,0,0,1,0,1.73.35.35,0,0,0,.09.25.29.29,0,0,1,.05.44.87.87,0,0,0-.09.67,5.85,5.85,0,0,1,.19,1.43,8.78,8.78,0,0,0,.41,2.23,18.94,18.94,0,0,0,.62,2.2,2.22,2.22,0,0,0,.14.32l.28.57a4.44,4.44,0,0,0,.24.49c.42.67.84,1.33,1.28,2a7.77,7.77,0,0,1,.51.66,3.56,3.56,0,0,0,1.3,1.34,5,5,0,0,1,1,.86,1,1,0,0,0,.41.26,2.62,2.62,0,0,1,1.13.71.67.67,0,0,0,.29.19c.59.29,1.18.61,1.78.87a18.16,18.16,0,0,0,1.86.7,4.85,4.85,0,0,1,1.22.4c.07.05.19,0,.28,0l1.37.24a4.94,4.94,0,0,0,.77.12c.73,0,1.46,0,2.19,0l.64,0,.78-.1a1.37,1.37,0,0,0,.66-.15c.72-.55,1.67-.55,2.41-1a.18.18,0,0,1,.1,0,1.29,1.29,0,0,0,.92-.33,18.26,18.26,0,0,1,1.74-1.05,6.42,6.42,0,0,0,1.73-1.31,9.45,9.45,0,0,0,1.56-1.6c0-.08.21-.09.3-.16L131.18,50a.29.29,0,0,0,.07-.18.85.85,0,0,1,.39-.62c.36-.29.31-.78.59-1.11,0,0,0-.09,0-.14-.09-.46-.07-.49.38-.53a.36.36,0,0,0,.15-.06l-.12-.35.76-.8h0a.53.53,0,0,1,.66-.38,1.16,1.16,0,0,0,.48-.06.43.43,0,0,1,.53.16,1,1,0,0,0,.43.3,3,3,0,0,1,1,.62c.16.14.35.25.52.38l.78.61a4.47,4.47,0,0,0,.41.35,3.86,3.86,0,0,1,1.3,1.45c.24.43.5.86.78,1.27a1.25,1.25,0,0,0,.84.66c.09,0,.17.15.27.19.29.13.6.37.88.34a.94.94,0,0,1,.84.3c.12.1.24.28.38.29a3.24,3.24,0,0,0,1.8-.09.74.74,0,0,0,.36-.38.59.59,0,0,1,.38-.48.53.53,0,0,0,.24-.23c.25-.4.33-.91.79-1.18,0,0,0-.13.05-.19a3.59,3.59,0,0,0,0-2.6c0-.49-.33-.78-.59-1.12"/><path class="cls-1" d="M138.22,44.23l-.2.06a.49.49,0,0,1,0-.11l.24,0S138.23,44.22,138.22,44.23Zm-2-4-.16,0s0-.07.09-.08.05,0,.08,0Zm-1.34-1.89c.14-.3.29-.37.5-.31C135.39,38.36,135.12,38.19,134.87,38.29Zm.2,1.64s-.08-.11-.07-.16.08-.07.12-.1l.13.15Zm-.76,3.6c.14-.39.25-.42.6-.16Zm.06.86c-.27-.21-.35,0-.45.2,0-.37,0-.41.27-.49s.46,0,.63.38C134.62,44.44,134.46,44.46,134.37,44.39Zm-.13,1.14h-.12c0-.07,0-.14,0-.21h.12C134.25,45.39,134.25,45.46,134.24,45.53Zm-.47-3.74c0-.58,0-.61.54-.4C134,41.41,134.13,41.85,133.77,41.79Zm-.14.87.19.39C133.55,43,133.57,42.83,133.63,42.66Zm1.16-.15c0,.19,0,.19-.46.22Zm-1-2.13c.23,0,.31-.1.41-.28l.5.39-1.07.11C133.55,40.47,133.65,40.36,133.8,40.38Zm-.44-1.63c.21-.11.21-.11.47,0C133.69,39,133.69,39,133.36,38.75Zm.9.24c.05,0,.15.08.14.09s-.08.17-.12.26l-.14-.08Zm-1.82,5.81-.1-.1s.07-.08.1-.08.06.05.09.08Zm-.15-6.6.39-.09s0,.09,0,.11S132.5,38.35,132.29,38.2Zm.16-4.65.07,0,.1.17-.07,0A1,1,0,0,0,132.45,33.55Zm-.72,8.83c0-.28,0-.28.15-.45C132,42.12,132,42.3,131.73,42.38Zm0-1.55c-.17.05-.17-.06-.14-.2s-.12-.13-.22-.23c.38-.11.51-.06.51.17A.33.33,0,0,1,131.76,40.83Zm-.66,2.36c.08-.24.19-.3.38-.09C131.39,43.3,131.26,43.26,131.1,43.19Zm.1-1.08-.46.23C130.9,41.88,130.9,41.88,131.2,42.11Zm.11-3.69c.14.14.1.24,0,.35C131.08,38.62,131.18,38.53,131.31,38.42Zm.3-1.45s.06.05.13.11a.67.67,0,0,1-.19.05s-.06-.08-.05-.09A.14.14,0,0,1,131.61,37Zm.75-4.17.11.19a.79.79,0,0,1-.16.08s-.09-.07-.09-.09S132.29,32.89,132.36,32.8Zm.65,2.41h-.44C132.74,35,132.74,35,133,35.21Zm-3.12,7.24a.17.17,0,0,1-.1-.14s.08-.07.17-.14c0,.09.08.15.07.19A.17.17,0,0,1,129.89,42.45Zm.34-4.28h-.38C130.07,38,130.07,38,130.23,38.17Zm-.78,3s0-.07-.09-.13.13-.07.19-.06.06.06.09.09Zm-.13,2.24s-.12-.05-.13-.09,0-.1.1-.2a1.21,1.21,0,0,1,.1.19A.2.2,0,0,1,129.32,43.46Zm.34-4.87.13.08-.27.35C129.43,38.74,129.52,38.65,129.66,38.59Zm.25-4.92c.06-.13.14-.2.38-.06l-.35.18C129.92,33.73,129.9,33.69,129.91,33.67Zm-.69,7.07-.09-.26.17,0a2.44,2.44,0,0,1,0,.27Zm-1.11-2.65.46-.2.25.45A.54.54,0,0,1,128.11,38.09ZM127.89,45s-.1,0-.1-.07a.29.29,0,0,1,.07-.12s.07,0,.12,0Zm-.12-3.7.43-.22C128.18,41.46,128,41.37,127.77,41.3Zm-18.2-10.92c0-.18.13-.2.35-.13a3.24,3.24,0,0,1-.25.26S109.56,30.42,109.57,30.38Zm18.15,12-.19,0a8.23,8.23,0,0,1-.29,1.23.44.44,0,0,0,.1.53c-.35.18-.35.18-.54-.13a15.11,15.11,0,0,1-2.14,2.31,6.74,6.74,0,0,1-1.26.87,1,1,0,0,0-.29.2,4,4,0,0,1-1.59,1c-.43.17-.83.4-1.26.58s-1,.38-1.49.57c0,0-.06,0-.09,0-.92-.08-1.79.3-2.7.26a3.65,3.65,0,0,1-.93-.18,6.56,6.56,0,0,1-2.21-1.29,13.07,13.07,0,0,1-1.37-1.31,8.48,8.48,0,0,1-.78-1.14,1.55,1.55,0,0,0-.36-.47.92.92,0,0,1-.39-.86,1,1,0,0,0-.13-.51,8.43,8.43,0,0,1-.44-1.78,1,1,0,0,0-.05-.24,8.26,8.26,0,0,1-.43-1.78.71.71,0,0,1,0-.2c0-.51,0-1,0-1.54a1,1,0,0,0,0-.34,2.22,2.22,0,0,1-.09-1.35c.12-.69.18-1.38.27-2.07a.76.76,0,0,0,0-.15c-.09-.45-.09-.45.14-.74-.29-.4-.27-.39,0-.84a4.71,4.71,0,0,0,.33-.81l-.61-.16c.37-.19.42-.62.84-.61a3,3,0,0,0,.53-1.38c0-.06-.08-.14-.12-.21l-.26-.51c.44-.15.71-.56,1.2-.45a.33.33,0,0,0,.28-.15,1,1,0,0,0,0-1.07c-.23.23-.48.16-.76.13a4.06,4.06,0,0,0-.94.08l-.39-.41c.43.15.6-.28.92-.29,0,.1.1.18.12.23l1-.19c0-.21,0-.48,0-.78l-.62-.09a2.38,2.38,0,0,1,1.18-.28.69.69,0,0,1,.24,0c.17.08.19.25,0,.34a2.32,2.32,0,0,1-.36.16c.14.17.28.32.4.49,0,0-.11.13-.23.26a3.39,3.39,0,0,0,1.72-.35c-.26.36-.45.64-.67,1a1.22,1.22,0,0,0,.25.07c.2,0,.28.13.26.3s-.1.33-.31.34l-.49,0c0,.21-.05.37-.06.43l-.78.81.37.22-.61.32.39.29c0,.12-.16.28-.12.33.32.41.33,1,.83,1.33.23.16.33.52.48.79a2.63,2.63,0,0,0,.2.33,4.35,4.35,0,0,0,.52.53,1.93,1.93,0,0,0,.44.2c.1,0,.28.1.28.15,0,.53.59.6.8,1a2.09,2.09,0,0,0,.65.6c.31.25.62.49.95.71a7.53,7.53,0,0,0,1.4.86c.59.25,1,.72,1.57,1,.85.44,1.7.88,2.52,1.37.34.19.78.21,1,.59,0,.08.2.1.31.14.35.13.71.27,1.07.38s.48.07.73.11c.07.44.06.44.55.55a2.52,2.52,0,0,0,.54.08c.17,0,.24-.1.13-.27l.67.14c.11.35.11.35.42.53Zm-18.54-12.5.42-.23c0,.31-.21.31-.34.35Zm-.3,1c.13-.2.3-.14.46-.07,0,.05,0,.07,0,.08a.3.3,0,0,1-.43.19A.23.23,0,0,1,108.88,30.86Zm-.19-.35-.13-.1.15-.15s.09.07.08.1S108.73,30.45,108.69,30.51Zm1.45-5.62,0,.12-.24,0a.69.69,0,0,1,0-.13A.85.85,0,0,1,110.14,24.89Zm1.13-.08c0,.06,0,.12,0,.18L111,25a.68.68,0,0,1,0-.14Zm.29-1.74c0,.15.09.3.14.45-.2.09-.31.06-.36-.09S111.3,23.14,111.56,23.07Zm.37-.86.12.11a1.08,1.08,0,0,1-.21.11s0-.06-.08-.09A1,1,0,0,1,111.93,22.21Zm.23-1.6s.06.05.11.09-.1.07-.14.07,0-.06-.07-.09S112.13,20.61,112.16,20.61Zm.35.51-.34.4C112.08,21.17,112.2,21.07,112.51,21.12Zm.58,2.42c.08,0,.22,0,.26.06a2.35,2.35,0,0,1,.31.56.25.25,0,0,1-.07.21s-.19.05-.21,0c-.16-.21-.3-.43-.46-.68C113,23.64,113,23.55,113.09,23.54ZM114,26.3v.11l-.33,0s0-.08,0-.13Zm.47-1.91-.39.27C114,24.32,114,24.32,114.47,24.39Zm.48-1.34c-.17.24-.33.13-.5.09C114.61,22.91,114.61,22.91,115,23.05Zm.21-.63,0,.07a.75.75,0,0,1-.15.09l-.22-.07Zm.33.3,0,.12-.31.06a.43.43,0,0,1,0-.11Zm.12-1.3,0,.12-.21.08a.16.16,0,0,1,0-.07Zm.17,2.95a1.24,1.24,0,0,0,.21.35,1.27,1.27,0,0,0,.4.16c0,.12,0,.25-.08.53-.14-.3-.27-.3-.46-.29s-.36-.22-.63-.41Zm.41-1.12c.08,0,.14.09.25.18-.11.06-.18.14-.23.13s-.12-.11-.18-.17S116.15,23.24,116.19,23.25Zm-.77,2.27.52.06a.13.13,0,0,0,0,.06l-.5.1C115.43,25.66,115.42,25.59,115.42,25.52Zm-.31.47.17-.18.09.11-.2.13Zm1.21,3.08c.23-.06.4-.11.51.09,0,0,0,.11,0,.12C116.58,29.37,116.48,29.24,116.32,29.07Zm-.3,3.62a1,1,0,0,1-.25.09s-.11-.08-.11-.11a.22.22,0,0,1,.12-.13S115.87,32.59,116,32.69Zm0-1.6s-.16-.05-.18-.1,0-.18.1-.19a1.86,1.86,0,0,1,.41,0l0,.08A1.93,1.93,0,0,1,116,31.09Zm-1.55-4.48s-.06-.05-.08-.08.06-.08.1-.09.07,0,.12.09S114.48,26.61,114.44,26.61Zm.78,1.77c-.2.33-.47.33-.79.22,0-.23,0-.41.08-.66Zm-.2-4a.39.39,0,0,1,.11-.06.09.09,0,0,1,.06.06.49.49,0,0,1-.08.12Zm-.16,2.68c-.09.15-.2.13-.35,0,.1-.16.19-.24.33-.13A.12.12,0,0,1,114.86,27.08Zm-1.07,3.06c0,.12,0,.23,0,.36C113.52,30.38,113.52,30.38,113.79,30.14Zm.93,1.31a.37.37,0,0,1-.22.27c-.14.05-.44-.29-.39-.48s.21-.26.32-.39,0,0,.08,0a.73.73,0,0,1,.1.13A1.39,1.39,0,0,1,114.72,31.45Zm-.51-1.26c0-.17,0-.33,0-.54l-.75.06c0-.23.06-.37.25-.34a2.65,2.65,0,0,0,1.46-.39c.11-.06.17-.25.28-.4a.7.7,0,0,1,.64.51c-.25.45-.53.93-.77,1.35A1.33,1.33,0,0,1,114.21,30.19Zm3.55,1.43-.15.09s-.06-.09,0-.12.07-.05.12-.08Zm1.92,1.59-.27,0a.29.29,0,0,1,0-.09l.27-.08A.59.59,0,0,0,119.68,33.21Zm1.3,0c-.15.23-.3.34-.55.18C120.58,33.25,120.69,33,121,33.19Zm1.68,1.38-.36,0c0-.25.13-.25.31-.24C122.63,34.4,122.64,34.49,122.66,34.57Zm1,.12c-.54.35-.78.33-1-.11a1,1,0,0,0,.25-.14c.23-.22.47-.16.74-.06s.52.15.83.24l-.25.5-.09,0c0-.08,0-.16,0-.23Zm2.16,2.39c.08-.2.23-.24.46-.2a.8.8,0,0,1-.28.77C125.87,37.45,126,37.19,125.8,37.08Zm-.34.77a1.22,1.22,0,0,1,.24.27.24.24,0,0,1-.11.37l-.36-.43Zm-.24-1.27.57.5-.47.58-.47-.3c.08-.13.21-.25.23-.38S125,36.69,125.22,36.58Zm-8.65-9.4.48-.05a3.86,3.86,0,0,0,.09.56c0,.1.13.25.19.25a.51.51,0,0,0,.33-.17,2,2,0,0,0,.33-.48c.15-.34.47-.35.76-.41s.49.2.72.41l.55-.38c.34,0,.21.39.39.55a1.38,1.38,0,0,0,1.54-.15c.15.22,0,.31-.08.4h0l-.3.24,1.26.68a3.58,3.58,0,0,0,.39.21.7.7,0,0,0,.32.05c.35,0,.41,0,.38.32s.2.47.34.66a2.46,2.46,0,0,0,.52.4c0-.11,0-.21.06-.38a4.6,4.6,0,0,0,.82.38,9,9,0,0,0,.93.07,1.57,1.57,0,0,0-.68.51,1.41,1.41,0,0,0-.24.32c-.08.14-.11.3.06.4s.23,0,.31-.15a2.3,2.3,0,0,1,.23-.25l.49.48-.69.34c.32.77.65,1.55,1,2.35a1.14,1.14,0,0,1,.45,0c.11,0,.16.21.25.32l.09-.06-.15-.32c.1,0,.21,0,.25,0s0,.42,0,.63c0,0-.22.1-.34.1a.86.86,0,0,0-.63.2c.14.33.25.69.81.65-.14.14-.19.22-.26.25s-.12,0-.18-.06a.43.43,0,0,0-.51.19c0,.09.06.27.11.46-.11.14-.26,0-.44,0s-.27-.2-.37-.36a2.88,2.88,0,0,0-.43-.42c.47-.24.17-.64.3-.94,0-.1-.08-.24-.25-.23a2.36,2.36,0,0,1-.38,0c-.13-.58-.36-.7-.94-.56a1,1,0,0,1-.38,0c-.24,0-.47-.1-.71-.15-.09.21-.26.19-.42.14s-.51-.18-.77-.27c0-.23.51-.16.37-.57l-.49.39c-.18-.2-.09-.36-.07-.52.05-.37-.12-.58-.43-.55-.06,0-.1.08-.17.14-.21-.19-.44-.38-.79-.18,0-.15-.06-.25-.1-.39l-.61-.19c0-.26,0-.5-.06-.75l.31-.1-.45-.55c-.15.34-.15.34-.6.3a.67.67,0,0,0-.34-.58,2.65,2.65,0,0,1-.53-.53c0-.07.09-.16.14-.27-.22-.29-.55-.28-.87-.33-.18-.67-.69-.26-1.18-.31l.57-.38-1.36-.31.43-.24-.31-.28c.18-.2.3-.06.45,0a.64.64,0,0,0,.48-.05c-.18-.17-.34-.41-.56-.5a2.34,2.34,0,0,0-.75,0c-.17-.18.18-.56-.28-.65l.57-.22a5.67,5.67,0,0,0,.57.23C116.67,26.58,116.69,26.61,116.57,27.18Zm.67-.72a.21.21,0,0,1,0,.06s-.09.1-.15.11-.1,0-.15,0v-.08Zm1.78-3a1.08,1.08,0,0,1,.21.11c-.11.05-.17.11-.21.1s-.08-.08-.11-.13A.2.2,0,0,1,119,23.5Zm.86.27.07.07-.21.24-.1-.1Zm.29,2.68c-.07.24-.24.21-.46.26C119.79,26.37,120,26.4,120.17,26.45Zm.26-2a1.81,1.81,0,0,1,.29.19l.42.3h-.89c0,.08,0,.19-.06.19s-.23,0-.27,0-.21-.31-.07-.5A.52.52,0,0,1,120.43,24.48Zm.72,2.57c-.1.08-.17.17-.21.15a1,1,0,0,1-.23-.15c.06-.06.12-.17.19-.17S121,27,121.15,27.05Zm.25-1.51c-.11,0-.17.07-.21.06s-.08-.07-.12-.12.1-.08.15-.08S121.31,25.46,121.4,25.54Zm.79.72.08.21-.28,0a.5.5,0,0,1,0-.13Zm.18,1.48L122,28l-.1-.26.44-.08A.47.47,0,0,0,122.37,27.74Zm1.95,0c.17.11.13.3,0,.53-.1-.41-.47-.31-.82-.47C123.84,27.59,124.1,27.57,124.32,27.72Zm-.46-1.12s.1.09.1.13,0,.12-.08.23c-.1-.17-.15-.22-.14-.24A.68.68,0,0,1,123.86,26.6Zm.45-2.08c0,.32,0,.32-.38.31Zm.13,4.84s.09,0,.17-.05c0,.14,0,.25,0,.44l-.42-.2A1.31,1.31,0,0,1,124.44,29.36Zm.49-1.6s.08,0,.17.08a1.22,1.22,0,0,1-.26.12s-.06-.06-.09-.09A.67.67,0,0,1,124.93,27.76Zm1.23-.77v.07l-.43.11,0-.15Zm1,5.42c.08.13.14.24.2.36l.08,0c.09-.09.18-.2.29-.33.2.06.32.14.19.38s-.13.32-.23.56c0-.15-.07-.23-.11-.36a1.72,1.72,0,0,1-.34.06c-.19,0-.48-.19-.48-.35S126.94,32.43,127.19,32.41Zm.33-.14-.32-.42C127.52,31.8,127.57,31.86,127.52,32.27Zm-.1,8.21s.06.05.09.08-.07.06-.1.06-.07,0-.12-.08S127.38,40.47,127.42,40.48Zm-.43-.84c0-.18.07-.35.1-.53.27,0,.15.33.33.42l-.09.09Zm.05-2s0-.1.07-.1c.18,0,.15.1.16.2S127.06,37.76,127,37.59Zm-.9,2.08c.07-.32.37-.21.61-.39C126.66,39.78,126.66,39.78,126.14,39.67Zm.83,1.22-.38.06q.1-.37.21-.72C127.05,40.36,127.06,40.36,127,40.89Zm-.12.64c0-.13-.21-.29.13-.43C126.92,41.28,126.88,41.41,126.85,41.53ZM128,38.87l.12.06c0,.14,0,.28,0,.46-.15,0-.36.07-.37-.16S127.9,39,128,38.87Zm.06-1-.52.2-.23-.37c.2-.11.25-.44.63-.35C128,37.48,128,37.66,128,37.86Zm.72-4-.5.29C128.32,33.74,128.32,33.74,128.76,33.82ZM106,32c-.08-.53-.08-.53.41-.55C106.23,31.65,106.12,31.8,106,32Zm40.5,14.39c-.22-.29-.49-.53-.71-.82a2.62,2.62,0,0,0-1.3-1.11s-.06-.08-.09-.11c-.83-.72-1.64-1.44-2.47-2.14a7.79,7.79,0,0,1-.71-.54,1.12,1.12,0,0,0-1-.36c-.07-.34-.09-.32-.27-.44-.35-.23-.81-.23-1.11-.56,0,0-.18.06-.27.09a.49.49,0,0,0-.41-.49.67.67,0,0,1-.23-.1,5.38,5.38,0,0,0-1.63-.8,1.25,1.25,0,0,1-.48-.33,6,6,0,0,1-.4-.7h0c0-.36-.3-.33-.57-.27a.73.73,0,0,1,.14-.64.41.41,0,0,0,0-.61c-.2-.2-.07-.57-.38-.75-.06,0,0-.31,0-.46a.73.73,0,0,0-.3-.79.61.61,0,0,1-.26-.68.6.6,0,0,0-.12-.51,2.33,2.33,0,0,1-.36-.7c-.09-.38-.2-.7-.64-.72-.07-.24.09-.51-.19-.66,0,0,0-.13,0-.19a1.25,1.25,0,0,0-.4-1,.49.49,0,0,1-.14-.29c0-.29-.2-.43-.39-.6a6.66,6.66,0,0,1-.73-.85c-.15-.19-.28-.41-.45-.66-.06.12-.09.16-.11.2s0,.42-.23.43-.24-.19-.35-.3a.53.53,0,0,1-.07-.15l.3-.44-.43-.43a17.42,17.42,0,0,0-1.31-1.27c-.32-.25-.66-.47-1-.71s-.92-.65-1.4-.95a2.47,2.47,0,0,0-.72-.33c-.44-.12-.9-.14-1.2-.56a.64.64,0,0,0-.32-.15l-.92-.23c-.1,0-.26,0-.31-.11-.18-.27-.44-.21-.68-.19s-.49.07-.65-.21a.3.3,0,0,0-.22-.06c-.64.11-1.06-.39-1.6-.54a4.17,4.17,0,0,0-2.1-.82,4.17,4.17,0,0,1-1.47-.59,1,1,0,0,0-.5-.15,7.31,7.31,0,0,1-.94,0,2.32,2.32,0,0,0-1.17,0,.58.58,0,0,1-.34,0,2.43,2.43,0,0,0-1.38.24,2.54,2.54,0,0,0-.63.37c-.4.23-.83.41-1.22.67a14,14,0,0,0-1.38,1.06c-.32.27-.57.65-.91.9a7.53,7.53,0,0,0-1.39,1.49,21.53,21.53,0,0,0-1.23,1.87,1.06,1.06,0,0,0-.06.19,1.89,1.89,0,0,1-.21.48,8.08,8.08,0,0,0-1.53,3.42c-.12.51-.27,1-.42,1.53s-.34,1-.49,1.46a1.67,1.67,0,0,0,0,.39l-.15,1.67c0,.1-.11.2-.08.28.19.71-.2,1.4,0,2.13a7.65,7.65,0,0,1,0,1.73.35.35,0,0,0,.09.25.29.29,0,0,1,.05.44.87.87,0,0,0-.09.67,5.85,5.85,0,0,1,.19,1.43,8.78,8.78,0,0,0,.41,2.23,18.94,18.94,0,0,0,.62,2.2,2.22,2.22,0,0,0,.14.32l.28.57a4.44,4.44,0,0,0,.24.49c.42.67.84,1.33,1.28,2a7.77,7.77,0,0,1,.51.66,3.56,3.56,0,0,0,1.3,1.34,5,5,0,0,1,1,.86,1,1,0,0,0,.41.26,2.62,2.62,0,0,1,1.13.71.67.67,0,0,0,.29.19c.59.29,1.18.61,1.78.87a18.16,18.16,0,0,0,1.86.7,4.85,4.85,0,0,1,1.22.4c.07.05.19,0,.28,0l1.37.24a4.94,4.94,0,0,0,.77.12c.73,0,1.46,0,2.19,0l.64,0,.78-.1a1.37,1.37,0,0,0,.66-.15c.72-.55,1.67-.55,2.41-1a.18.18,0,0,1,.1,0,1.29,1.29,0,0,0,.92-.33,18.26,18.26,0,0,1,1.74-1.05,6.42,6.42,0,0,0,1.73-1.31,9.45,9.45,0,0,0,1.56-1.6c0-.08.21-.09.3-.16L131.18,50a.29.29,0,0,0,.07-.18.85.85,0,0,1,.39-.62c.36-.29.31-.78.59-1.11,0,0,0-.09,0-.14-.09-.46-.07-.49.38-.53a.36.36,0,0,0,.15-.06l-.12-.35.76-.8h0a.53.53,0,0,1,.66-.38,1.16,1.16,0,0,0,.48-.06.43.43,0,0,1,.53.16,1,1,0,0,0,.43.3,3,3,0,0,1,1,.62c.16.14.35.25.52.38l.78.61a4.47,4.47,0,0,0,.41.35,3.86,3.86,0,0,1,1.3,1.45c.24.43.5.86.78,1.27a1.25,1.25,0,0,0,.84.66c.09,0,.17.15.27.19.29.13.6.37.88.34a.94.94,0,0,1,.84.3c.12.1.24.28.38.29a3.24,3.24,0,0,0,1.8-.09.74.74,0,0,0,.36-.38.59.59,0,0,1,.38-.48.53.53,0,0,0,.24-.23c.25-.4.33-.91.79-1.18,0,0,0-.13.05-.19a3.59,3.59,0,0,0,0-2.6C147.08,47,146.73,46.74,146.47,46.4Z"/><path d="M48.11,33.74a2.65,2.65,0,0,1,.14-.68,8,8,0,0,1,.45-1.36,13.85,13.85,0,0,1,.84-1.36,5.21,5.21,0,0,1,1.77-1.69c.53-.32,1-.74,1.53-1a11.73,11.73,0,0,1,1.79-.76,1.54,1.54,0,0,1,.73.05,3.93,3.93,0,0,1,.66.22.38.38,0,0,1,.18.09c.46.65,1.25.92,1.76,1.52a.93.93,0,0,1,.19.37,2.88,2.88,0,0,0,.35.81,3.62,3.62,0,0,1,.32.87c0,.16.09.32.15.48a1,1,0,0,1-.31,1.19,2.83,2.83,0,0,1-1.12.63l-3,1a12.66,12.66,0,0,1-2.87.35l-1.29.08v-.07l-1,0a5,5,0,0,1-.55,0,.66.66,0,0,1-.69-.74M74,47.75a.59.59,0,0,0-.14-.06A12.72,12.72,0,0,0,72.48,47a.93.93,0,0,0-1.14.08.55.55,0,0,1-.73,0c-.46-.28-.48-.28-.88.06s-1,.92-1.51,1.37a11.48,11.48,0,0,1-1.14,1,10,10,0,0,1-2.55,1.37,7.57,7.57,0,0,1-2.6.67,10.17,10.17,0,0,1-1.1,0c-.86-.09-1.71-.2-2.57-.32a2.92,2.92,0,0,1-.78-.16,8.05,8.05,0,0,1-.91-.5c-.32-.17-.64-.35-1-.51a2.26,2.26,0,0,1-1-.61.47.47,0,0,0-.25-.17.62.62,0,0,1-.47-.39,1.16,1.16,0,0,0-.28-.34,9.27,9.27,0,0,1-1.42-1.31,12.31,12.31,0,0,1-2-2.72,3.34,3.34,0,0,0-.69-1c-.07,0-.16-.17-.14-.24.07-.33-.13-.57-.24-.84a4.11,4.11,0,0,1-.26-.91.47.47,0,0,1,.37-.61,2,2,0,0,1,.84,0,8.08,8.08,0,0,0,2.08.08c1.32-.06,2.62-.23,3.93-.36a2.11,2.11,0,0,0,.43-.12c.35-.12.68-.27,1-.38a2.93,2.93,0,0,0,1.32-.56c.06-.07.18-.08.27-.12.74-.29,1.5-.57,2.23-.88A6.8,6.8,0,0,0,64,36.46c.35-.44.72-.86,1.08-1.3a3.73,3.73,0,0,0,1-2.16,3.17,3.17,0,0,1,.21-1,1.13,1.13,0,0,0,.07-1,.6.6,0,0,1,0-.35,2.71,2.71,0,0,0-.51-1.81l-1.21-2a5.77,5.77,0,0,0-1.19-1.46c-.2-.17-.37-.39-.57-.55a9.83,9.83,0,0,0-1.13-.82,14.87,14.87,0,0,0-1.41-.64c-.35-.15-.73-.24-1.06-.42A3.58,3.58,0,0,0,58,22.58c-.67-.09-1.34-.23-2-.34,0,0,0,0,0,.06-.45,0-.9,0-1.35,0a17,17,0,0,0-3.4.48,2.09,2.09,0,0,1-.25,0,.36.36,0,0,0-.18.07,4,4,0,0,1-1.54.76,7,7,0,0,0-1.21.57.73.73,0,0,0-.21.27,2.36,2.36,0,0,1-.86.86,8.27,8.27,0,0,0-.95.73,32.15,32.15,0,0,0-2.14,2.53,2.29,2.29,0,0,0-.3.56.91.91,0,0,1-.11.22,8.15,8.15,0,0,0-1.16,2.39,4.89,4.89,0,0,1-.35.77A2.7,2.7,0,0,0,41.62,34a2.7,2.7,0,0,1-.21,1,3.72,3.72,0,0,0-.22.79,8.49,8.49,0,0,0-.09,1.59,2.06,2.06,0,0,1,0,1.1.34.34,0,0,0,0,.1c.12.65.2,1.32.36,2a1.32,1.32,0,0,1,0,.9,1,1,0,0,0,0,.54c.17.69.37,1.38.55,2.07a1.67,1.67,0,0,0,.39.84c0,.49.57.75.47,1.26,0,0,0,0,.06.08.35.27.34.7.39,1.06a.91.91,0,0,0,.27.6,1.87,1.87,0,0,1,.6,1.05A5.06,5.06,0,0,0,45.45,51c.26.26.47.56.72.83a11.13,11.13,0,0,0,1.26,1.39c.79.64,1.64,1.2,2.46,1.79a4.44,4.44,0,0,0,.73.42c.59.28,1.19.53,1.78.8a1.6,1.6,0,0,1,.38.23,1.81,1.81,0,0,0,1.09.43,1.86,1.86,0,0,1,.58.11c.41.15.8.33,1.2.47a5.28,5.28,0,0,0,1.66.34,3.43,3.43,0,0,1,.44.09,21.77,21.77,0,0,0,2.27.33c.9,0,1.8,0,2.7,0a6.07,6.07,0,0,0,.84-.12l1.52-.29c.16,0,.33,0,.48-.1a12.21,12.21,0,0,0,2.53-1.06,9.7,9.7,0,0,0,2.11-1.49,1.14,1.14,0,0,1,.28-.21,17.88,17.88,0,0,0,1.78-1.59,1.43,1.43,0,0,0,.23-.26c.27-.36.54-.72.79-1.08a1.43,1.43,0,0,0,.25-.53,5.49,5.49,0,0,1,.64-1.72,3.49,3.49,0,0,0,.27-.7,2.5,2.5,0,0,0-.49-1.3"/><path class="cls-1" d="M48.11,33.74a2.65,2.65,0,0,1,.14-.68,8,8,0,0,1,.45-1.36,13.85,13.85,0,0,1,.84-1.36,5.21,5.21,0,0,1,1.77-1.69c.53-.32,1-.74,1.53-1a11.73,11.73,0,0,1,1.79-.76,1.54,1.54,0,0,1,.73.05,3.93,3.93,0,0,1,.66.22.38.38,0,0,1,.18.09c.46.65,1.25.92,1.76,1.52a.93.93,0,0,1,.19.37,2.88,2.88,0,0,0,.35.81,3.62,3.62,0,0,1,.32.87c0,.16.09.32.15.48a1,1,0,0,1-.31,1.19,2.83,2.83,0,0,1-1.12.63l-3,1a12.66,12.66,0,0,1-2.87.35l-1.29.08v-.07l-1,0a5,5,0,0,1-.55,0A.66.66,0,0,1,48.11,33.74ZM74,47.75a.59.59,0,0,0-.14-.06A12.72,12.72,0,0,0,72.48,47a.93.93,0,0,0-1.14.08.55.55,0,0,1-.73,0c-.46-.28-.48-.28-.88.06s-1,.92-1.51,1.37a11.48,11.48,0,0,1-1.14,1,10,10,0,0,1-2.55,1.37,7.57,7.57,0,0,1-2.6.67,10.17,10.17,0,0,1-1.1,0c-.86-.09-1.71-.2-2.57-.32a2.92,2.92,0,0,1-.78-.16,8.05,8.05,0,0,1-.91-.5c-.32-.17-.64-.35-1-.51a2.26,2.26,0,0,1-1-.61.47.47,0,0,0-.25-.17.62.62,0,0,1-.47-.39,1.16,1.16,0,0,0-.28-.34,9.27,9.27,0,0,1-1.42-1.31,12.31,12.31,0,0,1-2-2.72,3.34,3.34,0,0,0-.69-1c-.07,0-.16-.17-.14-.24.07-.33-.13-.57-.24-.84a4.11,4.11,0,0,1-.26-.91.47.47,0,0,1,.37-.61,2,2,0,0,1,.84,0,8.08,8.08,0,0,0,2.08.08c1.32-.06,2.62-.23,3.93-.36a2.11,2.11,0,0,0,.43-.12c.35-.12.68-.27,1-.38a2.93,2.93,0,0,0,1.32-.56c.06-.07.18-.08.27-.12.74-.29,1.5-.57,2.23-.88A6.8,6.8,0,0,0,64,36.46c.35-.44.72-.86,1.08-1.3a3.73,3.73,0,0,0,1-2.16,3.17,3.17,0,0,1,.21-1,1.13,1.13,0,0,0,.07-1,.6.6,0,0,1,0-.35,2.71,2.71,0,0,0-.51-1.81l-1.21-2a5.77,5.77,0,0,0-1.19-1.46c-.2-.17-.37-.39-.57-.55a9.83,9.83,0,0,0-1.13-.82,14.87,14.87,0,0,0-1.41-.64c-.35-.15-.73-.24-1.06-.42A3.58,3.58,0,0,0,58,22.58c-.67-.09-1.34-.23-2-.34,0,0,0,0,0,.06-.45,0-.9,0-1.35,0a17,17,0,0,0-3.4.48,2.09,2.09,0,0,1-.25,0,.36.36,0,0,0-.18.07,4,4,0,0,1-1.54.76,7,7,0,0,0-1.21.57.73.73,0,0,0-.21.27,2.36,2.36,0,0,1-.86.86,8.27,8.27,0,0,0-.95.73,32.15,32.15,0,0,0-2.14,2.53,2.29,2.29,0,0,0-.3.56.91.91,0,0,1-.11.22,8.15,8.15,0,0,0-1.16,2.39,4.89,4.89,0,0,1-.35.77A2.7,2.7,0,0,0,41.62,34a2.7,2.7,0,0,1-.21,1,3.72,3.72,0,0,0-.22.79,8.49,8.49,0,0,0-.09,1.59,2.06,2.06,0,0,1,0,1.1.34.34,0,0,0,0,.1c.12.65.2,1.32.36,2a1.32,1.32,0,0,1,0,.9,1,1,0,0,0,0,.54c.17.69.37,1.38.55,2.07a1.67,1.67,0,0,0,.39.84c0,.49.57.75.47,1.26,0,0,0,0,.06.08.35.27.34.7.39,1.06a.91.91,0,0,0,.27.6,1.87,1.87,0,0,1,.6,1.05A5.06,5.06,0,0,0,45.45,51c.26.26.47.56.72.83a11.13,11.13,0,0,0,1.26,1.39c.79.64,1.64,1.2,2.46,1.79a4.44,4.44,0,0,0,.73.42c.59.28,1.19.53,1.78.8a1.6,1.6,0,0,1,.38.23,1.81,1.81,0,0,0,1.09.43,1.86,1.86,0,0,1,.58.11c.41.15.8.33,1.2.47a5.28,5.28,0,0,0,1.66.34,3.43,3.43,0,0,1,.44.09,21.77,21.77,0,0,0,2.27.33c.9,0,1.8,0,2.7,0a6.07,6.07,0,0,0,.84-.12l1.52-.29c.16,0,.33,0,.48-.1a12.21,12.21,0,0,0,2.53-1.06,9.7,9.7,0,0,0,2.11-1.49,1.14,1.14,0,0,1,.28-.21,17.88,17.88,0,0,0,1.78-1.59,1.43,1.43,0,0,0,.23-.26c.27-.36.54-.72.79-1.08a1.43,1.43,0,0,0,.25-.53,5.49,5.49,0,0,1,.64-1.72,3.49,3.49,0,0,0,.27-.7A2.5,2.5,0,0,0,74,47.75Z"/><path d="M92.63,40.59a.81.81,0,0,1-.12-.18l.2-.1.09.19c-.07,0-.15.1-.17.09m-.28-10.38c-.06,0-.12-.1-.18-.16s.14-.14.22-.15.15.07.32.16c-.18.08-.27.16-.36.15M85,14.68c.12-.29.12-.29.46-.19-.13.16-.25.25-.46.19m15.24,38s0-.06,0-.1c-.19-.55-.51-1-.68-1.63-.22-.76-.55-1.48-.83-2.22,0-.14-.13-.27-.19-.4s-.11-.26-.17-.39,0-.2-.08-.21c-.26-.08-.19-.28-.18-.45a1,1,0,0,0,0-.25l-.46-1.72a1.61,1.61,0,0,0-.71-1.13c0-.26,0-.47,0-.68a1.86,1.86,0,0,0-.44-1.19c0-.05,0-.16-.06-.24,0-.34-.14-.62-.55-.65A1.65,1.65,0,0,1,96,40.33c-.11-.37-.21-.71-.3-1l-.28.09c0-.28-.1-.52-.13-.64.12-.25.27-.43.24-.55a1.54,1.54,0,0,1-.09-.9s-.06-.11-.08-.17A6.18,6.18,0,0,1,94.83,35a1.45,1.45,0,0,0-.17-.56c-.11-.24-.25-.47-.34-.72a.43.43,0,0,1,0-.37.74.74,0,0,0,0-.84,5,5,0,0,1-.39-1.78,8.9,8.9,0,0,0-.4-2.35,12.87,12.87,0,0,1-.33-1.64c-.14-.72-.26-1.44-.39-2.17a.32.32,0,0,0,0-.09c-.07-.4-.15-.8-.22-1.2,0-.07,0-.14,0-.2,0-.28,0-.56-.08-.84s-.11-.55-.15-.82a3.38,3.38,0,0,1,0-.45c0-.4-.12-.48-.48-.33a2.89,2.89,0,0,1-.36.12c.09-.16.1-.22.14-.24.35-.22.34-.54.33-.92,0-.6-.43-1.14-.28-1.76,0,0,0,0,0,0-.18-.67-.37-1.34-.55-2a1.29,1.29,0,0,1,0-.34,4.94,4.94,0,0,0-.14-1.8,9.45,9.45,0,0,1-.17-1.49,2.6,2.6,0,0,0,0-.39c-.19-.73-.38-1.47-.58-2.21q-.18-.64-.39-1.29A.51.51,0,0,0,89.62,8a5,5,0,0,0-1.49-.64c-.6-.12-1.22-.13-1.82-.27a5.16,5.16,0,0,0-1.84.06.75.75,0,0,0-.65.54.92.92,0,0,1-.44.51c-.4.27-.82.55-.65,1.15,0,.12,0,.27,0,.4s0,.37,0,.48c.33.43.13,1,.3,1.42s.21.75.37,1.11a1.34,1.34,0,0,1,.1.43c0,.47-.06,1,.25,1.4,0,.07,0,.19,0,.29.05.31.1.62.16.92s.1.42.12.63c.05.51,0,1,.13,1.52a7.24,7.24,0,0,1,.31,1.67c0,.05,0,.09,0,.14,0,.24.09.48.13.72s.09.52.13.78a2.73,2.73,0,0,1,.1.48,22.55,22.55,0,0,0,.34,2.45c.09.59.18,1.18.29,1.76,0,.13.08.25.11.38a4.66,4.66,0,0,1,.12.63c0,.14,0,.29,0,.44,0,.7.33,1.35.35,2.06s.25,1.28.33,1.94.23,1.09.34,1.64a5.16,5.16,0,0,0,.33,1.74c.17,1.27.6,2.48.78,3.75.08.58.24,1.16.36,1.74s.28,1.32.39,2A1.28,1.28,0,0,0,89,43s0,.1,0,.15c.16.62.29,1.26.47,1.88.3,1,.64,2,1,3,.21.66.38,1.33.58,2s.47,1.58.71,2.37c.09.28.2.56.29.84a7.23,7.23,0,0,1,.42,1.37,8.14,8.14,0,0,0,.44,1.43.7.7,0,0,0,.19.27,8.39,8.39,0,0,0,.65.68c.38.33.68.77,1.27.78a.9.9,0,0,1,.87.5.47.47,0,0,0,.44.27,4.08,4.08,0,0,0,1.48-.14.41.41,0,0,0,.26-.14,1.46,1.46,0,0,1,.71-.59.74.74,0,0,0,.31-.32,2.14,2.14,0,0,1,.91-.9.59.59,0,0,0,.3-.43c.08-.45.16-.91.28-1.36a4.44,4.44,0,0,0,.08-.61,1.79,1.79,0,0,0-.36-1.35"/><path class="cls-1" d="M92.63,40.59a.81.81,0,0,1-.12-.18l.2-.1.09.19C92.73,40.54,92.65,40.6,92.63,40.59Zm-.28-10.38c-.06,0-.12-.1-.18-.16s.14-.14.22-.15.15.07.32.16C92.53,30.14,92.44,30.22,92.35,30.21ZM85,14.68c.12-.29.12-.29.46-.19C85.33,14.65,85.21,14.74,85,14.68Zm15.24,38s0-.06,0-.1c-.19-.55-.51-1-.68-1.63-.22-.76-.55-1.48-.83-2.22,0-.14-.13-.27-.19-.4s-.11-.26-.17-.39,0-.2-.08-.21c-.26-.08-.19-.28-.18-.45a1,1,0,0,0,0-.25l-.46-1.72a1.61,1.61,0,0,0-.71-1.13c0-.26,0-.47,0-.68a1.86,1.86,0,0,0-.44-1.19c0-.05,0-.16-.06-.24,0-.34-.14-.62-.55-.65A1.65,1.65,0,0,1,96,40.33c-.11-.37-.21-.71-.3-1l-.28.09c0-.28-.1-.52-.13-.64.12-.25.27-.43.24-.55a1.54,1.54,0,0,1-.09-.9s-.06-.11-.08-.17A6.18,6.18,0,0,1,94.83,35a1.45,1.45,0,0,0-.17-.56c-.11-.24-.25-.47-.34-.72a.43.43,0,0,1,0-.37.74.74,0,0,0,0-.84,5,5,0,0,1-.39-1.78,8.9,8.9,0,0,0-.4-2.35,12.87,12.87,0,0,1-.33-1.64c-.14-.72-.26-1.44-.39-2.17a.32.32,0,0,0,0-.09c-.07-.4-.15-.8-.22-1.2,0-.07,0-.14,0-.2,0-.28,0-.56-.08-.84s-.11-.55-.15-.82a3.38,3.38,0,0,1,0-.45c0-.4-.12-.48-.48-.33a2.89,2.89,0,0,1-.36.12c.09-.16.1-.22.14-.24.35-.22.34-.54.33-.92,0-.6-.43-1.14-.28-1.76,0,0,0,0,0,0-.18-.67-.37-1.34-.55-2a1.29,1.29,0,0,1,0-.34,4.94,4.94,0,0,0-.14-1.8,9.45,9.45,0,0,1-.17-1.49,2.6,2.6,0,0,0,0-.39c-.19-.73-.38-1.47-.58-2.21q-.18-.64-.39-1.29A.51.51,0,0,0,89.62,8a5,5,0,0,0-1.49-.64c-.6-.12-1.22-.13-1.82-.27a5.16,5.16,0,0,0-1.84.06.75.75,0,0,0-.65.54.92.92,0,0,1-.44.51c-.4.27-.82.55-.65,1.15,0,.12,0,.27,0,.4s0,.37,0,.48c.33.43.13,1,.3,1.42s.21.75.37,1.11a1.34,1.34,0,0,1,.1.43c0,.47-.06,1,.25,1.4,0,.07,0,.19,0,.29.05.31.1.62.16.92s.1.42.12.63c.05.51,0,1,.13,1.52a7.24,7.24,0,0,1,.31,1.67c0,.05,0,.09,0,.14,0,.24.09.48.13.72s.09.52.13.78a2.73,2.73,0,0,1,.1.48,22.55,22.55,0,0,0,.34,2.45c.09.59.18,1.18.29,1.76,0,.13.08.25.11.38a4.66,4.66,0,0,1,.12.63c0,.14,0,.29,0,.44,0,.7.33,1.35.35,2.06s.25,1.28.33,1.94.23,1.09.34,1.64a5.16,5.16,0,0,0,.33,1.74c.17,1.27.6,2.48.78,3.75.08.58.24,1.16.36,1.74s.28,1.32.39,2A1.28,1.28,0,0,0,89,43s0,.1,0,.15c.16.62.29,1.26.47,1.88.3,1,.64,2,1,3,.21.66.38,1.33.58,2s.47,1.58.71,2.37c.09.28.2.56.29.84a7.23,7.23,0,0,1,.42,1.37,8.14,8.14,0,0,0,.44,1.43.7.7,0,0,0,.19.27,8.39,8.39,0,0,0,.65.68c.38.33.68.77,1.27.78a.9.9,0,0,1,.87.5.47.47,0,0,0,.44.27,4.08,4.08,0,0,0,1.48-.14.41.41,0,0,0,.26-.14,1.46,1.46,0,0,1,.71-.59.74.74,0,0,0,.31-.32,2.14,2.14,0,0,1,.91-.9.59.59,0,0,0,.3-.43c.08-.45.16-.91.28-1.36a4.44,4.44,0,0,0,.08-.61A1.79,1.79,0,0,0,100.24,52.72Z"/><path d="M84.66,49.47a12.55,12.55,0,0,1-.76-1.62c-.08-.18-.23-.37-.22-.55a3.85,3.85,0,0,0-.38-1.47c-.25-.74-.2-1.59-.75-2.22a.07.07,0,0,1,0,0c-.1-.72-.19-1.44-.28-2.17a.89.89,0,0,0-.08-.38c-.24-.32-.08-.77-.38-1.07,0,0,0-.16,0-.24a4.54,4.54,0,0,0-.4-2.27.36.36,0,0,1-.06-.24c.15-.45-.1-.87-.14-1.3A14,14,0,0,1,81,33.47a9,9,0,0,0-.09-1.27.15.15,0,0,0,0-.1c-.24-.18-.12-.42-.13-.65s.06-.34,0-.44c-.27-.37-.12-.83-.27-1.21s0-.75,0-1.12a4.22,4.22,0,0,1,0-.94,2.45,2.45,0,0,0-.2-1.51.86.86,0,0,1-.12-.83,1.9,1.9,0,0,0,0-.63c0-.14,0-.29,0-.43,0-.35,0-.7,0-1.05s-.11-.91-.16-1.37-.13-1.08-.2-1.63c-.32,0-.63.06-.79-.23s.25-.39.31-.62L79.08,19c.18-.23.34-.43.25-.74a.44.44,0,0,1,.09-.32.79.79,0,0,0,0-.81.57.57,0,0,1-.08-.28c0-.32-.14-.46-.45-.47s-.33-.12-.34-.38l.44-.33c0-.28,0-.53,0-.79l-.52-.13a1.89,1.89,0,0,0,.41-.18.44.44,0,0,0,.18-.27,6.62,6.62,0,0,0,0-1.18,27.34,27.34,0,0,1-.63-3,1.34,1.34,0,0,0-.11-.39c-.19-.5-.36-1-.58-1.49a.76.76,0,0,0-.36-.37,1.92,1.92,0,0,0-.59-.1l-2-.25-.59-.06a4.42,4.42,0,0,1-.74-.07,1.18,1.18,0,0,0-.92,0,2.16,2.16,0,0,1-.44.1,1,1,0,0,0-.32.12c-.38.3-.78.58-.82,1.13a1.46,1.46,0,0,1-.07.19A1.66,1.66,0,0,0,71,10.74a1.13,1.13,0,0,1,.16.41c.12.57.22,1.14.35,1.7.18.77.38,1.54.56,2.31,0,.14,0,.3,0,.44a14.44,14.44,0,0,1,.26,2.17.36.36,0,0,0,0,.1,4.63,4.63,0,0,1,.24,1.84c0,.55.06,1.09.11,1.63.11,1.19.23,2.37.34,3.56.06.64.09,1.29.15,1.94,0,.46.1.92.15,1.38.07.71,0,1.42.1,2.14.14.9.19,1.81.27,2.72a1,1,0,0,1,0,.35,4,4,0,0,0,.12,1.37,10,10,0,0,1,.25,1.52c0,1.12.27,2.21.32,3.32a2.05,2.05,0,0,0,.06.49,16.3,16.3,0,0,1,.35,2.31A11.68,11.68,0,0,0,75.06,44c.27,1.1.57,2.18.86,3.27,0,.08,0,.19.06.23.32.28.24.66.3,1a21.37,21.37,0,0,0,.49,2.38,13.16,13.16,0,0,0,.7,1.65,1.22,1.22,0,0,0,.27.42,4.82,4.82,0,0,1,1,.93c.21.28.51.7,1,.54,0,0,.12,0,.18.06l1.23.43a.79.79,0,0,0,.67,0c.35-.17.72-.27,1.07-.42a1.46,1.46,0,0,0,.55-.34,11.75,11.75,0,0,0,1-1.41,2.27,2.27,0,0,0,.28-.89,9.86,9.86,0,0,0,.08-1.44,1.86,1.86,0,0,0-.19-1"/><path class="cls-1" d="M84.66,49.47a12.55,12.55,0,0,1-.76-1.62c-.08-.18-.23-.37-.22-.55a3.85,3.85,0,0,0-.38-1.47c-.25-.74-.2-1.59-.75-2.22a.07.07,0,0,1,0,0c-.1-.72-.19-1.44-.28-2.17a.89.89,0,0,0-.08-.38c-.24-.32-.08-.77-.38-1.07,0,0,0-.16,0-.24a4.54,4.54,0,0,0-.4-2.27.36.36,0,0,1-.06-.24c.15-.45-.1-.87-.14-1.3A14,14,0,0,1,81,33.47a9,9,0,0,0-.09-1.27.15.15,0,0,0,0-.1c-.24-.18-.12-.42-.13-.65s.06-.34,0-.44c-.27-.37-.12-.83-.27-1.21s0-.75,0-1.12a4.22,4.22,0,0,1,0-.94,2.45,2.45,0,0,0-.2-1.51.86.86,0,0,1-.12-.83,1.9,1.9,0,0,0,0-.63c0-.14,0-.29,0-.43,0-.35,0-.7,0-1.05s-.11-.91-.16-1.37-.13-1.08-.2-1.63c-.32,0-.63.06-.79-.23s.25-.39.31-.62L79.08,19c.18-.23.34-.43.25-.74a.44.44,0,0,1,.09-.32.79.79,0,0,0,0-.81.57.57,0,0,1-.08-.28c0-.32-.14-.46-.45-.47s-.33-.12-.34-.38l.44-.33c0-.28,0-.53,0-.79l-.52-.13a1.89,1.89,0,0,0,.41-.18.44.44,0,0,0,.18-.27,6.62,6.62,0,0,0,0-1.18,27.34,27.34,0,0,1-.63-3,1.34,1.34,0,0,0-.11-.39c-.19-.5-.36-1-.58-1.49a.76.76,0,0,0-.36-.37,1.92,1.92,0,0,0-.59-.1l-2-.25-.59-.06a4.42,4.42,0,0,1-.74-.07,1.18,1.18,0,0,0-.92,0,2.16,2.16,0,0,1-.44.1,1,1,0,0,0-.32.12c-.38.3-.78.58-.82,1.13a1.46,1.46,0,0,1-.07.19A1.66,1.66,0,0,0,71,10.74a1.13,1.13,0,0,1,.16.41c.12.57.22,1.14.35,1.7.18.77.38,1.54.56,2.31,0,.14,0,.3,0,.44a14.44,14.44,0,0,1,.26,2.17.36.36,0,0,0,0,.1,4.63,4.63,0,0,1,.24,1.84c0,.55.06,1.09.11,1.63.11,1.19.23,2.37.34,3.56.06.64.09,1.29.15,1.94,0,.46.1.92.15,1.38.07.71,0,1.42.1,2.14.14.9.19,1.81.27,2.72a1,1,0,0,1,0,.35,4,4,0,0,0,.12,1.37,10,10,0,0,1,.25,1.52c0,1.12.27,2.21.32,3.32a2.05,2.05,0,0,0,.06.49,16.3,16.3,0,0,1,.35,2.31A11.68,11.68,0,0,0,75.06,44c.27,1.1.57,2.18.86,3.27,0,.08,0,.19.06.23.32.28.24.66.3,1a21.37,21.37,0,0,0,.49,2.38,13.16,13.16,0,0,0,.7,1.65,1.22,1.22,0,0,0,.27.42,4.82,4.82,0,0,1,1,.93c.21.28.51.7,1,.54,0,0,.12,0,.18.06l1.23.43a.79.79,0,0,0,.67,0c.35-.17.72-.27,1.07-.42a1.46,1.46,0,0,0,.55-.34,11.75,11.75,0,0,0,1-1.41,2.27,2.27,0,0,0,.28-.89,9.86,9.86,0,0,0,.08-1.44A1.86,1.86,0,0,0,84.66,49.47Z"/><path d="M153.52,34.15l0-.1.24-.11.05.11-.25.1m-.27-4.61-.2-.17s0-.07,0-.07l.23.13-.08.11M151.5,37l-.08-.57.35.3-.27.27M152,26.45a1.54,1.54,0,0,0,.17.19l-.06.06-.16-.2.05-.05m.33-2.41a.72.72,0,0,1,.09.2c0,.05-.07.08-.11.12s-.09-.09-.09-.13.05-.09.11-.19m-1.26,5.47.21-.22c0,.25,0,.25-.21.22m.16-.91.1.09-.16.2-.07,0c0-.08.08-.17.13-.25M151,21.84c.14-.18.27-.37.4-.55l.09.05c0,.17-.09.33-.14.5h.42c-.17.48-.34.48-.77,0m.06.72v-.27h.11l0,.28h-.15m-.19,4.21h-.13l.06-.36h.1l0,.36m-.32.73a.56.56,0,0,0,0-.12l.29-.1,0,.07-.27.15m-.47,2.07c.07-.27.19-.23.32-.18l0,.12-.35.06m.34-.74c0,.11,0,.23-.08.34l-.16,0,.13-.33.11,0m-.32-1.6c.38.51.41.75,0,.95.09-.36-.19-.62,0-.95m0-1.23c-.27,0-.34.22-.5.34s-.12,0-.26.05a4.67,4.67,0,0,1,.34-.45,1.11,1.11,0,0,1,.32-.21s.12.05.13.1,0,.17,0,.17m-1-3.8s0-.12,0-.18h.63c0,.16,0,.32-.07.5-.21-.12-.39-.21-.55-.32m-.09-.63c-.14-.34-.14-.34.13-.47-.06.2-.09.31-.13.47m-.74,5.05.27-.59c0,.38,0,.38-.27.59m.18-4.85.21,0s0,.06,0,.09l-.19,0s0-.06,0-.09m-.12-1.12.14-.21.08,0a2,2,0,0,1-.1.21l-.12,0m-1.15,10.9a.43.43,0,0,1,0-.07l.27-.22.08.12Zm0-4.23-.09-.09.18-.16.07.07-.16.18m.55-7.83-.37-.19c.22-.1.22-.1.37.19m-.36-1.58s-.05-.08,0-.1a.45.45,0,0,1,.13-.1c0,.05,0,.1.1.2a.66.66,0,0,1-.2,0m-.26.69c-.25,0-.18.22-.31.34,0-.16,0-.3,0-.43h0a1.2,1.2,0,0,1,.26-.18.21.21,0,0,1,.15.07.36.36,0,0,1-.06.2m-.67,7.16s-.05-.08,0-.1.09-.07.13-.1l.07.15a.37.37,0,0,1-.16.05m-.11-7.06c.08-.26.25-.22.41-.19l-.41.19m-.23-2.31.54-.11c-.18.31-.18.31-.54.11m.44-3.7.33.7c-.34,0-.25-.3-.45-.42-.07.13-.15.25-.24.39,0-.26,0-.26.36-.67m-.07,2.14c0-.15,0-.25,0-.39l.3.24-.31.15m.21,1-.2-.5.66.05-.46.45m.53.6h0l-.28-.41c.32,0,.32,0,.28.41m.14-3.29.12,0-.05.27-.12,0a2,2,0,0,1,.05-.26m.37,1c-.25,0-.34-.15-.36-.42.32,0,.22.32.36.42m.1-2.4.29.41-.35,0c0-.13,0-.23.06-.44m.58,1.68,0,.14-.37.12c0-.35.21-.23.34-.26m.18.35,0,.24-.08,0-.08-.23.13,0m.37.75c-.2-.11-.2-.11-.26-.3.24.08.24.08.26.3m.26.15-.25.17-.07-.07a.75.75,0,0,1,.11-.13.79.79,0,0,1,.21,0m.31.49h-.55c.16,0,.31-.39.55,0m.1.52c-.17.23-.23.22-.45-.06l.38-.07c0,.05.08.11.07.13m.1.22h.07c0,.1,0,.2,0,.3l-.1,0c0-.1.06-.19.08-.29m-.43.6c0-.1,0-.21,0-.37.28.23.07.29,0,.37m.38.77a1.19,1.19,0,0,1-.15.21.93.93,0,0,1-.41-.79s.1-.1.17-.15c0,.3.3.35.44.55a.61.61,0,0,1-.05.18m.34.32-.39.15.21-.45c.07.13.11.19.18.3m.14.84-.51.13c0-.17,0-.29,0-.47l.52.34m.36-.43c0,.15,0,.25,0,.41l-.35-.11.32-.3m-1.16,2c.15-.09.27-.27.48-.14,0,.11-.06.22-.09.35l-.39-.21m-.28,2,0-.5c.23.28.09.39,0,.5m0-1.63c.28.17.12.32,0,.52,0-.2,0-.34,0-.52m0-.66.32.07-.06.25h0l-.29.11,0-.43m-.22-.91a.55.55,0,0,0,.11-.25c0-.2.17-.07.23-.15s.2.11.2.16a3.16,3.16,0,0,1-.05.69c0,.06-.15.09-.23.13h0a.37.37,0,0,1-.27-.57m-.11-2.51a3.13,3.13,0,0,1,0,.44s-.12,0-.19,0,.05.29.06.44,0,.33,0,.5h-.11c0-.17,0-.34-.05-.51h-.06c0,.14-.1.29-.17.47a.81.81,0,0,1,.21-.94s.09,0,.14,0a.58.58,0,0,1-.22-.53l.51-.14c0-.15-.1-.31-.14-.46-.25.12-.39-.15-.65-.24l.41-.38.09,0c0,.08,0,.17,0,.27l.36,0c.17.21,0,.6.43.68l-.51.29M147.61,16l.17.21-.33,0,.16-.25m-.33-.18c.11-.07.19-.1.23-.16a.8.8,0,0,0,.1-.23c.12.48.12.48-.33.39m.52.4.28,0c.08.11.18.25,0,.31s-.3-.08-.27-.28m.25-2.16c.46.06.46.06.44.49-.15-.16-.27-.29-.44-.49m-.19.15c.16.13.27.27.1.52-.32-.13-.21-.32-.1-.52m-.94,2.6c0-.4,0-.4.41-.35l-.3.23c.34.26.7-.3,1,.11,0,.17,0,.37,0,.6a1,1,0,0,0-1.12.11c0-.36.35-.3.45-.53l-.41-.17m1,9a.58.58,0,0,1-.23,0s0-.07,0-.11a.3.3,0,0,1,.13,0s.06.06.13.13m.47-7-.65.11.12-.8.09,0c.07.16.09.37.21.48a1.74,1.74,0,0,0,.56.19c-.3.32.2.69-.15,1-.06-.34-.12-.64-.18-1m2,1c-.15,0-.29.08-.44.12a1.69,1.69,0,0,0,.17-1.11c.3,0,.08.27.26.35l.27-.05a.56.56,0,0,1-.26.69m-.3,5.76.26-.37c.12.34-.05.37-.26.37m0-2.81c0,.18,0,.34,0,.55-.22-.34-.22-.34,0-.55m0-.66.23.48c-.26,0-.26,0-.23-.48m.29,2.52c-.26-.09-.25-.28-.11-.63.11.25.19.4.26.55l-.15.08m.48,1.38-.41.11,0-.13.41-.1,0,.12m.07-1.45,0,.05a.64.64,0,0,1-.13.15s-.11,0-.17,0l0-.07.27-.14m0-.8s.11.09.1.12-.08.12-.12.12-.09-.07-.16-.13c.08,0,.13-.11.18-.11m-5.85-8c0-.11,0-.23-.05-.35.26.35.7-.07,1,.26l-.95.09m.44.35.33.14c-.15.1-.28.13-.33-.14m.28,1.32-.41,0,0-.11.4.07s0,0,0,.06m-.57.58.08-.27.08,0-.09.27-.07,0m0,1.93c-.21-.17-.16-.31,0-.45,0,.14,0,.28,0,.45m-.09-3.54-.29-.06,0-.1.3.08,0,.08m-.38.58s-.07-.07-.11-.11.09-.09.14-.1.06,0,.18.13a.83.83,0,0,1-.21.08m.08.68h-.09c0-.09,0-.19,0-.28h.07a2.46,2.46,0,0,1,0,.28m.87-2.59-.15.42c-.22-.35-.22-.35.15-.42m-1.72,3.25c0-.11.06-.19.09-.31l.31.21-.4.1m-.39-.57a1.42,1.42,0,0,1,0-.2l.11,0c0,.07,0,.14.05.21l-.12,0m12.26,37.55a1.12,1.12,0,0,0,1.19-.56,1.45,1.45,0,0,1,.18-.17,3,3,0,0,0,1.07-2.32,2.06,2.06,0,0,0-.1-.53,3.91,3.91,0,0,1-.14-.82,4.21,4.21,0,0,0-.17-1.28c-.08-.31-.19-.6-.26-.91-.13-.61-.23-1.22-.37-1.83-.09-.44-.22-.87-.34-1.3,0,0,0-.05,0-.07l-.21.08c-.29-.34.16-.4.21-.61-.08-.66-.14-1.33-.25-2s-.3-1.29-.38-1.94c0-.31-.1-.51-.44-.56.07-.17.19-.32.17-.42-.1-.45-.6-.75-.37-1.28,0-.05,0-.17-.11-.21s-.14-.25-.14-.4,0-.28,0-.33c-.34-.29-.19-.67-.23-1a.74.74,0,0,0-.08-.3.69.69,0,0,1-.12-.75c.14-.3,0-.52-.19-.75l-.37-.48c.33-.07.41-.21.32-.49a7.43,7.43,0,0,1-.16-.82c0-.18,0-.42-.27-.47a.07.07,0,0,1-.06-.06,3.59,3.59,0,0,1-.05-.73,2.21,2.21,0,0,0-.19-1.16,1.23,1.23,0,0,1-.06-.39c0-.11,0-.23,0-.34a2.85,2.85,0,0,1-.25-1.32.91.91,0,0,0,0-.4c-.13-.56-.28-1.12-.43-1.72-.31.22-.22-.3-.5-.23a.72.72,0,0,0,.38-.81,10.54,10.54,0,0,0-.41-1.46c-.05-.25-.16-.5-.22-.75s-.05-.36-.08-.59l-.66.17c-.12-.36.31-.2.4-.44-.08-.19-.16-.43-.25-.66h0c.05-.12.11-.24.17-.37l-.51-.33c0-.14.08-.26.11-.38l-.21-.08.37-.18c-.09-.1-.24-.17-.26-.28s-.07-.52-.12-.78a1,1,0,0,0-.17-.49c-.1-.12-.3-.14-.47-.21a.45.45,0,0,1,.08-.17.52.52,0,0,0,.13-.68c-.32-.67-.41-1.4-.68-2.07a19.46,19.46,0,0,1-.65-1.86,13.63,13.63,0,0,0-.77-2c-.28-.63-.67-1.21-.91-1.85s-.88-.87-1.52-1A6.27,6.27,0,0,1,145,8.75a1.44,1.44,0,0,0-.84-.19,2.42,2.42,0,0,1-1.14-.1,1.36,1.36,0,0,0-1.22.22.93.93,0,0,1-.31.13c-.33.06-.92.59-.93.91A2.49,2.49,0,0,0,140.7,11c.29.56.54,1.13.81,1.7,0,.09.1.17.15.26s.17.34.44.3c.09,0,.23.16.31.27s0,.19-.12.26-.09.24-.06.34c.16.41.34.81.52,1.22a.76.76,0,0,1,.41-.22c-.08.13-.22.25-.23.38a1.52,1.52,0,0,0,.1.46,2.77,2.77,0,0,0,0,.3,2.57,2.57,0,0,0,.2.45,4.47,4.47,0,0,0,.3.43c0,.21-.11.39-.06.51a3.2,3.2,0,0,1,.45,1.53c0,.06.06.12.1.16a1,1,0,0,1,.27.86.54.54,0,0,0,.26.61c.18.49-.16.95.19,1.4a1.08,1.08,0,0,1,.13.49,4.51,4.51,0,0,0,.08.53c.15.44.36.86.47,1.3s.17,1.15.27,1.72.26,1.36.42,2c.08.35.23.69.31,1,.19.91.36,1.82.53,2.73a.53.53,0,0,1,0,.25.71.71,0,0,0,.16.61c0,.05.12.12.11.13-.18.26,0,.48.07.71.2.92.42,1.84.6,2.77a17.22,17.22,0,0,0,.43,2c.28,1,.45,1.93.67,2.89.13.55.25,1.09.37,1.64.07.31.1.62.17.92.16.68.37,1.35.47,2,0,.29.09.49.38.61-.33.27.12.49,0,.74,0,0,.21.16.33.25a.91.91,0,0,1-.17.68.48.48,0,0,0-.09.32c.1.5.23,1,.36,1.49s.2.69.3,1,.19.67.3,1,.19.49.27.74a.63.63,0,0,0,.48.45c.15,0,.36.09.43.21A7.27,7.27,0,0,0,154.28,55a1.08,1.08,0,0,0,.6.2c.35,0,.7,0,1,0"/><path class="cls-1" d="M153.52,34.15l0-.1.24-.11.05.11Zm-.27-4.61-.2-.17s0-.07,0-.07l.23.13ZM151.5,37l-.08-.57.35.3ZM152,26.45a1.54,1.54,0,0,0,.17.19l-.06.06-.16-.2Zm.33-2.41a.72.72,0,0,1,.09.2c0,.05-.07.08-.11.12s-.09-.09-.09-.13S152.3,24.14,152.36,24Zm-1.26,5.47.21-.22C151.35,29.54,151.35,29.54,151.1,29.51Zm.16-.91.1.09-.16.2-.07,0C151.17,28.77,151.21,28.68,151.26,28.6ZM151,21.84c.14-.18.27-.37.4-.55l.09.05c0,.17-.09.33-.14.5h.42C151.63,22.31,151.46,22.31,151,21.84Zm.06.72v-.27h.11l0,.28Zm-.19,4.21h-.13l.06-.36h.1Zm-.32.73a.56.56,0,0,0,0-.12l.29-.1,0,.07Zm-.47,2.07c.07-.27.19-.23.32-.18l0,.12Zm.34-.74c0,.11,0,.23-.08.34l-.16,0,.13-.33Zm-.32-1.6c.38.51.41.75,0,.95C150.26,27.82,150,27.56,150.13,27.23Zm0-1.23c-.27,0-.34.22-.5.34s-.12,0-.26.05a4.67,4.67,0,0,1,.34-.45,1.11,1.11,0,0,1,.32-.21s.12.05.13.1S150.15,26,150.15,26Zm-1-3.8s0-.12,0-.18h.63c0,.16,0,.32-.07.5C149.54,22.4,149.36,22.31,149.2,22.2Zm-.09-.63c-.14-.34-.14-.34.13-.47C149.18,21.3,149.15,21.41,149.11,21.57Zm-.74,5.05.27-.59C148.66,26.41,148.66,26.41,148.37,26.62Zm.18-4.85.21,0s0,.06,0,.09l-.19,0S148.56,21.8,148.55,21.77Zm-.12-1.12.14-.21.08,0a2,2,0,0,1-.1.21Zm-1.15,10.9a.43.43,0,0,1,0-.07l.27-.22.08.12Zm0-4.23-.09-.09.18-.16.07.07Zm.55-7.83-.37-.19C147.7,19.2,147.7,19.2,147.85,19.49Zm-.36-1.58s-.05-.08,0-.1a.45.45,0,0,1,.13-.1c0,.05,0,.1.1.2A.66.66,0,0,1,147.49,17.91Zm-.26.69c-.25,0-.18.22-.31.34,0-.16,0-.3,0-.43h0a1.2,1.2,0,0,1,.26-.18.21.21,0,0,1,.15.07A.36.36,0,0,1,147.23,18.6Zm-.67,7.16s-.05-.08,0-.1.09-.07.13-.1l.07.15A.37.37,0,0,1,146.56,25.76Zm-.11-7.06c.08-.26.25-.22.41-.19Zm-.23-2.31.54-.11C146.58,16.59,146.58,16.59,146.22,16.39Zm.44-3.7.33.7c-.34,0-.25-.3-.45-.42-.07.13-.15.25-.24.39C146.29,13.1,146.29,13.1,146.66,12.69Zm-.07,2.14c0-.15,0-.25,0-.39l.3.24Zm.21,1-.2-.5.66.05Zm.53.6h0l-.28-.41C147.37,16.1,147.37,16.1,147.33,16.47Zm.14-3.29.12,0-.05.27-.12,0A2,2,0,0,1,147.47,13.18Zm.37,1c-.25,0-.34-.15-.36-.42C147.8,13.78,147.7,14.1,147.84,14.2Zm.1-2.4.29.41-.35,0C147.9,12.11,147.91,12,147.94,11.8Zm.58,1.68,0,.14-.37.12C148.19,13.39,148.39,13.51,148.52,13.48Zm.18.35,0,.24-.08,0-.08-.23Zm.37.75c-.2-.11-.2-.11-.26-.3C149.05,14.36,149.05,14.36,149.07,14.58Zm.26.15-.25.17-.07-.07a.75.75,0,0,1,.11-.13A.79.79,0,0,1,149.33,14.73Zm.31.49h-.55C149.25,15.19,149.4,14.83,149.64,15.22Zm.1.52c-.17.23-.23.22-.45-.06l.38-.07C149.7,15.66,149.75,15.72,149.74,15.74Zm.1.22h.07c0,.1,0,.2,0,.3l-.1,0C149.79,16.15,149.82,16.06,149.84,16Zm-.43.6c0-.1,0-.21,0-.37C149.72,16.42,149.51,16.48,149.41,16.56Zm.38.77a1.19,1.19,0,0,1-.15.21.93.93,0,0,1-.41-.79s.1-.1.17-.15c0,.3.3.35.44.55A.61.61,0,0,1,149.79,17.33Zm.34.32-.39.15.21-.45C150,17.48,150.06,17.54,150.13,17.65Zm.14.84-.51.13c0-.17,0-.29,0-.47Zm.36-.43c0,.15,0,.25,0,.41l-.35-.11Zm-1.16,2c.15-.09.27-.27.48-.14,0,.11-.06.22-.09.35Zm-.28,2,0-.5C149.46,21.79,149.32,21.9,149.19,22Zm0-1.63c.28.17.12.32,0,.52C149.16,20.7,149.17,20.56,149.19,20.38Zm0-.66.32.07-.06.25h0l-.29.11Zm-.22-.91a.55.55,0,0,0,.11-.25c0-.2.17-.07.23-.15s.2.11.2.16a3.16,3.16,0,0,1-.05.69c0,.06-.15.09-.23.13h0A.37.37,0,0,1,149,18.81Zm-.11-2.51a3.13,3.13,0,0,1,0,.44s-.12,0-.19,0,.05.29.06.44,0,.33,0,.5h-.11c0-.17,0-.34-.05-.51h-.06c0,.14-.1.29-.17.47a.81.81,0,0,1,.21-.94s.09,0,.14,0a.58.58,0,0,1-.22-.53l.51-.14c0-.15-.1-.31-.14-.46-.25.12-.39-.15-.65-.24l.41-.38.09,0c0,.08,0,.17,0,.27l.36,0c.17.21,0,.6.43.68ZM147.61,16l.17.21-.33,0Zm-.33-.18c.11-.07.19-.1.23-.16a.8.8,0,0,0,.1-.23C147.73,15.92,147.73,15.92,147.28,15.83Zm.52.4.28,0c.08.11.18.25,0,.31S147.77,16.43,147.8,16.23Zm.25-2.16c.46.06.46.06.44.49C148.34,14.4,148.22,14.27,148.05,14.07Zm-.19.15c.16.13.27.27.1.52C147.64,14.61,147.75,14.42,147.86,14.22Zm-.94,2.6c0-.4,0-.4.41-.35l-.3.23c.34.26.7-.3,1,.11,0,.17,0,.37,0,.6a1,1,0,0,0-1.12.11c0-.36.35-.3.45-.53Zm1,9a.58.58,0,0,1-.23,0s0-.07,0-.11a.3.3,0,0,1,.13,0S147.88,25.74,148,25.81Zm.47-7-.65.11.12-.8.09,0c.07.16.09.37.21.48a1.74,1.74,0,0,0,.56.19c-.3.32.2.69-.15,1C148.54,19.44,148.48,19.14,148.42,18.78Zm2,1c-.15,0-.29.08-.44.12a1.69,1.69,0,0,0,.17-1.11c.3,0,.08.27.26.35l.27-.05A.56.56,0,0,1,150.41,19.78Zm-.3,5.76.26-.37C150.49,25.51,150.32,25.54,150.11,25.54Zm0-2.81c0,.18,0,.34,0,.55C149.89,22.94,149.89,22.94,150.15,22.73Zm0-.66.23.48C150.09,22.57,150.09,22.57,150.12,22.07Zm.29,2.52c-.26-.09-.25-.28-.11-.63.11.25.19.4.26.55Zm.48,1.38-.41.11,0-.13.41-.1Zm.07-1.45,0,.05a.64.64,0,0,1-.13.15s-.11,0-.17,0l0-.07Zm0-.8s.11.09.1.12-.08.12-.12.12-.09-.07-.16-.13C150.84,23.78,150.89,23.72,150.94,23.72Zm-5.85-8c0-.11,0-.23-.05-.35.26.35.7-.07,1,.26Zm.44.35.33.14C145.71,16.29,145.58,16.32,145.53,16.05Zm.28,1.32-.41,0,0-.11.4.07S145.81,17.35,145.81,17.37Zm-.57.58.08-.27.08,0-.09.27Zm0,1.93c-.21-.17-.16-.31,0-.45C145.32,19.57,145.31,19.71,145.29,19.88Zm-.09-3.54-.29-.06,0-.1.3.08Zm-.38.58s-.07-.07-.11-.11.09-.09.14-.1.06,0,.18.13A.83.83,0,0,1,144.82,16.92Zm.08.68h-.09c0-.09,0-.19,0-.28h.07A2.46,2.46,0,0,1,144.9,17.6Zm.87-2.59-.15.42C145.4,15.08,145.4,15.08,145.77,15Zm-1.72,3.25c0-.11.06-.19.09-.31l.31.21Zm-.39-.57a1.42,1.42,0,0,1,0-.2l.11,0c0,.07,0,.14.05.21Zm12.26,37.55a1.12,1.12,0,0,0,1.19-.56,1.45,1.45,0,0,1,.18-.17,3,3,0,0,0,1.07-2.32,2.06,2.06,0,0,0-.1-.53,3.91,3.91,0,0,1-.14-.82,4.21,4.21,0,0,0-.17-1.28c-.08-.31-.19-.6-.26-.91-.13-.61-.23-1.22-.37-1.83-.09-.44-.22-.87-.34-1.3,0,0,0-.05,0-.07l-.21.08c-.29-.34.16-.4.21-.61-.08-.66-.14-1.33-.25-2s-.3-1.29-.38-1.94c0-.31-.1-.51-.44-.56.07-.17.19-.32.17-.42-.1-.45-.6-.75-.37-1.28,0-.05,0-.17-.11-.21s-.14-.25-.14-.4,0-.28,0-.33c-.34-.29-.19-.67-.23-1a.74.74,0,0,0-.08-.3.69.69,0,0,1-.12-.75c.14-.3,0-.52-.19-.75l-.37-.48c.33-.07.41-.21.32-.49a7.43,7.43,0,0,1-.16-.82c0-.18,0-.42-.27-.47a.07.07,0,0,1-.06-.06,3.59,3.59,0,0,1-.05-.73,2.21,2.21,0,0,0-.19-1.16,1.23,1.23,0,0,1-.06-.39c0-.11,0-.23,0-.34a2.85,2.85,0,0,1-.25-1.32.91.91,0,0,0,0-.4c-.13-.56-.28-1.12-.43-1.72-.31.22-.22-.3-.5-.23a.72.72,0,0,0,.38-.81,10.54,10.54,0,0,0-.41-1.46c-.05-.25-.16-.5-.22-.75s-.05-.36-.08-.59l-.66.17c-.12-.36.31-.2.4-.44-.08-.19-.16-.43-.25-.66h0c.05-.12.11-.24.17-.37l-.51-.33c0-.14.08-.26.11-.38l-.21-.08.37-.18c-.09-.1-.24-.17-.26-.28s-.07-.52-.12-.78a1,1,0,0,0-.17-.49c-.1-.12-.3-.14-.47-.21a.45.45,0,0,1,.08-.17.52.52,0,0,0,.13-.68c-.32-.67-.41-1.4-.68-2.07a19.46,19.46,0,0,1-.65-1.86,13.63,13.63,0,0,0-.77-2c-.28-.63-.67-1.21-.91-1.85s-.88-.87-1.52-1A6.27,6.27,0,0,1,145,8.75a1.44,1.44,0,0,0-.84-.19,2.42,2.42,0,0,1-1.14-.1,1.36,1.36,0,0,0-1.22.22.93.93,0,0,1-.31.13c-.33.06-.92.59-.93.91A2.49,2.49,0,0,0,140.7,11c.29.56.54,1.13.81,1.7,0,.09.1.17.15.26s.17.34.44.3c.09,0,.23.16.31.27s0,.19-.12.26-.09.24-.06.34c.16.41.34.81.52,1.22a.76.76,0,0,1,.41-.22c-.08.13-.22.25-.23.38a1.52,1.52,0,0,0,.1.46,2.77,2.77,0,0,0,0,.3,2.57,2.57,0,0,0,.2.45,4.47,4.47,0,0,0,.3.43c0,.21-.11.39-.06.51a3.2,3.2,0,0,1,.45,1.53c0,.06.06.12.1.16a1,1,0,0,1,.27.86.54.54,0,0,0,.26.61c.18.49-.16.95.19,1.4a1.08,1.08,0,0,1,.13.49,4.51,4.51,0,0,0,.08.53c.15.44.36.86.47,1.3s.17,1.15.27,1.72.26,1.36.42,2c.08.35.23.69.31,1,.19.91.36,1.82.53,2.73a.53.53,0,0,1,0,.25.71.71,0,0,0,.16.61c0,.05.12.12.11.13-.18.26,0,.48.07.71.2.92.42,1.84.6,2.77a17.22,17.22,0,0,0,.43,2c.28,1,.45,1.93.67,2.89.13.55.25,1.09.37,1.64.07.31.1.62.17.92.16.68.37,1.35.47,2,0,.29.09.49.38.61-.33.27.12.49,0,.74,0,0,.21.16.33.25a.91.91,0,0,1-.17.68.48.48,0,0,0-.09.32c.1.5.23,1,.36,1.49s.2.69.3,1,.19.67.3,1,.19.49.27.74a.63.63,0,0,0,.48.45c.15,0,.36.09.43.21A7.27,7.27,0,0,0,154.28,55a1.08,1.08,0,0,0,.6.2C155.23,55.27,155.58,55.23,155.92,55.24Z"/></g></g></svg>