<svg xmlns="http://www.w3.org/2000/svg" viewBox="0 0 25.28 24"><g id="Capa_2" data-name="Capa 2"><g id="Capa_1-2" data-name="Capa 1"><path d="M23.67,22.47H1.61V1.53H23.67ZM0,24H25.28V0H0Z"/><path d="M8.79,7.46v9.29H7.57V7.46Z"/><path d="M16.71,7V15c0,.6,0,1.26.05,1.72H15.67l-.06-1.15h0a2.48,2.48,0,0,1-2.3,1.3c-1.63,0-2.9-1.36-2.9-3.38,0-2.23,1.39-3.59,3-3.59a2.26,2.26,0,0,1,2,1h0V7ZM15.49,12.8a3.05,3.05,0,0,0-.05-.52,1.82,1.82,0,0,0-1.78-1.4c-1.28,0-2,1.1-2,2.57s.68,2.48,2,2.48a1.86,1.86,0,0,0,1.8-1.46,2.12,2.12,0,0,0,.06-.52Z"/></g></g></svg>