<svg id="Capa_1" data-name="Capa 1" xmlns="http://www.w3.org/2000/svg" viewBox="0 0 26.46 19.15"><defs><style>.cls-1{fill:none;stroke:#000;stroke-miterlimit:10;}</style></defs><g id="Capa_2" data-name="Capa 2"><g id="Capa_1-2" data-name="Capa 1-2"><polyline class="cls-1" points="17.86 15.47 17.85 0.5 6.97 0.5 6.98 15.47"/><path d="M7.46,15.42A3.73,3.73,0,1,1,3.72,11.7h0a3.73,3.73,0,0,1,3.73,3.72"/><path d="M18.37,15.42a3.73,3.73,0,1,1-3.74-3.72h0a3.73,3.73,0,0,1,3.73,3.72"/><path d="M17.45,0V8.85h9V0Zm3.22,6.06V2.79l2.79,1.63Z"/></g></g><path d="M16.48,11c.15-.08.17-.13.14-.3l-.39-2.11a.41.41,0,0,0-.07-.15l-4.5-5.11-.05-.05-2,1.79s0,0,.07.06l4.48,5.07a.38.38,0,0,0,.18.12l2,.65.05,0Z"/><path d="M8.2,3.21a.58.58,0,0,0,0,.14,1.46,1.46,0,0,0,.16.36c.22.26.46.51.68.76l2-1.76c-.22-.26-.43-.53-.67-.77a1,1,0,0,0-1.23-.07c-.24.19-.47.4-.7.61A1.11,1.11,0,0,0,8.21,3Z"/></svg>