<svg id="Capa_1" data-name="Capa 1" xmlns="http://www.w3.org/2000/svg" xmlns:xlink="http://www.w3.org/1999/xlink" viewBox="0 0 26.46 19.15"><defs><style>.cls-1,.cls-3{fill:none;}.cls-2{clip-path:url(#clip-path);}.cls-3{stroke:#000;stroke-linecap:round;stroke-linejoin:round;}</style><clipPath id="clip-path"><rect class="cls-1" x="1.11" y="-6.9" width="32.17" height="22.43"/></clipPath></defs><polygon points="18.35 15.63 4.23 15.63 4.23 5.06 15.26 5.06 15.26 3.09 3.13 3.09 3.13 17.6 8.15 17.6 6.41 19.18 11.29 19.18 16.16 19.18 14.46 17.6 19.43 17.6 19.43 14.29 18.35 14.29 18.35 15.63"/><g class="cls-2"><path class="cls-3" d="M16,12.08H17.2M16,10.48h2.46M16,8.86H17.2M16,7.46h2.46m5.45,6.23L19.2,5.32V.81l.28-.32H15.26V5.32l-4.75,8.4c-.2.36.39.34.39.34H23.49s.6,0,.39-.34Z"/></g><path d="M6.59,16.17V14.54H7.88v1.63Z"/><path d="M10.4,12.84l.81-.46-1.8-1.71,1-.46L8.88,8.5,9.68,8,7.24,5.1,4.79,8l.81.46L4,10.21l.8.46-.65.71v3.16H12Z"/></svg>