<svg id="Capa_1" data-name="Capa 1" xmlns="http://www.w3.org/2000/svg" viewBox="0 0 26.46 19.15"><defs><style>.cls-1{fill:#fff;}</style></defs><path d="M23.81,2.65h-7V2h7Zm0,1.13h-7V3.14h7Zm0,1.13h-7V4.27h7Zm0,1.17h-7V5.45h7Zm0,2.16h-7v-.6h7Zm0,1.09h-7V8.69h7Zm0,2.35h-7V11h7Zm0,1.08h-7v-.64h7Zm0,2.21h-7v-.64h7Zm0,1.18h-7V15.5h7Zm-3.48,1.17H16.85v-.64h3.48Zm-3.48-4h6.08v.63H16.85Zm0-3.39H22v.56H16.85Zm0-3.34H22v.6H16.85Zm-.94,12.34h8.76V.15H15.94Z"/><path d="M8.16,18H4.45a1.43,1.43,0,0,0-.57-1.09,1.7,1.7,0,0,0-1-.33,1.53,1.53,0,0,0-1.56,1.44C1.14,18,1,18,.86,18A1,1,0,0,1,0,16.93V15.7a.53.53,0,0,1,.19-.43l1.74-1.6a1.16,1.16,0,0,1,.8-.31H7a1.15,1.15,0,0,1,.79.31l1.76,1.59a.64.64,0,0,0,.45.18h1.13a1.41,1.41,0,0,1,1.33.75,1.64,1.64,0,0,1,.13.54c0,.25,0,.51,0,.76a.52.52,0,0,1-.46.53,6.43,6.43,0,0,1-.76,0s-.07-.06-.08-.09a1.45,1.45,0,0,0-1.15-1.29,1.65,1.65,0,0,0-1.75.62A1.32,1.32,0,0,0,8.16,18Zm.75-2.6L7.42,14.07a.68.68,0,0,0-.5-.2H5v1.56ZM4.43,13.87H2.84a.71.71,0,0,0-.52.2L.92,15.34l-.08.09H4.43Z"/><path d="M9.74,17a1.24,1.24,0,0,1,.76.27,1,1,0,0,1-.06,1.61,1.19,1.19,0,0,1-1.34,0,.94.94,0,0,1-.49-1,1,1,0,0,1,.73-.86A1.77,1.77,0,0,1,9.74,17Z"/><path d="M2.87,17a1.21,1.21,0,0,1,.84.35,1,1,0,0,1,0,1.42,1.23,1.23,0,0,1-1.63,0,.94.94,0,0,1-.32-1A1.06,1.06,0,0,1,2.57,17C2.67,17,2.77,17,2.87,17Z"/><path class="cls-1" d="M8.91,15.43H5V13.87h1.9a.68.68,0,0,1,.5.2Z"/><path class="cls-1" d="M4.43,13.87v1.56H.84l.08-.09,1.4-1.27a.71.71,0,0,1,.52-.2H4.43Z"/><path d="M6.71.15l0,13.47h0a1.12,1.12,0,0,1,.75.29l.45.42h6.68V15h-6l.52.46a.24.24,0,0,0,.08.06h5.37v.64H11.76a1.33,1.33,0,0,1,.14.19,1.1,1.1,0,0,1,.1.34h2.58v.64H12c0,.09,0,.18,0,.27s-.44.41-.65.47v.87h4.14V.15Zm.92,4.17H13v.59H7.63Zm0,5.59h4.12v.56H7.63Zm6.08,4H7.63V13.3h6.08Zm.87-1.17H7.63v-.64h7Zm0-1.08H7.63V11h7Zm0-2.35H7.63V8.69h7Zm0-1.09H7.63v-.6h7Zm0-1.07H7.63V6.53h7Zm0-1.09H7.63V5.45h7Zm0-2.3H7.63V3.14h7Zm0-1.13H7.63V2h7Z"/><path class="cls-1" d="M17.41,17a10.77,10.77,0,0,0,9.05,1.72,9,9,0,0,1-6.6-4.05l-.71.67-.09-.09L18.8,15c-.09-.12-.24-.26-.37-.45l-.32-.42a5.73,5.73,0,0,1-.38-.62,8.72,8.72,0,0,1-1.11-3.25c-.05-.34-.09-.67-.14-1a1.57,1.57,0,0,0-.07-.56,2.83,2.83,0,0,1-.13-.56A10.68,10.68,0,0,0,16,7a7.71,7.71,0,0,0-.43-1.07,10.22,10.22,0,0,0-2.91-3.52A10.69,10.69,0,0,0,9.05.55,11.3,11.3,0,0,0,6.22.1H5.15l.11,1.41h1a9.72,9.72,0,0,1,2.44.4,9.24,9.24,0,0,1,3.1,1.56,9,9,0,0,1,2.47,3.06,9.82,9.82,0,0,1,.4.94,7.84,7.84,0,0,1,.29.94l.11.48a1.19,1.19,0,0,0,.07.49,7.25,7.25,0,0,0,.13,1,10.28,10.28,0,0,0,1.28,3.77,5.41,5.41,0,0,0,.45.72c.13.17.25.34.36.5s.31.37.44.51l.29.32a.52.52,0,0,0,.1.11Z"/></svg>