<svg id="Capa_1" data-name="Capa 1" xmlns="http://www.w3.org/2000/svg" viewBox="0 0 25.28 25.03"><defs><style>.cls-1{font-size:7px;font-family:DINPro-Bold, DINPro;font-weight:700;letter-spacing:-0.04em;}.cls-1,.cls-4{fill:#fff;}.cls-2{letter-spacing:-0.05em;}.cls-3{letter-spacing:-0.04em;}</style></defs><path d="M2.75,0H22.53a2.75,2.75,0,0,1,2.75,2.75V25a0,0,0,0,1,0,0H2.75A2.75,2.75,0,0,1,0,22.25V2.75A2.75,2.75,0,0,1,2.75,0Z"/><text class="cls-1" transform="translate(3.51 20.52) scale(1.15 1)">li<tspan class="cls-2" x="3.64" y="0">v</tspan><tspan class="cls-3" x="6.74" y="0">e</tspan></text><path class="cls-4" d="M10.9,4.17l-.12,0A8.82,8.82,0,0,0,3.83,14c0,.34.14.49.54.49h8a2.85,2.85,0,0,0,.91-.15,1.73,1.73,0,0,0,1.07-2,1.78,1.78,0,0,0-1.78-1.39H7.78A5.25,5.25,0,0,1,12.1,7.61a5.31,5.31,0,0,1,5.27,2.72,5.18,5.18,0,0,1-1.1,6.49l2.51,2.44c.09-.08.2-.17.3-.27a8.73,8.73,0,0,0,2.4-7.74A9,9,0,0,0,10.9,4.17Z"/></svg>