<svg xmlns="http://www.w3.org/2000/svg" viewBox="0 0 27.28 3.13"><g id="Capa_2" data-name="Capa 2"><g id="Capa_1-2" data-name="Capa 1"><path d="M.62,1.29s0,.06,0,.09V3c0,.09,0,.12-.13.11H.11C0,3.13,0,3.1,0,3V.11A.78.78,0,0,0,0,0L2.4,1.89c0-.06,0-.1,0-.13V.12c0-.11,0-.11.13-.11h.38C3,0,3,0,3,.09V3a.45.45,0,0,1,0,.08L.65,1.27l0,0"/><path d="M25.51,2.61a1.14,1.14,0,0,0,1.2-1,1.2,1.2,0,0,0-2.38,0,1.13,1.13,0,0,0,1.18,1m.09.52a1.81,1.81,0,0,1-1.69-.92,1.47,1.47,0,0,1,.77-2,1.89,1.89,0,0,1,1.87.12,1.41,1.41,0,0,1,.73,1.24A1.56,1.56,0,0,1,26.16,3a3.9,3.9,0,0,1-.56.11"/><path d="M12.19,1.56c0-.48,0-1,0-1.45,0-.07,0-.1.1-.1h2.46c.06,0,.09,0,.09.08a2.8,2.8,0,0,0,0,.29c0,.08,0,.11-.11.11H13a.27.27,0,0,0-.09,0,.16.16,0,0,0-.07.07.22.22,0,0,0,0,.11V2.5c0,.15,0,.15.17.15h1.7c.1,0,.14,0,.13.11a1,1,0,0,0,0,.25c0,.09,0,.12-.12.11h-2.4c-.09,0-.12,0-.12-.11V1.56Z"/><path d="M16.07,1.56V.12c0-.09,0-.11.12-.11H18.6c.09,0,.13,0,.12.11a1.13,1.13,0,0,0,0,.26c0,.09,0,.11-.12.11H16.86c-.15,0-.15,0-.15.14,0,.62,0,1.25,0,1.88,0,.13,0,.14.16.14h1.71c.14,0,.14,0,.14.12V3c0,.07,0,.09-.1.09h-2.4c-.13,0-.14,0-.14-.12V1.56Z"/><path d="M4.11,3.12C4.7,2.08,5.27,1.06,5.84,0h0L7.61,3.11H7a.11.11,0,0,1-.12-.07L6,1.4a1.62,1.62,0,0,0-.1-.18.12.12,0,0,0,0-.05l-.06.05L5.38,2,4.85,3a.16.16,0,0,1-.17.1H4.11"/><path d="M19.64,0h.54a.18.18,0,0,1,.21.12l.95,1.8,0,0s.05,0,.06,0c.32-.6.64-1.19.95-1.79A.21.21,0,0,1,22.62,0h.53L21.41,3.09h0c-.57-1-1.14-2-1.73-3.07"/><path d="M9.83,1.81V3c0,.09,0,.12-.12.11H9.3c-.09,0-.11,0-.11-.1V.63c0-.14,0-.14-.16-.14s-.57,0-.86,0c-.08,0-.12,0-.11-.11a2.8,2.8,0,0,0,0-.29c0-.06,0-.08.09-.08h2.67c.1,0,.13,0,.13.12A1.22,1.22,0,0,0,11,.4c0,.07,0,.09-.1.09H10c-.16,0-.16,0-.16.14V1.81Z"/><path d="M13.86,1.32c.11,0,.23,0,.34,0s.1,0,.1.09v.32c0,.06,0,.08-.1.08h-.71c-.06,0-.09,0-.09-.08V1.41c0-.07,0-.09.1-.09h.36"/><path d="M17.71,1.81h-.36c-.06,0-.08,0-.08-.07V1.4s0-.08.08-.08h.73c.05,0,.08,0,.08.07v.35c0,.05,0,.07-.09.07h-.36"/></g></g></svg>