<svg id="Capa_1" data-name="Capa 1" xmlns="http://www.w3.org/2000/svg" viewBox="0 0 165.7 176"><defs><style>.cls-1{fill:none;stroke:#000;stroke-miterlimit:10;stroke-width:0.6px;}</style></defs><path d="M25.77,122.2l-4.56,1.52a.65.65,0,0,0-.38.57l.28,3,.29,3,.1.85.28,3.05.29,3a2.74,2.74,0,0,0,.09.85s0,2.76-1.43,3.24l-.19.09-1.23.38a.65.65,0,0,0-.38.57l.19,2.1.19,2.09c0,.19.19.28.38.28h.09c.86-.28,2.67-.85,3.81-1.23,3.61-1.14,4.85-3.71,4.18-9.8L27,129l-.67-6.56c0-.19-.19-.29-.38-.29a.28.28,0,0,1-.19.1m69-8.27a.36.36,0,0,1-.48-.19v-.1l-1.8-17m6.94,15.31-.86-7.23Z"/><path d="M69.32,101.57l-4.08,1.33a.63.63,0,0,0-.38.57l.76,7.22.76,7.23a.52.52,0,0,1-.38.57l-3,1c-2.85,1-3.23-1.14-3.52-4.09v-.09l-.09-.38v-.1l-.1-.76-.1-.76c0-.28-.09-.57-.09-.85L58.77,109l-.38-3.42c0-.19-.19-.29-.38-.29h-.1l-4.18,1.34a.51.51,0,0,0-.38.57l.47,4.56.48,4.56h0v.38c.48,5,2.28,9.51,8,7.8l9.13-3a.52.52,0,0,0,.38-.57l-1-9.6-1-9.6c0-.19-.09-.29-.38-.19h0m21.11,8.84a.35.35,0,0,1,.48.19v.09l.28,2.1m.19,2-.19-2.09Zm-.38.57h0c-1.23.38-4.85,1.62-7.6,2.48,3.33-1,7.6-2.48,7.6-2.48m-12.45-3.9a.78.78,0,0,1,.28-.76l-.47.19c.47,2.48.19.57.19.57"/><path d="M83.78,117.83h0m6.65-7.42a.35.35,0,0,1,.48.19v.09l.19,2.1v.38m-5.33,4Zm-1,.38Zm-.29.1h0m-.38.09Zm.57-.19ZM91,115.45l-5.23,1.71L91,115.45m.38-.57-.19-1.71Zm-7,2.76Zm-.67.19Zm.29-.1ZM21.4,130.28l-.29-3,.39,3.42.38,3.52-.29-3-.19-.86m3.8-14.36-4.56,1.53a.63.63,0,0,0-.38.57l.19,2,.19,2c0,.19.19.28.38.28h.09l4.57-1.52a.63.63,0,0,0,.38-.57l-.19-2-.19-2a.54.54,0,0,0-.48-.29h0m1.05,6.56h0l.67,6.57Zm-6.56,24.44s2.28-.76,3.8-1.23A29.92,29.92,0,0,1,19.69,146.92Zm1.14-22.63.28,3Z"/><path d="M109.26,93.2l-.38-.76-.47-.76-.2-.38c-.85-1.34-2.18-1.81-4.56-1L92.72,93.86a.65.65,0,0,0-.38.57l.09.86.1.95v.29l.85,8.55.86,8.09a1.65,1.65,0,0,0,.19.66c.09.1.57,0,.76,0l3.42-1.14.57-.28a1.2,1.2,0,0,0,.1-.86l-.38-3.23-.38-3.24h0l-.1-.38L98,101l-.38-3.24a.53.53,0,0,1,.38-.57l10.84-3.52c.19-.09.29-.19.19-.38.19,0,.19-.09.19-.09"/><path d="M120.86,81.6,116.58,83a.75.75,0,0,0-.47.57L112,97.19c-.1.19-.19.29-.38,0l-1.33-2.28a.55.55,0,0,0-.67-.19l-4.94,1.62a.24.24,0,0,0-.19.38c0,.09,0,.09.09.09l4.76,6.94a2.43,2.43,0,0,1,.28.76l.29,4a.3.3,0,0,0,.28.28h.1l4.85-1.61a.53.53,0,0,0,.38-.57l-.29-4a2.48,2.48,0,0,1,.1-.85l7-20.45c.1-.19,0-.38-.28-.28ZM84.92,104h0a.53.53,0,0,1-.38.57l-6.28,2.09c-.09.1-.28,0-.38-.09v-.1h0v-.09a4,4,0,0,1,3.24-3.9c2.56-1,3.51.09,3.8,1.52m-4.19-6.56c-8,2.66-8.36,8.08-7.79,13.31s2.18,9.89,10.46,7.23l2.37-.76L91,115.54a.63.63,0,0,0,.38-.57l-.19-1.71v-.38L91,110.79c0-.19-.19-.29-.38-.29h-.09L83,113c-3,1-4.09.47-4.57-1.91l11.89-3.89a1,1,0,0,0,.38-.48v-.09h0c-.48-7.33-2.47-11.61-10-9.13M45.27,117v.48h0l.09,3.42.1,3.42a.63.63,0,0,1-.38.57l-4.76,1.52c-3.61,1.14-5.42-1.33-5.89-5.7s.38-7.7,3.8-9.13c4.75-2,6.85,1.14,7,5.42m5.42,5.8a58.5,58.5,0,0,0,0-9.41c-.67-4.38-4.76-9.8-12.93-7.14s-9.7,9.61-9,16.36,4.28,11.79,12.36,9l6.37-2.09,5.9-1.9a.53.53,0,0,0,.38-.57l-.29-4.28c0-.19-.09-.29-.28-.29h-.1l-2,.67c-.1.1-.29,0-.38-.09V123c.09-.09.09-.09,0-.19Z"/><path d="M155.35,34a39.61,39.61,0,0,1-3.44,8.91c-.2.5-.2.5.2.7A38.89,38.89,0,0,1,161,50.5a16.1,16.1,0,0,1,3.75,6,7.92,7.92,0,0,1,.3,4.05,7.61,7.61,0,0,1-2.23,3.64,15.5,15.5,0,0,1-5.67,3.44,39.29,39.29,0,0,1-11.33,2.23c-.51,0-.51,0-.51.51a40.06,40.06,0,0,1-1.21,9.81,18.07,18.07,0,0,1-3.65,7.39,7.75,7.75,0,0,1-4.25,2.63,8.7,8.7,0,0,1-4.55-.5,20.21,20.21,0,0,1-7.19-5.16,47.69,47.69,0,0,1-5.16-6.69c-.2-.2-.2-.3-.51-.1A37.18,37.18,0,0,1,108.08,82a15.69,15.69,0,0,1-7.18.11,7.21,7.21,0,0,1-5.77-6.28,16.54,16.54,0,0,1,.2-6.68A39.55,39.55,0,0,1,99.18,59c.2-.3.1-.41-.2-.61a36.3,36.3,0,0,1-8.81-6.88,16,16,0,0,1-3.64-5.67,9.58,9.58,0,0,1-.61-4.15A6.52,6.52,0,0,1,87.74,38a13.6,13.6,0,0,1,6.17-3.85,38.87,38.87,0,0,1,10.83-2h.92c.3,0,.3-.11.3-.31,0-1.21,0-2.43.1-3.54a32.43,32.43,0,0,1,1.72-8.71,15.31,15.31,0,0,1,3.34-5.66A6.86,6.86,0,0,1,118.21,12a16.49,16.49,0,0,1,6.07,3.34,42.6,42.6,0,0,1,7.59,8.81c.3.41.3.41.71.2a38.3,38.3,0,0,1,9.82-4.15,16.36,16.36,0,0,1,6.27-.6,8.58,8.58,0,0,1,4.86,1.92,8,8,0,0,1,2.23,4.15,14,14,0,0,1,.1,5.77,22.67,22.67,0,0,1-.51,2.53m-15.18,7.79h0a.53.53,0,0,0,.1.31c.61,1.92,1.22,3.84,1.72,5.87.31,1,.51,1.92.81,2.93l.2-.2A68.14,68.14,0,0,0,146.85,45c.2-.3.1-.4-.1-.5-1.42-.71-2.73-1.32-4.15-1.93a13.05,13.05,0,0,1-2.43-.81M122.56,63.65c2,.51,4.35,1,6.68,1.42a.68.68,0,0,0,.71-.2,118.1,118.1,0,0,0,9.81-10.32.45.45,0,0,0,.11-.51c-.21-.91-.41-1.82-.71-2.83a103.33,103.33,0,0,0-3.34-10.83.32.32,0,0,0-.31-.31c-2.73-.81-5.46-1.62-8.19-2.33-1.93-.4-3.75-.81-5.67-1.11a.45.45,0,0,0-.51.1A94.85,94.85,0,0,0,111.32,47c-.1.21-.2.41-.1.61.2.81.31,1.52.51,2.33a92.07,92.07,0,0,0,3.44,11.44.78.78,0,0,0,.4.4c2.23.61,4.46,1.32,7,1.92M89.46,41.89a4.4,4.4,0,0,0,.2,2.53,12.51,12.51,0,0,0,2.84,4.36,34.22,34.22,0,0,0,7.89,6.37c.71.41.71.41,1.12-.3q2.73-4.24,5.76-8.2a1,1,0,0,0,.21-.61,71.42,71.42,0,0,1-1.32-10.32.27.27,0,0,0-.3-.3,40.89,40.89,0,0,0-8.61,1.21,18.42,18.42,0,0,0-5.76,2.53,6.08,6.08,0,0,0-2,2.73m12.25,36.74c.2,0,.5.11.71.11a16.92,16.92,0,0,0,5.06-.31,36.64,36.64,0,0,0,9.71-3.84c.21-.11.21-.21,0-.41a81,81,0,0,1-4.25-9,1.58,1.58,0,0,0-1.11-1A68,68,0,0,1,103,60.52c-.6-.31-.6-.31-1,.3A32.38,32.38,0,0,0,98.47,71a18.31,18.31,0,0,0-.1,4,4.31,4.31,0,0,0,3.34,3.54m39.17.11a40.52,40.52,0,0,0,1-8.51c0-.3-.1-.3-.3-.3A91,91,0,0,1,131.06,69a.79.79,0,0,0-.51.1,86.59,86.59,0,0,1-8.3,6.48c-.2.1-.2.2,0,.4a47.19,47.19,0,0,0,3.85,5.27,21.65,21.65,0,0,0,6,5,5.08,5.08,0,0,0,3.44.7,4.65,4.65,0,0,0,2.94-2.22,25.17,25.17,0,0,0,2.43-6M110.51,22.26a42.4,42.4,0,0,0-1.11,9.41.27.27,0,0,0,.3.3c1.52,0,3,.11,4.56.21a54.41,54.41,0,0,1,5.77.71.67.67,0,0,0,.71-.21,98.63,98.63,0,0,1,8.19-6.27c.21-.1.31-.2.11-.51a42.2,42.2,0,0,0-5-6.27,18.36,18.36,0,0,0-5.27-3.95,5.93,5.93,0,0,0-2.93-.71,4.16,4.16,0,0,0-3.14,2,22.12,22.12,0,0,0-2.23,5.27m41.5,11a24.39,24.39,0,0,0,.51-2.63,13.74,13.74,0,0,0,0-4.05,4,4,0,0,0-4-3.64,14.44,14.44,0,0,0-4.66.4,34.65,34.65,0,0,0-9.81,4.05c-.21.1-.31.2-.1.51a79.48,79.48,0,0,1,4.15,8.9,1.43,1.43,0,0,0,1,1,92.12,92.12,0,0,1,9.11,3.85c.2.1.3.1.5-.1a41.41,41.41,0,0,0,3.24-8.3m9.62,26.62a3.9,3.9,0,0,0-.31-2.63,13.45,13.45,0,0,0-2.73-4.05,36.65,36.65,0,0,0-8.3-6.48c-.3-.2-.4-.1-.5.1a68.31,68.31,0,0,1-5.88,8.3.49.49,0,0,0-.1.61,71.69,71.69,0,0,1,1.42,10.32c0,.21.1.31.41.31a34.75,34.75,0,0,0,8.5-1.42,18.68,18.68,0,0,0,5.56-2.53,4.77,4.77,0,0,0,1.93-2.53M134.1,65.78a62.6,62.6,0,0,0,7.39.51c.3,0,.3-.1.3-.31-.1-1.92-.41-3.84-.61-5.77-.1-.5-.1-.91-.2-1.51-2.33,2.53-4.56,4.85-6.88,7.08m-25.61-15A58.93,58.93,0,0,0,104.34,57c-.1.21,0,.31.2.31.91.4,1.82.81,2.63,1.21,1.32.61,2.64,1.12,4,1.62a90.49,90.49,0,0,1-2.73-9.31M126.3,68.11c-3.24-.61-6.27-1.42-9.41-2.33,0,.1.1.2.1.3a68.53,68.53,0,0,0,3,6.28c.1.3.2.3.5.1,1.42-1,2.84-2,4.26-3.14l1.51-1.21M134.1,36c.1-.1,0-.1,0-.2-.91-2.12-1.93-4.25-3-6.38-.1-.3-.3-.1-.4,0a55.66,55.66,0,0,0-5.47,4.05c-.1.1-.2.1-.2.31,3,.6,6.07,1.31,9.11,2.22m-23.69,6.89A87.17,87.17,0,0,1,117.09,36a57.51,57.51,0,0,0-7.08-.5c-.31,0-.31.1-.31.3.11,1.62.31,3.14.41,4.66a20.15,20.15,0,0,0,.3,2.43"/><path d="M99.64,135.43a8.25,8.25,0,1,1-6.07-10h.11a8.36,8.36,0,0,1,6,10"/><path d="M70.47,17c8.3-3.3,16.7-6.6,25-9.9,2.4-.9,2.9-.8,4.5,1.2l.2,1c-1.8,5.2-3.7,10.4-5.3,15.7-2.1,7.1-4.5,14.1-6.8,21.1-2,6-4.1,12.1-5.9,18.1-2,6.5-4.5,12.9-6.3,19.5-1.6,5.9-3.7,11.7-5.6,17.6a8.67,8.67,0,0,1-1.7,3.3l-2,.4c-3.5-3-6.2-6.7-9.2-10.1-10-11.5-19.9-23.1-29.9-34.6-8.7-10-17.3-20-26-30-.9-1-1.6-2-.9-3.3a3.17,3.17,0,0,1,3.2-1.6l31.3-.6a11,11,0,0,0,1.8-.2c.6,4.2,1.2,8.4,1.7,12.6.7,4.8,1.3,9.6,2.1,14.4.2,1.6.8,1.9,2.3,1.4a6.72,6.72,0,0,0,1.2-.6c2.4-1,4.7-2.2,7.1-3.1,1.4-.6,2.2.1,2.2,1.6s-.1,2.8-.1,4.2c0,3.1-.1,6.2,0,9.3,0,1.5.7,1.9,2.1,1.4a17.72,17.72,0,0,0,3.1-1.5c1.1-.7,2.3-1.7,3.5-1.1s.8,2.2.8,3.4c0,6.7,0,13.3-.1,20,0,.8.1,1.5,1,1.7a1.26,1.26,0,0,0,1.6-1.1V87c.2-1.3.7-2.4,1-3.7,3.8-13.5,7.5-27,11.2-40.5,1.6-5.7,3.2-11.3,4.7-16.9.6-2.4,0-3.1-2.2-2.4-2.9.9-5.7,2.2-8.5,3.3-1.3.5-2.2-.1-2-1.5.3-2.8.6-5.5.9-8.3"/><path class="cls-1" d="M70.47,17c-.3,2.7-.5,5.5-.8,8.2-.1,1.4.7,2,2,1.5,2.8-1.1,5.6-2.3,8.5-3.3,2.2-.7,2.8,0,2.2,2.4-1.6,5.7-3.2,11.3-4.7,17-3.7,13.4-7.4,26.9-11.2,40.4-.3,1.2-.8,2.4-1,3.7a1.32,1.32,0,0,1-1.5,1.3h-.3c-.9-.2-1-.9-1-1.7.1-6.7.1-13.3.1-20,0-1.2.5-2.8-.8-3.4s-2.4.4-3.5,1.1a21,21,0,0,1-3,1.5c-1.4.5-2.1.1-2.1-1.4-.1-3.1,0-6.2,0-9.3,0-1.4.1-2.8.1-4.2s-.8-2.1-2.2-1.6c-2.4.9-4.8,2.1-7.1,3.1l-1.2.6c-1.6.6-2.1.3-2.3-1.4l-2.1-14.4c-.6-4.2-1.2-8.4-1.7-12.6-.3-2.6-.6-5.3-1.1-7.8-.2-1.3,0-2,1.3-2.5,8.3-3.4,16.8-6.9,25.2-10.4,2.4-.9,4.7-1.9,7-2.8,1.7-.7,2.3-.2,2.2,1.6-.3,4.4-.7,8.7-1,13.1A2.85,2.85,0,0,0,70.47,17Z"/><path d="M146.62,173.37c-1.12.24-2.24.36-3.47.6l-6.28,1.09c-1.79.36-3.7.6-5.49,1a.86.86,0,0,1-.56-.11c-.68-.23-1.35-.58-2-.82h-.11a.6.6,0,0,0-.45-.23h-.11a.81.81,0,0,0-.45-.23h-.11a11.82,11.82,0,0,0-2.14-.93c-.11,0-.11,0-.23-.12l-.11-.12c-1.23-.58-2.47-1.05-3.82-1.63-.34-.12-.56-.35-.9-.35h-.11c0-.12,0-.12-.11-.12-1.24-.46-2.48-1.05-3.71-1.51-.12,0-.12,0-.23-.12-.34-.11-.56-.35-.9-.35h-.11c0-.12,0-.12-.11-.11l-3.37-1.4c-.23-.12-.57-.24-.79-.35s-.23-.12-.34-.24c-.45-.23-.9-.35-1.35-.58a.55.55,0,0,1-.34-.59V164c0-2.24.1-4.47.09-6.71v-.12c0-1.18.1-2.36.09-3.53v-.36c0-2.12.09-4.24.08-6.36.11-2.71.09-5.53.19-8.24v-.12a3.43,3.43,0,0,0,0-1.06c0-1.88.09-3.77.09-5.65s.09-4.13.08-6.13.1-3.77.09-5.65v-.47c0-1.3.1-2.6.09-3.89a4.24,4.24,0,0,0,0-1.18v-.47c.12,0,0-.12,0-.12h0v-.59c.1-2,.09-4,.09-6v-.24c0-.35.11-.47.44-.47,5.73.68,11.45,1.36,17.06,1.92,6.85.8,13.59,1.59,20.44,2.27,5.83.68,11.67,1.36,17.51,1.93h0a10.84,10.84,0,0,1-.33,2V115c-.33,1.41-.55,2.82-.77,4.24a.45.45,0,0,0-.11.35c-.33,1.42-.55,2.83-.88,4.36v.24c-.33,1.53-.66,2.95-.88,4.48a1.41,1.41,0,0,0-.11.94v.12l-.33,1.77c-.44,2.71-1,5.3-1.53,8s-1.1,5.54-1.54,8.25-1,5.43-1.53,8.14c-.22.94-.33,2-.55,3v.23a.43.43,0,0,1-.11.24c-.22,1.29-.55,2.59-.77,4-.55,2.6-1,5.19-1.42,7.78,0,.24-.11.36-.45.48a9.47,9.47,0,0,0-1.79.36h-.68a4.47,4.47,0,0,0-1.23.24,19.56,19.56,0,0,0-2.47.48h-1.12c.23.71.12.71,0,.71Zm-9-40.48c-.32,3.53-.75,7.07-1.07,10.61,0,.35,0,.47.45.58,2.8.34,5.5.57,8.31.91.67.11.67.11.56.82a.74.74,0,0,1-.11.47c-.44,2.48-1,5.07-1.43,7.55-.11.47-.22.59-.67.59-2.69.13-5.27.37-8,.62-.34,0-.34.12-.45.36-.21,2.24-.43,4.47-.64,6.71,0,.47,0,.47.45.47l2.58-.36c2.24-.25,4.49-.49,6.73-.86,1.79-.24,3.59-.48,5.38-.61.34,0,.45-.12.45-.47.32-2,.77-3.89,1.09-5.9.55-2.59,1-5.3,1.54-7.89s1-5.07,1.42-7.67c.11-.35,0-.47-.33-.47l-9-1c-.33,0-.44-.11-.33-.47l.64-6.48c0-.35.11-.47.56-.47,3.14.34,6.4.68,9.54,1.14.34,0,.45,0,.56-.36.33-2.12.77-4.24,1.21-6.37.11-.35,0-.47-.34-.47-5.84-.68-11.56-1.36-17.4-1.92-.56-.12-.56-.12-.56.47C138.22,125.94,137.9,129.36,137.58,132.89Zm-4.78,9h0c0-.35.11-.7.11-.94.64-6.36,1.29-12.61,1.93-19,0-.24.11-.47-.34-.47-4.94-.57-9.88-1.14-14.93-1.7-.22,0-.33,0-.33.35v2.36c0,1.41,0,2.82-.1,4.24,0,.35.12.47.46.47,2.35.22,4.71.57,7,.79.33,0,.44.12.45.59-.87,7.89-1.62,15.79-2.48,23.68v.36c0,.23-.11.23-.22.12-1.13-.35-2.25-.58-3.37-.93-.23,0-.23-.12-.23-.35V150.4c0-1.3.1-2.71.09-4,0-.35-.11-.47-.45-.59-1.91-.22-3.82-.45-5.61-.68-.9-.11-.9-.11-.9.95,0,1.65,0,3.3-.09,5.06s-.09,3.54-.09,5.19a.52.52,0,0,0,.34.47c2.59.81,5.17,1.74,7.76,2.55l8.42,2.79c.45.12.45.24.56-.35C131.4,155.06,132.15,148.46,132.8,141.86Z"/></svg>