<?xml version="1.0" encoding="utf-8"?>
<!-- Generator: Adobe Illustrator 25.4.1, SVG Export Plug-In . SVG Version: 6.00 Build 0)  -->
<svg version="1.1" id="Capa_1" xmlns="http://www.w3.org/2000/svg" xmlns:xlink="http://www.w3.org/1999/xlink" x="0px" y="0px"
	 viewBox="0 0 38.1 25.5" style="enable-background:new 0 0 38.1 25.5;" xml:space="preserve">
<style type="text/css">
	.st0{fill:none;stroke:#000000;stroke-width:1.2;stroke-miterlimit:10;}
</style>
<line class="st0" x1="32.1" y1="12.9" x2="38.1" y2="12.9"/>
<g>
	<g>
		<path d="M3.2,16.1c-0.6,0-1.1-0.1-1.5-0.4S0.9,15,0.6,14.6c-0.3-0.5-0.4-1.1-0.4-1.8s0.1-1.3,0.4-1.8c0.3-0.5,0.6-0.9,1.1-1.1
			s1-0.4,1.5-0.4c0.6,0,1.1,0.1,1.5,0.4s0.8,0.6,1.1,1.1s0.4,1.1,0.4,1.8s-0.1,1.3-0.4,1.8c-0.3,0.5-0.6,0.9-1.1,1.1
			S3.8,16.1,3.2,16.1z M3.2,14.9c0.3,0,0.6-0.1,0.9-0.2c0.2-0.2,0.4-0.4,0.6-0.7c0.1-0.3,0.2-0.7,0.2-1.2S4.8,12,4.7,11.6
			c-0.1-0.3-0.3-0.6-0.6-0.7c-0.2-0.2-0.5-0.2-0.9-0.2c-0.3,0-0.6,0.1-0.9,0.2c-0.2,0.2-0.4,0.4-0.6,0.7c-0.1,0.3-0.2,0.7-0.2,1.2
			s0.1,0.8,0.2,1.2c0.1,0.3,0.3,0.6,0.6,0.7C2.6,14.8,2.9,14.9,3.2,14.9z"/>
		<path d="M7.2,16V9.6h2.5c0.5,0,0.9,0.1,1.2,0.3s0.6,0.4,0.8,0.8c0.2,0.3,0.3,0.7,0.3,1.1c0,0.4-0.1,0.8-0.3,1.1s-0.4,0.6-0.8,0.8
			c-0.3,0.2-0.8,0.3-1.3,0.3H8v-1.1h1.4c0.3,0,0.5,0,0.7-0.1s0.3-0.2,0.4-0.4s0.1-0.4,0.1-0.6s0-0.4-0.1-0.6
			c-0.1-0.2-0.2-0.3-0.4-0.4c-0.2-0.1-0.4-0.1-0.7-0.1H8.5V16H7.2z"/>
		<path d="M15.7,16.1c-0.6,0-1.1-0.1-1.6-0.4s-0.8-0.6-1.1-1.1c-0.3-0.5-0.4-1.1-0.4-1.7c0-0.7,0.1-1.3,0.4-1.8s0.6-0.9,1.1-1.1
			c0.4-0.3,1-0.4,1.5-0.4c0.4,0,0.7,0.1,1,0.2s0.6,0.3,0.8,0.4c0.2,0.2,0.4,0.4,0.6,0.7s0.3,0.6,0.3,0.9H17c0-0.2-0.1-0.3-0.2-0.4
			c-0.1-0.1-0.2-0.2-0.3-0.3s-0.2-0.2-0.4-0.2c-0.1,0-0.3-0.1-0.5-0.1c-0.3,0-0.6,0.1-0.9,0.2c-0.3,0.2-0.4,0.4-0.6,0.7
			c-0.1,0.3-0.2,0.7-0.2,1.2s0.1,0.8,0.2,1.2s0.3,0.6,0.6,0.7C15,15,15.2,15,15.6,15c0.3,0,0.6-0.1,0.8-0.2s0.4-0.3,0.5-0.5
			s0.2-0.5,0.2-0.7h0.3h-1.6v-1h2.7v0.8c0,0.6-0.1,1-0.4,1.4c-0.2,0.4-0.6,0.7-1,0.9C16.8,16,16.3,16.1,15.7,16.1z"/>
		<path d="M19.5,16V9.6h4.3v1.1h-3v1.5h2.8v1.1h-2.8v1.6h3V16H19.5z"/>
		<path d="M24.6,10.7V9.6h5.2v1.1h-2V16h-1.3v-5.3H24.6z"/>
	</g>
</g>
</svg>
