<?xml version="1.0" encoding="utf-8"?>
<!-- Generator: Adobe Illustrator 25.4.1, SVG Export Plug-In . SVG Version: 6.00 Build 0)  -->
<svg version="1.1" id="Capa_1" xmlns="http://www.w3.org/2000/svg" xmlns:xlink="http://www.w3.org/1999/xlink" x="0px" y="0px"
	 viewBox="0 0 36 25.5" style="enable-background:new 0 0 36 25.5;" xml:space="preserve">
<g id="Capa_2_00000096030172986123245840000013469517358998423710_">
	<g id="Capa_1-2">
		<path d="M10.4,16.3c-0.2,0-0.5,0.2-0.6,0.4c0,0.1-0.1,0.1-0.1,0.2c-0.4,0.6-0.8,1.2-1.2,1.9c0,0.1-0.1,0.2-0.1,0.2v2.5
			c0,0.1,0,0.1,0,0.2c0.1,0.3,0.4,0.5,0.7,0.4c0.3-0.1,0.5-0.3,0.5-0.6c0-0.5,0-1,0-1.6c0-0.1,0-0.2,0.1-0.3
			c0.5-0.7,0.9-1.5,1.4-2.2c0-0.1,0.1-0.1,0.1-0.2c0.1-0.5-0.2-0.9-0.7-1C10.5,16.3,10.4,16.3,10.4,16.3 M27.5,20.3
			c0-0.3,0-0.6,0-0.8c0-0.4-0.1-0.8-0.3-1c-0.1-0.1-0.1-0.3-0.2-0.4c-0.3-0.5-0.6-0.9-0.8-1.3c-0.2-0.3-0.5-0.5-0.8-0.4
			c-0.4,0.1-0.7,0.6-0.6,1c0,0.1,0.1,0.1,0.1,0.2c0.5,0.7,0.9,1.4,1.4,2.1c0.1,0.1,0.1,0.2,0.1,0.3c0,0.5,0,1.1,0,1.6
			c0,0.3,0.3,0.6,0.6,0.6c0,0,0,0,0,0c0.3,0,0.6-0.3,0.6-0.6L27.5,20.3 M30.5,18.8c0-0.4,0-0.9,0-1.3c0-0.1,0-0.2-0.1-0.2l-1.3-2.1
			C29.1,15,29,15,28.9,14.9c-0.3-0.2-0.7-0.1-0.9,0.1c-0.3,0.2-0.3,0.6-0.1,1c0.5,0.7,0.9,1.5,1.4,2.2c0,0.1,0.1,0.2,0.1,0.2v1.6
			c0,0.3,0.3,0.6,0.6,0.6s0.6-0.3,0.6-0.6c0,0,0,0,0,0L30.5,18.8 M5.5,18.8v1.3c0,0.2,0.1,0.4,0.2,0.5c0.2,0.2,0.4,0.2,0.6,0.1
			c0.2-0.1,0.4-0.3,0.4-0.6c0-0.5,0-1.1,0-1.6c0-0.1,0-0.2,0.1-0.3L8.2,16c0-0.1,0.1-0.1,0.1-0.2c0.1-0.4-0.1-0.7-0.4-0.9
			c-0.3-0.2-0.8-0.1-1,0.2c0,0,0,0,0,0.1l-0.1,0.1l-1.2,1.9c0,0.1-0.1,0.1-0.1,0.2C5.5,17.9,5.5,18.3,5.5,18.8 M13.4,17.8
			c-0.2,0-0.5,0.2-0.6,0.4l-0.1,0.2c-0.4,0.6-0.8,1.2-1.2,1.9c0,0.1,0,0.1-0.1,0.2c0,0.4,0,0.9,0,1.3s0,0.9,0,1.4
			c0,0.3,0.3,0.6,0.6,0.6c0.1,0,0.1,0,0.2,0c0.3-0.1,0.5-0.4,0.4-0.6v-1.5c0-0.1,0-0.2,0.1-0.2l1.4-2.2c0-0.1,0.1-0.1,0.1-0.2
			c0.1-0.5-0.2-0.9-0.7-1C13.5,17.8,13.4,17.8,13.4,17.8 M24.6,21.8c0-0.4,0-0.9,0-1.3c0-0.1,0-0.2-0.1-0.2
			c-0.1-0.2-0.2-0.4-0.4-0.6l-1-1.5c0-0.1-0.1-0.1-0.1-0.2c-0.3-0.2-0.7-0.2-1,0.1c-0.3,0.2-0.4,0.7-0.2,1l1.4,2.2
			c0,0.1,0.1,0.1,0.1,0.2c0,0.5,0,1.1,0,1.6c0,0.1,0,0.1,0,0.2c0.1,0.3,0.4,0.5,0.7,0.5c0.3-0.1,0.5-0.3,0.5-0.6
			C24.5,22.7,24.5,22.3,24.6,21.8 M33.4,17.3V16c0-0.1,0-0.1,0-0.2c-0.4-0.7-0.9-1.4-1.3-2.1c-0.2-0.3-0.5-0.4-0.8-0.3
			c-0.4,0.1-0.7,0.6-0.6,1c0,0.1,0.1,0.1,0.1,0.2c0.5,0.7,0.9,1.4,1.4,2.2c0,0.1,0.1,0.1,0.1,0.2c0,0.5,0,1.1,0,1.6
			c0,0.2,0.1,0.4,0.3,0.5c0.2,0.1,0.4,0.1,0.6-0.1c0.2-0.1,0.3-0.3,0.3-0.5L33.4,17.3 M2.5,17.3v1.3c0,0.3,0.2,0.6,0.5,0.7
			c0.3,0,0.6-0.2,0.7-0.5c0-0.1,0-0.1,0-0.2c0-0.5,0-1.1,0-1.6c0-0.1,0-0.2,0.1-0.2c0.5-0.7,0.9-1.5,1.4-2.2c0.2-0.2,0.2-0.6,0-0.8
			c-0.2-0.4-0.6-0.5-1-0.4c-0.1,0.1-0.2,0.2-0.3,0.3c-0.4,0.7-0.9,1.4-1.3,2.1c0,0.1,0,0.1,0,0.2C2.5,16.4,2.5,16.8,2.5,17.3
			 M2.2,13l0.1-0.2c0.4-0.8,1.2-1.3,2.1-1.3c1,0,1.9,0.5,2.4,1.4c0,0.1,0.1,0.1,0.2,0.1c0.8-0.2,1.7,0.1,2.3,0.7
			c0.3,0.2,0.5,0.5,0.6,0.8c1.2-0.3,2.5,0.3,3,1.5c1.4-0.3,2.8,0.6,3.1,2c0.1,0.5,0.1,1-0.1,1.4l0,0l1.9,0.9c0.2,0.1,0.3,0.1,0.5,0
			l1.8-0.9c0.1,0,0.1-0.1,0.1-0.2c-0.4-1.4,0.3-2.8,1.7-3.3c0.3-0.1,0.5-0.1,0.8-0.1c0.2,0,0.4,0,0.6,0c0.2-0.6,0.7-1,1.2-1.3
			c0.5-0.3,1.2-0.4,1.8-0.2l0.1-0.1c0.5-1,1.7-1.6,2.8-1.4c0.1,0,0.2,0,0.2-0.1c0.4-0.8,1.3-1.4,2.2-1.4c1-0.1,1.9,0.5,2.3,1.3
			l0.1,0.1c0.3-0.1,0.5-0.3,0.5-0.6V9.9c0-0.3-0.1-0.5-0.4-0.6l-1.3-0.6l-6.7-3.2l-7.2-3.5c-0.4-0.2-0.9-0.2-1.3,0l-4.5,2.2L2.2,9.2
			C1.9,9.3,1.8,9.6,1.8,9.8v2.6C1.8,12.7,1.9,12.9,2.2,13 M34.7,14.5l0.5,0.8c0,0.1,0,0.1,0,0.2c0,1,0,2.1,0,3.1
			c0,1.2-0.8,2.2-2,2.4c-0.3,0.1-0.7,0-1,0h-0.1c-0.2,0.6-0.6,1-1.1,1.3c-0.6,0.3-1.2,0.3-1.8,0.1c-0.4,1.2-1.8,1.9-3,1.5v0.1
			c-0.5,1.2-1.8,1.8-3.1,1.4c-0.8-0.3-1.3-1-1.5-1.8c0-0.3,0-0.7,0-1c0.1-0.4-0.1-0.9-0.3-1.2c-0.1-0.1-0.1-0.1-0.1-0.2l-1,0.5
			l-1.1,0.5c-0.7,0.3-1.4,0.3-2.1,0l-2-1l-0.5,0.7c0,0,0,0.1,0,0.1c0,0.5,0,1,0,1.5c-0.2,1.3-1.4,2.2-2.6,2
			c-0.9-0.1-1.6-0.7-1.9-1.5c0,0,0,0,0-0.1c-1.2,0.4-2.6-0.3-3-1.5c-1.2,0.4-2.6-0.3-3-1.5L3.4,21c-1.3,0.1-2.4-0.7-2.6-2
			c0-0.1,0-0.2,0-0.3c0-1,0-2.1,0-3.2c0-0.1,0-0.2,0.1-0.2c0.1-0.2,0.3-0.5,0.4-0.7c-0.3-0.2-0.6-0.4-0.8-0.7C0.2,13.5,0,13,0,12.4
			c0-0.9,0-1.8,0-2.7c0-0.9,0.5-1.7,1.3-2.1c1.7-0.8,3.4-1.6,5-2.4l5.3-2.5c1.7-0.8,3.4-1.6,5.1-2.4c0.9-0.4,1.9-0.4,2.7,0l10.9,5.3
			c1.5,0.7,2.9,1.4,4.4,2.1C35.5,8.1,36,8.9,36,9.8c0,0.9,0,1.7,0,2.6C36,13.2,35.6,14,34.7,14.5L34.7,14.5L34.7,14.5"/>
		<path d="M22.5,8.5c0.1,0.3-0.1,0.4-0.3,0.6c-1.3,0.7-2.7,1.3-4,2c-0.1,0.1-0.2,0.1-0.3,0L13.7,9c-0.1,0-0.1-0.1-0.1-0.2
			c0-0.2,0-0.3,0-0.5c0-0.1,0-0.1,0.1-0.2l2.8-1.4L17.9,6c0.1,0,0.1,0,0.2,0l4.3,2.1c0.1,0,0.1,0.1,0.1,0.2
			C22.5,8.4,22.5,8.5,22.5,8.5"/>
		<path d="M30.7,9.6l-0.4,0.5c-0.2,0.2-0.4,0.5-0.7,0.7c0,0-0.1,0.1-0.1,0.1l-3.6,1.7l-4.6,2.1h-0.1h-1.6h-0.1l0.5-0.6
			c0.2-0.2,0.4-0.4,0.6-0.6c0,0,0.1-0.1,0.1-0.1c2.6-1.2,5.3-2.4,7.9-3.6c0.4-0.2,0.8-0.2,1.2-0.2C30.1,9.6,30.4,9.6,30.7,9.6"/>
		<path d="M16.5,14.9l-1.6-0.1c-0.1,0-0.1,0-0.2-0.1c-2.6-1.2-5.3-2.5-7.9-3.7c-0.3-0.1-0.5-0.3-0.7-0.5L5.3,9.6h0.2h1.1
			c0.2,0,0.4,0.1,0.6,0.2c0.5,0.2,0.9,0.4,1.4,0.7l6.6,3.1c0.1,0.1,0.2,0.1,0.2,0.2c0.3,0.4,0.6,0.7,1,1L16.5,14.9"/>
	</g>
</g>
</svg>
