<svg xmlns="http://www.w3.org/2000/svg" viewBox="0 0 36.01 25.47"><g id="Capa_2" data-name="Capa 2"><g id="Capa_1-2" data-name="Capa 1"><path d="M10.4,16.31a.65.65,0,0,0-.57.38,2,2,0,0,1-.11.2c-.39.62-.79,1.23-1.18,1.86a.51.51,0,0,0-.07.24v2.53a1.15,1.15,0,0,0,0,.19.61.61,0,0,0,1.2-.15c0-.53,0-1,0-1.57a.6.6,0,0,1,.07-.27c.46-.74.93-1.47,1.4-2.21a.6.6,0,0,0,.09-.22.86.86,0,0,0-.85-1m17.14,4a7.85,7.85,0,0,1,0-.84,1.41,1.41,0,0,0-.31-1.05A3.26,3.26,0,0,1,27,18c-.28-.45-.57-.88-.83-1.34a.7.7,0,0,0-.82-.36.83.83,0,0,0-.48,1.24c.47.69.9,1.41,1.35,2.12a.64.64,0,0,1,.08.3c0,.54,0,1.09,0,1.63a.58.58,0,0,0,.63.57.61.61,0,0,0,.57-.61V20.27m3-1.49c0-.43,0-.86,0-1.29a.5.5,0,0,0-.06-.24l-1.33-2.13a.67.67,0,0,0-.21-.2.76.76,0,0,0-.94.15.77.77,0,0,0-.14.95c.47.74.94,1.47,1.4,2.21a.51.51,0,0,1,.07.24v1.59a.61.61,0,1,0,1.22,0V18.78m-25,0v1.31a.61.61,0,0,0,.21.48.57.57,0,0,0,.64.09.59.59,0,0,0,.37-.56c0-.54,0-1.08,0-1.61a.47.47,0,0,1,.08-.26L8.17,16a.68.68,0,0,0,.1-.21.84.84,0,0,0-.41-.88.7.7,0,0,0-1,.3l-.07.14-1.2,1.89a.43.43,0,0,0-.06.22c0,.43,0,.86,0,1.29m7.88-1a.66.66,0,0,0-.57.39l-.12.2c-.39.63-.79,1.24-1.18,1.87a.41.41,0,0,0-.05.19c0,.43,0,.86,0,1.29s0,.9,0,1.35a.6.6,0,0,0,.77.58.63.63,0,0,0,.44-.64V21.46a.45.45,0,0,1,.07-.23L14.14,19a.89.89,0,0,0,.08-.17.86.86,0,0,0-.85-1m11.19,4c0-.43,0-.86,0-1.29a.4.4,0,0,0-.06-.22c-.12-.21-.25-.4-.38-.61l-1-1.54A.44.44,0,0,0,23,18a.74.74,0,0,0-1,.06.76.76,0,0,0-.17,1l1.41,2.23a.39.39,0,0,1,.06.21c0,.54,0,1.08,0,1.61a.78.78,0,0,0,0,.16.6.6,0,0,0,1.19-.13c0-.44,0-.88,0-1.32m8.94-4.5V16a.48.48,0,0,0,0-.17c-.43-.71-.87-1.42-1.31-2.12a.72.72,0,0,0-.83-.33.83.83,0,0,0-.47,1.23c.48.7.92,1.44,1.37,2.16a.48.48,0,0,1,.07.23c0,.55,0,1.09,0,1.64a.61.61,0,0,0,.35.55.56.56,0,0,0,.61-.07.61.61,0,0,0,.26-.53V17.27m-31,0v1.29a.61.61,0,1,0,1.21,0c0-.53,0-1.06,0-1.6a.51.51,0,0,1,.07-.24c.46-.73.92-1.47,1.39-2.19a.71.71,0,0,0,0-.79.76.76,0,0,0-1.33-.08c-.44.7-.87,1.4-1.3,2.1a.45.45,0,0,0,0,.19c0,.44,0,.88,0,1.32M2.21,13l.1-.17a2.41,2.41,0,0,1,2.13-1.28A2.53,2.53,0,0,1,6.8,13c0,.09.08.11.18.09a2.52,2.52,0,0,1,2.26.68,2.64,2.64,0,0,1,.6.84,2.63,2.63,0,0,1,3,1.49,2.62,2.62,0,0,1,3,3.46l0,0,1.89.91a.57.57,0,0,0,.51,0l1.79-.86c.08,0,.1-.08.07-.16a2.6,2.6,0,0,1,2.47-3.41c.19,0,.39,0,.59.05a2.64,2.64,0,0,1,1.22-1.27,2.48,2.48,0,0,1,1.75-.21l.07-.14A2.58,2.58,0,0,1,29,13.1a.19.19,0,0,0,.24-.12,2.52,2.52,0,0,1,2.2-1.42,2.43,2.43,0,0,1,2.3,1.34l.06.08a.6.6,0,0,0,.45-.6V9.86a.63.63,0,0,0-.4-.62l-1.3-.63L25.87,5.4,18.66,1.94a1.42,1.42,0,0,0-1.3,0L12.85,4.1,2.15,9.25a.61.61,0,0,0-.38.59v2.57a.61.61,0,0,0,.44.6m32.52,1.5.48.77a.37.37,0,0,1,0,.18c0,1,0,2.07,0,3.1a2.37,2.37,0,0,1-2,2.39,2.46,2.46,0,0,1-1-.05l-.11,0A2.37,2.37,0,0,1,31,22.22a2.39,2.39,0,0,1-1.78.15,2.4,2.4,0,0,1-3,1.49l0,.09a2.37,2.37,0,0,1-4.55-.47,4.57,4.57,0,0,1,0-1,1.53,1.53,0,0,0-.34-1.19,1.82,1.82,0,0,1-.15-.23l-1,.47-1.1.53a2.35,2.35,0,0,1-2.1,0l-2-1-.47.73a.33.33,0,0,0,0,.14c0,.49,0,1,0,1.46a2.36,2.36,0,0,1-4.55.52.43.43,0,0,0,0-.07,2.4,2.4,0,0,1-3-1.49,2.42,2.42,0,0,1-3-1.5L3.39,21A2.36,2.36,0,0,1,.78,19a1.62,1.62,0,0,1,0-.31c0-1.05,0-2.11,0-3.16a.51.51,0,0,1,.07-.24c.14-.24.29-.47.44-.71a2.55,2.55,0,0,1-.8-.69A2.34,2.34,0,0,1,0,12.45c0-.89,0-1.77,0-2.66A2.23,2.23,0,0,1,1.3,7.71c1.67-.83,3.36-1.63,5-2.43l5.3-2.55C13.32,1.92,15,1.1,16.69.3a3,3,0,0,1,2.73,0L30.28,5.57c1.47.7,2.94,1.39,4.4,2.12A2.27,2.27,0,0,1,36,9.79c0,.85,0,1.7,0,2.55a2.35,2.35,0,0,1-1.19,2.12l-.06,0,0,0"/><path d="M22.48,8.49c.09.31-.08.44-.34.56-1.34.66-2.67,1.34-4,2a.26.26,0,0,1-.27,0L13.67,9a.19.19,0,0,1-.13-.21,4.17,4.17,0,0,0,0-.5c0-.09,0-.13.11-.17l2.82-1.42,1.43-.72a.2.2,0,0,1,.21,0l4.27,2.14a.15.15,0,0,1,.1.17,2.08,2.08,0,0,0,0,.25"/><path d="M30.67,9.62l-.43.52c-.21.24-.44.47-.66.7a.31.31,0,0,1-.11.09l-3.65,1.69-4.57,2.15-.12,0-1.58,0-.06,0,.51-.59c.18-.21.37-.4.56-.6a.6.6,0,0,1,.13-.09C23.33,12.33,26,11.1,28.6,9.84a3,3,0,0,1,1.21-.22c.27,0,.55,0,.86,0"/><path d="M16.49,14.88l-1.63-.08a.35.35,0,0,1-.16-.06C12.05,13.5,9.41,12.25,6.75,11a2.27,2.27,0,0,1-.66-.52l-.76-.87.24,0,1.14,0a1.51,1.51,0,0,1,.62.17c.46.24.93.44,1.4.66l6.6,3.1a.79.79,0,0,1,.24.21c.32.35.63.7.95,1l0,.06"/></g></g></svg>