<svg xmlns="http://www.w3.org/2000/svg" viewBox="0 0 25.28 24"><g id="Capa_2" data-name="Capa 2"><g id="Capa_1-2" data-name="Capa 1"><path d="M23.67,22.47H1.61V1.53H23.67ZM0,24H25.28V0H0Z"/><path d="M7.17,7.82a13.42,13.42,0,0,1,2.31-.19,3.79,3.79,0,0,1,2.6.78,2.49,2.49,0,0,1,.82,1.94,2.72,2.72,0,0,1-.72,2,3.84,3.84,0,0,1-2.84,1,3.56,3.56,0,0,1-1-.09V17H7.17Zm1.2,4.48a4,4,0,0,0,1,.1c1.46,0,2.34-.71,2.34-2s-.88-1.84-2.2-1.84a5.28,5.28,0,0,0-1.13.1Z"/><path d="M14.47,12.41c0-.79,0-1.46-.05-2.08h1.06l0,1.31h0a2,2,0,0,1,1.86-1.46,1.15,1.15,0,0,1,.33,0v1.14a1.62,1.62,0,0,0-.41,0,1.7,1.7,0,0,0-1.62,1.55,3.36,3.36,0,0,0-.05.57V17H14.47Z"/></g></g></svg>