<svg xmlns="http://www.w3.org/2000/svg" viewBox="0 0 25.28 24"><g id="Capa_2" data-name="Capa 2"><g id="Capa_1-2" data-name="Capa 1"><path d="M23.67,22.47H1.61V1.53H23.67ZM0,24H25.28V0H0Z"/><path d="M6.89,7.82a14.88,14.88,0,0,1,2.44-.19,4.15,4.15,0,0,1,2.74.78,2.43,2.43,0,0,1,.87,1.94,2.65,2.65,0,0,1-.77,2,4.15,4.15,0,0,1-3,1,4.07,4.07,0,0,1-1-.09V17H6.89ZM8.15,12.3a4.56,4.56,0,0,0,1,.1c1.54,0,2.47-.71,2.47-2s-.93-1.84-2.32-1.84a6,6,0,0,0-1.2.1Z"/><path d="M14.4,15.77a3.63,3.63,0,0,0,1.7.47c.93,0,1.37-.43,1.37-1s-.38-.89-1.31-1.22c-1.27-.44-1.87-1.09-1.87-1.89,0-1.08.92-2,2.43-2a3.53,3.53,0,0,1,1.73.41l-.32.88a2.9,2.9,0,0,0-1.44-.39c-.76,0-1.17.41-1.17.91s.41.8,1.34,1.14c1.21.43,1.84,1,1.84,2,0,1.18-1,2-2.63,2a4.16,4.16,0,0,1-2-.47Z"/></g></g></svg>