<svg xmlns="http://www.w3.org/2000/svg" viewBox="0 0 27.5 20.8"><g id="Capa_2" data-name="Capa 2"><g id="Capa_1-2" data-name="Capa 1"><path d="M19.45,15.71c-.08-.07-.07-.27.22-.9a3.28,3.28,0,0,1,.81-1.06,1.34,1.34,0,0,1,.09.46,1.55,1.55,0,0,1-1.12,1.5m-3.67.84c-.12.06-.23.1-.28.07s.05-.1.05-.1.6-.65.84-.94l.46-.61V15a2,2,0,0,1-1.07,1.51M11,14.25c-.27.68-.85,2.42-1.2,2.32s-.48-1.4-.06-2.7a6.31,6.31,0,0,1,.94-1.74c.44-.48.91-.65,1-.45A8.92,8.92,0,0,1,11,14.25m-5.77,4c-.79.88-1.9,1.21-2.38.93s-.31-1.59.66-2.51a12.54,12.54,0,0,1,1.87-1.41l.49-.3,0,0,.13-.07A3.47,3.47,0,0,1,5.24,18.21Zm18.44-6.27a5.66,5.66,0,0,0-2.5.59,6.06,6.06,0,0,1-.56-1.3,3.94,3.94,0,0,1,0-1.1A8.31,8.31,0,0,1,20.9,9s-.06-.29-.61-.29-1,.11-1.08.25a5.62,5.62,0,0,0-.24.83A18.93,18.93,0,0,1,17.29,13a3.56,3.56,0,0,1-.38-1A3.52,3.52,0,0,1,16.86,11a8.46,8.46,0,0,1,.33-1.18s-.06-.29-.61-.3-1,.11-1.09.26-.11.49-.23.83-1.45,3.35-1.8,4.13c-.18.4-.34.72-.45.94s0,0,0,0c-.1.18-.15.29-.15.29h0c-.08.14-.16.27-.2.27a2,2,0,0,1,0-.87c.2-1,.68-2.67.68-2.73s.09-.32-.31-.46a.5.5,0,0,0-.57.09s-.06.09-.06.09.44-1.84-.83-1.84a3.79,3.79,0,0,0-2.43,1.67l-1.85,1-.89.5-.06-.07C4.8,12,2,10.82,2.08,8.59c0-.8.32-2.93,5.46-5.51,4.2-2.12,7.57-1.54,8.16-.25.83,1.85-1.8,5.27-6.17,5.76a3.29,3.29,0,0,1-2.77-.7c-.23-.26-.26-.27-.34-.22s-.06.31,0,.44A2.55,2.55,0,0,0,8,9.36a8.2,8.2,0,0,0,5.12-.51c2.65-1,4.72-3.9,4.11-6.31S12.59-.7,8.79.66A19.06,19.06,0,0,0,2.32,4.4C.22,6.38-.11,8.1,0,8.82.52,11.37,4,13,5.4,14.26l-.19.11c-.7.35-3.36,1.75-4,3.24-.75,1.68.12,2.89.7,3.05a4.29,4.29,0,0,0,4.63-1.89,4.73,4.73,0,0,0,.41-4.31l0,0,.55-.33,1-.57a7.09,7.09,0,0,0-.36,1.84,3.91,3.91,0,0,0,.82,2.68.91.91,0,0,0,.66.21c.6,0,.86-.49,1.16-1.08s.69-1.56.69-1.56-.41,2.26.7,2.26c.4,0,.8-.52,1-.79h0l0-.05.06-.1v0c.16-.28.52-.92,1.06-2,.69-1.38,1.36-3.1,1.36-3.1A9.36,9.36,0,0,0,15.89,13a11.1,11.1,0,0,0,.58,1.3l-.26.35h0c-.13.17-.27.36-.42.54a16.76,16.76,0,0,0-1.29,1.63.45.45,0,0,0,.12.6,1.06,1.06,0,0,0,.68.11,3.19,3.19,0,0,0,1-.23,3.76,3.76,0,0,0,.87-.47A2,2,0,0,0,18,15.07a3.5,3.5,0,0,0-.32-1.22l.15-.22A23.88,23.88,0,0,0,19.34,11a9.36,9.36,0,0,0,.26,1.12,9.45,9.45,0,0,0,.49,1.11,4.85,4.85,0,0,0-1.46,1.92c-.32.92-.07,1.34.39,1.43a1.35,1.35,0,0,0,.74-.15,3.31,3.31,0,0,0,.93-.48,2.1,2.1,0,0,0,1-1.71,3,3,0,0,0-.23-1,5.3,5.3,0,0,1,2.67-.31c2.39.29,2.86,1.79,2.77,2.42a1.62,1.62,0,0,1-.76,1.09c-.16.1-.22.14-.2.21s.1.11.24.09A1.87,1.87,0,0,0,27.5,15C27.56,13.55,26.16,11.93,23.68,11.94Z"/></g></g></svg>