<svg xmlns="http://www.w3.org/2000/svg" xmlns:xlink="http://www.w3.org/1999/xlink" viewBox="0 0 21.64 19.6"><defs><style>.cls-1,.cls-5{fill:none;}.cls-2{fill:#fff;}.cls-3{opacity:0.88;}.cls-4{clip-path:url(#clip-path);}.cls-5{stroke:#000;stroke-linecap:round;stroke-linejoin:round;}</style><clipPath id="clip-path" transform="translate(-2.02 -7)"><rect class="cls-1" width="32.66" height="22.78"/></clipPath></defs><g id="Capa_2" data-name="Capa 2"><g id="Capa_1-2" data-name="Capa 1"><path d="M2,10.27V25H7.1L5.33,26.6h4.95V25h8.27V10.27ZM17.45,23H3.12V12.27H17.45Z" transform="translate(-2.02 -7)"/><polygon points="8.26 17.97 8.26 19.6 13.21 19.6 11.44 17.96 8.26 17.97"/><path class="cls-2" d="M15.05,19.58h1.28m-1.28-1.65h2.56m-2.56-1.64h1.28m-1.28-1.45h2.56m5.63,6.44-4.85-8.69V7.92l.3-.32H14.32v5l-4.9,8.69c-.22.37.4.35.4.35h13s.61,0,.4-.35" transform="translate(-2.02 -7)"/><g class="cls-3"><g class="cls-4"><path class="cls-5" d="M15.08,19.27h1.25m-1.25-1.63h2.5M15.08,16h1.25m-1.25-1.42h2.5m5.54,6.32L18.36,12.4V7.82l.29-.32H14.36v4.9L9.54,20.93c-.2.37.4.35.4.35H22.72S23.33,21.3,23.12,20.93Z" transform="translate(-2.02 -7)"/></g></g></g></g></svg>