<svg xmlns="http://www.w3.org/2000/svg" viewBox="0 0 22.63 20.12"><defs><style>.cls-1{fill:#fff;}</style></defs><g id="Capa_2" data-name="Capa 2"><g id="Capa_1-2" data-name="Capa 1"><path d="M10,2.71H2.63V2H10Zm0,1.2H2.63V3.23H10Zm0,2.44H2.63V5.68H10ZM10,7.5H2.63V6.82H10Zm0,1.14H2.63V8H10Zm0,1.15H2.63V9.11H10Zm0,2.49H2.63v-.67H10Zm0,1.15H2.63v-.68H10Zm0,2.34H2.63v-.68H10ZM10,17H2.63v-.68H10Zm0,1.24H2.63v-.67H10ZM2.63,14H9.08v.67H2.63Zm0-3.59H7V11H2.63Zm0-5.93H8.29V5.1H2.63Zm-1,15.47H11V.06H1.66Z"/><path d="M19.79,2.71H12.41V2h7.38Zm0,1.2H12.41V3.23h7.38Zm0,1.19H12.41V4.43h7.38Zm0,1.25H12.41V5.68h7.38Zm0,2.29H12.41V8h7.38Zm0,1.15H12.41V9.11h7.38Zm0,2.49H12.41v-.67h7.38Zm0,1.15H12.41v-.68h7.38Zm0,2.34H12.41v-.68h7.38Zm0,1.25H12.41v-.68h7.38ZM16.1,18.26H12.41v-.67H16.1ZM12.41,14h6.45v.67H12.41Zm0-3.59h5.43V11H12.41Zm0-3.54h5.43V7.5H12.41Zm-1,13.08h9.29V.06H11.44Z"/><path class="cls-1" d="M13,17.92a11.48,11.48,0,0,0,9.6,1.82,9.48,9.48,0,0,1-7-4.3l-.75.72-.1-.1-.27-.3c-.1-.13-.26-.27-.4-.47l-.33-.45a5.29,5.29,0,0,1-.41-.66,9.37,9.37,0,0,1-1.18-3.44c-.05-.36-.09-.72-.14-1.09,0-.19,0-.39-.08-.59s-.09-.39-.14-.59a8.25,8.25,0,0,0-.35-1.17A9.54,9.54,0,0,0,11,6.16,10.84,10.84,0,0,0,7.91,2.43,11.25,11.25,0,0,0,4.14.48a12,12,0,0,0-3-.48L0,0,.12,1.5l1,0a10.27,10.27,0,0,1,2.59.42A9.66,9.66,0,0,1,7,3.58,9.47,9.47,0,0,1,9.62,6.82a8.5,8.5,0,0,1,.42,1,7.47,7.47,0,0,1,.31,1l.12.51c0,.17,0,.34.07.51,0,.37.09.74.14,1.1a10.82,10.82,0,0,0,1.36,4,7,7,0,0,0,.47.76c.14.18.27.36.39.53s.33.39.46.54l.31.34a.71.71,0,0,0,.11.12Z"/></g></g></svg>