<svg id="Capa_1" data-name="Capa 1" xmlns="http://www.w3.org/2000/svg" viewBox="0 0 347.07 52.33"><path d="M317.61,435c0,2.81,0,5.44,0,8.07,0,.35-.54.84-.93,1a38,38,0,0,1-12.18,2.78,36.26,36.26,0,0,1-11.61-1.06,20.67,20.67,0,0,1-15.31-15c-2.16-7.45-2.35-15,.7-22.25,3.33-7.94,9.37-12.51,18-13.57a23.57,23.57,0,0,1,14.42,2.29c5.17,2.79,7.83,7.47,9.34,12.91a48.66,48.66,0,0,1,1.5,11.34c0,1.06-.29,1.35-1.35,1.35-10.91,0-21.82,0-32.74,0h-1.62a15,15,0,0,0,1.89,8.26,16.71,16.71,0,0,0,16.75,8.53,32.41,32.41,0,0,0,12.58-4.3A6.58,6.58,0,0,1,317.61,435Zm-5.72-19c-.12-1.22-.14-2.33-.35-3.4-2-10.74-12.4-12.78-19-8.89-3.47,2-5.28,5.33-6.27,9.11-.27,1-.39,2.06-.6,3.18Z" transform="translate(-124.16 -394.62)"/><path d="M199.18,394.62c13.45,0,23.11,8.85,24.94,21.25,1.3,8.85-.59,16.81-6.79,23.45a23.67,23.67,0,0,1-16.21,7.5,25,25,0,0,1-26.92-20.67,27.76,27.76,0,0,1,3.39-20c4.07-6.67,10.19-10.24,17.91-11.18C196.72,394.79,198,394.72,199.18,394.62Zm15.75,26.78c0-5-1.11-9.24-3.69-13a14.45,14.45,0,0,0-24.26,0c-3.7,5.4-4.48,11.43-3.11,17.73,1.41,6.48,5.54,12.62,13.63,13.44a14,14,0,0,0,12.35-4.46A20.44,20.44,0,0,0,214.93,421.4Z" transform="translate(-124.16 -394.62)"/><path d="M420.37,422c0-9,2.33-15.66,8-20.94a23.69,23.69,0,0,1,13.76-6.12,27.53,27.53,0,0,1,13.75,1.6,22.77,22.77,0,0,1,13.59,14.28c2.61,7.55,2.45,15.08-1.17,22.28-4.19,8.3-11,12.94-20.36,13.69-8.95.71-16.42-2.29-22-9.35A24.45,24.45,0,0,1,420.37,422Zm41.15-1.08a20.92,20.92,0,0,0-3.62-12.42c-6-8.73-17.91-8.86-24.12-.29-5,6.94-5.18,18-.33,25a14.82,14.82,0,0,0,23.06,1.88C460.19,431.13,461.48,426.22,461.52,420.91Z" transform="translate(-124.16 -394.62)"/><path d="M340.69,403.65a5.93,5.93,0,0,0,.48-.64c2.95-4.87,7.46-7.28,12.94-8.07A20.66,20.66,0,0,1,367,396.88c4.5,2.37,6.84,6.38,7.87,11.16a38,38,0,0,1,.8,7.45c.09,9.58,0,19.16,0,28.74,0,1.55,0,1.55-1.59,1.55-2,0-4.08,0-6.12,0-1,0-1.29-.29-1.29-1.28,0-9,.12-18,0-27.06a32.75,32.75,0,0,0-1.27-8.46c-1.71-5.92-6.63-7.69-11.9-6.91-6.85,1-10.31,5.63-11.83,11.9a37.14,37.14,0,0,0-1,8.14c-.13,7.43-.07,14.85,0,22.27,0,1.12-.32,1.45-1.42,1.41-2.12-.09-4.24-.06-6.35,0-.85,0-1.22-.18-1.22-1.12q0-23.82,0-47.65c0-.79.17-1.17,1.06-1.15,2.19.05,4.39,0,6.59,0,.87,0,1.08.33,1.07,1.13,0,2.19,0,4.38,0,6.56Z" transform="translate(-124.16 -394.62)"/><path d="M170.71,395.89c-1.51,4.22-2.89,8.12-4.29,12-4.36,12.15-8.75,24.29-13.08,36.46-.38,1.06-.83,1.5-2,1.46-2.75-.1-5.52-.06-8.27,0a1.25,1.25,0,0,1-1.42-.94q-8.58-24-17.22-48c-.09-.25-.14-.52-.25-.92,3.13,0,6.16,0,9.18.05.32,0,.77.6.91,1q3.93,11.67,7.79,23.37l5,15.06a3.1,3.1,0,0,0,.71,1.27c.16-.35.35-.7.48-1.07q6.47-19,12.89-38c.42-1.24.91-1.81,2.32-1.7,1.94.14,3.91,0,5.87,0Z" transform="translate(-124.16 -394.62)"/><path d="M268.36,403.75c-2.41-.56-4.59-1.21-6.82-1.56-8.26-1.28-14.88,2.5-17.83,10.32-2.67,7.05-2.26,14,1.9,20.37,3.54,5.44,8.93,7.43,15.24,6.63a65.08,65.08,0,0,0,8-2c.05.57.14,1.42.21,2.27.12,1.39.21,2.78.36,4.17a1.18,1.18,0,0,1-1,1.45,52,52,0,0,1-5.69,1.31c-5.26.63-10.45.31-15.33-2-8.42-3.95-13.12-10.7-14.45-19.77a27.24,27.24,0,0,1,3.71-19.07c4.12-6.54,10.21-10,17.82-10.93a34.47,34.47,0,0,1,13.25,1.18c1,.28,1.45.65,1.28,1.78C268.67,399.83,268.55,401.81,268.36,403.75Z" transform="translate(-124.16 -394.62)"/><path d="M392.41,403.14c-3.46,0-6.69,0-9.92,0-1,0-1.45-.22-1.38-1.32a45.27,45.27,0,0,0,0-4.66c0-1,.26-1.32,1.27-1.31,3.52.06,7,0,10.55,0,6.84,0,13.67,0,20.5,0,1.05,0,1.41.29,1.35,1.35-.08,1.59-.06,3.19,0,4.79,0,.91-.3,1.16-1.18,1.15-3.63,0-7.27,0-10.91,0-1,0-1.32.29-1.31,1.29,0,8.62,0,17.24,0,25.86A13.67,13.67,0,0,0,402,434c1.27,4.45,5.37,6.57,10.25,5.35,1.06-.27,2.09-.71,3.27-1.12,0,2.32,0,4.58,0,6.83a.92.92,0,0,1-.57.65c-5.22,1.54-10.44,1.85-15.52-.49-4.3-2-6.43-5.61-6.68-10.16-.3-5.49-.23-11-.27-16.5,0-4.63,0-9.26,0-13.89Z" transform="translate(-124.16 -394.62)"/></svg>