<svg id="Capa_1" data-name="Capa 1" xmlns="http://www.w3.org/2000/svg" viewBox="0 0 125.28 112.45"><defs><style>.cls-1{fill:#1b52bf;}</style></defs><path class="cls-1" d="M107.28,5.26v10.6a61.84,61.84,0,0,0-9.15-10.6h9.15M11.54,9.59V86.45C-.83,76.79-8,62.93-8,48-8,32.72-.43,19,11.54,9.59m95.74,70.47V91H97.8a62.22,62.22,0,0,0,9.48-10.94M49.64-8.22C15.05-8.22-13,17-13,48c0,20.14,11.8,37.81,29.54,47.74V.26H82.75A67.71,67.71,0,0,0,49.64-8.22ZM112.28.26H82.75c17.73,9.93,29.53,27.6,29.53,47.74,0,20.32-12,38.12-30,48h30V.26ZM16.54,95.74V96H17l-.47-.26ZM82.28,96H17a67.7,67.7,0,0,0,32.63,8.22A67.74,67.74,0,0,0,82.28,96Z" transform="translate(13 8.22)"/><circle class="cls-1" cx="75.64" cy="56.22" r="18.47"/></svg>